<svg width="57" height="56" viewBox="0 0 57 56" fill="none" xmlns="http://www.w3.org/2000/svg">
<g clip-path="url(#clip0_1285_23522)">
<path d="M56.4599 18.4221L51.197 8.05068V3.9375C51.197 3.33353 50.7074 2.84375 50.1032 2.84375H7.05318C6.4492 2.84375 5.95942 3.33353 5.95942 3.9375V8.05122L0.696713 18.4221C0.618947 18.5754 0.578369 18.7451 0.578369 18.917V21.6078C0.578369 24.805 2.9085 27.4668 5.95942 27.9884V50.9687H4.84018C4.2361 50.9687 3.74643 51.4585 3.74643 52.0625C3.74643 52.6664 4.2361 53.1562 4.84018 53.1562H7.04475C7.04749 53.1562 7.05033 53.1567 7.05318 53.1567H36.9783H45.7284H50.1035H52.3164C52.9204 53.1567 53.4102 52.6669 53.4102 52.0629C53.4102 51.4589 52.9204 50.9692 52.3164 50.9692H51.1972V27.9884C54.2482 27.4668 56.5784 24.8051 56.5784 21.6078V18.917C56.5784 18.7451 56.5378 18.5754 56.4599 18.4221ZM8.14693 5.03126H49.0095V7.21909H41.4935H32.8834H24.2735H15.6632H8.14693V5.03126ZM35.0477 18.8065L34.0938 9.4066H40.6833L43.6284 19.0798V21.6078C43.6284 23.9718 41.7051 25.8951 39.3409 25.8951C36.9768 25.8951 35.0533 23.9718 35.0533 21.6078V18.917C35.0533 18.8802 35.0514 18.8433 35.0477 18.8065ZM32.8658 18.9724V21.6078H32.8657C32.8657 23.9718 30.9424 25.8951 28.5785 25.8951C26.2143 25.8951 24.2909 23.9718 24.2909 21.6078V18.9724L25.2619 9.4066H31.8951L32.8658 18.9724ZM23.0632 9.40671L22.109 18.8067C22.1052 18.8433 22.1033 18.8802 22.1033 18.917V21.6078C22.1033 23.9718 20.1801 25.8951 17.8159 25.8951C15.4518 25.8951 13.5285 23.9718 13.5285 21.6078V19.0799L16.4738 9.40671H23.0632ZM2.76588 21.6078V19.1786L7.72474 9.4066H14.187L11.3884 18.5984C11.357 18.7017 11.3409 18.8091 11.3409 18.917V21.6078C11.3409 23.9718 9.41744 25.8951 7.05318 25.8951C4.68914 25.8951 2.76588 23.9718 2.76588 21.6078ZM44.6347 50.9692H38.072V47.6877V43.3127H39.1659C39.77 43.3127 40.2597 42.823 40.2597 42.2189C40.2597 41.6149 39.77 41.1251 39.1659 41.1251H38.072V33.4691H44.6347V50.9692ZM49.0095 50.9692H46.822V32.3753C46.822 31.7714 46.3323 31.2816 45.7282 31.2816H36.9781H11.4283C10.8241 31.2816 10.3345 31.7714 10.3345 32.3753V47.6877C10.3345 48.2918 10.8241 48.7814 11.4283 48.7814H35.8845V50.9692H8.14693V27.9884C9.92909 27.6838 11.4653 26.6499 12.4347 25.2042C13.5975 26.9384 15.5754 28.0826 17.8158 28.0826C20.0563 28.0826 22.034 26.9384 23.197 25.2042C24.36 26.9384 26.3379 28.0826 28.5784 28.0826C30.8186 28.0826 32.7965 26.9385 33.9593 25.2042C35.1223 26.9385 37.1002 28.0826 39.3407 28.0826C41.5811 28.0826 43.5591 26.9384 44.722 25.2042C45.6912 26.6499 47.2274 27.6838 49.0095 27.9884V50.9692ZM23.1896 33.4691H27.0002L24.9204 35.5485C24.4933 35.9755 24.4933 36.6681 24.9203 37.0953C25.1339 37.3089 25.4138 37.4158 25.6938 37.4158C25.9737 37.4158 26.2535 37.3089 26.4671 37.0954L30.0939 33.4691H35.8844V46.5939H12.5221V44.1366L23.1896 33.4691ZM12.5221 41.0429V33.4691H20.0959L12.5221 41.0429ZM54.3909 21.6078C54.3909 23.9718 52.4675 25.8951 50.1035 25.8951C47.7393 25.8951 45.8159 23.9718 45.8159 21.6078V18.917C45.8159 18.8091 45.8 18.7017 45.7685 18.5984L42.9699 9.4066H49.432L54.3909 19.1786V21.6078Z" fill="#6F4EF6"/>
<path d="M23.4536 39.6559C23.7325 39.6559 24.0114 39.5499 24.2248 39.3378L24.243 39.3196C24.6714 38.8938 24.6734 38.2013 24.2476 37.7729C23.8216 37.3444 23.129 37.3424 22.7007 37.7684L22.6825 37.7865C22.254 38.2123 22.2522 38.905 22.6779 39.3333C22.8917 39.5483 23.1726 39.6559 23.4536 39.6559Z" fill="#6F4EF6"/>
<path d="M1.69794 50.9688H1.67212C1.06804 50.9688 0.578369 51.4585 0.578369 52.0625C0.578369 52.6665 1.06804 53.1563 1.67212 53.1563H1.69794C2.30191 53.1563 2.79169 52.6665 2.79169 52.0625C2.79169 51.4585 2.30202 50.9688 1.69794 50.9688Z" fill="#6F4EF6"/>
<path d="M55.4846 50.9688H55.4587C54.8547 50.9688 54.365 51.4585 54.365 52.0625C54.365 52.6665 54.8547 53.1563 55.4587 53.1563H55.4846C56.0886 53.1563 56.5783 52.6665 56.5783 52.0625C56.5783 51.4585 56.0886 50.9688 55.4846 50.9688Z" fill="#6F4EF6"/>
</g>
<defs>
<clipPath id="clip0_1285_23522">
<rect width="56" height="56" fill="white" transform="translate(0.578369)"/>
</clipPath>
</defs>
</svg>
