<svg xmlns="http://www.w3.org/2000/svg" xmlns:xlink="http://www.w3.org/1999/xlink" width='100%' height="100%" fill="none" viewBox="0 0 685 407">
  <rect width="685" height="407" fill="#fff" rx="30.866"/>
  <g clip-path="url(#a)">
    <path fill="#FF010B" d="M107.167 30.632c0 2.093-1.663 3.782-3.706 3.782s-3.714-1.697-3.714-3.782c0-2.086 1.663-3.783 3.714-3.783 2.05 0 3.706 1.697 3.706 3.783Z"/>
    <path fill="#001A66" d="M95.289 37.57c-.608-4.28-2.62-7.59-6.684-9.21-2.415-.968-4.86-1.402-7.314-1.294h-.106c-4.116.147-7.238.698-9.607 1.45-6.122 1.938-7.117 5.015-7.284 6.597l-.121 1.155h-.008v23.054c0 .287.228.527.524.527H72.2a.524.524 0 0 0 .524-.527l-.015-7.566c.152.054.236.155.281.178 4.717 2.008 9.555 2.07 14.4.698 3.987-1.132 6.562-3.845 7.595-7.961.585-2.341.645-4.713.311-7.093m-8.612 5.14c-.395 2.34-1.375 3.464-3.676 3.86-3.175.527-6.35.473-9.478-.442-.654-.186-.844-.52-.82-1.194.052-1.356.014-2.713.014-4.07 0-1.356.03-2.713-.015-4.07-.023-.604.205-1.015.615-1.395 1.11-1.015 2.461-1.473 3.889-1.682 1.952-.295 3.896-.341 5.848.047 1.937.387 3.099 1.58 3.516 3.534.38 1.791.41 3.605.107 5.419"/>
  </g>
  <path fill="#FFC147" d="M634.582 43.351c0-8.394 6.811-15.199 15.205-15.199s15.205 6.805 15.205 15.2c0 8.393-6.811 15.198-15.205 15.198s-15.205-6.805-15.205-15.199Z"/>
  <mask id="b" width="31" height="31" x="634" y="28" maskUnits="userSpaceOnUse" style="mask-type:alpha">
    <path fill="#E1EDFB" d="M634.582 43.351c0-8.394 6.811-15.199 15.205-15.199s15.205 6.805 15.205 15.2c0 8.393-6.811 15.198-15.205 15.198s-15.205-6.805-15.205-15.199Z"/>
  </mask>
  <g mask="url(#b)">
    <path fill="url(#c)" d="M629.802 27.435h42.353V69.77h-42.353z"/>
  </g>
  <rect width="236.069" height="298.013" x="35.407" y="74.832" fill="#F5F6FF" rx="30"/>
  <rect width="199.493" height="255.078" x="53.695" y="94.939" fill="#fff" rx="22"/>
  <rect width="362.708" height="298.013" x="286.885" y="74.832" fill="#F5F6FF" rx="30"/>
  <rect width="326.132" height="122.795" x="305.664" y="91" fill="#fff" rx="22"/>
  <rect width="155.76" height="122.795" x="305.173" y="227.222" fill="#fff" rx="22"/>
  <rect width="155.76" height="122.795" x="464.672" y="228" fill="#fff" rx="22"/>
  <path stroke="#EFF0F7" stroke-linecap="round" stroke-width="10" d="M494.098 324.463a56.146 56.146 0 0 1 34.682-51.882 56.196 56.196 0 0 1 43.002 0 56.172 56.172 0 0 1 30.406 30.392 56.146 56.146 0 0 1 4.276 21.49"/>
  <path stroke="#6F4EF5" stroke-linecap="round" stroke-width="10" d="M483.223 325.229a56.135 56.135 0 0 1 7.804-28.54 56.173 56.173 0 0 1 21.234-20.616 56.2 56.2 0 0 1 28.771-6.965 56.195 56.195 0 0 1 28.32 8.618"/>
  <path fill="#3E395F" d="M539.652 313.333c2.354 1.239 3.531 3.296 3.531 6.171 0 2.453-.842 4.398-2.527 5.835-1.66 1.413-3.952 2.119-6.876 2.119-2.924 0-5.229-.706-6.914-2.119-1.685-1.437-2.527-3.382-2.527-5.835 0-2.875 1.189-4.932 3.568-6.171-1.933-1.115-2.899-2.924-2.899-5.426 0-2.305.78-4.114 2.341-5.427 1.561-1.338 3.705-2.007 6.431-2.007 2.725 0 4.869.669 6.43 2.007 1.561 1.313 2.342 3.122 2.342 5.427 0 2.502-.967 4.311-2.9 5.426Zm-5.872-9.106c-1.487 0-2.652.334-3.494 1.003-.843.645-1.264 1.537-1.264 2.677 0 1.139.421 2.044 1.264 2.713.842.644 2.007.966 3.494.966 1.462 0 2.614-.322 3.456-.966.868-.669 1.301-1.574 1.301-2.713 0-1.14-.433-2.032-1.301-2.677-.842-.669-1.994-1.003-3.456-1.003Zm0 19.365c1.685 0 3.023-.384 4.014-1.152.991-.768 1.487-1.834 1.487-3.197 0-1.338-.496-2.366-1.487-3.085-.991-.743-2.329-1.115-4.014-1.115s-3.036.372-4.052 1.115c-.991.719-1.487 1.747-1.487 3.085 0 1.363.496 2.429 1.487 3.197 1.016.768 2.367 1.152 4.052 1.152Zm27.978-10.259c2.354 1.239 3.531 3.296 3.531 6.171 0 2.453-.842 4.398-2.527 5.835-1.661 1.413-3.953 2.119-6.877 2.119s-5.228-.706-6.913-2.119c-1.685-1.437-2.528-3.382-2.528-5.835 0-2.875 1.19-4.932 3.569-6.171-1.933-1.115-2.9-2.924-2.9-5.426 0-2.305.781-4.114 2.342-5.427 1.561-1.338 3.705-2.007 6.43-2.007 2.726 0 4.87.669 6.431 2.007 1.561 1.313 2.341 3.122 2.341 5.427 0 2.502-.966 4.311-2.899 5.426Zm-5.873-9.106c-1.486 0-2.651.334-3.494 1.003-.842.645-1.263 1.537-1.263 2.677 0 1.139.421 2.044 1.263 2.713.843.644 2.008.966 3.494.966 1.462 0 2.615-.322 3.457-.966.867-.669 1.301-1.574 1.301-2.713 0-1.14-.434-2.032-1.301-2.677-.842-.669-1.995-1.003-3.457-1.003Zm0 19.365c1.685 0 3.023-.384 4.015-1.152.991-.768 1.486-1.834 1.486-3.197 0-1.338-.495-2.366-1.486-3.085-.992-.743-2.33-1.115-4.015-1.115-1.685 0-3.035.372-4.051 1.115-.991.719-1.487 1.747-1.487 3.085 0 1.363.496 2.429 1.487 3.197 1.016.768 2.366 1.152 4.051 1.152Zm-17.749 33.522c-1.215 0-2.293-.26-3.234-.781a5.818 5.818 0 0 1-2.156-2.23c-.52-.941-.781-1.982-.781-3.122 0-1.165.261-2.218.781-3.159a5.554 5.554 0 0 1 2.156-2.193c.941-.546 2.019-.818 3.234-.818 1.214 0 2.279.272 3.196.818a5.484 5.484 0 0 1 2.193 2.193c.521.941.781 1.994.781 3.159 0 1.14-.26 2.181-.781 3.122a5.738 5.738 0 0 1-2.193 2.23c-.917.521-1.982.781-3.196.781Zm.074 12.861h-2.49l15.834-24.792h2.527l-15.871 24.792Zm-.074-15.351c.966 0 1.759-.335 2.378-1.004.62-.669.93-1.549.93-2.639 0-1.115-.31-2.007-.93-2.676-.619-.694-1.412-1.041-2.378-1.041-.942 0-1.723.347-2.342 1.041-.62.694-.929 1.586-.929 2.676 0 1.065.309 1.945.929 2.639.619.669 1.4 1.004 2.342 1.004Zm13.343 15.797c-1.214 0-2.292-.261-3.233-.781a5.818 5.818 0 0 1-2.156-2.23c-.521-.942-.781-1.982-.781-3.122 0-1.165.26-2.218.781-3.16a5.567 5.567 0 0 1 2.156-2.193c.941-.545 2.019-.817 3.233-.817 1.215 0 2.28.272 3.197.817a5.497 5.497 0 0 1 2.193 2.193c.52.942.781 1.995.781 3.16 0 1.14-.261 2.18-.781 3.122a5.738 5.738 0 0 1-2.193 2.23c-.917.52-1.982.781-3.197.781Zm0-2.491c.967 0 1.76-.334 2.379-1.003.62-.669.93-1.549.93-2.639 0-1.115-.31-2.007-.93-2.677-.619-.693-1.412-1.04-2.379-1.04-.966 0-1.759.347-2.378 1.04-.62.67-.93 1.562-.93 2.677 0 1.09.298 1.97.892 2.639.62.669 1.425 1.003 2.416 1.003Z"/>
  <path stroke="#EFF0F7" stroke-width="8" d="M215.538 186.506a62.058 62.058 0 0 1-18.187 43.888 62.115 62.115 0 0 1-87.818 0 62.066 62.066 0 0 1-18.186-43.888 62.066 62.066 0 0 1 38.332-57.344 62.127 62.127 0 0 1 47.527 0 62.115 62.115 0 0 1 20.145 13.455 62.058 62.058 0 0 1 18.187 43.889Z"/>
  <path stroke="#6F4EF5" stroke-linecap="round" stroke-width="8" d="M123.649 132.048a62.112 62.112 0 0 1 66.139 4.133 62.065 62.065 0 0 1 21.258 27.147 62.042 62.042 0 0 1-11.872 65.165 62.098 62.098 0 0 1-29.468 17.914 62.124 62.124 0 0 1-34.486-.566 62.099 62.099 0 0 1-28.864-18.872"/>
  <path stroke="#EFF0F7" stroke-width="8" d="M200.033 186.506a46.572 46.572 0 0 1-28.761 43.024 46.598 46.598 0 0 1-35.66 0 46.585 46.585 0 0 1-25.214-25.203 46.558 46.558 0 0 1 25.214-60.845 46.602 46.602 0 0 1 35.66 0 46.585 46.585 0 0 1 25.214 25.203 46.54 46.54 0 0 1 3.547 17.821Z"/>
  <path stroke="#A286FA" stroke-linecap="round" stroke-width="8" d="M141.032 141.619a46.609 46.609 0 0 1 40.416 7.67 46.562 46.562 0 0 1 14.032 57.295 46.595 46.595 0 0 1-53.414 25.082"/>
  <path stroke="#EFF0F7" stroke-width="8" d="M183.414 186.505a29.95 29.95 0 0 1-18.501 27.676 29.993 29.993 0 0 1-22.94 0 29.95 29.95 0 0 1 0-55.352 29.997 29.997 0 0 1 22.94 0 29.961 29.961 0 0 1 18.501 27.676Z"/>
  <path stroke="#EDEAFD" stroke-linecap="round" stroke-width="8" d="M176.899 167.857a29.96 29.96 0 0 1 6.322 22.039 29.956 29.956 0 0 1-11.12 20.052"/>
  <path fill="#7A7D9C" d="M101.956 288.115a.571.571 0 0 1-.42-.154.641.641 0 0 1-.154-.448v-8.372h-3.15a.531.531 0 0 1-.392-.14.494.494 0 0 1-.14-.364c0-.159.047-.28.14-.364.093-.084.224-.126.392-.126h7.462c.168 0 .299.042.392.126.094.084.14.205.14.364a.51.51 0 0 1-.14.378c-.093.084-.224.126-.392.126h-3.15v8.372a.637.637 0 0 1-.154.448c-.093.102-.238.154-.434.154Zm7.034.028c-.663 0-1.237-.145-1.722-.434a2.979 2.979 0 0 1-1.134-1.218c-.262-.532-.392-1.158-.392-1.876 0-.542.074-1.027.224-1.456.149-.439.368-.812.658-1.12.289-.308.63-.542 1.022-.7a3.447 3.447 0 0 1 1.344-.252c.662 0 1.236.144 1.722.434.485.289.858.7 1.12 1.232.27.522.406 1.143.406 1.862a4.43 4.43 0 0 1-.224 1.456c-.15.429-.369.802-.658 1.12-.29.308-.635.546-1.036.714a3.534 3.534 0 0 1-1.33.238Zm0-.91c.42 0 .788-.103 1.106-.308.317-.206.56-.504.728-.896.177-.392.266-.864.266-1.414 0-.85-.192-1.498-.574-1.946-.374-.448-.882-.672-1.526-.672-.43 0-.803.102-1.12.308-.308.196-.551.49-.728.882-.168.382-.252.858-.252 1.428 0 .84.191 1.488.574 1.946.382.448.891.672 1.526.672Zm7.613.91c-.532 0-.98-.094-1.344-.28a1.874 1.874 0 0 1-.798-.84c-.178-.374-.266-.826-.266-1.358v-3.57h-.938c-.159 0-.28-.038-.364-.112a.454.454 0 0 1-.126-.336c0-.14.042-.248.126-.322.084-.075.205-.112.364-.112h.938v-1.61c0-.187.051-.327.154-.42a.564.564 0 0 1 .42-.154c.177 0 .312.051.406.154.102.093.154.233.154.42v1.61h1.764c.158 0 .28.037.364.112.084.074.126.182.126.322s-.042.252-.126.336c-.084.074-.206.112-.364.112h-1.764v3.458c0 .532.112.938.336 1.218.224.27.588.406 1.092.406.177 0 .326-.019.448-.056.13-.038.238-.056.322-.056a.226.226 0 0 1 .21.084c.056.065.084.177.084.336a.69.69 0 0 1-.07.308.343.343 0 0 1-.21.196c-.112.037-.262.07-.448.098a2.423 2.423 0 0 1-.49.056Zm4.306 0c-.467 0-.887-.089-1.26-.266a2.29 2.29 0 0 1-.868-.756 1.855 1.855 0 0 1-.322-1.064c0-.504.126-.901.378-1.19.261-.29.686-.495 1.274-.616.597-.122 1.409-.182 2.436-.182h.63v.742h-.616c-.756 0-1.353.037-1.792.112-.429.065-.733.182-.91.35-.168.168-.252.406-.252.714 0 .382.131.695.392.938.271.242.635.364 1.092.364a1.815 1.815 0 0 0 1.652-.994c.168-.308.252-.663.252-1.064v-1.596c0-.579-.117-.994-.35-1.246-.233-.262-.616-.392-1.148-.392-.327 0-.653.042-.98.126a5.012 5.012 0 0 0-1.036.406c-.131.065-.243.088-.336.07a.43.43 0 0 1-.224-.154.494.494 0 0 1-.098-.252.536.536 0 0 1 .056-.294.59.59 0 0 1 .252-.224 5.487 5.487 0 0 1 1.218-.448 5.03 5.03 0 0 1 1.148-.14c.588 0 1.073.098 1.456.294.383.186.667.476.854.868.187.382.28.877.28 1.484v3.794c0 .186-.047.331-.14.434-.084.102-.21.154-.378.154-.177 0-.313-.052-.406-.154-.093-.103-.14-.248-.14-.434v-1.092h.126a2.02 2.02 0 0 1-.434.91 2.093 2.093 0 0 1-.77.588c-.308.14-.653.21-1.036.21Zm7.354 0c-.672 0-1.185-.206-1.54-.616-.355-.411-.532-.999-.532-1.764v-7.14c0-.187.047-.327.14-.42.093-.103.233-.154.42-.154.177 0 .317.051.42.154.103.093.154.233.154.42v7.056c0 .504.098.882.294 1.134.205.242.504.364.896.364.084 0 .159-.005.224-.014.065-.01.131-.014.196-.014.103-.01.173.014.21.07.047.056.07.168.07.336s-.037.294-.112.378c-.075.084-.196.14-.364.168l-.238.028a2.24 2.24 0 0 1-.238.014Z"/>
  <ellipse cx="84.323" cy="279.165" fill="#FF5F85" rx="7.397" ry="7.394"/>
  <path fill="#7A7D9C" d="M187.339 287.098c-.187 0-.331-.051-.434-.154a.679.679 0 0 1-.14-.448v-8.778c0-.196.051-.341.154-.434.103-.103.247-.154.434-.154h3.318c1.055 0 1.867.261 2.436.784.569.513.854 1.241.854 2.184 0 .933-.285 1.661-.854 2.184-.569.523-1.381.784-2.436.784h-2.758v3.43a.679.679 0 0 1-.14.448c-.093.103-.238.154-.434.154Zm.574-4.998h2.618c.756 0 1.325-.168 1.708-.504.392-.345.588-.845.588-1.498 0-.663-.196-1.162-.588-1.498-.383-.345-.952-.518-1.708-.518h-2.618v4.018Zm7.995 4.998c-.187 0-.332-.051-.434-.154-.094-.103-.14-.247-.14-.434v-5.838c0-.187.046-.327.14-.42.093-.103.228-.154.406-.154.177 0 .312.051.406.154.102.093.154.233.154.42v1.134h-.14c.149-.551.434-.975.854-1.274.42-.299.938-.457 1.554-.476a.44.44 0 0 1 .336.098c.084.065.13.182.14.35a.498.498 0 0 1-.112.378c-.084.093-.215.149-.392.168l-.224.028c-.635.056-1.125.261-1.47.616-.336.345-.504.821-.504 1.428v3.388c0 .187-.052.331-.154.434-.094.103-.234.154-.42.154Zm7.189.028c-.663 0-1.237-.145-1.722-.434a2.98 2.98 0 0 1-1.134-1.218c-.261-.532-.392-1.157-.392-1.876 0-.541.075-1.027.224-1.456a3.04 3.04 0 0 1 .658-1.12c.289-.308.63-.541 1.022-.7a3.447 3.447 0 0 1 1.344-.252c.663 0 1.237.145 1.722.434.485.289.859.7 1.12 1.232.271.523.406 1.143.406 1.862 0 .541-.075 1.027-.224 1.456a3.202 3.202 0 0 1-.658 1.12 2.984 2.984 0 0 1-1.036.714 3.511 3.511 0 0 1-1.33.238Zm0-.91c.42 0 .789-.103 1.106-.308.317-.205.56-.504.728-.896.177-.392.266-.863.266-1.414 0-.849-.191-1.498-.574-1.946-.373-.448-.882-.672-1.526-.672-.429 0-.803.103-1.12.308-.308.196-.551.49-.728.882-.168.383-.252.859-.252 1.428 0 .84.191 1.489.574 1.946.383.448.891.672 1.526.672Zm7.541.91c-.606 0-1.138-.145-1.596-.434a2.917 2.917 0 0 1-1.05-1.218c-.242-.532-.364-1.157-.364-1.876 0-.728.122-1.353.364-1.876.252-.532.602-.938 1.05-1.218.458-.289.99-.434 1.596-.434.616 0 1.144.154 1.582.462.439.308.733.723.882 1.246h-.154v-4.172c0-.187.047-.327.14-.42.103-.103.248-.154.434-.154.178 0 .313.051.406.154.103.093.154.233.154.42v8.904c0 .187-.046.331-.14.434-.093.103-.233.154-.42.154a.567.567 0 0 1-.42-.154c-.093-.103-.14-.247-.14-.434v-1.33l.154.196a2.265 2.265 0 0 1-.896 1.274c-.438.317-.966.476-1.582.476Zm.238-.91c.42 0 .789-.103 1.106-.308.318-.205.56-.504.728-.896.178-.392.266-.863.266-1.414 0-.849-.191-1.498-.574-1.946-.373-.448-.882-.672-1.526-.672a2.02 2.02 0 0 0-1.12.308c-.308.196-.55.49-.728.882-.168.383-.252.859-.252 1.428 0 .84.192 1.489.574 1.946.383.448.892.672 1.526.672Zm7.742.91c-.55 0-1.008-.098-1.372-.294a1.99 1.99 0 0 1-.812-.91c-.177-.401-.266-.901-.266-1.498v-3.752c0-.196.047-.341.14-.434a.604.604 0 0 1 .42-.14c.187 0 .327.047.42.14.103.093.154.238.154.434v3.738c0 .597.122 1.045.364 1.344.252.289.644.434 1.176.434.579 0 1.05-.196 1.414-.588.364-.392.546-.905.546-1.54v-3.388c0-.196.047-.341.14-.434.103-.093.248-.14.434-.14.178 0 .313.047.406.14.103.093.154.238.154.434v5.838c0 .392-.182.588-.546.588a.567.567 0 0 1-.42-.154c-.093-.103-.14-.247-.14-.434v-1.274l.182.196c-.186.551-.494.971-.924 1.26-.42.289-.91.434-1.47.434Zm8.324 0c-.681 0-1.269-.149-1.764-.448a3.026 3.026 0 0 1-1.148-1.246c-.261-.541-.392-1.167-.392-1.876 0-.541.075-1.027.224-1.456a2.93 2.93 0 0 1 1.694-1.792 3.816 3.816 0 0 1 1.386-.238c.336 0 .686.051 1.05.154.364.103.695.28.994.532a.448.448 0 0 1 .182.518.569.569 0 0 1-.14.224.43.43 0 0 1-.546 0 2.29 2.29 0 0 0-.742-.392 2.55 2.55 0 0 0-.728-.112c-.364 0-.681.061-.952.182a1.81 1.81 0 0 0-.686.49 2.264 2.264 0 0 0-.434.798c-.093.317-.14.686-.14 1.106 0 .812.191 1.456.574 1.932.383.467.929.7 1.638.7a2.445 2.445 0 0 0 1.47-.504.43.43 0 0 1 .294-.098.38.38 0 0 1 .238.112.389.389 0 0 1 .126.224.477.477 0 0 1 0 .28.455.455 0 0 1-.182.224c-.299.243-.625.42-.98.532-.355.103-.7.154-1.036.154Zm6.327 0c-.532 0-.98-.093-1.344-.28a1.874 1.874 0 0 1-.798-.84c-.178-.373-.266-.826-.266-1.358v-3.57h-.938c-.159 0-.28-.037-.364-.112a.454.454 0 0 1-.126-.336c0-.14.042-.247.126-.322.084-.075.205-.112.364-.112h.938v-1.61c0-.187.051-.327.154-.42a.564.564 0 0 1 .42-.154c.177 0 .312.051.406.154.102.093.154.233.154.42v1.61h1.764c.158 0 .28.037.364.112.084.075.126.182.126.322s-.042.252-.126.336c-.084.075-.206.112-.364.112h-1.764v3.458c0 .532.112.938.336 1.218.224.271.588.406 1.092.406.177 0 .326-.019.448-.056.13-.037.238-.056.322-.056a.23.23 0 0 1 .21.084c.056.065.084.177.084.336a.687.687 0 0 1-.07.308.34.34 0 0 1-.21.196c-.112.037-.262.07-.448.098a2.423 2.423 0 0 1-.49.056Zm4.924 0c-.663 0-1.237-.145-1.722-.434a2.966 2.966 0 0 1-1.134-1.218c-.262-.532-.392-1.157-.392-1.876 0-.541.074-1.027.224-1.456.149-.439.368-.812.658-1.12.289-.308.63-.541 1.022-.7a3.447 3.447 0 0 1 1.344-.252c.662 0 1.236.145 1.722.434.485.289.858.7 1.12 1.232.27.523.406 1.143.406 1.862 0 .541-.075 1.027-.224 1.456-.15.429-.369.803-.658 1.12-.29.308-.635.546-1.036.714a3.515 3.515 0 0 1-1.33.238Zm0-.91c.42 0 .788-.103 1.106-.308.317-.205.56-.504.728-.896.177-.392.266-.863.266-1.414 0-.849-.192-1.498-.574-1.946-.374-.448-.882-.672-1.526-.672-.43 0-.803.103-1.12.308-.308.196-.551.49-.728.882-.168.383-.252.859-.252 1.428 0 .84.191 1.489.574 1.946.382.448.891.672 1.526.672Z"/>
  <ellipse cx="172.128" cy="281.395" fill="#6F4EF5" rx="7.397" ry="7.394"/>
  <path fill="#7A7D9C" d="M99.59 319.487c-.205 0-.364-.051-.476-.154-.103-.112-.154-.27-.154-.476v-8.61c0-.205.052-.359.154-.462.112-.112.27-.168.476-.168h3.318c.682 0 1.256.103 1.722.308.476.196.84.486 1.092.868.252.383.378.85.378 1.4 0 .616-.182 1.13-.546 1.54-.354.411-.84.682-1.456.812v-.196c.7.084 1.246.336 1.638.756.402.42.602.976.602 1.666 0 .878-.284 1.55-.854 2.016-.569.467-1.372.7-2.408.7H99.59Zm.49-.924h2.884c.747 0 1.307-.149 1.68-.448.374-.298.56-.751.56-1.358 0-.616-.186-1.068-.56-1.358-.373-.298-.933-.448-1.68-.448h-2.884v3.612Zm0-4.536h2.66c.728 0 1.279-.149 1.652-.448.383-.298.574-.728.574-1.288 0-.578-.191-1.012-.574-1.302-.373-.298-.924-.448-1.652-.448h-2.66v3.486Zm10.329 5.586c-.467 0-.887-.088-1.26-.266a2.274 2.274 0 0 1-.868-.756 1.853 1.853 0 0 1-.322-1.064c0-.504.126-.9.378-1.19.261-.289.686-.494 1.274-.616.597-.121 1.409-.182 2.436-.182h.63v.742h-.616c-.756 0-1.353.038-1.792.112-.429.066-.733.182-.91.35-.168.168-.252.406-.252.714 0 .383.131.696.392.938.271.243.635.364 1.092.364.373 0 .7-.088.98-.266a1.81 1.81 0 0 0 .672-.728c.168-.308.252-.662.252-1.064v-1.596c0-.578-.117-.994-.35-1.246-.233-.261-.616-.392-1.148-.392-.327 0-.653.042-.98.126a5.07 5.07 0 0 0-1.036.406c-.131.066-.243.089-.336.07a.424.424 0 0 1-.224-.154.487.487 0 0 1-.098-.252.539.539 0 0 1 .056-.294.596.596 0 0 1 .252-.224 5.588 5.588 0 0 1 1.218-.448c.401-.093.784-.14 1.148-.14.588 0 1.073.098 1.456.294.383.187.667.476.854.868.187.383.28.878.28 1.484v3.794c0 .187-.047.332-.14.434-.084.103-.21.154-.378.154-.177 0-.313-.051-.406-.154-.093-.102-.14-.247-.14-.434v-1.092h.126a2.016 2.016 0 0 1-.434.91 2.093 2.093 0 0 1-.77.588c-.308.14-.653.21-1.036.21Zm7.354 0c-.672 0-1.185-.205-1.54-.616-.355-.41-.532-.998-.532-1.764v-7.14c0-.186.047-.326.14-.42.093-.102.233-.154.42-.154.177 0 .317.052.42.154.103.094.154.234.154.42v7.056c0 .504.098.882.294 1.134.205.243.504.364.896.364a1.5 1.5 0 0 0 .224-.014c.065-.009.131-.014.196-.014.103-.009.173.014.21.07.047.056.07.168.07.336s-.037.294-.112.378c-.075.084-.196.14-.364.168-.075.01-.154.019-.238.028-.084.01-.163.014-.238.014Zm4.213 0c-.467 0-.887-.088-1.26-.266a2.266 2.266 0 0 1-.868-.756 1.853 1.853 0 0 1-.322-1.064c0-.504.126-.9.378-1.19.261-.289.686-.494 1.274-.616.597-.121 1.409-.182 2.436-.182h.63v.742h-.616c-.756 0-1.354.038-1.792.112-.43.066-.733.182-.91.35-.168.168-.252.406-.252.714 0 .383.13.696.392.938.27.243.634.364 1.092.364.373 0 .7-.088.98-.266a1.81 1.81 0 0 0 .672-.728c.168-.308.252-.662.252-1.064v-1.596c0-.578-.117-.994-.35-1.246-.234-.261-.616-.392-1.148-.392-.327 0-.654.042-.98.126a5.07 5.07 0 0 0-1.036.406c-.131.066-.243.089-.336.07a.42.42 0 0 1-.224-.154.487.487 0 0 1-.098-.252.53.53 0 0 1 .056-.294.596.596 0 0 1 .252-.224 5.55 5.55 0 0 1 1.218-.448c.401-.093.784-.14 1.148-.14.588 0 1.073.098 1.456.294a1.8 1.8 0 0 1 .854.868c.186.383.28.878.28 1.484v3.794c0 .187-.047.332-.14.434-.084.103-.21.154-.378.154-.178 0-.313-.051-.406-.154-.094-.102-.14-.247-.14-.434v-1.092h.126c-.075.355-.22.658-.434.91a2.101 2.101 0 0 1-.77.588c-.308.14-.654.21-1.036.21Zm5.841-.028c-.186 0-.326-.051-.42-.154-.093-.102-.14-.247-.14-.434v-5.838c0-.186.047-.326.14-.42.094-.102.229-.154.406-.154.178 0 .313.052.406.154.103.094.154.234.154.42v1.204l-.154-.168c.196-.541.514-.947.952-1.218.448-.28.962-.42 1.54-.42.542 0 .99.098 1.344.294.364.196.635.495.812.896.178.392.266.892.266 1.498v3.752c0 .187-.051.332-.154.434-.093.103-.228.154-.406.154-.186 0-.331-.051-.434-.154-.093-.102-.14-.247-.14-.434v-3.682c0-.634-.126-1.096-.378-1.386-.242-.298-.634-.448-1.176-.448-.625 0-1.124.196-1.498.588-.364.383-.546.896-.546 1.54v3.388c0 .392-.191.588-.574.588Zm10.281.028c-.681 0-1.269-.149-1.764-.448a3.027 3.027 0 0 1-1.148-1.246c-.261-.541-.392-1.166-.392-1.876 0-.541.075-1.026.224-1.456a2.944 2.944 0 0 1 1.694-1.792 3.837 3.837 0 0 1 1.386-.238c.336 0 .686.052 1.05.154.364.103.696.28.994.532a.447.447 0 0 1 .182.518.558.558 0 0 1-.14.224.433.433 0 0 1-.252.098c-.093.01-.191-.023-.294-.098a2.3 2.3 0 0 0-.742-.392 2.58 2.58 0 0 0-.728-.112c-.364 0-.681.061-.952.182a1.83 1.83 0 0 0-.686.49 2.28 2.28 0 0 0-.434.798c-.093.318-.14.686-.14 1.106 0 .812.192 1.456.574 1.932.383.467.929.7 1.638.7.234 0 .472-.037.714-.112.252-.074.504-.205.756-.392a.435.435 0 0 1 .294-.098c.094.01.173.047.238.112a.378.378 0 0 1 .126.224.477.477 0 0 1 0 .28.45.45 0 0 1-.182.224c-.298.243-.625.42-.98.532-.354.103-.7.154-1.036.154Zm6.526 0c-.719 0-1.339-.14-1.862-.42a3.08 3.08 0 0 1-1.204-1.218c-.28-.522-.42-1.148-.42-1.876 0-.709.14-1.325.42-1.848.28-.532.663-.947 1.148-1.246.495-.298 1.064-.448 1.708-.448.457 0 .868.08 1.232.238.364.15.672.369.924.658.261.29.457.64.588 1.05.14.411.21.873.21 1.386 0 .15-.042.262-.126.336-.084.066-.205.098-.364.098h-4.872v-.742h4.606l-.224.182c0-.504-.075-.928-.224-1.274a1.74 1.74 0 0 0-.658-.812c-.28-.186-.635-.28-1.064-.28-.476 0-.882.112-1.218.336a1.998 1.998 0 0 0-.742.91c-.168.383-.252.831-.252 1.344v.084c0 .859.205 1.512.616 1.96.42.448 1.013.672 1.778.672.317 0 .63-.042.938-.126.317-.084.625-.224.924-.42.131-.084.247-.121.35-.112a.36.36 0 0 1 .266.098.389.389 0 0 1 .126.224.375.375 0 0 1-.028.28.531.531 0 0 1-.238.266 3.474 3.474 0 0 1-1.092.518c-.42.122-.835.182-1.246.182Z"/>
  <ellipse cx="84.323" cy="310.636" fill="#FF010B" rx="7.397" ry="7.394"/>
  <ellipse cx="84.323" cy="310.636" fill="#000" fill-opacity=".2" rx="7.397" ry="7.394"/>
  <rect width="68.702" height="9.028" x="319.962" y="240.77" fill="#DBF9EF" rx="4.514"/>
  <rect width="34.717" height="9.028" x="482.108" y="241.548" fill="#DBF9EF" rx="4.514"/>
  <rect width="35.642" height="9.028" x="319.843" y="105.165" fill="#DBF9EF" rx="4.514"/>
  <path stroke="#EFF0F7" d="M327.709 127.324h281.059m-281.059 22.519h281.059m-281.059 22.519h281.059m-281.059 22.519h281.059"/>
  <rect width="6.021" height="28.394" x="341.526" y="167.121" fill="#6F4EF5" rx="3.011"/>
  <rect width="6.021" height="33.998" x="477.008" y="161.517" fill="#6F4EF5" rx="3.011"/>
  <rect width="6.021" height="56.615" x="408.777" y="138.999" fill="#EDEAFD" rx="3.011"/>
  <rect width="6.021" height="51.39" x="544.259" y="144.225" fill="#EDEAFD" rx="3.011"/>
  <rect width="6.021" height="18.785" x="386.688" y="176.73" fill="#6F4EF5" rx="3.011"/>
  <rect width="6.021" height="22.492" x="521.679" y="173.123" fill="#6F4EF5" rx="3.011"/>
  <rect width="6.021" height="47.546" x="453.938" y="148.069" fill="#EDEAFD" rx="3.011"/>
  <rect width="6.021" height="49.32" x="363.616" y="146.295" fill="#EDEAFD" rx="3.011"/>
  <rect width="6.021" height="59.054" x="499.099" y="136.561" fill="#EDEAFD" rx="3.011"/>
  <rect width="6.021" height="31.908" x="431.848" y="163.606" fill="#6F4EF5" rx="3.011"/>
  <rect width="6.021" height="38.207" x="566.839" y="157.408" fill="#6F4EF5" rx="3.011"/>
  <rect width="40.172" height="6.019" x="356.089" y="272.217" fill="#6F4EF5" rx="3.009"/>
  <rect width="68.417" height="6.019" x="356.089" y="283.962" fill="#EFF0F7" rx="3.009"/>
  <path fill="#FFC9D6" d="M320.044 281.099c0-7.434 6.032-13.46 13.465-13.46 7.434 0 13.466 6.026 13.466 13.46 0 7.433-6.032 13.459-13.466 13.459-7.433 0-13.465-6.026-13.465-13.459Z"/>
  <mask id="d" width="27" height="28" x="320" y="267" maskUnits="userSpaceOnUse" style="mask-type:alpha">
    <path fill="#E1EDFB" d="M320.044 281.099c0-7.434 6.032-13.46 13.465-13.46 7.434 0 13.466 6.026 13.466 13.46 0 7.433-6.032 13.459-13.466 13.459-7.433 0-13.465-6.026-13.465-13.459Z"/>
  </mask>
  <g mask="url(#d)">
    <path fill="url(#e)" d="M317.539 269.204h34.134v34.119h-34.134z"/>
  </g>
  <rect width="84.304" height="6.019" x="356.09" y="308.33" fill="#A286FA" rx="3.009"/>
  <rect width="49.352" height="6.019" x="356.09" y="320.075" fill="#EFF0F7" rx="3.009"/>
  <ellipse cx="333.51" cy="317.212" fill="#CEC2FF" rx="13.548" ry="13.543"/>
  <path fill="#CEC2FF" d="M320.127 317.131c0-7.433 6.033-13.458 13.465-13.458 7.433 0 13.466 6.025 13.466 13.458 0 7.432-6.033 13.458-13.466 13.458-7.432 0-13.465-6.026-13.465-13.458Z"/>
  <mask id="f" width="28" height="28" x="320" y="303" maskUnits="userSpaceOnUse" style="mask-type:alpha">
    <path fill="#E1EDFB" d="M320.127 317.129c0-7.434 6.032-13.46 13.465-13.46 7.434 0 13.466 6.026 13.466 13.46 0 7.434-6.032 13.46-13.466 13.46-7.433 0-13.465-6.026-13.465-13.46Z"/>
  </mask>
  <g mask="url(#f)">
    <path fill="url(#g)" d="M313.237 306.173h41.962v41.945h-41.962z"/>
  </g>
  <defs>
    <pattern id="c" width="1" height="1" patternContentUnits="objectBoundingBox">
      <use xlink:href="#h" transform="matrix(.00073 0 0 .00075 -1.034 -.105)"/>
    </pattern>
    <pattern id="e" width="1" height="1" patternContentUnits="objectBoundingBox">
      <use xlink:href="#i" transform="matrix(.00036 0 0 .00037 -.272 0)"/>
    </pattern>
    <pattern id="g" width="1" height="1" patternContentUnits="objectBoundingBox">
      <use xlink:href="#j" transform="translate(-.811) scale(.00044)"/>
    </pattern>
    <clipPath id="a">
      <path fill="#fff" d="M0 0h43.002v33H0z" transform="translate(64.165 26.849)"/>
    </clipPath>
  </defs>
</svg>
