<svg xmlns="http://www.w3.org/2000/svg" width='100%' height='100%' fill="none" viewBox="0 0 207 237">
  <rect width="206.39" height="236.754" fill="#fff" rx="28.526"/>
  <rect width="115.793" height="7.524" x="71.027" y="78.666" fill="#EFF0F7" rx="3.762"/>
  <rect width="92.983" height="7.524" x="71.027" y="78.666" fill="#E0F4FD" rx="3.762"/>
  <rect width="70.832" height="7.524" x="71.027" y="64.371" fill="#A286FA" rx="3.762"/>
  <g filter="url(#a)">
    <ellipse cx="40.782" cy="75.28" fill="red" fill-opacity=".01" rx="21.214" ry="21.206"/>
  </g>
  <ellipse cx="40.782" cy="75.28" fill="#fff" rx="21.214" ry="21.206"/>
  <path fill="#EA4335" d="M40.69 60.863s8.472-.381 12.963 8.13H39.97s-2.585-.084-4.788 3.05c-.635 1.313-1.313 2.668-.55 5.336-1.102-1.863-5.847-10.121-5.847-10.121s3.348-6.056 11.905-6.395Z"/>
  <path fill="#FFC147" d="M53.212 82.475S49.305 90 39.685 89.63l6.843-11.845s1.366-2.195-.247-5.67c-.82-1.206-1.654-2.47-4.347-3.145 2.166-.021 11.692.002 11.692.002s3.572 5.926-.414 13.503Z"/>
  <path fill="#17A05D" d="M28.228 82.533s-4.566-7.146.566-15.289l6.84 11.848s1.217 2.28 5.034 2.621c1.455-.106 2.968-.196 4.898-2.19-1.064 1.885-5.847 10.12-5.847 10.12s-6.92.13-11.491-7.11Z"/>
  <path fill="#17A05D" d="m39.685 89.7 1.924-8.03s2.117-.165 3.89-2.11c-1.1 1.936-5.814 10.14-5.814 10.14Z"/>
  <path fill="#fff" d="M34.243 75.37a6.41 6.41 0 0 1 6.411-6.41 6.41 6.41 0 1 1 0 12.819 6.41 6.41 0 0 1-6.41-6.41Z"/>
  <path fill="#4C8BF4" d="M35.315 75.37a5.337 5.337 0 0 1 5.339-5.336 5.337 5.337 0 1 1 0 10.672 5.337 5.337 0 0 1-5.339-5.336Z"/>
  <path fill="#FFC147" d="m53.628 68.971-7.926 2.323s-1.196-1.753-3.767-2.324c2.228-.008 11.693.001 11.693.001Z"/>
  <path fill="#EA4335" d="M34.476 77.09c-1.114-1.928-5.692-9.833-5.692-9.833l5.872 5.806s-.604 1.24-.375 3.013l.195 1.014Z"/>
  <rect width="115.793" height="7.524" x="71.027" y="133.115" fill="#EFF0F7" rx="3.762"/>
  <rect width="60.497" height="7.524" x="71.501" y="133.115" fill="#E0F4FD" rx="3.762"/>
  <rect width="43.9" height="7.524" x="71.027" y="118.82" fill="#A286FA" rx="3.762"/>
  <g filter="url(#b)">
    <ellipse cx="40.782" cy="129.729" fill="red" fill-opacity=".01" rx="21.214" ry="21.206"/>
  </g>
  <ellipse cx="40.782" cy="129.729" fill="#fff" rx="21.214" ry="21.206"/>
  <path fill="url(#c)" d="M55.207 129.729c0 3.825-1.52 7.493-4.225 10.197a14.429 14.429 0 0 1-20.4 0 14.417 14.417 0 0 1 10.2-24.616c3.826 0 7.495 1.519 10.2 4.223a14.416 14.416 0 0 1 4.225 10.196Z"/>
  <path fill="#F4F2F3" d="M40.782 116.062a.21.21 0 0 0-.21.21v2.425a.21.21 0 1 0 .42 0v-2.425a.21.21 0 0 0-.21-.21Zm-1.376.086a.21.21 0 0 0-.23.232l.106 1.014a.21.21 0 0 0 .23.187.21.21 0 0 0 .188-.231l-.106-1.014a.211.211 0 0 0-.188-.188Zm2.761.001a.21.21 0 0 0-.188.188l-.107 1.014a.21.21 0 0 0 .187.231.209.209 0 0 0 .232-.187l.106-1.014a.21.21 0 0 0-.23-.232Zm-4.174.204a.21.21 0 0 0-.205.254l.502 2.372a.21.21 0 1 0 .412-.087l-.502-2.372a.21.21 0 0 0-.207-.167Zm5.588.002a.21.21 0 0 0-.207.167l-.505 2.372a.21.21 0 0 0 .163.249.21.21 0 0 0 .249-.162l.504-2.372a.21.21 0 0 0-.204-.254Zm-6.937.379a.21.21 0 0 0-.218.274l.315.97a.21.21 0 0 0 .265.135.21.21 0 0 0 .135-.265l-.315-.97a.21.21 0 0 0-.182-.145v.001Zm8.278 0a.21.21 0 0 0-.182.145l-.316.97a.21.21 0 1 0 .4.13l.316-.97a.21.21 0 0 0-.218-.275Zm-9.612.487a.217.217 0 0 0-.082.019.21.21 0 0 0-.106.277l.985 2.216c.047.107.171.154.277.107a.21.21 0 0 0 .107-.278l-.985-2.216a.212.212 0 0 0-.196-.125Zm10.96.008a.21.21 0 0 0-.195.125l-.989 2.214a.21.21 0 1 0 .384.172l.989-2.215a.21.21 0 0 0-.188-.296Zm-12.198.647a.21.21 0 0 0-.197.315l.51.884a.21.21 0 1 0 .364-.211l-.51-.883a.211.211 0 0 0-.167-.105Zm13.42 0a.21.21 0 0 0-.167.105l-.51.883a.21.21 0 0 0 .364.211l.51-.884a.21.21 0 0 0-.197-.315Zm-14.622.75a.21.21 0 0 0-.163.334l1.424 1.962a.21.21 0 0 0 .294.047.209.209 0 0 0 .047-.293l-1.425-1.963a.21.21 0 0 0-.177-.087Zm15.84.011a.207.207 0 0 0-.178.086l-1.427 1.961a.21.21 0 1 0 .34.248l1.427-1.961a.21.21 0 0 0-.163-.334Zm-16.915.89a.21.21 0 0 0-.167.351l.682.758a.21.21 0 0 0 .313-.282l-.683-.758a.211.211 0 0 0-.145-.069Zm17.975.001a.208.208 0 0 0-.145.07l-.683.758a.21.21 0 1 0 .313.281l.683-.758a.21.21 0 0 0-.168-.351Zm-19.005.988a.21.21 0 0 0-.13.366l1.803 1.623c.087.077.22.07.297-.016a.21.21 0 0 0-.015-.297l-1.803-1.622a.209.209 0 0 0-.152-.054Zm20.04.007a.209.209 0 0 0-.152.054l-1.804 1.621a.21.21 0 1 0 .282.312l1.804-1.621a.21.21 0 0 0-.13-.366Zm-20.896 1.094a.21.21 0 0 0-.13.38l.824.6a.21.21 0 0 0 .247-.341l-.825-.599a.204.204 0 0 0-.116-.04Zm21.752.007a.22.22 0 0 0-.117.04l-.825.599a.21.21 0 0 0 .247.341l.826-.599a.21.21 0 0 0-.131-.381Zm-22.553 1.167a.208.208 0 0 0-.167.105.21.21 0 0 0 .077.287l2.1 1.212a.21.21 0 0 0 .288-.077.21.21 0 0 0-.077-.287l-2.101-1.212a.207.207 0 0 0-.12-.028Zm23.348 0a.207.207 0 0 0-.12.028l-2.101 1.212a.21.21 0 1 0 .21.364l2.101-1.212a.21.21 0 0 0-.09-.392Zm-23.953 1.252a.21.21 0 0 0-.09.402l.932.416a.21.21 0 1 0 .172-.384l-.933-.416a.198.198 0 0 0-.081-.018Zm24.562.008a.218.218 0 0 0-.082.019l-.932.414a.21.21 0 0 0 .171.385l.932-.415a.21.21 0 0 0-.09-.403Zm-25.101 1.3a.21.21 0 0 0-.048.409l2.307.752a.21.21 0 1 0 .13-.4l-2.306-.751a.217.217 0 0 0-.083-.01Zm25.64.009a.184.184 0 0 0-.084.01l-2.307.749a.21.21 0 0 0-.135.265.21.21 0 0 0 .265.135l2.307-.75a.21.21 0 0 0-.047-.409Zm-25.976 1.364a.21.21 0 0 0-.046.416l.999.212a.21.21 0 1 0 .087-.411l-.998-.212a.206.206 0 0 0-.042-.005Zm26.309.002a.207.207 0 0 0-.043.005l-.998.212a.21.21 0 1 0 .087.411l.998-.212a.21.21 0 0 0 .163-.249.21.21 0 0 0-.207-.167Zm-26.564 1.38a.209.209 0 0 0-.188.187.21.21 0 0 0 .187.231l2.412.255a.21.21 0 1 0 .044-.418l-2.412-.255a.153.153 0 0 0-.043 0Zm26.82.018a.153.153 0 0 0-.043 0l-2.413.252a.21.21 0 0 0 .044.418l2.413-.252a.21.21 0 0 0-.001-.418Zm-26.86 1.396a.21.21 0 1 0 0 .42h1.02a.21.21 0 1 0 0-.42h-1.02Zm25.878 0a.21.21 0 1 0 0 .42h1.02a.21.21 0 1 0 0-.42h-1.02Zm-23.385 1.146a.152.152 0 0 0-.043 0l-2.413.251a.21.21 0 0 0 .044.419l2.412-.252a.21.21 0 0 0 0-.418Zm21.91.014a.21.21 0 0 0 0 .419l2.412.255a.21.21 0 1 0 .044-.418l-2.412-.255a.153.153 0 0 0-.043 0v-.001Zm-23.113 1.421a.205.205 0 0 0-.043.004l-.998.212a.21.21 0 1 0 .088.412l.998-.212a.21.21 0 0 0-.045-.416Zm24.318.002a.21.21 0 0 0-.046.416l.999.212a.21.21 0 1 0 .087-.412l-.998-.212a.204.204 0 0 0-.042-.004Zm-22.637.828a.184.184 0 0 0-.083.01l-2.307.749a.21.21 0 0 0-.135.265.21.21 0 0 0 .265.135l2.307-.75a.21.21 0 0 0-.047-.409Zm20.954.007a.21.21 0 0 0-.047.41l2.306.751a.21.21 0 1 0 .13-.4l-2.306-.751a.217.217 0 0 0-.083-.01Zm-21.835 1.635a.198.198 0 0 0-.081.018l-.933.415a.21.21 0 0 0-.106.277c.047.107.171.154.277.107l.933-.415a.21.21 0 0 0 .106-.277.21.21 0 0 0-.196-.125Zm22.714.008a.21.21 0 0 0-.09.402l.932.416a.21.21 0 0 0 .172-.384l-.932-.416a.198.198 0 0 0-.082-.018Zm-20.899.455a.208.208 0 0 0-.12.028l-2.1 1.213a.21.21 0 1 0 .21.364l2.1-1.213a.21.21 0 0 0-.09-.392Zm19.087 0a.21.21 0 0 0-.09.392l2.1 1.213a.21.21 0 1 0 .211-.364l-2.1-1.213a.215.215 0 0 0-.12-.028Zm-19.61 1.78a.204.204 0 0 0-.117.04l-.826.599a.21.21 0 1 0 .247.34l.826-.599a.209.209 0 0 0 .047-.293.208.208 0 0 0-.178-.087Zm20.13.007a.208.208 0 0 0-.178.087.209.209 0 0 0 .046.293l.826.6a.21.21 0 0 0 .247-.34l-.825-.6a.204.204 0 0 0-.117-.04Zm-18.26.072a.21.21 0 0 0-.152.054l-1.804 1.621a.21.21 0 1 0 .281.313l1.804-1.621a.21.21 0 0 0 .016-.297.212.212 0 0 0-.145-.07Zm16.389.006a.208.208 0 0 0-.146.07.21.21 0 0 0 .016.297l1.803 1.622a.21.21 0 0 0 .297-.016.209.209 0 0 0-.016-.296l-1.803-1.623a.209.209 0 0 0-.151-.054Zm-14.677 1.54a.21.21 0 0 0-.178.087l-1.427 1.961a.21.21 0 1 0 .34.247l1.427-1.961a.209.209 0 0 0-.046-.293.213.213 0 0 0-.116-.041Zm12.958.009a.21.21 0 0 0-.163.334l1.425 1.963a.21.21 0 0 0 .293.046.209.209 0 0 0 .047-.293l-1.424-1.963a.21.21 0 0 0-.178-.087Zm-14.8.303a.211.211 0 0 0-.146.069l-.683.758a.21.21 0 0 0 .313.282l.683-.758a.21.21 0 0 0-.168-.351Zm16.653.001a.21.21 0 0 0-.167.351l.682.758a.21.21 0 1 0 .313-.281l-.683-.759a.211.211 0 0 0-.145-.069Zm-12.819.841a.21.21 0 0 0-.196.125l-.988 2.214a.21.21 0 1 0 .384.171l.989-2.214a.21.21 0 0 0-.189-.296Zm8.972.006a.21.21 0 0 0-.188.296l.985 2.216c.047.106.171.154.278.106a.21.21 0 0 0 .106-.277l-.985-2.216a.209.209 0 0 0-.196-.125Zm-10.708.679a.207.207 0 0 0-.168.104l-.51.884a.21.21 0 1 0 .364.21l.51-.883a.21.21 0 0 0-.196-.315Zm12.458 0a.21.21 0 0 0-.197.315l.51.883a.21.21 0 1 0 .365-.21l-.51-.884a.207.207 0 0 0-.168-.104Zm-8.521.031a.21.21 0 0 0-.207.167l-.504 2.372a.21.21 0 0 0 .162.249.21.21 0 0 0 .25-.162l.503-2.372a.21.21 0 0 0-.204-.254Zm4.576.002a.21.21 0 0 0-.205.253l.503 2.373a.21.21 0 1 0 .412-.087l-.503-2.373a.21.21 0 0 0-.207-.166Zm-2.284.239a.21.21 0 0 0-.21.21v2.425c0 .117.093.21.21.21a.21.21 0 0 0 .21-.21v-2.425a.21.21 0 0 0-.21-.21Zm-3.86.784a.21.21 0 0 0-.183.144l-.315.97a.21.21 0 1 0 .4.13l.315-.97a.21.21 0 0 0-.218-.274Zm7.719 0a.21.21 0 0 0-.218.275l.315.97a.21.21 0 1 0 .4-.13l-.315-.97a.21.21 0 0 0-.182-.145Zm-5.18.54a.21.21 0 0 0-.188.188l-.107 1.014a.21.21 0 0 0 .188.231.21.21 0 0 0 .23-.187l.107-1.014a.21.21 0 0 0-.23-.232Zm2.633.001a.21.21 0 0 0-.23.232l.105 1.014a.21.21 0 0 0 .231.187.21.21 0 0 0 .188-.231l-.106-1.014a.211.211 0 0 0-.188-.188Z"/>
  <g filter="url(#d)" opacity=".409">
    <path fill="#000" d="m50.64 121.32-11.507 6.683-7.276 11.449 10.644-7.88 8.139-10.252Z"/>
  </g>
  <path fill="#FF5F85" d="m42.43 131.455-3.298-3.453 11.7-7.867-8.402 11.32Z"/>
  <path fill="#F1F1F1" d="m42.43 131.456-3.298-3.453-8.402 11.32 11.7-7.867Z"/>
  <path fill="#000" d="m30.73 139.324 11.7-7.868 8.401-11.32-20.102 19.188Z" opacity=".243"/>
  <rect width="115.324" height="7.524" x="71.496" y="187.564" fill="#EFF0F7" rx="3.762"/>
  <rect width="24.156" height="7.524" x="71.5" y="187.564" fill="#E0F4FD" rx="3.762"/>
  <rect width="74.982" height="7.524" x="71.5" y="173.27" fill="#A286FA" rx="3.762"/>
  <g filter="url(#e)">
    <ellipse cx="41.256" cy="184.178" fill="red" fill-opacity=".01" rx="21.214" ry="21.206"/>
  </g>
  <ellipse cx="40.782" cy="184.178" fill="#fff" rx="21.214" ry="21.206"/>
  <path fill="url(#f)" d="M54.982 179.199c-.652-1.556-1.956-3.232-2.984-3.757a15.439 15.439 0 0 1 1.508 4.505v.027c-1.676-4.191-4.526-5.877-6.854-9.558a11.622 11.622 0 0 1-.352-.567c-.066-.115-.115-.215-.165-.307a2.687 2.687 0 0 1-.231-.615.034.034 0 0 0-.022-.013.05.05 0 0 0-.039 0v.007c0 .008-.011 0-.011 0v-.007c-3.728 2.185-4.997 6.233-5.112 8.253a7.443 7.443 0 0 0-4.092 1.58 4.64 4.64 0 0 0-.384-.292 6.883 6.883 0 0 1-.038-3.641 11.006 11.006 0 0 0-3.582 2.767c-.595-.743-.552-3.204-.518-3.718a2.618 2.618 0 0 0-.498.261 10.82 10.82 0 0 0-1.458 1.245 13.034 13.034 0 0 0-1.38 1.668 12.547 12.547 0 0 0-1.994 4.501l-.027.103c-.027.127-.13.782-.146.92v.039a14.127 14.127 0 0 0-.238 2.047v.076a14.866 14.866 0 0 0 29.51 2.515c.028-.191.047-.383.07-.575a15.275 15.275 0 0 0-.96-7.464h-.003Zm-17.13 11.627c.068.039.133.077.202.104l.012.008a6.026 6.026 0 0 1-.211-.115l-.004.003Zm15.657-10.856v-.012.016-.004Z"/>
  <path fill="url(#g)" d="M54.981 179.199c-.652-1.556-1.956-3.231-2.983-3.757a15.441 15.441 0 0 1 1.507 4.505v.031a13.45 13.45 0 0 1-.46 10.028c-1.703 3.654-5.83 7.399-12.284 7.215-6.972-.192-13.116-5.367-14.266-12.145-.207-1.073 0-1.61.107-2.48a11.068 11.068 0 0 0-.238 2.047v.077a14.865 14.865 0 0 0 29.51 2.514c.027-.191.047-.383.07-.575a15.275 15.275 0 0 0-.96-7.464l-.003.004Z"/>
  <path fill="url(#h)" d="M54.981 179.199c-.652-1.556-1.956-3.231-2.983-3.757a15.441 15.441 0 0 1 1.507 4.505v.031a13.45 13.45 0 0 1-.46 10.028c-1.703 3.654-5.83 7.399-12.284 7.215-6.972-.192-13.116-5.367-14.266-12.145-.207-1.073 0-1.61.107-2.48a11.068 11.068 0 0 0-.238 2.047v.077a14.865 14.865 0 0 0 29.51 2.514c.027-.191.047-.383.07-.575a15.275 15.275 0 0 0-.96-7.464l-.003.004Z"/>
  <path fill="url(#i)" d="M47.755 180.943c.038.023.061.046.092.069a8.084 8.084 0 0 0-1.38-1.802c-4.618-4.616-1.209-10.013-.633-10.285v-.012c-3.728 2.185-4.997 6.233-5.112 8.254.172-.012.345-.023.521-.023a7.502 7.502 0 0 1 6.512 3.795v.004Z"/>
  <path fill="url(#j)" d="M41.255 181.871c-.027.364-1.331 1.64-1.791 1.64-4.227 0-4.91 2.554-4.91 2.554.185 2.154 1.688 3.925 3.498 4.868l.253.115c.146.064.292.124.438.18a6.61 6.61 0 0 0 1.932.376c7.41.345 8.844-8.856 3.498-11.528a5.134 5.134 0 0 1 3.582.875 7.495 7.495 0 0 0-7.034-3.777 7.443 7.443 0 0 0-4.092 1.58c.23.192.484.445 1.024.977 1.009.997 3.594 2.021 3.605 2.147l-.004-.007Z"/>
  <path fill="url(#k)" d="M41.255 181.871c-.027.364-1.331 1.64-1.791 1.64-4.227 0-4.91 2.554-4.91 2.554.185 2.154 1.688 3.925 3.498 4.868l.253.115c.146.064.292.124.438.18a6.61 6.61 0 0 0 1.932.376c7.41.345 8.844-8.856 3.498-11.528a5.134 5.134 0 0 1 3.582.875 7.495 7.495 0 0 0-7.034-3.777 7.443 7.443 0 0 0-4.092 1.58c.23.192.484.445 1.024.977 1.009.997 3.594 2.021 3.605 2.147l-.004-.007Z"/>
  <path fill="url(#l)" d="M35.94 178.252c.114.077.218.142.306.203a6.886 6.886 0 0 1-.038-3.642 11.023 11.023 0 0 0-3.582 2.768c.077 0 2.224-.038 3.313.667v.004Z"/>
  <path fill="url(#m)" d="M26.498 185.077c1.15 6.774 7.286 11.949 14.266 12.144 6.454.184 10.577-3.565 12.28-7.214a13.452 13.452 0 0 0 .46-10.029v-.031l.008.027c.521 3.443-1.228 6.774-3.966 9.028l-.011.019c-5.331 4.344-10.432 2.623-11.467 1.917a2.508 2.508 0 0 1-.219-.107c-3.106-1.484-4.395-4.317-4.118-6.747a3.815 3.815 0 0 1-3.521-2.212 5.604 5.604 0 0 1 5.465-.219 7.402 7.402 0 0 0 5.576.219c-.008-.123-2.592-1.15-3.605-2.147-.537-.529-.79-.782-1.02-.974a6.872 6.872 0 0 0-.69-.494c-1.082-.706-3.237-.667-3.31-.667h-.008c-.586-.744-.548-3.205-.514-3.719a2.618 2.618 0 0 0-.498.261c-.522.372-1.01.791-1.457 1.25a12.94 12.94 0 0 0-1.392 1.663 12.547 12.547 0 0 0-1.995 4.501c-.007.031-.537 2.338-.276 3.534l.012-.003Z"/>
  <path fill="url(#n)" d="M46.47 179.211a8.079 8.079 0 0 1 1.381 1.801c.077.066.154.127.223.184 3.374 3.106 1.61 7.495 1.476 7.809 2.735-2.254 4.487-5.585 3.962-9.028-1.688-4.19-4.533-5.876-6.865-9.557-.115-.184-.23-.372-.345-.567-.065-.115-.115-.215-.165-.307a2.7 2.7 0 0 1-.235-.619.034.034 0 0 0-.022-.013.05.05 0 0 0-.038 0v.007c0 .008-.012 0-.012 0-.575.276-3.988 5.674.637 10.29h.004Z"/>
  <path fill="url(#o)" d="M48.07 181.197a2.625 2.625 0 0 0-.223-.184l-.092-.069a5.133 5.133 0 0 0-3.585-.871c5.346 2.676 3.911 11.884-3.498 11.532a6.616 6.616 0 0 1-1.929-.372 5.323 5.323 0 0 1-.437-.176l-.25-.115h.012c1.036.705 6.136 2.43 11.474-1.917l.008-.016c.134-.306 1.899-4.703-1.472-7.805l-.008-.007Z"/>
  <path fill="url(#p)" d="M34.551 186.065s.69-2.553 4.909-2.553c.46 0 1.764-1.277 1.795-1.649a7.398 7.398 0 0 1-5.584-.215 5.611 5.611 0 0 0-5.465.219 3.814 3.814 0 0 0 3.528 2.208c-.28 2.431 1.005 5.264 4.115 6.747.07.039.135.069.204.104-1.814-.939-3.314-2.711-3.502-4.869v.008Z"/>
  <path fill="url(#q)" d="M54.981 179.2c-.652-1.556-1.956-3.232-2.984-3.757a15.439 15.439 0 0 1 1.508 4.505v.027c-1.676-4.191-4.526-5.877-6.854-9.558a11.622 11.622 0 0 1-.353-.567c-.065-.115-.114-.215-.164-.307a2.687 2.687 0 0 1-.231-.615.034.034 0 0 0-.023-.013.051.051 0 0 0-.038 0v.007c0 .008-.011 0-.011 0v-.007c-3.728 2.185-4.997 6.233-5.112 8.253.172-.011.345-.023.521-.023a7.5 7.5 0 0 1 6.512 3.796 5.132 5.132 0 0 0-3.582-.867c5.346 2.676 3.912 11.884-3.498 11.532a6.608 6.608 0 0 1-1.932-.372 5.003 5.003 0 0 1-.438-.177l-.253-.115h.012a5.679 5.679 0 0 1-.211-.107c.069.038.134.077.203.104-1.814-.94-3.313-2.711-3.501-4.869 0 0 .69-2.549 4.909-2.549.46 0 1.764-1.277 1.794-1.649-.007-.115-2.592-1.15-3.604-2.139-.537-.537-.794-.786-1.02-.978a4.611 4.611 0 0 0-.384-.291 6.886 6.886 0 0 1-.038-3.642 11.01 11.01 0 0 0-3.582 2.768c-.595-.744-.553-3.205-.518-3.719-.175.07-.342.157-.499.261-.521.372-1.009.789-1.457 1.246a12.966 12.966 0 0 0-1.38 1.668 12.543 12.543 0 0 0-1.995 4.5l-.03.096a29.62 29.62 0 0 0-.173.936 17.294 17.294 0 0 0-.219 2.07v.076a14.857 14.857 0 0 0 3.925 10.036 14.87 14.87 0 0 0 20.019 1.706 14.858 14.858 0 0 0 5.567-9.227c.027-.191.046-.383.069-.575a15.275 15.275 0 0 0-.959-7.464h.004Zm-1.477.767v.011-.011Z"/>
  <rect width="60.999" height="9.028" x="20.082" y="28.142" fill="#DBF9EF" rx="4.514"/>
  <defs>
    <radialGradient id="c" cx="0" cy="0" r="1" gradientTransform="matrix(15.6518 0 0 15.6459 40.847 127.627)" gradientUnits="userSpaceOnUse">
      <stop stop-color="#06C2E7"/>
      <stop offset=".25" stop-color="#0DB8EC"/>
      <stop offset=".5" stop-color="#12AEF1"/>
      <stop offset=".75" stop-color="#1F86F9"/>
      <stop offset="1" stop-color="#107DDD"/>
    </radialGradient>
    <radialGradient id="g" cx="0" cy="0" r="1" gradientTransform="matrix(30.9857 0 0 30.9742 52.37 172.318)" gradientUnits="userSpaceOnUse">
      <stop offset=".129" stop-color="#FFBD4F"/>
      <stop offset=".186" stop-color="#FFAC31"/>
      <stop offset=".247" stop-color="#FF9D17"/>
      <stop offset=".283" stop-color="#FF980E"/>
      <stop offset=".403" stop-color="#FF563B"/>
      <stop offset=".467" stop-color="#FF3750"/>
      <stop offset=".71" stop-color="#F5156C"/>
      <stop offset=".782" stop-color="#EB0878"/>
      <stop offset=".86" stop-color="#E50080"/>
    </radialGradient>
    <radialGradient id="h" cx="0" cy="0" r="1" gradientTransform="matrix(30.9857 0 0 30.9742 41.048 184.981)" gradientUnits="userSpaceOnUse">
      <stop offset=".3" stop-color="#960E18"/>
      <stop offset=".351" stop-color="#B11927" stop-opacity=".74"/>
      <stop offset=".435" stop-color="#DB293D" stop-opacity=".343"/>
      <stop offset=".497" stop-color="#F5334B" stop-opacity=".094"/>
      <stop offset=".53" stop-color="#FF3750" stop-opacity="0"/>
    </radialGradient>
    <radialGradient id="i" cx="0" cy="0" r="1" gradientTransform="matrix(22.4479 0 0 22.4395 44.783 165.288)" gradientUnits="userSpaceOnUse">
      <stop offset=".132" stop-color="#FFF44F"/>
      <stop offset=".252" stop-color="#FFDC3E"/>
      <stop offset=".506" stop-color="#FF9D12"/>
      <stop offset=".526" stop-color="#FF980E"/>
    </radialGradient>
    <radialGradient id="j" cx="0" cy="0" r="1" gradientTransform="matrix(14.7537 0 0 14.7482 37.62 193.071)" gradientUnits="userSpaceOnUse">
      <stop offset=".353" stop-color="#3A8EE6"/>
      <stop offset=".472" stop-color="#5C79F0"/>
      <stop offset=".669" stop-color="#9059FF"/>
      <stop offset="1" stop-color="#C139E6"/>
    </radialGradient>
    <radialGradient id="k" cx="0" cy="0" r="1" gradientTransform="matrix(7.60325 -1.83755 2.1506 8.89856 42.74 182.442)" gradientUnits="userSpaceOnUse">
      <stop offset=".206" stop-color="#9059FF" stop-opacity="0"/>
      <stop offset=".278" stop-color="#8C4FF3" stop-opacity=".064"/>
      <stop offset=".747" stop-color="#7716A8" stop-opacity=".45"/>
      <stop offset=".975" stop-color="#6E008B" stop-opacity=".6"/>
    </radialGradient>
    <radialGradient id="l" cx="0" cy="0" r="1" gradientTransform="matrix(10.6138 0 0 10.6098 40.656 171.05)" gradientUnits="userSpaceOnUse">
      <stop stop-color="#FFE226"/>
      <stop offset=".121" stop-color="#FFDB27"/>
      <stop offset=".295" stop-color="#FFC82A"/>
      <stop offset=".502" stop-color="#FFA930"/>
      <stop offset=".732" stop-color="#FF7E37"/>
      <stop offset=".792" stop-color="#FF7139"/>
    </radialGradient>
    <radialGradient id="m" cx="0" cy="0" r="1" gradientTransform="matrix(45.2842 0 0 45.2673 48.999 164.321)" gradientUnits="userSpaceOnUse">
      <stop offset=".113" stop-color="#FFF44F"/>
      <stop offset=".456" stop-color="#FF980E"/>
      <stop offset=".622" stop-color="#FF5634"/>
      <stop offset=".716" stop-color="#FF3647"/>
      <stop offset=".904" stop-color="#E31587"/>
    </radialGradient>
    <radialGradient id="n" cx="0" cy="0" r="1" gradientTransform="matrix(3.48298 32.99427 -21.66174 2.28668 45.181 166.838)" gradientUnits="userSpaceOnUse">
      <stop stop-color="#FFF44F"/>
      <stop offset=".06" stop-color="#FFE847"/>
      <stop offset=".168" stop-color="#FFC830"/>
      <stop offset=".304" stop-color="#FF980E"/>
      <stop offset=".356" stop-color="#FF8B16"/>
      <stop offset=".455" stop-color="#FF672A"/>
      <stop offset=".57" stop-color="#FF3647"/>
      <stop offset=".737" stop-color="#E31587"/>
    </radialGradient>
    <radialGradient id="o" cx="0" cy="0" r="1" gradientTransform="matrix(28.2717 0 0 28.2612 40.406 174.98)" gradientUnits="userSpaceOnUse">
      <stop offset=".137" stop-color="#FFF44F"/>
      <stop offset=".48" stop-color="#FF980E"/>
      <stop offset=".592" stop-color="#FF5634"/>
      <stop offset=".655" stop-color="#FF3647"/>
      <stop offset=".904" stop-color="#E31587"/>
    </radialGradient>
    <radialGradient id="p" cx="0" cy="0" r="1" gradientTransform="matrix(30.9432 0 0 30.9316 47.869 176.634)" gradientUnits="userSpaceOnUse">
      <stop offset=".094" stop-color="#FFF44F"/>
      <stop offset=".231" stop-color="#FFE141"/>
      <stop offset=".509" stop-color="#FFAF1E"/>
      <stop offset=".626" stop-color="#FF980E"/>
    </radialGradient>
    <filter id="a" width="71.74" height="71.724" x="4.912" y="43.928" color-interpolation-filters="sRGB" filterUnits="userSpaceOnUse">
      <feFlood flood-opacity="0" result="BackgroundImageFix"/>
      <feColorMatrix in="SourceAlpha" result="hardAlpha" values="0 0 0 0 0 0 0 0 0 0 0 0 0 0 0 0 0 0 127 0"/>
      <feOffset dy="4.51"/>
      <feGaussianBlur stdDeviation="7.328"/>
      <feColorMatrix values="0 0 0 0 0.0423448 0 0 0 0 0.0391396 0 0 0 0 0.199398 0 0 0 0.07 0"/>
      <feBlend in2="BackgroundImageFix" result="effect1_dropShadow_1396_36631"/>
      <feBlend in="SourceGraphic" in2="effect1_dropShadow_1396_36631" result="shape"/>
    </filter>
    <filter id="b" width="71.74" height="71.724" x="4.912" y="98.377" color-interpolation-filters="sRGB" filterUnits="userSpaceOnUse">
      <feFlood flood-opacity="0" result="BackgroundImageFix"/>
      <feColorMatrix in="SourceAlpha" result="hardAlpha" values="0 0 0 0 0 0 0 0 0 0 0 0 0 0 0 0 0 0 127 0"/>
      <feOffset dy="4.51"/>
      <feGaussianBlur stdDeviation="7.328"/>
      <feColorMatrix values="0 0 0 0 0.0423448 0 0 0 0 0.0391396 0 0 0 0 0.199398 0 0 0 0.07 0"/>
      <feBlend in2="BackgroundImageFix" result="effect1_dropShadow_1396_36631"/>
      <feBlend in="SourceGraphic" in2="effect1_dropShadow_1396_36631" result="shape"/>
    </filter>
    <filter id="d" width="19.679" height="19.029" x="31.409" y="120.872" color-interpolation-filters="sRGB" filterUnits="userSpaceOnUse">
      <feFlood flood-opacity="0" result="BackgroundImageFix"/>
      <feBlend in="SourceGraphic" in2="BackgroundImageFix" result="shape"/>
      <feGaussianBlur result="effect1_foregroundBlur_1396_36631" stdDeviation=".224"/>
    </filter>
    <filter id="e" width="71.74" height="71.724" x="5.386" y="152.826" color-interpolation-filters="sRGB" filterUnits="userSpaceOnUse">
      <feFlood flood-opacity="0" result="BackgroundImageFix"/>
      <feColorMatrix in="SourceAlpha" result="hardAlpha" values="0 0 0 0 0 0 0 0 0 0 0 0 0 0 0 0 0 0 127 0"/>
      <feOffset dy="4.51"/>
      <feGaussianBlur stdDeviation="7.328"/>
      <feColorMatrix values="0 0 0 0 0.0423448 0 0 0 0 0.0391396 0 0 0 0 0.199398 0 0 0 0.07 0"/>
      <feBlend in2="BackgroundImageFix" result="effect1_dropShadow_1396_36631"/>
      <feBlend in="SourceGraphic" in2="effect1_dropShadow_1396_36631" result="shape"/>
    </filter>
    <linearGradient id="f" x1="53.028" x2="27.598" y1="173.661" y2="196.639" gradientUnits="userSpaceOnUse">
      <stop offset=".048" stop-color="#FFF44F"/>
      <stop offset=".111" stop-color="#FFE847"/>
      <stop offset=".225" stop-color="#FFC830"/>
      <stop offset=".368" stop-color="#FF980E"/>
      <stop offset=".401" stop-color="#FF8B16"/>
      <stop offset=".462" stop-color="#FF672A"/>
      <stop offset=".534" stop-color="#FF3647"/>
      <stop offset=".705" stop-color="#E31587"/>
    </linearGradient>
    <linearGradient id="q" x1="52.722" x2="31.058" y1="173.539" y2="193.816" gradientUnits="userSpaceOnUse">
      <stop offset=".167" stop-color="#FFF44F" stop-opacity=".8"/>
      <stop offset=".266" stop-color="#FFF44F" stop-opacity=".634"/>
      <stop offset=".489" stop-color="#FFF44F" stop-opacity=".217"/>
      <stop offset=".6" stop-color="#FFF44F" stop-opacity="0"/>
    </linearGradient>
  </defs>
</svg>