<svg xmlns="http://www.w3.org/2000/svg" width="36" height="36" fill="none" viewBox="0 0 36 36">
  <g clip-path="url(#a)">
    <path fill="#6F4EF6" d="M35.362 26.84a2.253 2.253 0 0 0-2.55-1.448l-6.905 1.32a2.262 2.262 0 0 0-2.262-3.095l-2.025.146a4.221 4.221 0 0 1-2.5-.6l-2.394-1.448a5.457 5.457 0 0 0-5.29-.212l-3.172 1.585v-.898a1.42 1.42 0 0 0-1.418-1.419H1.418A1.42 1.42 0 0 0 0 22.19v2.746a.52.52 0 1 0 1.04 0V22.19a.38.38 0 0 1 .378-.379h5.428c.209 0 .378.17.378.379v11.89c0 .209-.17.378-.378.378H1.418a.379.379 0 0 1-.378-.378v-7.066a.52.52 0 1 0-1.04 0v7.066a1.42 1.42 0 0 0 1.418 1.42h5.428a1.42 1.42 0 0 0 1.418-1.418v-.518l1.554.633a15.155 15.155 0 0 0 10.75.266l6.326-2.222a.52.52 0 0 0-.344-.981l-6.326 2.222a14.109 14.109 0 0 1-10.013-.248l-1.947-.794v-8.188l3.637-1.818a4.422 4.422 0 0 1 4.287.172l2.394 1.447c.94.569 2.017.827 3.113.748l2.025-.146c.342-.024.668.09.92.324.25.233.388.55.388.893 0 .595-.424 1.1-1.01 1.202l-.007.002-4.29.74c-1.278.22-2.573.22-3.851-.001l-1.666-.288a.52.52 0 1 0-.177 1.025l1.666.288c1.395.24 2.81.24 4.205 0l4.301-.742h.002l8.806-1.683a1.221 1.221 0 0 1 .634 2.354l-5.105 1.793a.52.52 0 0 0 .345.981l5.105-1.794a2.26 2.26 0 0 0 1.377-2.908Z"/>
    <path fill="#6F4EF6" d="M5.486 31.951v-1.313a.52.52 0 1 0-1.04 0v1.313a.52.52 0 1 0 1.04 0ZM21.419 3.278a.52.52 0 0 0 .52-.52V.52a.52.52 0 1 0-1.04 0v2.237c0 .287.232.52.52.52Zm6.445 2.365 1.582-1.581a.52.52 0 1 0-.736-.736l-1.58 1.582a.52.52 0 1 0 .735.735Zm-12.891 0a.52.52 0 0 0 .736-.735l-1.582-1.582a.52.52 0 0 0-.735.736l1.581 1.581Zm-4.387 6.23h2.237a.52.52 0 1 0 0-1.04h-2.237a.52.52 0 1 0 0 1.04Zm19.428 0h2.237a.52.52 0 1 0 0-1.04h-2.237a.52.52 0 1 0 0 1.04ZM17.895 16.93a.36.36 0 0 1 .162.3v2.603a2.339 2.339 0 0 0 2.336 2.336h2.05a2.339 2.339 0 0 0 2.337-2.336V17.23c0-.12.06-.23.16-.298a6.318 6.318 0 0 0 2.801-5.252 6.32 6.32 0 0 0-6.235-6.322 6.277 6.277 0 0 0-3.38.933.52.52 0 1 0 .544.886 5.275 5.275 0 0 1 2.822-.78c2.849.04 5.21 2.356 5.21 5.283a5.28 5.28 0 0 1-2.342 4.389c-.388.26-.62.695-.62 1.16v.324h-1.801v-3.145a1.752 1.752 0 0 0 1.228-1.67.52.52 0 1 0-1.04 0 .71.71 0 0 1-1.417 0 .52.52 0 1 0-1.04 0c0 .784.517 1.448 1.228 1.67v3.145h-1.8v-.323a1.4 1.4 0 0 0-.622-1.162 5.27 5.27 0 0 1-2.34-4.483 5.217 5.217 0 0 1 1.118-3.144.52.52 0 1 0-.82-.64 6.25 6.25 0 0 0-1.337 3.766 6.307 6.307 0 0 0 2.798 5.364Zm5.845 1.663v1.24c0 .714-.581 1.296-1.296 1.296h-2.05a1.298 1.298 0 0 1-1.297-1.296v-1.24h4.643Z"/>
  </g>
  <defs>
    <clipPath id="a">
      <path fill="#fff" d="M0 0h35.5v35.5H0z"/>
    </clipPath>
  </defs>
</svg>
