<svg xmlns="http://www.w3.org/2000/svg" width="103" height="113" fill="none" viewBox="0 0 103 113">
  <rect width="101.667" height="112.112" x=".5" y=".556" fill="#fff" fill-opacity=".15" rx="11.223"/>
  <rect width="78.521" height="78.521" x="12.073" y="17.351" fill="#F2F1FF" rx="11.142"/>
  <path stroke="#6F4EF6" stroke-linecap="round" stroke-linejoin="round" stroke-width="2.51" d="M31.63 75.44h39.407M39.649 56.174h-5.255a1.313 1.313 0 0 0-1.313 1.313V75.44h7.882V57.487a1.313 1.313 0 0 0-1.314-1.313ZM53.96 37.783h-5.254a1.314 1.314 0 0 0-1.314 1.314V75.44h7.882V39.097a1.314 1.314 0 0 0-1.313-1.314Zm14.312 7.882h-5.254a1.313 1.313 0 0 0-1.314 1.314V75.44h7.882V46.98a1.313 1.313 0 0 0-1.314-1.314Z"/>
  <rect width="101.394" height="111.839" x=".637" y=".692" stroke="#fff" stroke-opacity=".05" stroke-width=".273" rx="11.087"/>
</svg>
