<svg xmlns="http://www.w3.org/2000/svg" width="56" height="55" fill="none" viewBox="0 0 56 55">
  <g clip-path="url(#a)">
    <path fill="#6F4EF6" d="m54.794 36.97-8.266-8.267a17.922 17.922 0 0 0 3.564-9.093 17.946 17.946 0 0 0-2.847-11.547.805.805 0 1 0-1.346.886c4.215 6.41 3.33 15.007-2.102 20.44-6.346 6.347-16.671 6.347-23.016 0-6.346-6.346-6.346-16.672 0-23.018C27.126.023 37.45.023 43.794 6.367l.045.045a.805.805 0 1 0 1.143-1.136l-.046-.046c-6.974-6.975-18.321-6.975-25.295 0-.22.219-.431.442-.636.67h-17.7a.806.806 0 0 0-.805.805v3.564a.806.806 0 1 0 1.611 0V7.512h15.601a17.75 17.75 0 0 0-1.588 2.711H6.086a.806.806 0 1 0 0 1.611h9.37a17.85 17.85 0 0 0-.577 1.97H6.086a.806.806 0 1 0 0 1.611h8.495c-.09.654-.145 1.311-.163 1.97H6.086a.806.806 0 0 0 0 1.611h8.36a17.92 17.92 0 0 0 1.804 6.805h-1.355a.806.806 0 0 0-.806.806v23.851c0 .446.36.806.806.806h6.445c.446 0 .806-.36.806-.806V32.616c.726.5 1.48.94 2.256 1.32v16.522c0 .446.36.806.805.806h6.446c.445 0 .806-.36.806-.806v-14.7a18.188 18.188 0 0 0 1.88-.116v12.446a.806.806 0 1 0 1.611 0V35.383c2.547-.529 5-1.615 7.16-3.26l8.264 8.265a2.404 2.404 0 0 0 1.71.708c.646 0 1.253-.252 1.71-.708a2.42 2.42 0 0 0 0-3.419Zm-34.26 12.683h-4.833v-22.24h1.451a17.893 17.893 0 0 0 3.383 3.95v18.29Zm5.48 0V34.63c1.562.583 3.19.94 4.834 1.071v13.952h-4.834Zm27.64-10.405a.802.802 0 0 1-1.14 0l-8.162-8.162a18.263 18.263 0 0 0 1.14-1.14l8.162 8.163a.806.806 0 0 1 0 1.139Z"/>
    <path fill="#6F4EF6" d="M35.144 50.757a.806.806 0 0 0-.805.806v1.826H2.11V13.764a.805.805 0 1 0-1.611 0v40.432c0 .445.36.806.806.806h33.838c.446 0 .806-.36.806-.806v-2.632a.805.805 0 0 0-.806-.806Z"/>
    <path fill="#6F4EF6" d="M3.991 33.054v17.405c0 .445.361.806.806.806h6.446a.806.806 0 0 0 .805-.806V33.054a.806.806 0 0 0-.805-.806H4.797a.806.806 0 0 0-.806.806Zm1.612.806h4.834v15.793H5.603V33.86Zm6.507-11.282a.806.806 0 1 0 0-1.611H6.086a.806.806 0 0 0 0 1.611h6.024ZM32.288 3.22c-3.92 0-7.603 1.524-10.368 4.29a14.568 14.568 0 0 0-4.289 10.37c0 3.92 1.524 7.604 4.289 10.37a14.564 14.564 0 0 0 10.368 4.288 14.57 14.57 0 0 0 10.37-4.288 14.567 14.567 0 0 0 4.287-10.37c0-3.922-1.523-7.605-4.288-10.37A14.564 14.564 0 0 0 32.29 3.22Zm9.23 23.89a12.962 12.962 0 0 1-9.23 3.817c-3.49 0-6.767-1.356-9.228-3.817a12.965 12.965 0 0 1-3.817-9.23c0-3.492 1.355-6.77 3.817-9.231a13.01 13.01 0 0 1 9.229-3.817 13.01 13.01 0 0 1 9.229 3.817 12.967 12.967 0 0 1 3.816 9.23c0 3.491-1.355 6.77-3.816 9.23Z"/>
  </g>
  <defs>
    <clipPath id="a">
      <path fill="#fff" d="M0 0h55v55H0z" transform="translate(.5)"/>
    </clipPath>
  </defs>
</svg>
