<svg xmlns="http://www.w3.org/2000/svg" width="55" height="55" fill="none" viewBox="0 0 55 55">
  <g clip-path="url(#a)">
    <path fill="#6F4EF6" d="M7.748 20.791H3.447A3.45 3.45 0 0 0 0 24.238v19.268c0 1.039 1.611 1.039 1.611 0V24.238c0-1.012.824-1.836 1.836-1.836h4.3c1.013 0 1.836.824 1.836 1.835v27.316a1.837 1.837 0 0 1-1.835 1.836H3.447a1.837 1.837 0 0 1-1.836-1.836v-3.32c0-1.04-1.611-1.04-1.611 0v3.32A3.45 3.45 0 0 0 3.447 55h4.3a3.45 3.45 0 0 0 3.447-3.447V24.238a3.45 3.45 0 0 0-3.446-3.447Zm14.602 12.66h-4.302a3.45 3.45 0 0 0-3.446 3.447v14.655A3.45 3.45 0 0 0 18.049 55h4.3a3.45 3.45 0 0 0 3.447-3.447V36.898a3.45 3.45 0 0 0-3.446-3.447Zm1.835 18.102a1.837 1.837 0 0 1-1.835 1.836h-4.302a1.837 1.837 0 0 1-1.835-1.836V36.898c0-1.012.824-1.836 1.835-1.836h4.302c1.012 0 1.835.824 1.835 1.836v14.655ZM36.952 23.93H32.65a3.45 3.45 0 0 0-3.446 3.446v24.177A3.45 3.45 0 0 0 32.65 55h4.302a3.45 3.45 0 0 0 3.446-3.447v-17.5c0-1.04-1.611-1.04-1.611 0v17.5a1.837 1.837 0 0 1-1.835 1.835H32.65a1.837 1.837 0 0 1-1.835-1.835V27.376c0-1.012.823-1.835 1.835-1.835h4.302c1.011 0 1.835.823 1.835 1.835v1.842c0 1.04 1.611 1.04 1.611 0v-1.842a3.45 3.45 0 0 0-3.447-3.446Zm14.601-10.463h-4.3a3.45 3.45 0 0 0-3.447 3.446v34.64A3.45 3.45 0 0 0 47.252 55h4.301A3.45 3.45 0 0 0 55 51.553v-34.64a3.45 3.45 0 0 0-3.447-3.446Zm1.836 38.086a1.837 1.837 0 0 1-1.836 1.836h-4.3a1.837 1.837 0 0 1-1.836-1.836v-34.64c0-1.012.823-1.835 1.835-1.835h4.301c1.012 0 1.836.823 1.836 1.835v34.64Z"/>
    <path fill="#6F4EF6" d="M5.597 14.974a3.27 3.27 0 0 0 1.638-.438l10.167 10.483c-.215.347-.37.74-.444 1.166a3.26 3.26 0 0 0 .553 2.453 3.267 3.267 0 0 0 2.69 1.392 3.293 3.293 0 0 0 3.239-2.724 3.259 3.259 0 0 0-.25-1.93l9.592-7.706c.615.458 1.289.688 2.02.69a3.293 3.293 0 0 0 3.24-2.724 3.256 3.256 0 0 0-.272-1.973l9.655-7.756a3.27 3.27 0 0 0 1.978.663 3.29 3.29 0 0 0 3.289-3.285A3.29 3.29 0 0 0 49.402 0a3.29 3.29 0 0 0-3.288 3.285c0 .488.108.95.3 1.368l-9.672 7.77a3.293 3.293 0 0 0-5.182 2.092 3.258 3.258 0 0 0 .23 1.885l-9.611 7.721a3.275 3.275 0 0 0-1.42-.612 3.277 3.277 0 0 0-2.198.39L8.394 13.416a3.26 3.26 0 0 0 .492-1.727 3.29 3.29 0 0 0-3.289-3.284 3.29 3.29 0 0 0-3.289 3.284 3.29 3.29 0 0 0 3.29 3.285ZM49.403 1.611c.925 0 1.678.751 1.678 1.674 0 .922-.753 1.673-1.678 1.673-.905 0-1.678-.767-1.678-1.673 0-.923.753-1.674 1.678-1.674ZM33.148 14.79a1.68 1.68 0 0 1 1.652-1.388c1.037 0 1.806.947 1.654 1.959a1.679 1.679 0 0 1-3.306-.571ZM21.57 25.782c.258.366.342.811.281 1.249a1.679 1.679 0 0 1-1.94 1.363 1.69 1.69 0 0 1-1.366-1.934c.25-1.436 2.177-1.879 3.025-.678ZM5.597 10.016c.925 0 1.678.75 1.678 1.673a1.677 1.677 0 0 1-3.355 0c0-.922.752-1.673 1.677-1.673Z"/>
  </g>
  <defs>
    <clipPath id="a">
      <path fill="#fff" d="M0 0h55v55H0z"/>
    </clipPath>
  </defs>
</svg>
