<svg xmlns="http://www.w3.org/2000/svg" width="55" height="55" fill="none" viewBox="0 0 55 55">
  <g clip-path="url(#a)">
    <path fill="#6F4EF6" d="m51.894 7.394-2.35-2.07 2.35-2.069c.365-.322.49-.825.319-1.28a1.152 1.152 0 0 0-1.086-.751h-9.726V.806a.806.806 0 1 0-1.612 0v10.872l-6.62 3.594a2.55 2.55 0 0 0-.262-.846l-.933-1.822a2.55 2.55 0 0 0-3.428-1.106l-.721.37a2.531 2.531 0 0 0-1.264 1.485 2.529 2.529 0 0 0 .158 1.943l.932 1.822c.218.425.54.761.919.997-.495.667-.73 1.487-.972 2.339l-.174.615a.806.806 0 1 0 1.551.438l.174-.614c.353-1.245.57-1.913 1.261-2.288l1.238-.672.153-.078c.05-.026.098-.056.147-.085l8.825-4.792a3.411 3.411 0 0 1-1.627 2.74l-5.74 3.486a.32.32 0 0 0-.02.012L31.6 20.3a.807.807 0 0 0 .77 1.414l-1.354 4.097-.991.406-2.694 1.104.776-2.744a.807.807 0 0 0-1.552-.439l-1.226 4.338a.775.775 0 0 0-.029.175l-.321 5.897c-.01.225.038.65-.066.87l-3.565 7.5h-2.59a2.755 2.755 0 0 0-2.753 2.751v2.327a2.73 2.73 0 0 0-1.14-.248H8.286A2.755 2.755 0 0 0 5.534 50.5v2.887H3.6A.806.806 0 1 0 3.6 55h47.528a.806.806 0 1 0 0-1.612H49.03V32.61a2.755 2.755 0 0 0-2.752-2.751h-4.877V15.796a5.027 5.027 0 0 0 .81-4.308.805.805 0 0 0-.81-.592V9.425h9.726c.487 0 .913-.295 1.085-.75a1.152 1.152 0 0 0-.318-1.281Zm-23.798 6.454a.928.928 0 0 1 .463-.545l.722-.37a.936.936 0 0 1 1.259.406l.933 1.822a.937.937 0 0 1-.311 1.202l-.263.142-.554.284a.936.936 0 0 1-1.258-.406l-.934-1.821a.93.93 0 0 1-.057-.714Zm-1.62 29.318a2.736 2.736 0 0 0-.885-.235l.885-1.176v1.411Zm3.828-6.495c.387-.464.494-1.007.58-1.444.022-.104.42-2.277.42-2.277s.377.234.416.251a.085.085 0 0 1 .05.07l.438 4.458h-2.701l.796-1.058Zm4.766-4.45-.68 5.505h-.562l-.454-4.612a1.698 1.698 0 0 0-.95-1.363l-.81-.514.54-2.993s2.275 2.703 2.328 2.771c.47.613.632.858.588 1.207Zm-8.707 3.902c.163-.49.239-.989.226-1.496l.293-5.378 3.728-1.528-.677 3.754a.356.356 0 0 0-.006.03l-.56 3.104c-.074.322-.137.81-.338 1.074l-5.447 7.235h-.449l3.23-6.795ZM7.147 50.5c0-.628.51-1.139 1.14-1.139h6.578c.629 0 1.14.511 1.14 1.14v2.887H7.148V50.5Zm10.47 0v-4.83c0-.628.512-1.14 1.14-1.14h6.58c.628 0 1.14.512 1.14 1.14v7.718h-8.86V50.5Zm29.8-17.89v20.778H38.56v-4.833a.806.806 0 1 0-1.612 0v4.833h-8.859V40.48c0-.628.511-1.14 1.14-1.14h6.58c.628 0 1.139.512 1.139 1.14v4.04a.806.806 0 0 0 1.612 0V32.61c0-.63.512-1.14 1.14-1.14h6.579c.628 0 1.14.511 1.14 1.14ZM39.7 29.86a2.755 2.755 0 0 0-2.752 2.751v5.367a2.731 2.731 0 0 0-.934-.24l.657-5.317c.13-1.036-.4-1.723-.91-2.388-.054-.07-3.188-3.79-3.188-3.79l1.923-5.812 5.294-3.217V29.86h-.09Zm1.703-22.047V2.837h8.527l-1.836 1.617a1.161 1.161 0 0 0 0 1.741l1.836 1.617h-8.528Z"/>
  </g>
  <defs>
    <clipPath id="a">
      <path fill="#fff" d="M0 0h55v55H0z"/>
    </clipPath>
  </defs>
</svg>
