<svg xmlns="http://www.w3.org/2000/svg" width="178" height="26" fill="none" viewBox="0 0 178 26">
  <g clip-path="url(#a)">
    <path fill="#6F4EF5" d="M12.173 22.183a1.6 1.6 0 0 1 1.653 0l5.23 3.157c1.212.731 2.707-.355 2.385-1.733l-1.388-5.95a1.6 1.6 0 0 1 .51-1.572l4.623-4.005c1.07-.926.498-2.684-.912-2.803l-6.083-.516a1.6 1.6 0 0 1-1.338-.97l-2.38-5.616c-.552-1.301-2.395-1.301-2.947 0L9.146 7.79a1.6 1.6 0 0 1-1.338.97l-6.083.516c-1.41.12-1.982 1.877-.912 2.803l4.622 4.005a1.6 1.6 0 0 1 .511 1.573l-1.388 5.948c-.322 1.379 1.173 2.465 2.385 1.734l5.23-3.157Z"/>
  </g>
  <g clip-path="url(#b)">
    <path fill="#6F4EF5" d="M50.173 22.183a1.6 1.6 0 0 1 1.653 0l5.23 3.157c1.212.731 2.707-.355 2.385-1.733l-1.388-5.95a1.6 1.6 0 0 1 .51-1.572l4.623-4.005c1.07-.926.498-2.684-.912-2.803l-6.083-.516a1.6 1.6 0 0 1-1.338-.97l-2.38-5.616c-.552-1.301-2.395-1.301-2.947 0l-2.38 5.616a1.6 1.6 0 0 1-1.338.97l-6.083.516c-1.41.12-1.982 1.877-.912 2.803l4.622 4.005a1.6 1.6 0 0 1 .511 1.573l-1.388 5.948c-.322 1.379 1.173 2.465 2.385 1.734l5.23-3.157Z"/>
  </g>
  <g clip-path="url(#c)">
    <path fill="#6F4EF5" d="M88.173 22.183a1.6 1.6 0 0 1 1.653 0l5.23 3.157c1.212.731 2.707-.355 2.385-1.733l-1.388-5.95a1.6 1.6 0 0 1 .51-1.572l4.623-4.005c1.07-.926.498-2.684-.912-2.803l-6.083-.516a1.6 1.6 0 0 1-1.338-.97l-2.38-5.616c-.552-1.301-2.395-1.301-2.947 0l-2.38 5.616a1.6 1.6 0 0 1-1.338.97l-6.083.516c-1.41.12-1.982 1.877-.912 2.803l4.623 4.005a1.6 1.6 0 0 1 .51 1.573l-1.388 5.948c-.322 1.379 1.173 2.465 2.385 1.734l5.23-3.157Z"/>
  </g>
  <g clip-path="url(#d)">
    <path fill="#6F4EF5" d="M126.173 22.183a1.599 1.599 0 0 1 1.653 0l5.23 3.157c1.212.731 2.707-.355 2.385-1.733l-1.388-5.95a1.6 1.6 0 0 1 .511-1.572l4.622-4.005c1.07-.926.498-2.684-.912-2.803l-6.083-.516a1.601 1.601 0 0 1-1.338-.97l-2.38-5.616c-.552-1.301-2.395-1.301-2.947 0l-2.38 5.616c-.232.546-.747.92-1.338.97l-6.083.516c-1.41.12-1.982 1.877-.912 2.803l4.622 4.005a1.6 1.6 0 0 1 .511 1.573l-1.388 5.948c-.322 1.379 1.173 2.465 2.385 1.734l5.23-3.157Z"/>
  </g>
  <g clip-path="url(#e)">
    <path fill="#6F4EF5" d="M164.173 22.183a1.599 1.599 0 0 1 1.653 0l5.23 3.157c1.212.731 2.707-.355 2.385-1.733l-1.388-5.95a1.6 1.6 0 0 1 .511-1.572l4.622-4.005c1.07-.926.498-2.684-.912-2.803l-6.083-.516a1.601 1.601 0 0 1-1.338-.97l-2.38-5.616c-.552-1.301-2.395-1.301-2.947 0l-2.38 5.616c-.232.546-.747.92-1.338.97l-6.083.516c-1.41.12-1.982 1.877-.912 2.803l4.622 4.005a1.6 1.6 0 0 1 .511 1.573l-1.388 5.948c-.322 1.379 1.173 2.465 2.385 1.734l5.23-3.157Z"/>
  </g>
  <defs>
    <clipPath id="a">
      <path fill="#fff" d="M0 0h26v26H0z"/>
    </clipPath>
    <clipPath id="b">
      <path fill="#fff" d="M0 0h26v26H0z" transform="translate(38)"/>
    </clipPath>
    <clipPath id="c">
      <path fill="#fff" d="M0 0h26v26H0z" transform="translate(76)"/>
    </clipPath>
    <clipPath id="d">
      <path fill="#fff" d="M0 0h26v26H0z" transform="translate(114)"/>
    </clipPath>
    <clipPath id="e">
      <path fill="#fff" d="M0 0h26v26H0z" transform="translate(152)"/>
    </clipPath>
  </defs>
</svg>
