<svg xmlns="http://www.w3.org/2000/svg" width="26" height="26" fill="none" viewBox="0 0 26 26">
  <path fill="#6F4EF6" d="M5.666 14.444H2.777c-.797 0-1.444.647-1.444 1.445v7.222c0 .798.647 1.444 1.444 1.444h2.89c.797 0 1.444-.646 1.444-1.444v-7.222c0-.798-.647-1.445-1.445-1.445Zm8.778-13h-2.889c-.797 0-1.444.647-1.444 1.445V23.11c0 .798.646 1.444 1.444 1.444h2.89c.797 0 1.444-.646 1.444-1.444V2.889c0-.798-.647-1.445-1.445-1.445Zm8.778 5.779h-2.889c-.798 0-1.444.646-1.444 1.444v14.444c0 .798.646 1.445 1.444 1.445h2.889c.798 0 1.444-.647 1.444-1.445V8.667c0-.798-.646-1.444-1.444-1.444Z"/>
</svg>
