<svg xmlns="http://www.w3.org/2000/svg" width="92" height="101" fill="none" viewBox="0 0 92 101">
  <rect width="91.422" height="100.833" fill="#fff" fill-opacity=".15" rx="10.756"/>
  <rect width="75.289" height="75.289" x="8.066" y="12.773" fill="#F2F1FF" rx="5.378"/>
  <g clip-path="url(#a)">
    <path fill="#6F4EF6" d="M25.655 61.562a2.348 2.348 0 0 0 1.631-.636l10.388-9.719a.783.783 0 0 1 1.092 0l3.474 3.49a5.642 5.642 0 0 0 7.795 0l5.789-5.773a.39.39 0 0 1 .554 0l2.772 2.756a1.518 1.518 0 0 0 1.11.457c.206 0 .41-.038.602-.114a1.63 1.63 0 0 0 .963-1.452v-9.458a1.63 1.63 0 0 0-1.631-1.63h-9.377a1.63 1.63 0 0 0-1.109 2.69l2.773 2.756a.374.374 0 0 1 .114.277.343.343 0 0 1-.114.277l-5.822 5.838a.816.816 0 0 1-1.109 0l-3.49-3.49a5.463 5.463 0 0 0-7.648-.065l-10.371 9.785a2.348 2.348 0 0 0-.098 3.261 2.3 2.3 0 0 0 1.712.75Z"/>
  </g>
  <rect width="91.161" height="100.572" x=".131" y=".131" stroke="#fff" stroke-opacity=".05" stroke-width=".262" rx="10.625"/>
  <defs>
    <clipPath id="a">
      <path fill="#fff" d="M0 0h38.493v38.493H0z" transform="translate(23.332 31.275)"/>
    </clipPath>
  </defs>
</svg>
