<svg xmlns="http://www.w3.org/2000/svg" width="98" height="106" fill="none" viewBox="0 0 98 106">
  <rect width="97.688" height="105.613" fill="#fff" fill-opacity=".15" rx="11.291"/>
  <rect width="75" height="83.412" x="11.344" y="11.101" fill="#fff" rx="11.291"/>
  <path fill="#6F4EF5" d="M41.507 54.994A17.798 17.798 0 1 0 48 21l.261 5.508A12.283 12.283 0 1 1 43.78 49.97l-2.273 5.024Z"/>
  <path fill="#EEE" d="M48.843 20.98a17.799 17.799 0 0 0-7.35 34.008l2.277-5.022a12.284 12.284 0 0 1 5.073-23.472V20.98Z"/>
  <path fill="#000538" d="M28.044 78.759c-.738 0-1.372-.108-1.904-.322-.523-.215-.924-.528-1.204-.938-.27-.41-.406-.905-.406-1.484 0-.457.093-.864.28-1.218.186-.364.448-.658.784-.882a2.673 2.673 0 0 1 1.162-.42v.21c-.607-.13-1.092-.415-1.456-.854-.355-.448-.532-.975-.532-1.582 0-.56.13-1.032.392-1.414.27-.392.653-.69 1.148-.896.494-.215 1.073-.322 1.736-.322.672 0 1.25.107 1.736.322.494.205.877.504 1.148.896.27.382.406.854.406 1.414 0 .401-.084.774-.252 1.12a2.221 2.221 0 0 1-.686.84 2.619 2.619 0 0 1-1.05.462v-.196c.662.093 1.194.368 1.596.826.41.448.616 1.013.616 1.694 0 .579-.14 1.073-.42 1.484-.27.41-.672.723-1.204.938-.523.215-1.153.322-1.89.322Zm0-.952c.793 0 1.39-.154 1.792-.462.41-.308.616-.775.616-1.4 0-.616-.206-1.073-.616-1.372-.402-.308-.999-.462-1.792-.462-.784 0-1.382.154-1.792.462-.41.299-.616.756-.616 1.372 0 .625.205 1.092.616 1.4.41.308 1.008.462 1.792.462Zm0-4.648c.457 0 .844-.07 1.162-.21.326-.15.578-.36.756-.63.177-.27.266-.588.266-.952 0-.56-.196-.994-.588-1.302-.383-.317-.915-.476-1.596-.476-.682 0-1.214.159-1.596.476-.383.308-.574.742-.574 1.302s.191.998.574 1.316c.382.317.914.476 1.596.476Zm8.394 5.6c-1.13 0-1.988-.434-2.576-1.302-.588-.868-.882-2.123-.882-3.766 0-1.102.13-2.026.392-2.772.262-.756.649-1.325 1.162-1.708.523-.383 1.158-.574 1.904-.574 1.139 0 1.998.43 2.576 1.288.588.85.882 2.1.882 3.752 0 1.101-.13 2.03-.392 2.786-.261.756-.648 1.33-1.162 1.722-.513.382-1.148.574-1.904.574Zm0-.994c.784 0 1.363-.332 1.736-.994.383-.672.574-1.704.574-3.094 0-1.4-.191-2.422-.574-3.066-.373-.654-.952-.98-1.736-.98-.774 0-1.353.326-1.736.98-.382.653-.574 1.675-.574 3.066 0 1.39.192 2.422.574 3.094.383.662.962.994 1.736.994Zm5.805.924c-.233 0-.42-.07-.56-.21a.787.787 0 0 1-.21-.56c0-.224.07-.406.21-.546a.731.731 0 0 1 .56-.224c.233 0 .415.075.546.224.14.14.21.322.21.546 0 .224-.07.41-.21.56-.13.14-.313.21-.546.21Zm7.427.042a.567.567 0 0 1-.42-.154c-.102-.103-.154-.248-.154-.434v-1.624h-4.018a.729.729 0 0 1-.448-.126.503.503 0 0 1-.154-.392c0-.103.024-.206.07-.308a2.23 2.23 0 0 1 .252-.42l4.27-6.216a.944.944 0 0 1 .28-.294.664.664 0 0 1 .364-.098c.15 0 .276.046.378.14.112.093.168.242.168.448v6.286h1.022c.178 0 .313.042.406.126.094.084.14.205.14.364s-.046.28-.14.364c-.093.084-.228.126-.406.126h-1.022v1.624c0 .186-.051.331-.154.434-.102.103-.247.154-.434.154Zm-.574-3.192v-5.432h.336l-3.92 5.74v-.308h3.584Zm4.923 3.094c-.205 0-.36-.047-.462-.14a.58.58 0 0 1-.14-.406c0-.103.023-.2.07-.294.056-.103.13-.206.224-.308l3.136-3.36c.476-.513.817-.985 1.022-1.414.215-.439.322-.882.322-1.33 0-.56-.173-.985-.518-1.274-.336-.299-.83-.448-1.484-.448-.42 0-.817.065-1.19.196-.373.13-.733.331-1.078.602-.121.093-.233.135-.336.126a.443.443 0 0 1-.252-.112.5.5 0 0 1-.154-.252.575.575 0 0 1 0-.308.623.623 0 0 1 .224-.28 4.228 4.228 0 0 1 1.316-.714 4.555 4.555 0 0 1 1.568-.28c.663 0 1.223.103 1.68.308.457.205.803.509 1.036.91.233.392.35.873.35 1.442 0 .392-.065.78-.196 1.162a4.711 4.711 0 0 1-.574 1.148 7.821 7.821 0 0 1-.994 1.218l-2.982 3.15v-.322h4.718c.177 0 .308.042.392.126.093.075.14.191.14.35 0 .168-.047.294-.14.378-.084.084-.215.126-.392.126h-5.306Zm10.788.014a.488.488 0 0 1-.238.238.369.369 0 0 1-.28.028.419.419 0 0 1-.238-.14.463.463 0 0 1-.126-.252.598.598 0 0 1 .084-.336l5.404-9.408a.489.489 0 0 1 .238-.238.369.369 0 0 1 .28-.028.418.418 0 0 1 .238.14.455.455 0 0 1 .112.266.465.465 0 0 1-.07.322l-5.404 9.408Zm-1.036-3.962c-.746 0-1.33-.266-1.75-.798-.42-.532-.63-1.274-.63-2.226 0-.635.094-1.176.28-1.624.196-.448.472-.789.826-1.022.355-.243.78-.364 1.274-.364.738 0 1.316.266 1.736.798.43.523.644 1.26.644 2.212 0 .635-.098 1.176-.294 1.624-.186.448-.457.793-.812 1.036-.354.243-.779.364-1.274.364Zm0-.826c.29 0 .537-.084.742-.252.215-.168.378-.415.49-.742.112-.327.168-.728.168-1.204 0-.728-.126-1.274-.378-1.638-.252-.364-.592-.546-1.022-.546-.289 0-.54.084-.756.252-.205.159-.364.401-.476.728-.112.317-.168.719-.168 1.204 0 .728.122 1.278.364 1.652.252.364.598.546 1.036.546Zm6.692 4.9c-.737 0-1.32-.266-1.75-.798-.42-.532-.63-1.274-.63-2.226 0-.635.094-1.176.28-1.624.196-.448.472-.789.826-1.022.364-.243.79-.364 1.274-.364.747 0 1.33.266 1.75.798.42.523.63 1.26.63 2.212 0 .635-.093 1.18-.28 1.638-.186.448-.457.793-.812 1.036-.354.233-.784.35-1.288.35Zm0-.826c.3 0 .551-.08.756-.238.206-.168.364-.415.476-.742.112-.327.168-.733.168-1.218 0-.728-.126-1.274-.378-1.638a1.16 1.16 0 0 0-1.022-.546c-.289 0-.54.084-.756.252-.205.159-.364.401-.476.728-.102.317-.154.718-.154 1.204 0 .737.122 1.288.364 1.652.252.364.593.546 1.022.546Z"/>
  <rect width="96.985" height="104.91" x=".351" y=".351" stroke="#fff" stroke-opacity=".05" stroke-width=".703" rx="10.939"/>
</svg>
