<svg xmlns="http://www.w3.org/2000/svg" width="250" height="179" fill="none" viewBox="0 0 250 179">
  <rect width="249.057" height="178.952" fill="#fff" fill-opacity=".15" rx="16"/>
  <rect width="247.16" height="177.055" x=".948" y=".948" stroke="#fff" stroke-opacity=".05" stroke-width="1.897" rx="15.052"/>
  <rect width="230.608" height="159.859" x="7.38" y="9.223" fill="#fff" rx="14.367"/>
  <mask id="a" width="212" height="148" x="17" y="15" maskUnits="userSpaceOnUse" style="mask-type:alpha">
    <rect width="211.166" height="146.382" x="17.526" y="15.678" fill="#fff" rx="2"/>
  </mask>
  <g mask="url(#a)">
    <path fill="url(#b)" fill-rule="evenodd" d="M-3.422 134.78s11.348-14.229 20.95-15.562c10.765-.438 15.712-3.945 20.076-10.959 4.364-7.013 9.602-13.589 21.531-14.027 5.544-.204 9.517-3.769 13.73-7.549 4.852-4.353 10.022-8.992 18.276-9.109 8.295-.118 12.128 5.915 16.164 12.267 3.466 5.457 7.083 11.149 13.805 13.377 10.143 2.663 17.12-.422 23.803-3.376 5.972-2.64 11.709-5.177 19.26-3.418 6.723 1.565 10.07 9.378 13.569 17.542 3.617 8.444 7.396 17.263 15.236 19.938 7.809 2.219 13.977.112 20.732-2.197 6.585-2.251 13.729-4.692 23.495-3.502 5.243.639 8.611 2.291 11.957 3.932 5.197 2.549 10.342 5.073 22.377 3.739 6.443-.713 9.974-3.513 13.574-6.367 4.367-3.461 8.835-7.003 18.722-7.003 8.522 0 12.304-3.716 16.13-7.477 4.275-4.201 8.605-8.456 19.659-7.646.399.029.787.067 1.164.114v32.982H-3.422v-5.699Z" clip-rule="evenodd"/>
    <path stroke="#311196" stroke-width=".878" d="M-3.422 134.865s11.348-14.251 20.95-15.585c10.765-.439 15.712-3.951 20.076-10.975 4.364-7.024 9.602-13.61 21.531-14.049 11.93-.439 16.585-16.463 32.006-16.682 15.421-.22 15.421 20.853 29.969 25.682 19.204 5.049 27.06-10.536 43.063-6.805 13.675 3.19 13.384 32.268 28.805 37.536 15.422 4.39 24.441-8.122 44.227-5.707 13.384 1.633 14.548 9.877 34.334 7.682 14.257-1.581 14.257-13.389 32.296-13.389 18.04 0 14.84-16.683 35.789-15.146.399.029.787.067 1.164.114"/>
    <circle cx="230.836" cy="127.985" r="1.936" fill="#52CDFF" stroke="#fff" stroke-width="1.171"/>
    <circle cx="172.853" cy="101.844" r="1.936" fill="#A286FA" stroke="#fff" stroke-width="1.171"/>
    <circle cx="116.77" cy="100.893" r="1.936" fill="#211F54" stroke="#fff" stroke-width="1.171"/>
    <path fill="#A286FA" stroke="#fff" stroke-width="1.171" d="M61.735 95.449a1.936 1.936 0 1 0 0-3.871 1.936 1.936 0 0 0 0 3.87Z"/>
    <path fill="url(#c)" fill-rule="evenodd" d="M419.017 97.492c-.621-.106-1.305-.193-2.078-.292-2.313-.296-5.425-.693-10.052-2.007-4.655-1.322-9.423-7.014-14.177-12.688-3.628-4.33-7.247-8.649-10.799-11.007-11.14-7.395-21.352-1.926-32.824 6.809-5.128 3.903-11.305 5.034-16.853 6.049-5.101.933-9.67 1.768-12.404 4.573-4.526 4.641-7.849 11.487-11.137 18.261-5.19 10.693-10.294 21.207-19.904 22.591-13.178 1.898-19.251-5.595-25.466-13.261-2.703-3.335-5.433-6.702-8.786-9.344-11.06-8.715-22.834-4.63-32.468 2.723-22.834 16.341-33.181 9.26-47.096-4.357-8.955-8.764-13.181-8.856-18.005-8.96-2.671-.058-5.525-.12-9.468-1.662-6.747-2.638-10.99-9.564-15.108-16.288-4.81-7.853-9.451-15.43-17.716-15.577-12.951-.23-19.546 23.022-23.648 37.484-.757 2.67-1.43 5.041-2.041 6.909l-.436 1.333c-3.812 11.678-8.125 24.893-17.404 26.992-9.633 2.178-17.483-2.996-25.332-9.26-7.85-6.264-16.412-9.26-25.689-6.537-7.421 2.179-19.029 15.07-23.548 21.244v17.702h422.439v-61.43Z" clip-rule="evenodd"/>
    <path stroke="#441AEB" stroke-width=".878" d="M-3.422 126.652c3.683-5.023 13.14-15.512 19.187-17.284 7.56-2.216 14.536.221 20.932 5.318 6.396 5.096 12.792 9.307 20.641 7.534 7.85-1.773 11.338-13.295 14.536-23.046 3.198-9.75 8.43-36.34 20.932-36.119 12.501.222 14.826 21.273 26.746 25.926 9.012 3.519 11.047-2.437 22.385 8.642 11.338 11.08 19.769 16.841 38.375 3.546 7.849-5.983 17.443-9.307 26.455-2.216 9.012 7.091 12.501 20.608 27.909 18.392 12.791-1.84 15.784-23.501 25.292-33.239 4.652-4.763 15.821-2.546 23.839-8.642 9.348-7.107 17.669-11.556 26.746-5.54 6.687 4.432 13.664 17.382 20.35 19.279 4.795 1.36 7.884 1.462 9.885 1.772"/>
    <circle cx="61.735" cy="119.743" r="1.936" fill="#A286FA" stroke="#fff" stroke-width="1.171"/>
    <circle cx="116.77" cy="87.065" r="1.936" fill="#A286FA" stroke="#fff" stroke-width="1.171"/>
    <circle cx="172.904" cy="105.322" r="1.936" fill="#A286FA" stroke="#fff" stroke-width="1.171"/>
    <circle cx="230.836" cy="117.18" r="1.936" fill="#1F3BB3" stroke="#fff" stroke-width="1.171"/>
  </g>
  <rect width="61.903" height="55.812" x="159.585" y="27.491" fill="#fff" stroke="#F7F7FC" stroke-width="1.975" rx="8.38"/>
  <rect width="3.795" height="13.408" x="167.321" y="62.901" fill="#6F4EF5" rx="1.898"/>
  <rect width="3.795" height="22.346" x="178.802" y="53.961" fill="#6F4EF5" rx="1.898"/>
  <rect width="3.795" height="34.413" x="190.282" y="41.893" fill="#6F4EF5" rx="1.898"/>
  <rect width="3.795" height="9.832" x="201.763" y="66.473" fill="#6F4EF5" rx="1.898"/>
  <rect width="3.795" height="21.006" x="213.242" y="55.301" fill="#6F4EF5" rx="1.898"/>
  <defs>
    <linearGradient id="b" x1="184.831" x2="184.831" y1="77.572" y2="140.479" gradientUnits="userSpaceOnUse">
      <stop stop-color="#6F4EF6"/>
      <stop offset="1" stop-color="#6F4EF6" stop-opacity=".6"/>
    </linearGradient>
    <linearGradient id="c" x1="227.778" x2="227.778" y1="63.054" y2="158.922" gradientUnits="userSpaceOnUse">
      <stop stop-color="#6F4EF6" stop-opacity=".3"/>
      <stop offset=".297" stop-color="#6F4EF6" stop-opacity=".36"/>
      <stop offset="1" stop-color="#EFF0F6"/>
    </linearGradient>
  </defs>
</svg>
