<svg xmlns="http://www.w3.org/2000/svg" width="61" height="61" fill="none" viewBox="0 0 61 61">
  <path fill="#6F4EF6" d="M19.444 1.27H3.813c-.623 0-1.449-.762 7.625 6.037l8.006-6.036Z"/>
  <path fill="#6F4EF6" d="M21.605 13.979c0-11.043.063-10.446-.153-11.005-10.09 7.561-9.417 7.192-10.014 7.192-.597 0 0 .306-10.014-7.192-.153.572-.153.025-.153 11.005a2.542 2.542 0 0 0 2.542 2.542h15.25a2.542 2.542 0 0 0 2.542-2.542Zm26.688-3.317 3.508-1.767-3.508-1.753v3.52Z"/>
  <path fill="#6F4EF6" d="M57.188 1.27h-15.25a2.542 2.542 0 0 0-2.541 2.542V13.98a2.542 2.542 0 0 0 2.541 2.541h15.25a2.542 2.542 0 0 0 2.542-2.541V3.812a2.542 2.542 0 0 0-2.542-2.541Zm-4.244 9.9c-3.813 1.881-3.813 2.02-4.652 2.02a2.542 2.542 0 0 1-2.541-2.54c0-3.102-.356-4.703 1.27-5.669 1.627-.965 2.682 0 5.986 1.64a2.542 2.542 0 0 1-.063 4.55Zm-3.381 40.934a2.542 2.542 0 1 0 0-5.083 2.542 2.542 0 0 0 0 5.083Z"/>
  <path fill="#6F4EF6" d="M58.548 47.02a1.182 1.182 0 0 1-.839-2.02 1.182 1.182 0 0 0 0-1.665l-1.919-1.919a1.154 1.154 0 0 0-1.665 0 1.181 1.181 0 0 1-2.02-.839 1.182 1.182 0 0 0-1.182-1.181h-2.72a1.182 1.182 0 0 0-1.181 1.181 1.183 1.183 0 0 1-2.021.84 1.157 1.157 0 0 0-1.665 0l-1.919 1.918a1.17 1.17 0 0 0 0 1.665 1.194 1.194 0 0 1-.839 2.02 1.182 1.182 0 0 0-1.181 1.182v2.72a1.182 1.182 0 0 0 1.181 1.182 1.182 1.182 0 0 1 .84 2.02 1.156 1.156 0 0 0 0 1.665l1.918 1.92a1.155 1.155 0 0 0 1.665 0 1.182 1.182 0 0 1 2.02.838 1.182 1.182 0 0 0 1.182 1.182h2.72a1.182 1.182 0 0 0 1.182-1.182 1.182 1.182 0 0 1 2.02-.839 1.157 1.157 0 0 0 1.665 0l1.92-1.919a1.158 1.158 0 0 0 0-1.665 1.182 1.182 0 0 1 .838-2.02 1.182 1.182 0 0 0 1.182-1.182v-2.72a1.182 1.182 0 0 0-1.182-1.181Zm-8.985 7.625a5.083 5.083 0 1 1 0-10.166 5.083 5.083 0 0 1 0 10.166ZM9.43 40.12l-4.499 4.486a3.812 3.812 0 0 0 0 5.389l3.597 3.596a3.812 3.812 0 0 0 5.388 0l4.499-4.486L9.43 40.12Zm9.875 11.679-3.584 3.596 3.584 3.584a2.541 2.541 0 0 0 3.57-3.584l-3.57-3.596Zm-8.401-13.801 9.62 9.62 15.86-7.51-17.97-17.97-7.51 15.86Zm15.174-11.78 6.227 6.227a5.083 5.083 0 0 0-6.227-6.227Zm8.502-1.005c.698 0 .724-.203 3.596-3.075a1.272 1.272 0 0 0-1.792-1.805l-2.694 2.694a1.272 1.272 0 0 0 .89 2.186Zm-4.08-3.609V17.79a1.27 1.27 0 0 0-2.541 0v3.813a1.271 1.271 0 0 0 2.542 0Zm10.167 6.354h-3.812a1.27 1.27 0 0 0 0 2.542h3.812a1.27 1.27 0 1 0 0-2.542Z"/>
</svg>
