<svg xmlns="http://www.w3.org/2000/svg" width="76" height="82" fill="none" viewBox="0 0 76 82">
  <path fill="#A286FA" fill-opacity=".6" d="M75.999 40.934v40.933H37.88V40.934z" opacity=".2"/>
  <path fill="#A286FA" fill-opacity=".6" d="M75.821 40.934 55.61 62.044 37.88 81.675V40.934h37.94Z" opacity=".2"/>
  <path fill="#A286FA" fill-opacity=".6" d="M37.88 61.335c0 2.67-.49 5.316-1.44 7.783a20.499 20.499 0 0 1-4.107 6.599 18.91 18.91 0 0 1-6.145 4.409 17.817 17.817 0 0 1-7.248 1.548c-2.487 0-4.95-.526-7.248-1.548a18.912 18.912 0 0 1-6.145-4.41 20.5 20.5 0 0 1-4.106-6.598A21.649 21.649 0 0 1 0 61.335h37.88Z" opacity=".14"/>
  <path fill="#A286FA" fill-opacity=".6" d="m37.88 40.934 20.309-21.21L76 0v40.934H37.88Z" opacity=".07"/>
  <path fill="#A286FA" fill-opacity=".6" d="M-.001 41.083c0 2.67.49 5.316 1.442 7.783a20.5 20.5 0 0 0 4.106 6.599 18.913 18.913 0 0 0 6.144 4.409 17.817 17.817 0 0 0 7.249 1.548c2.487 0 4.95-.526 7.248-1.548a18.913 18.913 0 0 0 6.145-4.41 20.499 20.499 0 0 0 4.106-6.598 21.648 21.648 0 0 0 1.441-7.783H0Z" opacity=".28"/>
</svg>