<svg xmlns="http://www.w3.org/2000/svg" width="680" height="680" fill="none" viewBox="0 0 680 680">
  <circle cx="398" cy="356" r="221.5" stroke="#6F4EF5"/>
  <circle cx="218" cy="159" r="65.5" stroke="#6446DD" stroke-dasharray="7 7"/>
  <circle cx="430" cy="231" r="65.5" stroke="#6446DD" stroke-dasharray="7 7"/>
  <circle cx="506" cy="316" r="65.5" stroke="#6446DD" stroke-dasharray="7 7"/>
  <circle cx="496" cy="435" r="65.5" stroke="#6446DD" stroke-dasharray="7 7"/>
  <circle cx="374" cy="448" r="65.5" stroke="#6446DD" stroke-dasharray="7 7"/>
  <circle cx="162" cy="500" r="65.5" stroke="#6446DD" stroke-dasharray="7 7"/>
  <circle cx="288" cy="590" r="44.5" stroke="#6446DD" stroke-dasharray="7 7"/>
  <circle cx="340" cy="340" r="339.5" stroke="#6F4EF5"/>
  <path fill="#6F4EF5" d="M91.76 369.48c-2.336 0-4.4-.304-6.192-.912-1.76-.608-3.248-1.504-4.464-2.688-1.216-1.216-2.128-2.72-2.736-4.512-.608-1.792-.912-3.872-.912-6.24v-17.232c0-1.056.256-1.84.768-2.352.544-.512 1.312-.768 2.304-.768.992 0 1.744.256 2.256.768.544.512.816 1.296.816 2.352v17.184c0 3.04.688 5.328 2.064 6.864 1.408 1.504 3.44 2.256 6.096 2.256s4.672-.752 6.048-2.256c1.376-1.536 2.064-3.824 2.064-6.864v-17.184c0-1.056.256-1.84.768-2.352.544-.512 1.312-.768 2.304-.768.96 0 1.696.256 2.208.768.544.512.816 1.296.816 2.352v17.232c0 3.136-.544 5.776-1.632 7.92-1.056 2.144-2.64 3.76-4.752 4.848-2.112 1.056-4.72 1.584-7.824 1.584Zm22.151-.096c-.8 0-1.456-.208-1.968-.624-.512-.448-.816-.992-.912-1.632-.064-.672.16-1.344.672-2.016l10.992-14.64v2.64l-10.465-14.016c-.511-.704-.735-1.376-.671-2.016a2.3 2.3 0 0 1 .864-1.632c.512-.448 1.152-.672 1.92-.672.64 0 1.2.16 1.68.48.512.288 1.024.784 1.536 1.488l8.64 11.904h-1.968l8.592-11.904c.512-.704 1.008-1.2 1.488-1.488.512-.32 1.104-.48 1.776-.48.8 0 1.456.208 1.968.624.512.416.8.96.864 1.632.064.64-.176 1.328-.72 2.064l-10.464 14.016v-2.64l10.944 14.64c.512.672.736 1.344.672 2.016-.064.64-.352 1.184-.864 1.632-.512.416-1.184.624-2.016.624-.608 0-1.168-.16-1.68-.48-.48-.32-.992-.832-1.536-1.536l-9.12-12.48h2.112l-9.072 12.48c-.512.704-1.024 1.216-1.536 1.536-.512.32-1.088.48-1.728.48Zm121.849.096c-2.336 0-4.4-.304-6.192-.912-1.76-.608-3.248-1.504-4.464-2.688-1.216-1.216-2.128-2.72-2.736-4.512-.608-1.792-.912-3.872-.912-6.24v-17.232c0-1.056.256-1.84.768-2.352.544-.512 1.312-.768 2.304-.768.992 0 1.744.256 2.256.768.544.512.816 1.296.816 2.352v17.184c0 3.04.688 5.328 2.064 6.864 1.408 1.504 3.44 2.256 6.096 2.256s4.672-.752 6.048-2.256c1.376-1.536 2.064-3.824 2.064-6.864v-17.184c0-1.056.256-1.84.768-2.352.544-.512 1.312-.768 2.304-.768.96 0 1.696.256 2.208.768.544.512.816 1.296.816 2.352v17.232c0 3.136-.544 5.776-1.632 7.92-1.056 2.144-2.64 3.76-4.752 4.848-2.112 1.056-4.72 1.584-7.824 1.584Zm24.446-.096c-.992 0-1.76-.272-2.304-.816-.512-.576-.768-1.36-.768-2.352v-28.272c0-1.024.256-1.808.768-2.352.544-.544 1.312-.816 2.304-.816.992 0 1.744.272 2.256.816.544.544.816 1.328.816 2.352v28.272c0 .992-.256 1.776-.768 2.352-.512.544-1.28.816-2.304.816Z"/>
  <path fill="#000538" d="M178.304 164.126c-.24 0-.426-.066-.558-.198-.12-.144-.18-.336-.18-.576v-11.286c0-.252.066-.438.198-.558.132-.132.318-.198.558-.198h4.266c1.356 0 2.4.336 3.132 1.008.732.66 1.098 1.596 1.098 2.808 0 1.2-.366 2.136-1.098 2.808-.732.672-1.776 1.008-3.132 1.008h-3.546v4.41c0 .24-.06.432-.18.576-.12.132-.306.198-.558.198Zm.738-6.426h3.366c.972 0 1.704-.216 2.196-.648.504-.444.756-1.086.756-1.926 0-.852-.252-1.494-.756-1.926-.492-.444-1.224-.666-2.196-.666h-3.366v5.166Zm10.279 6.426c-.24 0-.426-.066-.558-.198-.12-.132-.18-.318-.18-.558v-7.506c0-.24.06-.42.18-.54.12-.132.294-.198.522-.198.228 0 .402.066.522.198.132.12.198.3.198.54v1.458h-.18c.192-.708.558-1.254 1.098-1.638.54-.384 1.206-.588 1.998-.612.18-.012.324.03.432.126.108.084.168.234.18.45.012.204-.036.366-.144.486-.108.12-.276.192-.504.216l-.288.036c-.816.072-1.446.336-1.89.792-.432.444-.648 1.056-.648 1.836v4.356c0 .24-.066.426-.198.558-.12.132-.3.198-.54.198Zm9.244.036c-.852 0-1.59-.186-2.214-.558a3.83 3.83 0 0 1-1.458-1.566c-.336-.684-.504-1.488-.504-2.412 0-.696.096-1.32.288-1.872a3.912 3.912 0 0 1 .846-1.44c.372-.396.81-.696 1.314-.9a4.434 4.434 0 0 1 1.728-.324c.852 0 1.59.186 2.214.558a3.69 3.69 0 0 1 1.44 1.584c.348.672.522 1.47.522 2.394 0 .696-.096 1.32-.288 1.872a4.117 4.117 0 0 1-.846 1.44 3.837 3.837 0 0 1-1.332.918c-.504.204-1.074.306-1.71.306Zm0-1.17c.54 0 1.014-.132 1.422-.396.408-.264.72-.648.936-1.152.228-.504.342-1.11.342-1.818 0-1.092-.246-1.926-.738-2.502-.48-.576-1.134-.864-1.962-.864-.552 0-1.032.132-1.44.396-.396.252-.708.63-.936 1.134-.216.492-.324 1.104-.324 1.836 0 1.08.246 1.914.738 2.502.492.576 1.146.864 1.962.864Zm9.788 1.17c-.684 0-1.26-.12-1.728-.36a2.414 2.414 0 0 1-1.026-1.08c-.228-.48-.342-1.062-.342-1.746v-4.59h-1.206c-.204 0-.36-.048-.468-.144a.584.584 0 0 1-.162-.432c0-.18.054-.318.162-.414.108-.096.264-.144.468-.144h1.206v-2.07c0-.24.066-.42.198-.54.132-.132.312-.198.54-.198.228 0 .402.066.522.198.132.12.198.3.198.54v2.07h2.268c.204 0 .36.048.468.144.108.096.162.234.162.414 0 .18-.054.324-.162.432-.108.096-.264.144-.468.144h-2.268v4.446c0 .684.144 1.206.432 1.566.288.348.756.522 1.404.522.228 0 .42-.024.576-.072.168-.048.306-.072.414-.072a.294.294 0 0 1 .27.108c.072.084.108.228.108.432 0 .144-.03.276-.09.396a.434.434 0 0 1-.27.252c-.144.048-.336.09-.576.126a3.075 3.075 0 0 1-.63.072Zm6.331 0c-.852 0-1.59-.186-2.214-.558a3.83 3.83 0 0 1-1.458-1.566c-.336-.684-.504-1.488-.504-2.412 0-.696.096-1.32.288-1.872a3.912 3.912 0 0 1 .846-1.44c.372-.396.81-.696 1.314-.9a4.434 4.434 0 0 1 1.728-.324c.852 0 1.59.186 2.214.558a3.69 3.69 0 0 1 1.44 1.584c.348.672.522 1.47.522 2.394 0 .696-.096 1.32-.288 1.872a4.117 4.117 0 0 1-.846 1.44 3.837 3.837 0 0 1-1.332.918c-.504.204-1.074.306-1.71.306Zm0-1.17c.54 0 1.014-.132 1.422-.396.408-.264.72-.648.936-1.152.228-.504.342-1.11.342-1.818 0-1.092-.246-1.926-.738-2.502-.48-.576-1.134-.864-1.962-.864-.552 0-1.032.132-1.44.396-.396.252-.708.63-.936 1.134-.216.492-.324 1.104-.324 1.836 0 1.08.246 1.914.738 2.502.492.576 1.146.864 1.962.864Zm9.788 1.17c-.684 0-1.26-.12-1.728-.36a2.414 2.414 0 0 1-1.026-1.08c-.228-.48-.342-1.062-.342-1.746v-4.59h-1.206c-.204 0-.36-.048-.468-.144a.584.584 0 0 1-.162-.432c0-.18.054-.318.162-.414.108-.096.264-.144.468-.144h1.206v-2.07c0-.24.066-.42.198-.54.132-.132.312-.198.54-.198.228 0 .402.066.522.198.132.12.198.3.198.54v2.07h2.268c.204 0 .36.048.468.144.108.096.162.234.162.414 0 .18-.054.324-.162.432-.108.096-.264.144-.468.144h-2.268v4.446c0 .684.144 1.206.432 1.566.288.348.756.522 1.404.522.228 0 .42-.024.576-.072.168-.048.306-.072.414-.072a.294.294 0 0 1 .27.108c.072.084.108.228.108.432 0 .144-.03.276-.09.396a.434.434 0 0 1-.27.252c-.144.048-.336.09-.576.126a3.075 3.075 0 0 1-.63.072Zm3.608-.072c-.24 0-.42-.066-.54-.198-.12-.144-.18-.342-.18-.594v-7.362c0-.252.06-.444.18-.576.12-.132.3-.198.54-.198.228 0 .408.066.54.198.132.132.198.324.198.576v7.362c0 .252-.066.45-.198.594-.12.132-.3.198-.54.198Zm0-10.944c-.3 0-.534-.078-.702-.234-.168-.168-.252-.39-.252-.666 0-.288.084-.504.252-.648.168-.156.402-.234.702-.234.312 0 .546.078.702.234.168.144.252.36.252.648 0 .276-.084.498-.252.666-.156.156-.39.234-.702.234Zm4.184 14.22c-.24 0-.42-.066-.54-.198-.12-.12-.18-.3-.18-.54v-10.764c0-.24.06-.42.18-.54.12-.132.294-.198.522-.198.24 0 .42.066.54.198.132.12.198.3.198.54v1.71l-.198-.252a2.862 2.862 0 0 1 1.134-1.62c.576-.408 1.26-.612 2.052-.612.78 0 1.458.186 2.034.558.588.36 1.038.882 1.35 1.566.324.672.486 1.476.486 2.412 0 .924-.162 1.728-.486 2.412-.312.672-.756 1.194-1.332 1.566-.576.372-1.26.558-2.052.558s-1.47-.198-2.034-.594a3.034 3.034 0 0 1-1.152-1.62h.216v4.68c0 .24-.066.42-.198.54-.132.132-.312.198-.54.198Zm3.402-4.374c.552 0 1.026-.132 1.422-.396.408-.264.72-.648.936-1.152.228-.504.342-1.11.342-1.818 0-1.092-.246-1.926-.738-2.502-.48-.576-1.134-.864-1.962-.864-.54 0-1.014.132-1.422.396-.408.252-.726.63-.954 1.134-.216.492-.324 1.104-.324 1.836 0 1.08.246 1.914.738 2.502.492.576 1.146.864 1.962.864Zm10.008 1.17c-.852 0-1.59-.186-2.214-.558a3.83 3.83 0 0 1-1.458-1.566c-.336-.684-.504-1.488-.504-2.412 0-.696.096-1.32.288-1.872a3.912 3.912 0 0 1 .846-1.44c.372-.396.81-.696 1.314-.9a4.434 4.434 0 0 1 1.728-.324c.852 0 1.59.186 2.214.558a3.69 3.69 0 0 1 1.44 1.584c.348.672.522 1.47.522 2.394 0 .696-.096 1.32-.288 1.872a4.117 4.117 0 0 1-.846 1.44 3.837 3.837 0 0 1-1.332.918c-.504.204-1.074.306-1.71.306Zm0-1.17c.54 0 1.014-.132 1.422-.396.408-.264.72-.648.936-1.152.228-.504.342-1.11.342-1.818 0-1.092-.246-1.926-.738-2.502-.48-.576-1.134-.864-1.962-.864-.552 0-1.032.132-1.44.396-.396.252-.708.63-.936 1.134-.216.492-.324 1.104-.324 1.836 0 1.08.246 1.914.738 2.502.492.576 1.146.864 1.962.864Zm9.318 1.17c-.54 0-1.086-.066-1.638-.198a4.525 4.525 0 0 1-1.512-.684.708.708 0 0 1-.252-.288.706.706 0 0 1-.054-.342.66.66 0 0 1 .144-.306.474.474 0 0 1 .288-.144c.12-.024.252 0 .396.072.468.288.918.492 1.35.612.444.108.882.162 1.314.162.684 0 1.2-.126 1.548-.378a1.2 1.2 0 0 0 .522-1.026c0-.336-.114-.6-.342-.792-.228-.204-.588-.36-1.08-.468l-1.638-.36c-.756-.156-1.32-.426-1.692-.81-.36-.384-.54-.882-.54-1.494 0-.54.138-1.002.414-1.386.288-.396.69-.702 1.206-.918.516-.216 1.116-.324 1.8-.324.528 0 1.026.072 1.494.216.48.132.912.348 1.296.648.12.084.198.186.234.306a.478.478 0 0 1 .018.342.58.58 0 0 1-.162.288.54.54 0 0 1-.306.126.593.593 0 0 1-.378-.108 3.982 3.982 0 0 0-1.098-.522 3.563 3.563 0 0 0-1.098-.18c-.672 0-1.182.132-1.53.396a1.248 1.248 0 0 0-.522 1.044c0 .336.108.612.324.828.216.216.552.372 1.008.468l1.638.342c.78.168 1.362.438 1.746.81.396.36.594.852.594 1.476 0 .792-.318 1.422-.954 1.89-.636.468-1.482.702-2.538.702ZM117.542 493c-.235 0-.416-.059-.544-.176-.118-.128-.176-.309-.176-.544v-9.84c0-.235.058-.411.176-.528.128-.128.309-.192.544-.192h5.952c.181 0 .32.048.416.144a.54.54 0 0 1 .144.4c0 .181-.048.32-.144.416-.096.096-.235.144-.416.144h-5.392v3.904h5.056c.181 0 .32.048.416.144.096.085.144.219.144.4 0 .181-.048.32-.144.416-.096.096-.235.144-.416.144h-5.056v4.064h5.392c.181 0 .32.048.416.144a.54.54 0 0 1 .144.4c0 .181-.048.32-.144.416-.096.096-.235.144-.416.144h-5.952Zm10.931.144c-.48 0-.966-.059-1.456-.176a4.015 4.015 0 0 1-1.344-.608.624.624 0 0 1-.224-.256.62.62 0 0 1-.048-.304.583.583 0 0 1 .128-.272.42.42 0 0 1 .256-.128.547.547 0 0 1 .352.064c.416.256.816.437 1.2.544.394.096.784.144 1.168.144.608 0 1.066-.112 1.376-.336.309-.224.464-.528.464-.912 0-.299-.102-.533-.304-.704-.203-.181-.523-.32-.96-.416l-1.456-.32c-.672-.139-1.174-.379-1.504-.72-.32-.341-.48-.784-.48-1.328 0-.48.122-.891.368-1.232.256-.352.613-.624 1.072-.816.458-.192.992-.288 1.6-.288.469 0 .912.064 1.328.192.426.117.81.309 1.152.576a.513.513 0 0 1 .208.272.429.429 0 0 1 .016.304.527.527 0 0 1-.144.256.485.485 0 0 1-.608.016 3.558 3.558 0 0 0-.976-.464 3.159 3.159 0 0 0-.976-.16c-.598 0-1.051.117-1.36.352-.31.235-.464.544-.464.928 0 .299.096.544.288.736.192.192.49.331.896.416l1.456.304c.693.149 1.21.389 1.552.72.352.32.528.757.528 1.312 0 .704-.283 1.264-.848 1.68-.566.416-1.318.624-2.256.624Zm8.121 0c-.608 0-1.12-.107-1.536-.32a2.139 2.139 0 0 1-.912-.96c-.203-.427-.304-.944-.304-1.552v-4.08h-1.072c-.182 0-.32-.043-.416-.128a.519.519 0 0 1-.144-.384c0-.16.048-.283.144-.368.096-.085.234-.128.416-.128h1.072v-1.84c0-.213.058-.373.176-.48.117-.117.277-.176.48-.176.202 0 .357.059.464.176.117.107.176.267.176.48v1.84h2.016c.181 0 .32.043.416.128.096.085.144.208.144.368s-.048.288-.144.384c-.096.085-.235.128-.416.128h-2.016v3.952c0 .608.128 1.072.384 1.392.256.309.672.464 1.248.464.202 0 .373-.021.512-.064.149-.043.272-.064.368-.064a.26.26 0 0 1 .24.096c.064.075.096.203.096.384a.781.781 0 0 1-.08.352.387.387 0 0 1-.24.224 3.13 3.13 0 0 1-.512.112c-.203.043-.39.064-.56.064Zm3.13-.032c-.214 0-.379-.059-.496-.176-.107-.117-.16-.283-.16-.496v-6.672c0-.213.053-.373.16-.48.106-.117.261-.176.464-.176.202 0 .357.059.464.176.117.107.176.267.176.48v1.296h-.16c.17-.629.496-1.115.976-1.456.48-.341 1.072-.523 1.776-.544a.503.503 0 0 1 .384.112c.096.075.149.208.16.4.01.181-.032.325-.128.432-.096.107-.246.171-.448.192l-.256.032c-.726.064-1.286.299-1.68.704-.384.395-.576.939-.576 1.632v3.872c0 .213-.059.379-.176.496-.107.117-.267.176-.48.176Zm7.448.032a3.306 3.306 0 0 1-1.44-.304 2.6 2.6 0 0 1-.992-.864 2.117 2.117 0 0 1-.368-1.216c0-.576.144-1.029.432-1.36.298-.331.784-.565 1.456-.704.682-.139 1.61-.208 2.784-.208h.72v.848h-.704c-.864 0-1.547.043-2.048.128-.491.075-.838.208-1.04.4-.192.192-.288.464-.288.816 0 .437.149.795.448 1.072.309.277.725.416 1.248.416a2.076 2.076 0 0 0 1.888-1.136c.192-.352.288-.757.288-1.216v-1.824c0-.661-.134-1.136-.4-1.424-.267-.299-.704-.448-1.312-.448-.374 0-.747.048-1.12.144a5.763 5.763 0 0 0-1.184.464c-.15.075-.278.101-.384.08a.486.486 0 0 1-.256-.176.557.557 0 0 1-.112-.288.606.606 0 0 1 .064-.336.676.676 0 0 1 .288-.256 6.302 6.302 0 0 1 1.392-.512c.458-.107.896-.16 1.312-.16.672 0 1.226.112 1.664.336.437.213.762.544.976.992.213.437.32 1.003.32 1.696v4.336c0 .213-.054.379-.16.496-.096.117-.24.176-.432.176-.203 0-.358-.059-.464-.176-.107-.117-.16-.283-.16-.496v-1.248h.144a2.318 2.318 0 0 1-.496 1.04 2.398 2.398 0 0 1-.88.672 2.83 2.83 0 0 1-1.184.24Zm9.156 0c-.608 0-1.12-.107-1.536-.32a2.15 2.15 0 0 1-.912-.96c-.202-.427-.304-.944-.304-1.552v-4.08h-1.072c-.181 0-.32-.043-.416-.128a.519.519 0 0 1-.144-.384c0-.16.048-.283.144-.368.096-.085.235-.128.416-.128h1.072v-1.84c0-.213.059-.373.176-.48.118-.117.278-.176.48-.176.203 0 .358.059.464.176.118.107.176.267.176.48v1.84h2.016c.182 0 .32.043.416.128.096.085.144.208.144.368s-.048.288-.144.384c-.096.085-.234.128-.416.128h-2.016v3.952c0 .608.128 1.072.384 1.392.256.309.672.464 1.248.464.203 0 .374-.021.512-.064a1.39 1.39 0 0 1 .368-.064.26.26 0 0 1 .24.096c.064.075.096.203.096.384a.768.768 0 0 1-.08.352.382.382 0 0 1-.24.224c-.128.043-.298.08-.512.112a2.703 2.703 0 0 1-.56.064Zm5.9 0c-.822 0-1.531-.16-2.128-.48a3.523 3.523 0 0 1-1.376-1.392c-.32-.597-.48-1.312-.48-2.144 0-.811.16-1.515.48-2.112a3.598 3.598 0 0 1 1.312-1.424c.565-.341 1.216-.512 1.952-.512.522 0 .992.091 1.408.272.416.171.768.421 1.056.752.298.331.522.731.672 1.2.16.469.24.997.24 1.584 0 .171-.048.299-.144.384-.096.075-.235.112-.416.112h-5.568v-.848h5.264l-.256.208c0-.576-.086-1.061-.256-1.456a1.99 1.99 0 0 0-.752-.928c-.32-.213-.726-.32-1.216-.32-.544 0-1.008.128-1.392.384a2.278 2.278 0 0 0-.848 1.04c-.192.437-.288.949-.288 1.536v.096c0 .981.234 1.728.704 2.24.48.512 1.157.768 2.032.768.362 0 .72-.048 1.072-.144a3.615 3.615 0 0 0 1.056-.48c.149-.096.282-.139.4-.128a.41.41 0 0 1 .304.112.445.445 0 0 1 .144.256.432.432 0 0 1-.032.32.616.616 0 0 1-.272.304 3.986 3.986 0 0 1-1.248.592c-.48.139-.955.208-1.424.208Zm8.451 2.88c-.565 0-1.12-.069-1.664-.208a4.568 4.568 0 0 1-1.456-.624.568.568 0 0 1-.256-.272.656.656 0 0 1-.016-.32.627.627 0 0 1 .144-.272.512.512 0 0 1 .256-.144.49.49 0 0 1 .32.048c.47.288.918.485 1.344.592.427.107.848.16 1.264.16.758 0 1.328-.203 1.712-.608.395-.405.592-.992.592-1.76v-1.808h.16a2.496 2.496 0 0 1-1.024 1.472c-.512.363-1.114.544-1.808.544-.714 0-1.333-.16-1.856-.48a3.323 3.323 0 0 1-1.216-1.376c-.277-.587-.416-1.264-.416-2.032 0-.576.08-1.099.24-1.568.16-.48.39-.885.688-1.216a3.13 3.13 0 0 1 1.104-.784 3.587 3.587 0 0 1 1.456-.288c.704 0 1.312.181 1.824.544.512.352.843.832.992 1.44l-.16.192v-1.488c0-.213.054-.373.16-.48.118-.117.278-.176.48-.176.214 0 .374.059.48.176.107.107.16.267.16.48v6.672c0 1.184-.298 2.075-.896 2.672-.586.608-1.456.912-2.608.912Zm-.192-4.256c.502 0 .934-.112 1.296-.336.363-.235.64-.565.832-.992.203-.427.304-.928.304-1.504 0-.864-.218-1.547-.656-2.048-.437-.512-1.029-.768-1.776-.768-.49 0-.917.117-1.28.352a2.247 2.247 0 0 0-.848.976c-.192.416-.288.912-.288 1.488 0 .864.219 1.552.656 2.064.438.512 1.024.768 1.76.768Zm6.767 1.312c-.213 0-.373-.059-.48-.176-.106-.128-.16-.304-.16-.528v-6.544c0-.224.054-.395.16-.512.107-.117.267-.176.48-.176.203 0 .363.059.48.176.118.117.176.288.176.512v6.544c0 .224-.058.4-.176.528-.106.117-.266.176-.48.176Zm0-9.728c-.266 0-.474-.069-.624-.208-.149-.149-.224-.347-.224-.592 0-.256.075-.448.224-.576.15-.139.358-.208.624-.208.278 0 .486.069.624.208.15.128.224.32.224.576 0 .245-.074.443-.224.592-.138.139-.346.208-.624.208Zm5.527 9.792a3.312 3.312 0 0 1-1.44-.304 2.608 2.608 0 0 1-.992-.864 2.125 2.125 0 0 1-.368-1.216c0-.576.144-1.029.432-1.36.299-.331.784-.565 1.456-.704.683-.139 1.611-.208 2.784-.208h.72v.848h-.704c-.864 0-1.546.043-2.048.128-.49.075-.837.208-1.04.4-.192.192-.288.464-.288.816 0 .437.15.795.448 1.072.31.277.726.416 1.248.416.427 0 .8-.101 1.12-.304.331-.203.587-.48.768-.832.192-.352.288-.757.288-1.216v-1.824c0-.661-.133-1.136-.4-1.424-.266-.299-.704-.448-1.312-.448-.373 0-.746.048-1.12.144a5.785 5.785 0 0 0-1.184.464c-.149.075-.277.101-.384.08a.49.49 0 0 1-.256-.176.566.566 0 0 1-.112-.288.624.624 0 0 1 .064-.336.676.676 0 0 1 .288-.256c.47-.235.934-.405 1.392-.512.459-.107.896-.16 1.312-.16.672 0 1.227.112 1.664.336.438.213.763.544.976.992.214.437.32 1.003.32 1.696v4.336c0 .213-.053.379-.16.496-.096.117-.24.176-.432.176-.202 0-.357-.059-.464-.176-.106-.117-.16-.283-.16-.496v-1.248h.144c-.085.405-.25.752-.496 1.04a2.39 2.39 0 0 1-.88.672c-.352.16-.746.24-1.184.24Zm13.122 0c-.694 0-1.302-.165-1.824-.496-.512-.331-.912-.795-1.2-1.392-.278-.608-.416-1.323-.416-2.144 0-.832.138-1.547.416-2.144.288-.608.688-1.072 1.2-1.392.522-.331 1.13-.496 1.824-.496.704 0 1.306.176 1.808.528.501.352.837.827 1.008 1.424h-.176v-4.768c0-.213.053-.373.16-.48.117-.117.282-.176.496-.176.202 0 .357.059.464.176.117.107.176.267.176.48v10.176c0 .213-.054.379-.16.496-.107.117-.267.176-.48.176-.203 0-.363-.059-.48-.176-.107-.117-.16-.283-.16-.496v-1.52l.176.224a2.594 2.594 0 0 1-1.024 1.456c-.502.363-1.104.544-1.808.544Zm.272-1.04c.48 0 .901-.117 1.264-.352.362-.235.64-.576.832-1.024.202-.448.304-.987.304-1.616 0-.971-.219-1.712-.656-2.224-.427-.512-1.008-.768-1.744-.768-.491 0-.918.117-1.28.352-.352.224-.63.56-.832 1.008-.192.437-.288.981-.288 1.632 0 .96.218 1.701.656 2.224.437.512 1.018.768 1.744.768Zm9.6 1.04c-.822 0-1.531-.16-2.128-.48a3.523 3.523 0 0 1-1.376-1.392c-.32-.597-.48-1.312-.48-2.144 0-.811.16-1.515.48-2.112a3.598 3.598 0 0 1 1.312-1.424c.565-.341 1.216-.512 1.952-.512.522 0 .992.091 1.408.272.416.171.768.421 1.056.752.298.331.522.731.672 1.2.16.469.24.997.24 1.584 0 .171-.048.299-.144.384-.096.075-.235.112-.416.112h-5.568v-.848h5.264l-.256.208c0-.576-.086-1.061-.256-1.456a1.99 1.99 0 0 0-.752-.928c-.32-.213-.726-.32-1.216-.32-.544 0-1.008.128-1.392.384a2.278 2.278 0 0 0-.848 1.04c-.192.437-.288.949-.288 1.536v.096c0 .981.234 1.728.704 2.24.48.512 1.157.768 2.032.768.362 0 .72-.048 1.072-.144a3.615 3.615 0 0 0 1.056-.48c.149-.096.282-.139.4-.128a.41.41 0 0 1 .304.112.445.445 0 0 1 .144.256.432.432 0 0 1-.032.32.616.616 0 0 1-.272.304 3.986 3.986 0 0 1-1.248.592c-.48.139-.955.208-1.424.208Zm-73.911 24c-.779 0-1.451-.171-2.016-.512a3.447 3.447 0 0 1-1.312-1.424c-.299-.619-.448-1.333-.448-2.144 0-.619.085-1.173.256-1.664.17-.491.421-.907.752-1.248.33-.352.725-.619 1.184-.8a4.371 4.371 0 0 1 1.584-.272c.384 0 .784.059 1.2.176.416.117.794.32 1.136.608a.513.513 0 0 1 .208.592.659.659 0 0 1-.16.256.489.489 0 0 1-.624 0 2.62 2.62 0 0 0-.848-.448 2.94 2.94 0 0 0-.832-.128c-.416 0-.779.069-1.088.208a2.07 2.07 0 0 0-.784.56 2.56 2.56 0 0 0-.496.912c-.107.363-.16.784-.16 1.264 0 .928.218 1.664.656 2.208.437.533 1.061.8 1.872.8a2.783 2.783 0 0 0 1.68-.576.489.489 0 0 1 .336-.112.437.437 0 0 1 .272.128.445.445 0 0 1 .144.256.545.545 0 0 1 0 .32.524.524 0 0 1-.208.256c-.342.277-.715.48-1.12.608-.406.117-.8.176-1.184.176Zm7.186 0c-.758 0-1.414-.165-1.968-.496a3.405 3.405 0 0 1-1.296-1.392c-.299-.608-.448-1.323-.448-2.144 0-.619.085-1.173.256-1.664.17-.501.421-.928.752-1.28.33-.352.72-.619 1.168-.8.458-.192.97-.288 1.536-.288.757 0 1.413.165 1.968.496.554.331.981.8 1.28 1.408.309.597.464 1.307.464 2.128 0 .619-.086 1.173-.256 1.664a3.675 3.675 0 0 1-.752 1.28 3.42 3.42 0 0 1-1.184.816 4.03 4.03 0 0 1-1.52.272Zm0-1.04c.48 0 .901-.117 1.264-.352.362-.235.64-.576.832-1.024.202-.448.304-.987.304-1.616 0-.971-.219-1.712-.656-2.224-.427-.512-1.008-.768-1.744-.768-.491 0-.918.117-1.28.352-.352.224-.63.56-.832 1.008-.192.437-.288.981-.288 1.632 0 .96.218 1.701.656 2.224.437.512 1.018.768 1.744.768Zm6.298 1.008c-.213 0-.373-.059-.48-.176-.106-.117-.16-.283-.16-.496v-6.672c0-.213.054-.373.16-.48.107-.117.262-.176.464-.176.203 0 .358.059.464.176.118.107.176.267.176.48v1.376l-.176-.192c.224-.619.587-1.083 1.088-1.392.512-.32 1.099-.48 1.76-.48.619 0 1.131.112 1.536.336.416.224.726.565.928 1.024.203.448.304 1.019.304 1.712v4.288c0 .213-.058.379-.176.496-.106.117-.261.176-.464.176-.213 0-.378-.059-.496-.176-.106-.117-.16-.283-.16-.496v-4.208c0-.725-.144-1.253-.432-1.584-.277-.341-.725-.512-1.344-.512-.714 0-1.285.224-1.712.672-.416.437-.624 1.024-.624 1.76v3.872c0 .448-.218.672-.656.672Zm11.574.032c-.608 0-1.12-.107-1.536-.32a2.15 2.15 0 0 1-.912-.96c-.203-.427-.304-.944-.304-1.552v-4.08h-1.072c-.181 0-.32-.043-.416-.128a.519.519 0 0 1-.144-.384c0-.16.048-.283.144-.368.096-.085.235-.128.416-.128h1.072v-1.84c0-.213.059-.373.176-.48.117-.117.277-.176.48-.176.203 0 .357.059.464.176.117.107.176.267.176.48v1.84h2.016c.181 0 .32.043.416.128.096.085.144.208.144.368s-.048.288-.144.384c-.096.085-.235.128-.416.128h-2.016v3.952c0 .608.128 1.072.384 1.392.256.309.672.464 1.248.464.203 0 .373-.021.512-.064.149-.043.272-.064.368-.064a.26.26 0 0 1 .24.096c.064.075.096.203.096.384a.781.781 0 0 1-.08.352.387.387 0 0 1-.24.224 3.13 3.13 0 0 1-.512.112 2.71 2.71 0 0 1-.56.064Zm5.9 0c-.822 0-1.531-.16-2.128-.48a3.523 3.523 0 0 1-1.376-1.392c-.32-.597-.48-1.312-.48-2.144 0-.811.16-1.515.48-2.112a3.598 3.598 0 0 1 1.312-1.424c.565-.341 1.216-.512 1.952-.512.522 0 .992.091 1.408.272.416.171.768.421 1.056.752.298.331.522.731.672 1.2.16.469.24.997.24 1.584 0 .171-.048.299-.144.384-.096.075-.235.112-.416.112h-5.568v-.848h5.264l-.256.208c0-.576-.086-1.061-.256-1.456a1.99 1.99 0 0 0-.752-.928c-.32-.213-.726-.32-1.216-.32-.544 0-1.008.128-1.392.384a2.278 2.278 0 0 0-.848 1.04c-.192.437-.288.949-.288 1.536v.096c0 .981.234 1.728.704 2.24.48.512 1.157.768 2.032.768.362 0 .72-.048 1.072-.144a3.615 3.615 0 0 0 1.056-.48c.149-.096.282-.139.4-.128a.41.41 0 0 1 .304.112.445.445 0 0 1 .144.256.432.432 0 0 1-.032.32.616.616 0 0 1-.272.304 3.986 3.986 0 0 1-1.248.592c-.48.139-.955.208-1.424.208Zm5.651-.032c-.213 0-.373-.059-.48-.176-.106-.117-.16-.283-.16-.496v-6.672c0-.213.054-.373.16-.48.107-.117.262-.176.464-.176.203 0 .358.059.464.176.118.107.176.267.176.48v1.376l-.176-.192c.224-.619.587-1.083 1.088-1.392.512-.32 1.099-.48 1.76-.48.619 0 1.131.112 1.536.336.416.224.726.565.928 1.024.203.448.304 1.019.304 1.712v4.288c0 .213-.058.379-.176.496-.106.117-.261.176-.464.176-.213 0-.378-.059-.496-.176-.106-.117-.16-.283-.16-.496v-4.208c0-.725-.144-1.253-.432-1.584-.277-.341-.725-.512-1.344-.512-.714 0-1.285.224-1.712.672-.416.437-.624 1.024-.624 1.76v3.872c0 .448-.218.672-.656.672Zm9.094-.032c-.213 0-.373-.059-.48-.176-.107-.128-.16-.304-.16-.528v-6.544c0-.224.053-.395.16-.512.107-.117.267-.176.48-.176.203 0 .363.059.48.176.117.117.176.288.176.512v6.544c0 .224-.059.4-.176.528-.107.117-.267.176-.48.176Zm0-9.728c-.267 0-.475-.069-.624-.208-.149-.149-.224-.347-.224-.592 0-.256.075-.448.224-.576.149-.139.357-.208.624-.208.277 0 .485.069.624.208.149.128.224.32.224.576 0 .245-.075.443-.224.592-.139.139-.347.208-.624.208Zm6.039 9.792c-.694 0-1.302-.165-1.824-.496-.512-.331-.912-.795-1.2-1.392-.278-.608-.416-1.323-.416-2.144 0-.832.138-1.547.416-2.144.288-.608.688-1.072 1.2-1.392.522-.331 1.13-.496 1.824-.496.704 0 1.306.176 1.808.528.501.352.837.827 1.008 1.424h-.176v-4.768c0-.213.053-.373.16-.48.117-.117.282-.176.496-.176.202 0 .357.059.464.176.117.107.176.267.176.48v10.176c0 .213-.054.379-.16.496-.107.117-.267.176-.48.176-.203 0-.363-.059-.48-.176-.107-.117-.16-.283-.16-.496v-1.52l.176.224a2.594 2.594 0 0 1-1.024 1.456c-.502.363-1.104.544-1.808.544Zm.272-1.04c.48 0 .901-.117 1.264-.352.362-.235.64-.576.832-1.024.202-.448.304-.987.304-1.616 0-.971-.219-1.712-.656-2.224-.427-.512-1.008-.768-1.744-.768-.491 0-.918.117-1.28.352-.352.224-.63.56-.832 1.008-.192.437-.288.981-.288 1.632 0 .96.218 1.701.656 2.224.437.512 1.018.768 1.744.768Zm9.328 1.04c-.758 0-1.414-.165-1.968-.496a3.405 3.405 0 0 1-1.296-1.392c-.299-.608-.448-1.323-.448-2.144 0-.619.085-1.173.256-1.664.17-.501.421-.928.752-1.28.33-.352.72-.619 1.168-.8.458-.192.97-.288 1.536-.288.757 0 1.413.165 1.968.496.554.331.981.8 1.28 1.408.309.597.464 1.307.464 2.128 0 .619-.086 1.173-.256 1.664a3.675 3.675 0 0 1-.752 1.28 3.42 3.42 0 0 1-1.184.816 4.03 4.03 0 0 1-1.52.272Zm0-1.04c.48 0 .901-.117 1.264-.352.362-.235.64-.576.832-1.024.202-.448.304-.987.304-1.616 0-.971-.219-1.712-.656-2.224-.427-.512-1.008-.768-1.744-.768-.491 0-.918.117-1.28.352-.352.224-.63.56-.832 1.008-.192.437-.288.981-.288 1.632 0 .96.218 1.701.656 2.224.437.512 1.018.768 1.744.768Zm87.89 77.008c-.235 0-.416-.064-.544-.192-.128-.139-.192-.331-.192-.576v-9.968c0-.256.064-.448.192-.576.128-.128.309-.192.544-.192.245 0 .432.064.56.192.128.128.192.32.192.576v9.968c0 .245-.064.437-.192.576-.117.128-.304.192-.56.192Zm3.292 0a.773.773 0 0 1-.464-.128.524.524 0 0 1-.192-.352.865.865 0 0 1 .096-.496l4.368-9.888c.096-.224.218-.384.368-.48a.83.83 0 0 1 .976 0c.149.096.277.256.384.48l4.368 9.888a.918.918 0 0 1 .096.512.475.475 0 0 1-.176.352c-.107.075-.256.112-.448.112-.214 0-.384-.053-.512-.16a1.496 1.496 0 0 1-.336-.496l-1.136-2.656.688.384h-6.848l.688-.384-1.136 2.656c-.096.235-.203.405-.32.512a.711.711 0 0 1-.464.144Zm4.64-9.712-2.496 5.904-.384-.336h5.792l-.368.336-2.512-5.904h-.032ZM460.112 321c-.235 0-.416-.059-.544-.176-.117-.128-.176-.309-.176-.544v-9.84c0-.235.059-.411.176-.528.128-.128.309-.192.544-.192h3.088c1.824 0 3.232.48 4.224 1.44s1.488 2.357 1.488 4.192c0 .917-.128 1.728-.384 2.432a4.533 4.533 0 0 1-1.104 1.76 4.76 4.76 0 0 1-1.792 1.088c-.704.245-1.515.368-2.432.368h-3.088Zm.592-1.12h2.4c.747 0 1.392-.096 1.936-.288a3.462 3.462 0 0 0 1.376-.848c.373-.373.651-.843.832-1.408.181-.576.272-1.237.272-1.984 0-1.504-.368-2.629-1.104-3.376-.736-.757-1.84-1.136-3.312-1.136h-2.4v9.04Zm11.027 1.2c-.213 0-.373-.059-.48-.176-.107-.128-.16-.304-.16-.528v-6.544c0-.224.053-.395.16-.512.107-.117.267-.176.48-.176.203 0 .363.059.48.176.117.117.176.288.176.512v6.544c0 .224-.059.4-.176.528-.107.117-.267.176-.48.176Zm0-9.728c-.267 0-.475-.069-.624-.208-.149-.149-.224-.347-.224-.592 0-.256.075-.448.224-.576.149-.139.357-.208.624-.208.277 0 .485.069.624.208.149.128.224.32.224.576 0 .245-.075.443-.224.592-.139.139-.347.208-.624.208Zm5.703 9.792c-.48 0-.966-.059-1.456-.176a4.015 4.015 0 0 1-1.344-.608.624.624 0 0 1-.224-.256.62.62 0 0 1-.048-.304.583.583 0 0 1 .128-.272.42.42 0 0 1 .256-.128.547.547 0 0 1 .352.064c.416.256.816.437 1.2.544.394.096.784.144 1.168.144.608 0 1.066-.112 1.376-.336.309-.224.464-.528.464-.912 0-.299-.102-.533-.304-.704-.203-.181-.523-.32-.96-.416l-1.456-.32c-.672-.139-1.174-.379-1.504-.72-.32-.341-.48-.784-.48-1.328 0-.48.122-.891.368-1.232.256-.352.613-.624 1.072-.816.458-.192.992-.288 1.6-.288.469 0 .912.064 1.328.192.426.117.81.309 1.152.576a.513.513 0 0 1 .208.272.429.429 0 0 1 .016.304.527.527 0 0 1-.144.256.485.485 0 0 1-.608.016 3.558 3.558 0 0 0-.976-.464 3.159 3.159 0 0 0-.976-.16c-.598 0-1.051.117-1.36.352-.31.235-.464.544-.464.928 0 .299.096.544.288.736.192.192.49.331.896.416l1.456.304c.693.149 1.21.389 1.552.72.352.32.528.757.528 1.312 0 .704-.283 1.264-.848 1.68-.566.416-1.318.624-2.256.624Zm8.583 0c-.821 0-1.531-.16-2.128-.48a3.53 3.53 0 0 1-1.376-1.392c-.32-.597-.48-1.312-.48-2.144 0-.811.16-1.515.48-2.112a3.598 3.598 0 0 1 1.312-1.424c.565-.341 1.216-.512 1.952-.512.523 0 .992.091 1.408.272.416.171.768.421 1.056.752.299.331.523.731.672 1.2.16.469.24.997.24 1.584 0 .171-.048.299-.144.384-.096.075-.235.112-.416.112h-5.568v-.848h5.264l-.256.208c0-.576-.085-1.061-.256-1.456-.171-.405-.421-.715-.752-.928-.32-.213-.725-.32-1.216-.32-.544 0-1.008.128-1.392.384a2.284 2.284 0 0 0-.848 1.04c-.192.437-.288.949-.288 1.536v.096c0 .981.235 1.728.704 2.24.48.512 1.157.768 2.032.768.363 0 .72-.048 1.072-.144a3.592 3.592 0 0 0 1.056-.48c.149-.096.283-.139.4-.128a.41.41 0 0 1 .304.112.434.434 0 0 1 .144.256.432.432 0 0 1-.032.32.612.612 0 0 1-.272.304 3.986 3.986 0 0 1-1.248.592c-.48.139-.955.208-1.424.208Zm5.652-.032c-.214 0-.374-.059-.48-.176-.107-.117-.16-.283-.16-.496v-6.672c0-.213.053-.373.16-.48.106-.117.261-.176.464-.176.202 0 .357.059.464.176.117.107.176.267.176.48v1.376l-.176-.192c.224-.619.586-1.083 1.088-1.392.512-.32 1.098-.48 1.76-.48.618 0 1.13.112 1.536.336.416.224.725.565.928 1.024.202.448.304 1.019.304 1.712v4.288c0 .213-.059.379-.176.496-.107.117-.262.176-.464.176-.214 0-.379-.059-.496-.176-.107-.117-.16-.283-.16-.496v-4.208c0-.725-.144-1.253-.432-1.584-.278-.341-.726-.512-1.344-.512-.715 0-1.286.224-1.712.672-.416.437-.624 1.024-.624 1.76v3.872c0 .448-.219.672-.656.672Zm.192-9.504a.367.367 0 0 1-.272-.112c-.064-.075-.08-.187-.048-.336.042-.256.106-.491.192-.704.085-.213.197-.4.336-.56a1.43 1.43 0 0 1 .48-.368c.192-.096.41-.144.656-.144.266 0 .496.064.688.192.202.117.389.256.56.416.181.149.357.288.528.416a.89.89 0 0 0 .544.192.777.777 0 0 0 .608-.272c.17-.192.282-.443.336-.752.021-.107.064-.181.128-.224a.414.414 0 0 1 .288-.064.32.32 0 0 1 .256.112c.074.075.096.187.064.336a2.72 2.72 0 0 1-.304.896c-.139.267-.32.48-.544.64-.224.16-.496.24-.816.24a1.38 1.38 0 0 1-.704-.176 5.207 5.207 0 0 1-.56-.432 4.432 4.432 0 0 0-.512-.416.892.892 0 0 0-.544-.192.776.776 0 0 0-.608.272c-.16.181-.272.432-.336.752a.365.365 0 0 1-.144.224c-.064.053-.155.075-.272.064Zm11.493 9.536c-.757 0-1.413-.165-1.968-.496a3.418 3.418 0 0 1-1.296-1.392c-.298-.608-.448-1.323-.448-2.144 0-.619.086-1.173.256-1.664.171-.501.422-.928.752-1.28.331-.352.72-.619 1.168-.8a3.944 3.944 0 0 1 1.536-.288c.758 0 1.414.165 1.968.496.555.331.982.8 1.28 1.408.31.597.464 1.307.464 2.128 0 .619-.085 1.173-.256 1.664-.17.491-.421.917-.752 1.28-.33.352-.725.624-1.184.816a4.026 4.026 0 0 1-1.52.272Zm0-1.04c.48 0 .902-.117 1.264-.352.363-.235.64-.576.832-1.024.203-.448.304-.987.304-1.616 0-.971-.218-1.712-.656-2.224-.426-.512-1.008-.768-1.744-.768-.49 0-.917.117-1.28.352-.352.224-.629.56-.832 1.008-.192.437-.288.981-.288 1.632 0 .96.219 1.701.656 2.224.438.512 1.019.768 1.744.768Zm12.68 1.008a.824.824 0 0 1-.48-.144 1.225 1.225 0 0 1-.352-.48l-2.768-6.464a.774.774 0 0 1-.08-.448.511.511 0 0 1 .192-.336c.107-.085.256-.128.448-.128.171 0 .304.037.4.112.096.075.181.208.256.4l2.624 6.416h-.432l2.672-6.416c.075-.192.16-.325.256-.4.096-.075.235-.112.416-.112.171 0 .299.043.384.128a.48.48 0 0 1 .16.336.811.811 0 0 1-.064.432l-2.8 6.48a.962.962 0 0 1-.336.48.85.85 0 0 1-.496.144Zm5.978-.032c-.213 0-.373-.059-.48-.176-.106-.128-.16-.304-.16-.528v-6.544c0-.224.054-.395.16-.512.107-.117.267-.176.48-.176.203 0 .363.059.48.176.118.117.176.288.176.512v6.544c0 .224-.058.4-.176.528-.106.117-.266.176-.48.176Zm0-9.728c-.266 0-.474-.069-.624-.208-.149-.149-.224-.347-.224-.592 0-.256.075-.448.224-.576.15-.139.358-.208.624-.208.278 0 .486.069.624.208.15.128.224.32.224.576 0 .245-.074.443-.224.592-.138.139-.346.208-.624.208Zm5.703 9.792c-.48 0-.965-.059-1.456-.176a4.015 4.015 0 0 1-1.344-.608.632.632 0 0 1-.224-.256.62.62 0 0 1-.048-.304.583.583 0 0 1 .128-.272.422.422 0 0 1 .256-.128.546.546 0 0 1 .352.064c.416.256.816.437 1.2.544.395.096.784.144 1.168.144.608 0 1.067-.112 1.376-.336.309-.224.464-.528.464-.912 0-.299-.101-.533-.304-.704-.203-.181-.523-.32-.96-.416l-1.456-.32c-.672-.139-1.173-.379-1.504-.72-.32-.341-.48-.784-.48-1.328 0-.48.123-.891.368-1.232.256-.352.613-.624 1.072-.816.459-.192.992-.288 1.6-.288.469 0 .912.064 1.328.192.427.117.811.309 1.152.576a.509.509 0 0 1 .208.272.423.423 0 0 1 .016.304.512.512 0 0 1-.144.256.483.483 0 0 1-.272.112.522.522 0 0 1-.336-.096 3.544 3.544 0 0 0-.976-.464 3.159 3.159 0 0 0-.976-.16c-.597 0-1.051.117-1.36.352a1.11 1.11 0 0 0-.464.928c0 .299.096.544.288.736.192.192.491.331.896.416l1.456.304c.693.149 1.211.389 1.552.72.352.32.528.757.528 1.312 0 .704-.283 1.264-.848 1.68-.565.416-1.317.624-2.256.624Zm7.831 0c-.629 0-1.152-.112-1.568-.336a2.269 2.269 0 0 1-.928-1.04c-.203-.459-.304-1.029-.304-1.712v-4.288c0-.224.053-.389.16-.496.117-.107.277-.16.48-.16.213 0 .373.053.48.16.117.107.176.272.176.496v4.272c0 .683.139 1.195.416 1.536.288.331.736.496 1.344.496.661 0 1.2-.224 1.616-.672.416-.448.624-1.035.624-1.76v-3.872c0-.224.053-.389.16-.496.117-.107.283-.16.496-.16.203 0 .357.053.464.16.117.107.176.272.176.496v6.672c0 .448-.208.672-.624.672-.203 0-.363-.059-.48-.176-.107-.117-.16-.283-.16-.496v-1.456l.208.224c-.213.629-.565 1.109-1.056 1.44-.48.331-1.04.496-1.68.496Zm8.665 0a3.312 3.312 0 0 1-1.44-.304 2.6 2.6 0 0 1-.992-.864 2.125 2.125 0 0 1-.368-1.216c0-.576.144-1.029.432-1.36.299-.331.784-.565 1.456-.704.683-.139 1.611-.208 2.784-.208h.72v.848h-.704c-.864 0-1.547.043-2.048.128-.491.075-.837.208-1.04.4-.192.192-.288.464-.288.816 0 .437.149.795.448 1.072.309.277.725.416 1.248.416.427 0 .8-.101 1.12-.304.331-.203.587-.48.768-.832.192-.352.288-.757.288-1.216v-1.824c0-.661-.133-1.136-.4-1.424-.267-.299-.704-.448-1.312-.448-.373 0-.747.048-1.12.144a5.785 5.785 0 0 0-1.184.464c-.149.075-.277.101-.384.08a.486.486 0 0 1-.256-.176.566.566 0 0 1-.112-.288.614.614 0 0 1 .064-.336.676.676 0 0 1 .288-.256 6.302 6.302 0 0 1 1.392-.512c.459-.107.896-.16 1.312-.16.672 0 1.227.112 1.664.336.437.213.763.544.976.992.213.437.32 1.003.32 1.696v4.336c0 .213-.053.379-.16.496-.096.117-.24.176-.432.176-.203 0-.357-.059-.464-.176-.107-.117-.16-.283-.16-.496v-1.248h.144a2.307 2.307 0 0 1-.496 1.04 2.398 2.398 0 0 1-.88.672 2.83 2.83 0 0 1-1.184.24Zm8.404 0c-.768 0-1.354-.235-1.76-.704-.405-.469-.608-1.141-.608-2.016v-8.16c0-.213.054-.373.16-.48.107-.117.267-.176.48-.176.203 0 .363.059.48.176.118.107.176.267.176.48v8.064c0 .576.112 1.008.336 1.296.235.277.576.416 1.024.416.096 0 .182-.005.256-.016.075-.011.15-.016.224-.016.118-.011.198.016.24.08.054.064.08.192.08.384s-.042.336-.128.432c-.085.096-.224.16-.416.192l-.272.032a2.38 2.38 0 0 1-.272.016ZM447.032 440.112c-.192 0-.341-.053-.448-.16-.107-.117-.16-.277-.16-.48v-10.224c0-.213.053-.373.16-.48.107-.107.256-.16.448-.16.171 0 .304.037.4.112a.831.831 0 0 1 .288.336l4.384 8.256h-.48l4.368-8.256a.904.904 0 0 1 .272-.336c.096-.075.235-.112.416-.112s.325.053.432.16c.107.107.16.267.16.48v10.224c0 .203-.053.363-.16.48-.096.107-.245.16-.448.16-.192 0-.341-.053-.448-.16-.107-.117-.16-.277-.16-.48v-8.992h.384l-4 7.504a.921.921 0 0 1-.24.304c-.075.053-.187.08-.336.08a.575.575 0 0 1-.352-.096.8.8 0 0 1-.224-.288l-4.048-7.52h.384v9.008c0 .203-.053.363-.16.48-.096.107-.24.16-.432.16Zm16.104.032c-.758 0-1.414-.165-1.968-.496a3.405 3.405 0 0 1-1.296-1.392c-.299-.608-.448-1.323-.448-2.144 0-.619.085-1.173.256-1.664.17-.501.421-.928.752-1.28.33-.352.72-.619 1.168-.8.458-.192.97-.288 1.536-.288.757 0 1.413.165 1.968.496.554.331.981.8 1.28 1.408.309.597.464 1.307.464 2.128 0 .619-.086 1.173-.256 1.664a3.675 3.675 0 0 1-.752 1.28 3.42 3.42 0 0 1-1.184.816 4.03 4.03 0 0 1-1.52.272Zm0-1.04c.48 0 .901-.117 1.264-.352.362-.235.64-.576.832-1.024.202-.448.304-.987.304-1.616 0-.971-.219-1.712-.656-2.224-.427-.512-1.008-.768-1.744-.768-.491 0-.918.117-1.28.352-.352.224-.63.56-.832 1.008-.192.437-.288.981-.288 1.632 0 .96.218 1.701.656 2.224.437.512 1.018.768 1.744.768Zm8.7 1.04c-.608 0-1.12-.107-1.536-.32a2.15 2.15 0 0 1-.912-.96c-.203-.427-.304-.944-.304-1.552v-4.08h-1.072c-.181 0-.32-.043-.416-.128a.519.519 0 0 1-.144-.384c0-.16.048-.283.144-.368.096-.085.235-.128.416-.128h1.072v-1.84c0-.213.059-.373.176-.48.117-.117.277-.176.48-.176.203 0 .357.059.464.176.117.107.176.267.176.48v1.84h2.016c.181 0 .32.043.416.128.096.085.144.208.144.368s-.048.288-.144.384c-.096.085-.235.128-.416.128h-2.016v3.952c0 .608.128 1.072.384 1.392.256.309.672.464 1.248.464.203 0 .373-.021.512-.064.149-.043.272-.064.368-.064a.26.26 0 0 1 .24.096c.064.075.096.203.096.384a.781.781 0 0 1-.08.352.387.387 0 0 1-.24.224 3.13 3.13 0 0 1-.512.112 2.71 2.71 0 0 1-.56.064Zm3.208-.064c-.214 0-.374-.059-.48-.176-.107-.128-.16-.304-.16-.528v-6.544c0-.224.053-.395.16-.512.106-.117.266-.176.48-.176.202 0 .362.059.48.176.117.117.176.288.176.512v6.544c0 .224-.059.4-.176.528-.107.117-.267.176-.48.176Zm0-9.728c-.267 0-.475-.069-.624-.208-.15-.149-.224-.347-.224-.592 0-.256.074-.448.224-.576.149-.139.357-.208.624-.208.277 0 .485.069.624.208.149.128.224.32.224.576 0 .245-.075.443-.224.592-.139.139-.347.208-.624.208Zm6.31 9.792c-.757 0-1.413-.165-1.968-.496a3.418 3.418 0 0 1-1.296-1.392c-.298-.608-.448-1.323-.448-2.144 0-.619.086-1.173.256-1.664.171-.501.422-.928.752-1.28.331-.352.72-.619 1.168-.8a3.944 3.944 0 0 1 1.536-.288c.758 0 1.414.165 1.968.496.555.331.982.8 1.28 1.408.31.597.464 1.307.464 2.128 0 .619-.085 1.173-.256 1.664-.17.491-.421.917-.752 1.28-.33.352-.725.624-1.184.816a4.026 4.026 0 0 1-1.52.272Zm0-1.04c.48 0 .902-.117 1.264-.352.363-.235.64-.576.832-1.024.203-.448.304-.987.304-1.616 0-.971-.218-1.712-.656-2.224-.426-.512-1.008-.768-1.744-.768-.49 0-.917.117-1.28.352-.352.224-.629.56-.832 1.008-.192.437-.288.981-.288 1.632 0 .96.219 1.701.656 2.224.438.512 1.019.768 1.744.768Zm6.299 1.008c-.213 0-.373-.059-.48-.176-.107-.117-.16-.283-.16-.496v-6.672c0-.213.053-.373.16-.48.107-.117.261-.176.464-.176s.357.059.464.176c.117.107.176.267.176.48v1.376l-.176-.192c.224-.619.587-1.083 1.088-1.392.512-.32 1.099-.48 1.76-.48.619 0 1.131.112 1.536.336.416.224.725.565.928 1.024.203.448.304 1.019.304 1.712v4.288c0 .213-.059.379-.176.496-.107.117-.261.176-.464.176-.213 0-.379-.059-.496-.176-.107-.117-.16-.283-.16-.496v-4.208c0-.725-.144-1.253-.432-1.584-.277-.341-.725-.512-1.344-.512-.715 0-1.285.224-1.712.672-.416.437-.624 1.024-.624 1.76v3.872c0 .448-.219.672-.656.672Zm15.539.032c-.694 0-1.302-.165-1.824-.496-.512-.331-.912-.795-1.2-1.392-.278-.608-.416-1.323-.416-2.144 0-.832.138-1.547.416-2.144.288-.608.688-1.072 1.2-1.392.522-.331 1.13-.496 1.824-.496.704 0 1.306.176 1.808.528.501.352.837.827 1.008 1.424h-.176v-4.768c0-.213.053-.373.16-.48.117-.117.282-.176.496-.176.202 0 .357.059.464.176.117.107.176.267.176.48v10.176c0 .213-.054.379-.16.496-.107.117-.267.176-.48.176-.203 0-.363-.059-.48-.176-.107-.117-.16-.283-.16-.496v-1.52l.176.224A2.594 2.594 0 0 1 505 439.6c-.502.363-1.104.544-1.808.544Zm.272-1.04c.48 0 .901-.117 1.264-.352.362-.235.64-.576.832-1.024.202-.448.304-.987.304-1.616 0-.971-.219-1.712-.656-2.224-.427-.512-1.008-.768-1.744-.768-.491 0-.918.117-1.28.352-.352.224-.63.56-.832 1.008-.192.437-.288.981-.288 1.632 0 .96.218 1.701.656 2.224.437.512 1.018.768 1.744.768Zm9.6 1.04c-.822 0-1.531-.16-2.128-.48a3.523 3.523 0 0 1-1.376-1.392c-.32-.597-.48-1.312-.48-2.144 0-.811.16-1.515.48-2.112a3.598 3.598 0 0 1 1.312-1.424c.565-.341 1.216-.512 1.952-.512.522 0 .992.091 1.408.272.416.171.768.421 1.056.752.298.331.522.731.672 1.2.16.469.24.997.24 1.584 0 .171-.048.299-.144.384-.096.075-.235.112-.416.112h-5.568v-.848h5.264l-.256.208c0-.576-.086-1.061-.256-1.456a1.99 1.99 0 0 0-.752-.928c-.32-.213-.726-.32-1.216-.32-.544 0-1.008.128-1.392.384a2.278 2.278 0 0 0-.848 1.04c-.192.437-.288.949-.288 1.536v.096c0 .981.234 1.728.704 2.24.48.512 1.157.768 2.032.768.362 0 .72-.048 1.072-.144a3.615 3.615 0 0 0 1.056-.48c.149-.096.282-.139.4-.128a.41.41 0 0 1 .304.112.445.445 0 0 1 .144.256.432.432 0 0 1-.032.32.616.616 0 0 1-.272.304 3.986 3.986 0 0 1-1.248.592c-.48.139-.955.208-1.424.208Zm7.635 0c-.48 0-.965-.059-1.456-.176a4.015 4.015 0 0 1-1.344-.608.64.64 0 0 1-.224-.256.644.644 0 0 1-.048-.304.593.593 0 0 1 .128-.272.422.422 0 0 1 .256-.128.546.546 0 0 1 .352.064c.416.256.816.437 1.2.544.395.096.784.144 1.168.144.608 0 1.067-.112 1.376-.336.31-.224.464-.528.464-.912 0-.299-.101-.533-.304-.704-.202-.181-.522-.32-.96-.416l-1.456-.32c-.672-.139-1.173-.379-1.504-.72-.32-.341-.48-.784-.48-1.328 0-.48.123-.891.368-1.232.256-.352.614-.624 1.072-.816.459-.192.992-.288 1.6-.288.47 0 .912.064 1.328.192.427.117.811.309 1.152.576a.509.509 0 0 1 .208.272.423.423 0 0 1 .016.304.512.512 0 0 1-.144.256.48.48 0 0 1-.272.112.525.525 0 0 1-.336-.096 3.544 3.544 0 0 0-.976-.464 3.154 3.154 0 0 0-.976-.16c-.597 0-1.05.117-1.36.352a1.11 1.11 0 0 0-.464.928c0 .299.096.544.288.736.192.192.491.331.896.416l1.456.304c.694.149 1.211.389 1.552.72.352.32.528.757.528 1.312 0 .704-.282 1.264-.848 1.68-.565.416-1.317.624-2.256.624Zm5.72-.064c-.214 0-.374-.059-.48-.176-.107-.128-.16-.304-.16-.528v-6.544c0-.224.053-.395.16-.512.106-.117.266-.176.48-.176.202 0 .362.059.48.176.117.117.176.288.176.512v6.544c0 .224-.059.4-.176.528-.107.117-.267.176-.48.176Zm0-9.728c-.267 0-.475-.069-.624-.208-.15-.149-.224-.347-.224-.592 0-.256.074-.448.224-.576.149-.139.357-.208.624-.208.277 0 .485.069.624.208.149.128.224.32.224.576 0 .245-.075.443-.224.592-.139.139-.347.208-.624.208Zm6.518 12.672c-.565 0-1.12-.069-1.664-.208a4.568 4.568 0 0 1-1.456-.624.568.568 0 0 1-.256-.272.656.656 0 0 1-.016-.32.627.627 0 0 1 .144-.272.512.512 0 0 1 .256-.144.49.49 0 0 1 .32.048c.47.288.918.485 1.344.592.427.107.848.16 1.264.16.758 0 1.328-.203 1.712-.608.395-.405.592-.992.592-1.76v-1.808h.16a2.496 2.496 0 0 1-1.024 1.472c-.512.363-1.114.544-1.808.544-.714 0-1.333-.16-1.856-.48a3.323 3.323 0 0 1-1.216-1.376c-.277-.587-.416-1.264-.416-2.032 0-.576.08-1.099.24-1.568.16-.48.39-.885.688-1.216a3.13 3.13 0 0 1 1.104-.784 3.587 3.587 0 0 1 1.456-.288c.704 0 1.312.181 1.824.544.512.352.843.832.992 1.44l-.16.192v-1.488c0-.213.054-.373.16-.48.118-.117.278-.176.48-.176.214 0 .374.059.48.176.107.107.16.267.16.48v6.672c0 1.184-.298 2.075-.896 2.672-.586.608-1.456.912-2.608.912Zm-.192-4.256c.502 0 .934-.112 1.296-.336.363-.235.64-.565.832-.992.203-.427.304-.928.304-1.504 0-.864-.218-1.547-.656-2.048-.437-.512-1.029-.768-1.776-.768-.49 0-.917.117-1.28.352a2.247 2.247 0 0 0-.848.976c-.192.416-.288.912-.288 1.488 0 .864.219 1.552.656 2.064.438.512 1.024.768 1.76.768Zm6.767 1.344c-.213 0-.373-.059-.48-.176-.106-.117-.16-.283-.16-.496v-6.672c0-.213.054-.373.16-.48.107-.117.262-.176.464-.176.203 0 .358.059.464.176.118.107.176.267.176.48v1.376l-.176-.192c.224-.619.587-1.083 1.088-1.392.512-.32 1.099-.48 1.76-.48.619 0 1.131.112 1.536.336.416.224.726.565.928 1.024.203.448.304 1.019.304 1.712v4.288c0 .213-.058.379-.176.496-.106.117-.261.176-.464.176-.213 0-.378-.059-.496-.176-.106-.117-.16-.283-.16-.496v-4.208c0-.725-.144-1.253-.432-1.584-.277-.341-.725-.512-1.344-.512-.714 0-1.285.224-1.712.672-.416.437-.624 1.024-.624 1.76v3.872c0 .448-.218.672-.656.672Zm-177.464 11c-.213 0-.379-.059-.496-.176-.107-.128-.16-.299-.16-.512v-10.128c0-.224.053-.395.16-.512.117-.117.283-.176.496-.176.213 0 .373.059.48.176.117.117.176.288.176.512v10.128c0 .213-.053.384-.16.512-.107.117-.272.176-.496.176Zm3.309-.016a.576.576 0 0 1-.368-.128.46.46 0 0 1-.176-.336c0-.149.07-.304.208-.464l2.8-3.52v.672l-2.624-3.28c-.138-.171-.208-.325-.208-.464a.46.46 0 0 1 .176-.336.576.576 0 0 1 .368-.128c.16 0 .294.032.4.096a.834.834 0 0 1 .32.272l2.288 2.896h-.448l2.304-2.896a.893.893 0 0 1 .304-.272.767.767 0 0 1 .4-.096c.15 0 .272.043.368.128.107.085.16.203.16.352.011.139-.053.293-.192.464l-2.608 3.232v-.592l2.8 3.472c.128.16.187.315.176.464a.408.408 0 0 1-.16.336.595.595 0 0 1-.384.128.824.824 0 0 1-.4-.096 1.043 1.043 0 0 1-.32-.272l-2.464-3.104h.464l-2.464 3.104a1.085 1.085 0 0 1-.32.272.764.764 0 0 1-.4.096Zm9.271-.096c-.235 0-.416-.059-.544-.176-.118-.128-.176-.309-.176-.544v-9.84c0-.235.058-.411.176-.528.128-.128.309-.192.544-.192h3.088c1.824 0 3.232.48 4.224 1.44s1.488 2.357 1.488 4.192c0 .917-.128 1.728-.384 2.432a4.556 4.556 0 0 1-1.104 1.76 4.76 4.76 0 0 1-1.792 1.088c-.704.245-1.515.368-2.432.368h-3.088Zm.592-1.12h2.4c.746 0 1.392-.096 1.936-.288a3.469 3.469 0 0 0 1.376-.848c.373-.373.65-.843.832-1.408.181-.576.272-1.237.272-1.984 0-1.504-.368-2.629-1.104-3.376-.736-.757-1.84-1.136-3.312-1.136h-2.4v9.04ZM399.112 236c-.235 0-.416-.059-.544-.176-.117-.128-.176-.309-.176-.544v-9.84c0-.235.059-.411.176-.528.128-.128.309-.192.544-.192h3.792c.779 0 1.435.117 1.968.352.544.224.96.555 1.248.992.288.437.432.971.432 1.6 0 .704-.208 1.291-.624 1.76-.405.469-.96.779-1.664.928v-.224c.8.096 1.424.384 1.872.864.459.48.688 1.115.688 1.904 0 1.003-.325 1.771-.976 2.304-.651.533-1.568.8-2.752.8h-3.984Zm.56-1.056h3.296c.853 0 1.493-.171 1.92-.512.427-.341.64-.859.64-1.552 0-.704-.213-1.221-.64-1.552-.427-.341-1.067-.512-1.92-.512h-3.296v4.128Zm0-5.184h3.04c.832 0 1.461-.171 1.888-.512.437-.341.656-.832.656-1.472 0-.661-.219-1.157-.656-1.488-.427-.341-1.056-.512-1.888-.512h-3.04v3.984Zm10.013 6.352c-.214 0-.379-.059-.496-.176-.107-.117-.16-.283-.16-.496v-6.672c0-.213.053-.373.16-.48.106-.117.261-.176.464-.176.202 0 .357.059.464.176.117.107.176.267.176.48v1.296h-.16c.17-.629.496-1.115.976-1.456.48-.341 1.072-.523 1.776-.544a.503.503 0 0 1 .384.112c.096.075.149.208.16.4.01.181-.032.325-.128.432-.096.107-.246.171-.448.192l-.256.032c-.726.064-1.286.299-1.68.704-.384.395-.576.939-.576 1.632v3.872c0 .213-.059.379-.177.496-.106.117-.266.176-.479.176Zm7.448.032a3.306 3.306 0 0 1-1.44-.304 2.6 2.6 0 0 1-.992-.864 2.117 2.117 0 0 1-.368-1.216c0-.576.144-1.029.432-1.36.298-.331.784-.565 1.456-.704.682-.139 1.61-.208 2.784-.208h.72v.848h-.704c-.864 0-1.547.043-2.048.128-.491.075-.838.208-1.04.4-.192.192-.288.464-.288.816 0 .437.149.795.448 1.072.309.277.725.416 1.248.416a2.076 2.076 0 0 0 1.888-1.136c.192-.352.288-.757.288-1.216v-1.824c0-.661-.134-1.136-.4-1.424-.267-.299-.704-.448-1.312-.448-.374 0-.747.048-1.12.144a5.763 5.763 0 0 0-1.184.464c-.15.075-.278.101-.384.08a.486.486 0 0 1-.256-.176.557.557 0 0 1-.112-.288.606.606 0 0 1 .064-.336.676.676 0 0 1 .288-.256 6.302 6.302 0 0 1 1.392-.512c.458-.107.896-.16 1.312-.16.672 0 1.226.112 1.664.336.437.213.762.544.976.992.213.437.32 1.003.32 1.696v4.336c0 .213-.054.379-.16.496-.096.117-.24.176-.432.176-.203 0-.358-.059-.464-.176-.107-.117-.16-.283-.16-.496v-1.248h.144a2.318 2.318 0 0 1-.496 1.04 2.398 2.398 0 0 1-.88.672 2.83 2.83 0 0 1-1.184.24Zm6.676-.032c-.213 0-.373-.059-.48-.176-.107-.117-.16-.283-.16-.496v-6.672c0-.213.053-.373.16-.48.107-.117.261-.176.464-.176s.357.059.464.176c.117.107.176.267.176.48v1.376l-.176-.192c.224-.619.587-1.083 1.088-1.392.512-.32 1.099-.48 1.76-.48.619 0 1.131.112 1.536.336.416.224.725.565.928 1.024.203.448.304 1.019.304 1.712v4.288c0 .213-.059.379-.176.496-.107.117-.261.176-.464.176-.213 0-.379-.059-.496-.176-.107-.117-.16-.283-.16-.496v-4.208c0-.725-.144-1.253-.432-1.584-.277-.341-.725-.512-1.344-.512-.715 0-1.285.224-1.712.672-.416.437-.624 1.024-.624 1.76v3.872c0 .448-.219.672-.656.672Zm11.414.032c-.693 0-1.301-.165-1.824-.496-.512-.331-.912-.795-1.2-1.392-.277-.608-.416-1.323-.416-2.144 0-.832.139-1.547.416-2.144.288-.608.688-1.072 1.2-1.392.523-.331 1.131-.496 1.824-.496.704 0 1.307.176 1.808.528.501.352.837.827 1.008 1.424h-.176v-4.768c0-.213.053-.373.16-.48.117-.117.283-.176.496-.176.203 0 .357.059.464.176.117.107.176.267.176.48v10.176c0 .213-.053.379-.16.496-.107.117-.267.176-.48.176-.203 0-.363-.059-.48-.176-.107-.117-.16-.283-.16-.496v-1.52l.176.224a2.594 2.594 0 0 1-1.024 1.456c-.501.363-1.104.544-1.808.544Zm.272-1.04c.48 0 .901-.117 1.264-.352s.64-.576.832-1.024c.203-.448.304-.987.304-1.616 0-.971-.219-1.712-.656-2.224-.427-.512-1.008-.768-1.744-.768-.491 0-.917.117-1.28.352-.352.224-.629.56-.832 1.008-.192.437-.288.981-.288 1.632 0 .96.219 1.701.656 2.224.437.512 1.019.768 1.744.768Zm6.736.976c-.213 0-.373-.059-.48-.176-.107-.128-.16-.304-.16-.528v-6.544c0-.224.053-.395.16-.512.107-.117.267-.176.48-.176.203 0 .363.059.48.176.117.117.176.288.176.512v6.544c0 .224-.059.4-.176.528-.107.117-.267.176-.48.176Zm0-9.728c-.267 0-.475-.069-.624-.208-.149-.149-.224-.347-.224-.592 0-.256.075-.448.224-.576.149-.139.357-.208.624-.208.277 0 .485.069.624.208.149.128.224.32.224.576 0 .245-.075.443-.224.592-.139.139-.347.208-.624.208Zm3.719 9.76c-.214 0-.374-.059-.48-.176-.107-.117-.16-.283-.16-.496v-6.672c0-.213.053-.373.16-.48.106-.117.261-.176.464-.176.202 0 .357.059.464.176.117.107.176.267.176.48v1.376l-.176-.192c.224-.619.586-1.083 1.088-1.392.512-.32 1.098-.48 1.76-.48.618 0 1.13.112 1.536.336.416.224.725.565.928 1.024.202.448.304 1.019.304 1.712v4.288c0 .213-.059.379-.176.496-.107.117-.262.176-.464.176-.214 0-.379-.059-.496-.176-.107-.117-.16-.283-.16-.496v-4.208c0-.725-.144-1.253-.432-1.584-.278-.341-.726-.512-1.344-.512-.715 0-1.286.224-1.712.672-.416.437-.624 1.024-.624 1.76v3.872c0 .448-.219.672-.656.672Zm11.894 2.912a6.69 6.69 0 0 1-1.664-.208 4.549 4.549 0 0 1-1.456-.624.563.563 0 0 1-.256-.272.645.645 0 0 1-.016-.32.606.606 0 0 1 .144-.272.508.508 0 0 1 .256-.144.491.491 0 0 1 .32.048c.469.288.917.485 1.344.592.426.107.848.16 1.264.16.757 0 1.328-.203 1.712-.608.394-.405.592-.992.592-1.76v-1.808h.16a2.5 2.5 0 0 1-1.024 1.472c-.512.363-1.115.544-1.809.544-.714 0-1.333-.16-1.855-.48a3.316 3.316 0 0 1-1.216-1.376c-.278-.587-.416-1.264-.416-2.032 0-.576.08-1.099.24-1.568.16-.48.389-.885.688-1.216a3.112 3.112 0 0 1 1.104-.784 3.579 3.579 0 0 1 1.455-.288c.705 0 1.313.181 1.825.544.512.352.842.832.992 1.44l-.16.192v-1.488c0-.213.053-.373.16-.48.117-.117.277-.176.48-.176.213 0 .373.059.48.176.106.107.16.267.16.48v6.672c0 1.184-.299 2.075-.896 2.672-.587.608-1.456.912-2.608.912Zm-.192-4.256c.501 0 .933-.112 1.296-.336a2.25 2.25 0 0 0 .832-.992c.202-.427.304-.928.304-1.504 0-.864-.219-1.547-.656-2.048-.438-.512-1.03-.768-1.776-.768-.491 0-.918.117-1.28.352a2.234 2.234 0 0 0-.848.976c-.192.416-.288.912-.288 1.488 0 .864.218 1.552.656 2.064.437.512 1.024.768 1.76.768Z"/>
</svg>
