<svg xmlns="http://www.w3.org/2000/svg" width="163" height="187" fill="none" viewBox="0 0 163 187">
  <rect width="162.957" height="186.228" y=".183" fill="url(#a)" fill-opacity=".6" rx="13.074"/>
  <g clip-path="url(#b)">
    <rect width="130.272" height="155.177" x="16.342" y="15.708" fill="#fff" rx="6.386"/>
    <g clip-path="url(#c)">
      <path fill="#E2FBD7" fill-rule="evenodd" d="M81.479 150.451c22.219 0 40.231-18.012 40.231-40.232 0-22.219-18.012-40.23-40.231-40.23-22.22 0-40.231 18.011-40.231 40.23 0 22.22 18.012 40.232 40.23 40.232Z" clip-rule="evenodd"/>
      <path fill="#15EB1F" fill-rule="evenodd" d="M81.47 69.988a2.914 2.914 0 0 0-2.911 2.915 2.913 2.913 0 0 0 2.911 2.915c18.976 0 34.359 15.402 34.359 34.401 0 18.999-15.383 34.401-34.359 34.401a34.208 34.208 0 0 1-23.926-9.713 2.909 2.909 0 0 0-4.118.062 2.917 2.917 0 0 0 .062 4.122A40.024 40.024 0 0 0 81.47 150.45c22.192 0 40.182-18.012 40.182-40.231s-17.99-40.231-40.182-40.231Z" clip-rule="evenodd"/>
      <path fill="#06611A" d="M69.23 116.411c-.943 0-1.737-.174-2.382-.521a4.45 4.45 0 0 1-1.563-1.433 6.66 6.66 0 0 1-.855-1.99 9.959 9.959 0 0 1-.26-2.27c0-1.438.198-2.697.595-3.776.397-1.092.967-1.941 1.711-2.549.757-.62 1.668-.93 2.735-.93.818 0 1.519.161 2.102.484a3.654 3.654 0 0 1 1.376 1.302c.348.533.565 1.129.652 1.786H71.89c-.137-.707-.44-1.253-.912-1.637-.471-.385-1.067-.577-1.786-.577-.98 0-1.804.465-2.474 1.395-.657.918-1.01 2.357-1.06 4.316.297-.583.769-1.085 1.413-1.507.658-.434 1.445-.651 2.363-.651a4.33 4.33 0 0 1 2.084.521 4.23 4.23 0 0 1 1.6 1.47c.409.62.613 1.352.613 2.195a4.38 4.38 0 0 1-.54 2.102 4.29 4.29 0 0 1-1.562 1.637c-.67.422-1.47.633-2.4.633Zm-.112-1.377c.583 0 1.104-.124 1.562-.372a2.766 2.766 0 0 0 1.08-1.023c.26-.447.39-.955.39-1.526 0-.88-.291-1.581-.874-2.102-.57-.533-1.29-.8-2.158-.8-.583 0-1.104.137-1.563.41a3 3 0 0 0-1.098 1.06c-.26.446-.39.93-.39 1.451 0 .558.13 1.06.39 1.507.273.434.64.775 1.098 1.023.459.248.98.372 1.563.372Zm7.73 1.154 5.171-11.683h-7.143v-1.34h8.743v1.172l-5.116 11.851h-1.655Zm11.184-6.977a3.156 3.156 0 0 1-1.526-.372c-.446-.26-.8-.62-1.06-1.079-.26-.471-.39-1.029-.39-1.674s.13-1.197.39-1.656a2.819 2.819 0 0 1 1.079-1.079 3.04 3.04 0 0 1 1.525-.39c.559 0 1.06.13 1.507.39.447.248.8.608 1.06 1.079.261.459.391 1.011.391 1.656s-.136 1.203-.409 1.674c-.26.459-.614.819-1.06 1.079a3.05 3.05 0 0 1-1.507.372Zm-1.154 6.977 7.572-13.023h1.563l-7.572 13.023h-1.563Zm1.154-8.186c.434 0 .812-.161 1.135-.484.334-.322.502-.799.502-1.432 0-.645-.161-1.129-.484-1.451-.322-.335-.7-.502-1.135-.502-.434 0-.824.167-1.172.502-.334.322-.502.806-.502 1.451 0 .633.168 1.11.502 1.432.335.323.72.484 1.154.484Zm6.957 8.409a3.156 3.156 0 0 1-1.525-.372c-.447-.261-.8-.62-1.06-1.079-.26-.472-.391-1.03-.391-1.675 0-.644.13-1.196.39-1.655a2.812 2.812 0 0 1 1.08-1.079 2.93 2.93 0 0 1 1.506-.391c.558 0 1.06.13 1.507.391.447.248.8.607 1.06 1.079.261.459.391 1.011.391 1.655 0 .645-.13 1.203-.39 1.675a2.86 2.86 0 0 1-1.06 1.079 3.05 3.05 0 0 1-1.508.372Zm-.018-1.209c.446 0 .83-.162 1.153-.484.335-.323.502-.8.502-1.433 0-.644-.16-1.128-.483-1.451a1.576 1.576 0 0 0-1.154-.483c-.434 0-.818.161-1.153.483-.335.323-.502.807-.502 1.451 0 .633.16 1.11.483 1.433.335.322.72.484 1.154.484Z"/>
    </g>
    <path fill="#000" d="m57.218 48.865 3.625-9.834h1.63l3.596 9.834h-1.573l-.843-2.402h-4.018l-.843 2.402h-1.574Zm2.838-3.582h3.175L61.644 40.8l-1.588 4.482Zm7.329 3.582v-6.968h1.32l.113 1.222c.215-.43.529-.768.94-1.011.422-.253.905-.38 1.448-.38.843 0 1.503.263 1.98.787.488.525.731 1.307.731 2.346v4.004h-1.475v-3.85c0-1.348-.552-2.022-1.658-2.022a1.8 1.8 0 0 0-1.376.59c-.356.393-.534.955-.534 1.686v3.596h-1.49Zm10.646.169c-.59 0-1.077-.099-1.46-.295-.385-.197-.67-.454-.858-.773a2.116 2.116 0 0 1-.28-1.068c0-.674.262-1.208.786-1.601.525-.394 1.274-.59 2.248-.59h1.826v-.127c0-.543-.15-.95-.45-1.222-.29-.272-.669-.407-1.137-.407-.412 0-.773.103-1.082.309-.3.196-.482.491-.548.885h-1.489c.047-.506.215-.937.506-1.293.3-.365.674-.641 1.124-.829.459-.196.96-.295 1.503-.295.974 0 1.728.258 2.262.773.534.506.8 1.199.8 2.08v4.284H80.49l-.126-1.194a2.647 2.647 0 0 1-.857.97c-.375.262-.867.393-1.476.393Zm.295-1.208c.403 0 .74-.094 1.012-.281.281-.197.497-.455.646-.773.16-.319.258-.67.295-1.054h-1.657c-.59 0-1.012.103-1.265.31a.971.971 0 0 0-.365.772.92.92 0 0 0 .351.759c.244.178.571.267.983.267Zm-.056-6.505v-1.068l3.063-1.742v1.236l-3.063 1.574Zm5.249 7.544V38.75h1.49v10.115h-1.49Zm4.218-8.289c-.281 0-.515-.084-.703-.252a.897.897 0 0 1-.266-.66.85.85 0 0 1 .266-.647.98.98 0 0 1 .703-.267c.28 0 .51.089.688.267a.83.83 0 0 1 .281.646.874.874 0 0 1-.28.66c-.179.169-.408.253-.69.253Zm-.745 8.29v-6.97h1.49v6.97h-1.49Zm6.237.168c-.88 0-1.606-.216-2.177-.646a2.42 2.42 0 0 1-.984-1.714h1.503c.075.318.253.594.534.828.281.225.651.338 1.11.338.45 0 .777-.094.983-.281.207-.188.31-.403.31-.647 0-.355-.146-.594-.436-.716-.28-.131-.674-.248-1.18-.351a9.306 9.306 0 0 1-1.18-.337 2.722 2.722 0 0 1-.97-.59c-.252-.263-.379-.614-.379-1.054 0-.609.234-1.115.703-1.517.468-.413 1.123-.619 1.966-.619.778 0 1.405.188 1.883.562.487.375.773.904.857 1.588h-1.433a1.023 1.023 0 0 0-.421-.703c-.225-.168-.53-.252-.914-.252-.374 0-.665.08-.87.238a.697.697 0 0 0-.31.59c0 .244.14.436.422.576.29.14.67.267 1.138.38.468.103.899.224 1.292.365.403.131.726.328.97.59.243.262.365.646.365 1.152.01.637-.239 1.166-.745 1.588-.496.421-1.175.632-2.037.632Zm5.25-8.458c-.28 0-.515-.084-.702-.252a.897.897 0 0 1-.267-.66c0-.263.09-.479.267-.647a.98.98 0 0 1 .703-.267c.28 0 .51.089.688.267a.83.83 0 0 1 .28.646.875.875 0 0 1-.28.66c-.178.169-.408.253-.689.253Zm-.744 8.29v-6.97h1.49v6.97h-1.49Zm6.237.168c-.881 0-1.607-.216-2.178-.646a2.42 2.42 0 0 1-.983-1.714h1.503c.075.318.253.594.534.828.281.225.651.338 1.11.338.449 0 .777-.094.983-.281.206-.188.309-.403.309-.647 0-.355-.145-.594-.435-.716-.281-.131-.675-.248-1.181-.351a9.347 9.347 0 0 1-1.18-.337 2.718 2.718 0 0 1-.969-.59c-.253-.263-.379-.614-.379-1.054 0-.609.234-1.115.702-1.517.468-.413 1.124-.619 1.967-.619.777 0 1.405.188 1.883.562.487.375.772.904.857 1.588h-1.433a1.025 1.025 0 0 0-.422-.703c-.225-.168-.529-.252-.913-.252-.375 0-.665.08-.871.238a.697.697 0 0 0-.309.59c0 .244.14.436.421.576.291.14.67.267 1.138.38.468.103.899.224 1.293.365.402.131.726.328.969.59.244.262.365.646.365 1.152.01.637-.238 1.166-.744 1.588-.497.421-1.176.632-2.037.632Z"/>
  </g>
  <rect width="160.506" height="183.777" x="1.226" y="1.408" stroke="url(#d)" stroke-opacity=".7" stroke-width="2.451" rx="11.848"/>
  <defs>
    <linearGradient id="a" x1="2.727" x2="202.689" y1=".183" y2="66.362" gradientUnits="userSpaceOnUse">
      <stop stop-color="#fff" stop-opacity=".6"/>
      <stop offset="1" stop-color="#C4C4C4" stop-opacity=".1"/>
    </linearGradient>
    <linearGradient id="d" x1="4.091" x2="200.458" y1="6.731" y2="69.974" gradientUnits="userSpaceOnUse">
      <stop stop-color="#3EEEFA"/>
      <stop offset=".573" stop-color="#DCCBFF" stop-opacity=".764"/>
      <stop offset=".719" stop-color="#39F3FF" stop-opacity=".1"/>
      <stop offset="1" stop-color="#A87EFF" stop-opacity=".85"/>
    </linearGradient>
    <clipPath id="b">
      <path fill="#fff" d="M0 0h130.272v155.177H0z" transform="translate(16.342 15.708)"/>
    </clipPath>
    <clipPath id="c">
      <path fill="#fff" d="M0 0h80.462v80.462H0z" transform="translate(41.248 69.988)"/>
    </clipPath>
  </defs>
</svg>
