<svg width="128" height="112" viewBox="0 0 128 112" fill="none" xmlns="http://www.w3.org/2000/svg">
<path fill-rule="evenodd" clip-rule="evenodd" d="M51.2701 43.9576C52.3025 42.7364 53.4164 41.5554 54.6079 40.4267C63.4896 32.0655 76.5926 26.7979 91.7401 28.6546C96.575 29.2399 101.247 30.3679 105.687 32.1246C110.103 33.8733 114.25 36.2388 118.214 39.0454C118.544 39.2749 118.64 39.726 118.419 40.0737C118.19 40.4053 117.739 40.5024 117.393 40.2812C113.415 37.7678 109.225 35.7812 104.9 34.2109C100.587 32.6445 96.1222 31.5027 91.4744 30.9648C77.1247 29.3136 64.7475 34.3435 56.3751 42.3018C55.5189 43.1063 54.7157 43.9552 53.9492 44.8161C56.0058 45.5532 57.974 46.4376 59.8376 47.4774C71.5364 53.9528 78.7796 65.8159 74.2481 79.0324C71.5329 87.1666 65.3061 90.0686 59.1163 89.2048C53.2356 88.3875 47.3486 84.0204 44.5436 77.4475C40.1713 67.2229 42.6468 55.26 49.9078 45.6942C41.8775 43.5949 32.9 43.9496 24.7895 47.7414C18.5264 50.6722 13.9685 55.2953 10.8609 60.526C8.48093 64.5176 7.09886 68.8882 6.2118 73.1491C5.79777 75.1267 5.40765 77.0308 5.25733 78.9452C5.26236 79.0958 5.14124 79.2189 4.99093 79.2241C4.84063 79.2293 4.71796 79.1082 4.71293 78.9576C4.48909 76.9891 4.35023 74.9669 4.55236 72.8933C4.98243 68.3347 6.62692 63.6975 9.07041 59.4693C12.3177 53.8508 17.256 48.9723 23.9283 45.8633C32.772 41.7279 42.6158 41.4927 51.2945 43.9655L51.2701 43.9576ZM52.5417 46.4838C54.7447 47.2279 56.8595 48.16 58.8372 49.2641C69.5495 55.2424 76.295 66.1446 72.0408 78.2598C69.6533 84.8894 64.581 87.2328 59.5092 86.4621C54.4618 85.6994 49.4404 81.9932 47.0031 76.3659C42.8336 66.7219 45.4595 55.4172 52.5417 46.4838Z" fill="url(#paint0_linear_1285_21464)"/>
<path fill-rule="evenodd" clip-rule="evenodd" d="M118.144 39.5493C116.486 37.6286 113.989 34.7577 113.715 34.4382L109.039 28.8812L101.921 19.4148C101.745 19.2086 101.776 18.9071 101.982 18.7305C102.188 18.5538 102.489 18.584 102.665 18.7903L110.769 27.3453L115.755 32.6108C116.083 32.9747 119.741 37.0497 121.174 38.7076C122.038 39.7064 122.048 40.6711 122.04 40.6955C121.921 41.1443 121.51 41.7418 120.581 41.9403C119.372 42.2102 116.131 41.8731 115.798 41.8594L99.7851 41.2917C94.286 41.0454 92.4719 41.3892 92.4551 40.0296C92.4371 39.753 92.5858 39.5035 93.2458 39.1361C93.4442 39.0246 93.7286 39.0224 94.0372 38.9875C95.9861 38.7688 99.3444 39.0765 99.8075 39.0648L115.89 39.1272C116.037 39.1342 117.123 39.4066 118.144 39.5493Z" fill="url(#paint1_linear_1285_21464)"/>
<defs>
<linearGradient id="paint0_linear_1285_21464" x1="74.5624" y1="21.8891" x2="61.1666" y2="63.0444" gradientUnits="userSpaceOnUse">
<stop stop-color="#8A51EE"/>
<stop offset="0.390625" stop-color="#487DED"/>
<stop offset="1" stop-color="#26AFEF"/>
</linearGradient>
<linearGradient id="paint1_linear_1285_21464" x1="113.724" y1="22.3116" x2="109.489" y2="35.3247" gradientUnits="userSpaceOnUse">
<stop stop-color="#8A51EE"/>
<stop offset="0.390625" stop-color="#487DED"/>
<stop offset="1" stop-color="#26AFEF"/>
</linearGradient>
</defs>
</svg>
