<svg width="97" height="76" viewBox="0 0 97 76" fill="none" xmlns="http://www.w3.org/2000/svg">
<g opacity="0.5">
<ellipse cx="2.15163" cy="16.2352" rx="2.15163" ry="1.68443" fill="#6F4EF5"/>
<ellipse cx="57.7649" cy="16.2352" rx="2.15163" ry="1.68443" fill="#6F4EF5"/>
<ellipse cx="20.6897" cy="16.2352" rx="2.15163" ry="1.68443" fill="#6F4EF5"/>
<ellipse cx="76.303" cy="16.2352" rx="2.15163" ry="1.68443" fill="#6F4EF5"/>
<ellipse cx="39.2298" cy="16.2352" rx="2.15163" ry="1.68443" fill="#6F4EF5"/>
<ellipse cx="94.844" cy="16.2352" rx="2.15163" ry="1.68443" fill="#6F4EF5"/>
<ellipse cx="2.15749" cy="1.72154" rx="2.15163" ry="1.68443" fill="#6F4EF5"/>
<ellipse cx="57.7708" cy="1.72154" rx="2.15163" ry="1.68443" fill="#6F4EF5"/>
<ellipse cx="20.6926" cy="1.72154" rx="2.15163" ry="1.68443" fill="#6F4EF5"/>
<ellipse cx="76.3079" cy="1.72154" rx="2.15163" ry="1.68443" fill="#6F4EF5"/>
<ellipse cx="39.2298" cy="1.72154" rx="2.15163" ry="1.68443" fill="#6F4EF5"/>
<ellipse cx="94.844" cy="1.72154" rx="2.15163" ry="1.68443" fill="#6F4EF5"/>
<ellipse cx="2.15163" cy="30.7489" rx="2.15163" ry="1.68443" fill="#6F4EF5"/>
<ellipse cx="57.7649" cy="30.7489" rx="2.15163" ry="1.68443" fill="#6F4EF5"/>
<ellipse cx="20.6897" cy="30.7489" rx="2.15163" ry="1.68443" fill="#6F4EF5"/>
<ellipse cx="76.303" cy="30.7489" rx="2.15163" ry="1.68443" fill="#6F4EF5"/>
<ellipse cx="39.2298" cy="30.7489" rx="2.15163" ry="1.68443" fill="#6F4EF5"/>
<ellipse cx="94.844" cy="30.7489" rx="2.15163" ry="1.68443" fill="#6F4EF5"/>
<ellipse cx="2.15163" cy="45.2567" rx="2.15163" ry="1.68443" fill="#6F4EF5"/>
<ellipse cx="57.7649" cy="45.2567" rx="2.15163" ry="1.68443" fill="#6F4EF5"/>
<ellipse cx="20.6897" cy="45.2567" rx="2.15163" ry="1.68443" fill="#6F4EF5"/>
<ellipse cx="76.303" cy="45.2567" rx="2.15163" ry="1.68443" fill="#6F4EF5"/>
<ellipse cx="39.2298" cy="45.2567" rx="2.15163" ry="1.68443" fill="#6F4EF5"/>
<ellipse cx="94.844" cy="45.2567" rx="2.15163" ry="1.68443" fill="#6F4EF5"/>
<ellipse cx="2.15163" cy="59.7723" rx="2.15163" ry="1.68443" fill="#6F4EF5"/>
<ellipse cx="57.7649" cy="59.7723" rx="2.15163" ry="1.68443" fill="#6F4EF5"/>
<ellipse cx="20.6897" cy="59.7723" rx="2.15163" ry="1.68443" fill="#6F4EF5"/>
<ellipse cx="76.303" cy="59.7723" rx="2.15163" ry="1.68443" fill="#6F4EF5"/>
<ellipse cx="39.2298" cy="59.7723" rx="2.15163" ry="1.68443" fill="#6F4EF5"/>
<ellipse cx="94.844" cy="59.7723" rx="2.15163" ry="1.68443" fill="#6F4EF5"/>
<ellipse cx="2.15163" cy="74.284" rx="2.15163" ry="1.68443" fill="#6F4EF5"/>
<ellipse cx="57.7649" cy="74.284" rx="2.15163" ry="1.68443" fill="#6F4EF5"/>
<ellipse cx="20.6897" cy="74.284" rx="2.15163" ry="1.68443" fill="#6F4EF5"/>
<ellipse cx="76.303" cy="74.284" rx="2.15163" ry="1.68443" fill="#6F4EF5"/>
<ellipse cx="39.2298" cy="74.284" rx="2.15163" ry="1.68443" fill="#6F4EF5"/>
<ellipse cx="94.844" cy="74.284" rx="2.15163" ry="1.68443" fill="#6F4EF5"/>
</g>
</svg>
