<svg xmlns="http://www.w3.org/2000/svg" xmlns:xlink="http://www.w3.org/1999/xlink" width="465" height="418" fill="none" viewBox="0 0 465 418">
  <g clip-path="url(#a)">
    <rect width="464.525" height="417.729" fill="#F8F8F8" rx="11.011"/>
    <g clip-path="url(#b)">
      <rect width="136.152" height="133.646" x="311.562" y="267.709" fill="#fff" rx="4.176"/>
      <path fill="#3361FF" fill-rule="evenodd" d="M327.014 391.396c1.615 0 2.924-1.229 2.924-2.747 0-1.517-1.309-2.747-2.924-2.747-1.614 0-2.923 1.23-2.923 2.747 0 1.518 1.309 2.747 2.923 2.747Z" clip-rule="evenodd"/>
      <path fill="#000" d="M332.877 390.473v-4.093h1.344c.32 0 .583.052.79.158.206.105.358.247.456.426.101.18.152.382.152.609 0 .222-.049.422-.146.602-.098.179-.25.323-.456.432-.207.106-.472.158-.796.158h-.853v1.708h-.491Zm.491-2.123h.842c.327 0 .559-.068.695-.204.141-.141.211-.332.211-.573 0-.246-.07-.437-.211-.573-.136-.141-.368-.211-.695-.211h-.842v1.561Zm2.865 2.123v-2.9h.445l.041.555c.089-.191.226-.343.409-.456.183-.113.409-.17.678-.17v.515h-.134c-.172 0-.33.031-.474.093a.706.706 0 0 0-.345.305c-.086.144-.129.343-.129.596v1.462h-.491Zm3.337.07c-.273 0-.518-.063-.736-.187a1.374 1.374 0 0 1-.521-.527 1.658 1.658 0 0 1-.187-.806c0-.308.064-.575.193-.801.129-.23.302-.408.52-.533.223-.124.47-.187.743-.187s.518.063.737.187c.218.125.39.303.514.533.129.226.193.493.193.801 0 .308-.064.577-.193.806a1.36 1.36 0 0 1-.526.527 1.466 1.466 0 0 1-.737.187Zm0-.421a.93.93 0 0 0 .468-.123.925.925 0 0 0 .351-.368c.09-.164.134-.367.134-.608 0-.242-.044-.445-.134-.608a.882.882 0 0 0-.345-.369.919.919 0 0 0-.462-.123.93.93 0 0 0-.468.123.92.92 0 0 0-.351.369 1.257 1.257 0 0 0-.134.608c0 .241.045.444.134.608a.94.94 0 0 0 .345.368.924.924 0 0 0 .462.123Zm3.455.421c-.289 0-.542-.066-.76-.199a1.382 1.382 0 0 1-.503-.544 1.703 1.703 0 0 1-.176-.783c0-.293.061-.552.182-.778.12-.23.288-.409.502-.538.215-.132.468-.199.761-.199.237 0 .448.049.631.147.183.097.326.233.427.409v-1.795h.491v4.21h-.444l-.047-.48a1.35 1.35 0 0 1-.404.38c-.175.113-.395.17-.66.17Zm.052-.427a.98.98 0 0 0 .515-.134.942.942 0 0 0 .351-.386c.085-.164.128-.355.128-.573 0-.219-.043-.41-.128-.573a.89.89 0 0 0-.351-.38.94.94 0 0 0-.515-.141.956.956 0 0 0-.865.521 1.26 1.26 0 0 0-.123.573c0 .218.041.409.123.573a1 1 0 0 0 .351.386.998.998 0 0 0 .514.134Zm3.362.427c-.343 0-.616-.103-.819-.31-.202-.211-.304-.532-.304-.965v-1.695h.491v1.643c0 .604.248.906.743.906.253 0 .462-.09.626-.269.167-.183.251-.443.251-.778v-1.502h.491v2.9h-.444l-.035-.521c-.09.183-.224.328-.404.433a1.137 1.137 0 0 1-.596.158Zm3.621 0c-.277 0-.526-.063-.749-.187a1.428 1.428 0 0 1-.52-.532 1.651 1.651 0 0 1-.187-.801c0-.304.062-.57.187-.796.129-.23.302-.407.52-.532.223-.128.472-.193.749-.193.343 0 .631.09.865.269.238.18.388.419.45.72h-.502a.636.636 0 0 0-.287-.416.938.938 0 0 0-.532-.152.919.919 0 0 0-.462.123.92.92 0 0 0-.351.369 1.257 1.257 0 0 0-.134.608c0 .241.045.444.134.608.09.163.207.288.351.374a.919.919 0 0 0 .462.123c.203 0 .38-.049.532-.146a.66.66 0 0 0 .287-.427h.502c-.058.292-.206.53-.444.713a1.386 1.386 0 0 1-.871.275Zm3.067-.07c-.265 0-.473-.065-.625-.193-.152-.129-.228-.361-.228-.696v-1.596h-.503v-.415h.503l.064-.696h.427v.696h.854v.415h-.854v1.596c0 .183.037.308.111.374.074.062.205.094.392.094h.304v.421h-.445Zm2.357.07c-.273 0-.518-.063-.737-.187a1.379 1.379 0 0 1-.52-.527 1.658 1.658 0 0 1-.187-.806c0-.308.064-.575.193-.801.128-.23.302-.408.52-.533.222-.124.47-.187.743-.187s.518.063.736.187c.219.125.39.303.515.533.129.226.193.493.193.801 0 .308-.064.577-.193.806a1.366 1.366 0 0 1-.526.527 1.468 1.468 0 0 1-.737.187Zm0-.421a.93.93 0 0 0 .468-.123.925.925 0 0 0 .351-.368c.089-.164.134-.367.134-.608 0-.242-.045-.445-.134-.608a.882.882 0 0 0-.345-.369.924.924 0 0 0-.462-.123.93.93 0 0 0-.468.123.92.92 0 0 0-.351.369c-.09.163-.134.366-.134.608 0 .241.044.444.134.608a.94.94 0 0 0 .345.368.919.919 0 0 0 .462.123Zm-30.961-108.06v-4.092h.574l1.473 2.853 1.462-2.853h.579v4.092h-.492v-3.215l-1.368 2.631h-.368l-1.368-2.626v3.21h-.492Zm6.226.071c-.277 0-.523-.063-.737-.187a1.396 1.396 0 0 1-.509-.533 1.673 1.673 0 0 1-.181-.801c0-.304.06-.569.181-.795.121-.23.289-.407.503-.532.218-.128.47-.193.754-.193a1.327 1.327 0 0 1 1.363 1.357c0 .043-.002.085-.006.128v.147h-2.31c.012.222.063.407.152.555a.96.96 0 0 0 .345.327.945.945 0 0 0 .445.112.874.874 0 0 0 .508-.141.801.801 0 0 0 .299-.38h.485a1.323 1.323 0 0 1-.45.673c-.219.175-.499.263-.842.263Zm0-2.626a.98.98 0 0 0-.626.217c-.179.14-.283.347-.31.619h1.824c-.011-.261-.101-.465-.269-.613a.897.897 0 0 0-.619-.223Zm3.34 2.626a1.44 1.44 0 0 1-.76-.199 1.39 1.39 0 0 1-.503-.544 1.702 1.702 0 0 1-.175-.783c0-.293.06-.552.181-.778.121-.23.289-.409.503-.538.214-.133.468-.199.76-.199.238 0 .448.049.632.146.183.098.325.234.426.41v-1.795h.492v4.209h-.445l-.047-.479c-.093.14-.228.267-.403.38-.175.113-.396.17-.661.17Zm.053-.427a.969.969 0 0 0 .514-.135.93.93 0 0 0 .351-.386 1.21 1.21 0 0 0 .129-.573c0-.218-.043-.409-.129-.573a.902.902 0 0 0-.351-.38.945.945 0 0 0-.514-.14.946.946 0 0 0-.865.52 1.266 1.266 0 0 0-.123.573c0 .219.041.41.123.573a.977.977 0 0 0 .35.386c.152.09.324.135.515.135Zm2.601-3.187a.345.345 0 0 1-.245-.093.344.344 0 0 1-.094-.246c0-.093.031-.171.094-.234a.345.345 0 0 1 .245-.093c.094 0 .174.031.24.093.066.063.1.141.1.234a.336.336 0 0 1-.1.246.338.338 0 0 1-.24.093Zm-.245 3.543v-2.9h.491v2.9h-.491Zm2.662.071c-.289 0-.542-.067-.76-.199a1.382 1.382 0 0 1-.503-.544 1.703 1.703 0 0 1-.176-.783c0-.293.061-.552.182-.778.12-.23.288-.409.502-.538.215-.133.468-.199.761-.199.237 0 .448.049.631.146.183.098.326.234.427.41v-1.795h.491v4.209h-.444l-.047-.479c-.094.14-.228.267-.404.38-.175.113-.395.17-.66.17Zm.052-.427a.972.972 0 0 0 .515-.135.93.93 0 0 0 .351-.386c.085-.163.128-.354.128-.573 0-.218-.043-.409-.128-.573a.949.949 0 0 0-.866-.52.956.956 0 0 0-.865.52 1.266 1.266 0 0 0-.123.573c0 .219.041.41.123.573a.986.986 0 0 0 .351.386c.152.09.323.135.514.135Zm3.268.427c-.241 0-.442-.041-.602-.123a.825.825 0 0 1-.356-.328.877.877 0 0 1-.117-.444c0-.296.113-.524.339-.684.226-.16.534-.24.924-.24h.783v-.035c0-.253-.066-.444-.199-.573-.132-.132-.31-.199-.532-.199a.845.845 0 0 0-.497.147.618.618 0 0 0-.257.415h-.503a.942.942 0 0 1 .211-.532c.124-.145.278-.254.461-.328.184-.078.379-.117.585-.117.406 0 .71.109.912.328.207.214.31.501.31.859v1.783h-.438l-.03-.52a1.151 1.151 0 0 1-.362.421c-.156.113-.367.17-.632.17Zm.076-.415a.785.785 0 0 0 .48-.147.923.923 0 0 0 .31-.38c.07-.156.105-.319.105-.491v-.006h-.743c-.288 0-.493.051-.613.152a.462.462 0 0 0-.176.369c0 .152.055.274.164.368.113.09.271.135.473.135Z"/>
      <path fill="#3361FF" fill-opacity=".5" fill-rule="evenodd" d="M378.091 294.052c22.019-.853 40.384 15.948 42.049 37.361.133 1.71-1.205 3.176-2.92 3.176a2.932 2.932 0 0 1-2.917-2.717c-1.439-18.49-17.427-32.961-36.496-31.945-16.896.899-31.875 15.878-32.775 32.774-1.015 19.069 13.456 35.057 31.945 36.496a2.932 2.932 0 0 1 2.718 2.917c0 1.753-1.429 3.056-3.176 2.92-21.412-1.666-38.214-20.029-37.361-42.048.815-21.055 17.878-38.118 38.933-38.934" clip-rule="evenodd"/>
      <path fill="#3361FF" fill-rule="evenodd" d="M381.185 375.013c-22.019.853-40.383-15.949-42.049-37.362-.133-1.709 1.205-3.175 2.92-3.175a2.933 2.933 0 0 1 2.918 2.717c1.438 18.489 17.426 32.961 36.496 31.945 16.896-.899 31.875-15.878 32.774-32.774 1.016-19.07-13.456-35.058-31.945-36.496a2.933 2.933 0 0 1-2.718-2.918c0-1.752 1.429-3.056 3.176-2.92 21.413 1.666 38.214 20.03 37.362 42.048-.816 21.055-17.879 38.119-38.934 38.935" clip-rule="evenodd"/>
      <path fill="#3361FF" fill-opacity=".05" fill-rule="evenodd" d="M379.638 352.491c9.919 0 17.959-8.041 17.959-17.959s-8.04-17.959-17.959-17.959c-9.918 0-17.958 8.041-17.958 17.959s8.04 17.959 17.958 17.959Z" clip-rule="evenodd"/>
      <path fill="#001A66" d="M373.049 337.866c-.472 0-.87-.089-1.195-.266a2.267 2.267 0 0 1-.79-.708 3.01 3.01 0 0 1-.423-.992 5 5 0 0 1-.128-1.13c0-.711.098-1.333.294-1.865.202-.533.49-.947.864-1.241.373-.3.826-.45 1.359-.45.423 0 .784.083 1.085.248.3.165.532.386.698.662.171.275.275.575.312.9h-.909c-.056-.319-.187-.564-.395-.735-.209-.172-.475-.257-.8-.257-.447 0-.818.211-1.112.634-.288.416-.441 1.059-.459 1.929a1.88 1.88 0 0 1 .68-.689c.312-.19.671-.285 1.075-.285.361 0 .698.086 1.011.257.318.172.575.414.771.726.203.307.304.671.304 1.094a2.192 2.192 0 0 1-1.057 1.865c-.331.202-.726.303-1.185.303Zm-.055-.845c.257 0 .487-.055.689-.166.202-.11.361-.26.477-.45.117-.196.175-.416.175-.661 0-.392-.129-.705-.386-.938-.251-.232-.573-.349-.965-.349-.257 0-.49.059-.698.175a1.3 1.3 0 0 0-.478.468c-.116.19-.174.402-.174.634 0 .252.058.475.174.671.123.19.285.34.487.45.209.111.441.166.699.166Zm6.43.735v-1.286h-3.225v-.772l3.069-4.374h1.121v4.3h.9v.846h-.9v1.286h-.965Zm-2.169-2.132h2.224v-3.225l-2.224 3.225Zm6.104-1.231c-.288 0-.548-.064-.781-.193a1.439 1.439 0 0 1-.542-.542 1.711 1.711 0 0 1-.202-.855c0-.324.067-.603.202-.836a1.41 1.41 0 0 1 .551-.551c.233-.129.493-.193.781-.193.282 0 .536.064.763.193.233.129.416.312.551.551.135.233.202.512.202.836 0 .331-.067.616-.202.855a1.42 1.42 0 0 1-.551.542 1.534 1.534 0 0 1-.772.193Zm-.459 3.363 3.684-6.432h.956l-3.676 6.432h-.964Zm.459-4.061a.674.674 0 0 0 .505-.221c.147-.153.221-.377.221-.671 0-.294-.07-.514-.211-.661a.692.692 0 0 0-1.029 0c-.147.147-.221.367-.221.661 0 .294.071.518.211.671a.717.717 0 0 0 .524.221Zm3.776 4.171c-.287 0-.548-.064-.781-.193a1.439 1.439 0 0 1-.542-.542 1.72 1.72 0 0 1-.202-.854c0-.325.068-.607.202-.846.135-.239.319-.422.552-.551.232-.129.493-.193.781-.193.281 0 .536.064.762.193.233.129.417.312.552.551.134.239.202.521.202.846 0 .33-.068.615-.202.854a1.416 1.416 0 0 1-.552.542 1.53 1.53 0 0 1-.772.193Zm0-.707a.678.678 0 0 0 .506-.221c.147-.147.22-.367.22-.661 0-.294-.07-.515-.211-.662a.692.692 0 0 0-1.029 0c-.147.147-.221.368-.221.662 0 .294.071.514.212.661a.715.715 0 0 0 .523.221Z"/>
      <path fill="#000" fill-rule="evenodd" d="M426.413 280.238a.836.836 0 1 1 1.672 0 .836.836 0 0 1-1.672 0Zm3.759-.836a.836.836 0 1 0 .002 1.672.836.836 0 0 0-.002-1.672Zm2.923 0a.836.836 0 1 0 .002 1.672.836.836 0 0 0-.002-1.672Z" clip-rule="evenodd"/>
    </g>
    <path fill="#fff" d="M0-.001h31.74a8.353 8.353 0 0 1 8.354 8.353v400.937a8.353 8.353 0 0 1-8.353 8.353H0V-.001Z"/>
    <path fill="#000" fill-rule="evenodd" d="M16.61 397.425c.505.173.907.596 1.075 1.131l.018.055c.193.568.115 1.18-.209 1.638-.058.084-.045.183.017.23l.937.712a.115.115 0 0 0 .085.023.125.125 0 0 0 .083-.054l.104-.148a1.716 1.716 0 0 1 1.344-.73 1.71 1.71 0 0 1 1.464.741l.053.078c.027.038.06.05.082.054.02.004.053.003.085-.023l.933-.703c.065-.049.08-.154.031-.224l-.117-.17a1.793 1.793 0 0 1-.241-1.519 1.77 1.77 0 0 1 1.127-1.183l.091-.031c.073-.024.112-.114.087-.197l-.356-1.141a.144.144 0 0 0-.07-.087.105.105 0 0 0-.085-.007l-.154.051a1.694 1.694 0 0 1-1.552-.255l-.05-.037a1.714 1.714 0 0 1-.673-1.373l.001-.127a.162.162 0 0 0-.046-.115.118.118 0 0 0-.082-.036l-1.153-.002c-.07 0-.128.068-.128.151v.109a1.776 1.776 0 0 1-.69 1.4l-.058.045a1.774 1.774 0 0 1-1.644.27.074.074 0 0 0-.06.004.108.108 0 0 0-.054.067l-.37 1.174a.163.163 0 0 0 .1.204l.075.025Zm1.905 4.695a1.01 1.01 0 0 1-.614-.208l-.937-.712a1.068 1.068 0 0 1-.222-1.455.925.925 0 0 0 .105-.84l-.025-.076a.83.83 0 0 0-.506-.548l-.074-.026a1.06 1.06 0 0 1-.67-1.33l.37-1.174a1.01 1.01 0 0 1 .508-.604.975.975 0 0 1 .761-.052.866.866 0 0 0 .804-.135l.058-.044a.866.866 0 0 0 .332-.683v-.109a1.047 1.047 0 0 1 1.034-1.053h.001l1.153.002c.272 0 .53.108.723.303.2.201.31.47.309.758l-.001.126a.803.803 0 0 0 .314.646l.048.037a.789.789 0 0 0 .721.12l.154-.052c.26-.086.539-.065.784.06.25.129.436.35.521.624l.356 1.14a1.064 1.064 0 0 1-.663 1.325l-.09.031a.866.866 0 0 0-.548.582.881.881 0 0 0 .117.747l.118.17c.323.467.22 1.122-.23 1.461l-.932.704a1.022 1.022 0 0 1-1.457-.24l-.054-.078a.781.781 0 0 0-.677-.351.8.8 0 0 0-.646.347l-.105.148a1.025 1.025 0 0 1-.84.439Zm1.532-5.203a.68.68 0 1 0 .001 1.358.68.68 0 0 0-.001-1.358m0 2.262c-.873 0-1.584-.71-1.584-1.583s.71-1.584 1.584-1.584a1.585 1.585 0 0 1 0 3.167m3.991-92.952a.45.45 0 0 0-.577.275 3.626 3.626 0 0 1-3.414 2.413 3.623 3.623 0 0 1-3.62-3.619c0-1.531.97-2.904 2.413-3.414a.452.452 0 1 0-.301-.852 4.53 4.53 0 0 0-3.017 4.266 4.529 4.529 0 0 0 4.525 4.524 4.531 4.531 0 0 0 4.267-3.016.452.452 0 0 0-.276-.577m-3.086-1.836v-2.683a3.174 3.174 0 0 1 2.682 2.683h-2.682Zm-.453-3.62a.453.453 0 0 0-.452.453v3.62c0 .25.203.452.452.452h3.62c.25 0 .452-.202.452-.452a4.077 4.077 0 0 0-4.072-4.073Zm-2.49-36.693c-.92.995-.9 2.572.058 3.549.468.478 1.09.742 1.752.742h.002a2.45 2.45 0 0 0 1.758-.742 2.585 2.585 0 0 0-.004-3.606l-1.35-1.38c-.138 1.123-.559 2.108-1.309 2.108-.23 0-.604-.102-.907-.671Zm1.812 5.196h-.003a3.334 3.334 0 0 1-2.397-1.014c-1.319-1.344-1.32-3.531-.004-4.872l.444-.45a.452.452 0 0 1 .76.205c.104.403.228.6.296.675.161-.169.451-.852.451-2.009 0-.067 0-.13-.003-.193a.456.456 0 0 1 .78-.349l2.076 2.121a3.492 3.492 0 0 1 .004 4.872 3.345 3.345 0 0 1-2.404 1.014Zm.226-42.808h1.81a.453.453 0 0 1 0 .905h-1.81a.453.453 0 0 1 0-.905Zm-2.262.452a.453.453 0 0 1 .905 0 .454.454 0 0 1-.453.453.454.454 0 0 1-.452-.453Zm4.977 1.81h-5.43a.453.453 0 0 1-.452-.452v-2.715h6.334v2.715a.453.453 0 0 1-.452.452m-5.43-6.334h.453v.452c0 .249.203.453.452.453a.454.454 0 0 0 .452-.453v-.452h2.715v.452c0 .249.204.453.453.453a.454.454 0 0 0 .452-.453v-.452h.453c.249 0 .452.203.452.452v1.81H16.88v-1.81c0-.249.203-.452.452-.452m5.43-.905h-.453v-.453a.454.454 0 0 0-.453-.452.454.454 0 0 0-.452.452v.453h-2.715v-.453a.454.454 0 0 0-.452-.452.454.454 0 0 0-.453.452v.453h-.452c-.748 0-1.357.609-1.357 1.357v5.43c0 .748.609 1.357 1.357 1.357h5.43c.748 0 1.357-.609 1.357-1.357v-5.43a1.36 1.36 0 0 0-1.358-1.357m-4.524-37.379a.679.679 0 1 0 0-1.357.679.679 0 0 0 0 1.357m4.525 4.073h-5.176l3.17-2.645a.351.351 0 0 1 .422 0l2.036 1.737v.455c0 .25-.202.453-.452.453m-5.43-6.335h5.43c.25 0 .452.203.452.453v3.784l-1.449-1.236a1.256 1.256 0 0 0-1.593-.003l-3.292 2.748v-5.293c0-.25.203-.453.452-.453m5.43-.905h-5.43a1.36 1.36 0 0 0-1.357 1.358v5.429c0 .748.61 1.357 1.357 1.357h5.43c.748 0 1.357-.609 1.357-1.357v-5.429a1.36 1.36 0 0 0-1.357-1.358M21.1 148.541a.895.895 0 0 1-.89-.721L19 142.213l-1.25 2.888a.454.454 0 0 1-.416.273h-1.357a.453.453 0 0 1 0-.905h1.06l1.134-2.62a.884.884 0 0 1 .917-.543c.398.039.71.32.796.716l1.214 5.607 1.25-2.888a.451.451 0 0 1 .416-.272h1.357a.452.452 0 1 1 0 .905h-1.06l-1.134 2.618a.89.89 0 0 1-.824.549m-1.057-47.785c1.168 0 2.197.751 2.568 1.83a2.266 2.266 0 0 1 1.957 2.242 2.26 2.26 0 0 1-.566 1.497.452.452 0 1 1-.678-.599 1.357 1.357 0 0 0-1.018-2.255h-.046a.452.452 0 0 1-.443-.364 1.812 1.812 0 0 0-3.547 0 .453.453 0 0 1-.444.364h-.045a1.359 1.359 0 0 0-1.018 2.255.453.453 0 0 1-.678.599 2.259 2.259 0 0 1-.566-1.497c0-1.144.853-2.092 1.957-2.242a2.723 2.723 0 0 1 2.567-1.83Zm.453 6.626.59-.57a.452.452 0 1 1 .63.651l-1.358 1.31a.456.456 0 0 1-.634-.006l-1.358-1.357a.452.452 0 1 1 .64-.64l.585.585v-2.527a.452.452 0 0 1 .905 0v2.554Z" clip-rule="evenodd" opacity=".2"/>
    <path fill="#000" fill-rule="evenodd" d="M23.214 68.756a.494.494 0 0 1-.485.503.494.494 0 0 1-.485-.503c0-1.386-1.087-2.513-2.423-2.513-1.337 0-2.424 1.127-2.424 2.513a.494.494 0 0 1-.485.503.494.494 0 0 1-.485-.503c0-1.94 1.523-3.519 3.394-3.519 1.87 0 3.393 1.579 3.393 3.52m-3.393-7.542c.534 0 .97.451.97 1.006 0 .554-.436 1.005-.97 1.005-.535 0-.97-.45-.97-1.005 0-.555.435-1.006.97-1.006m0 3.017c1.069 0 1.939-.902 1.939-2.011 0-1.11-.87-2.011-1.94-2.011-1.069 0-1.939.902-1.939 2.01 0 1.11.87 2.012 1.94 2.012" clip-rule="evenodd"/>
    <path fill="#000" fill-rule="evenodd" d="M5.43 44.478c0-.115.093-.209.208-.209h28.817a.21.21 0 0 1 .21.21.209.209 0 0 1-.21.208H5.638a.209.209 0 0 1-.209-.209Z" clip-rule="evenodd" opacity=".2"/>
    <path fill="#000" fill-rule="evenodd" d="M27.564 24.222a7.518 7.518 0 1 1-15.035 0 7.518 7.518 0 0 1 15.035 0Zm-7.482 1.068c1.386-1.96 1.447-3.147 0-5.245-1.474 2.143-1.284 3.279 0 5.245Zm-.658 2.553c.22-2.39-.32-3.45-2.622-4.543-.206 2.593.526 3.482 2.622 4.543Zm1.325 0c-.22-2.39.32-3.45 2.622-4.543.206 2.593-.527 3.482-2.622 4.543Z" clip-rule="evenodd"/>
    <g clip-path="url(#c)">
      <path fill="#000" fill-rule="evenodd" d="M58.888 15.453a2.508 2.508 0 0 1 2.505-2.506 2.508 2.508 0 0 1 2.506 2.506 2.508 2.508 0 0 1-2.506 2.505 2.508 2.508 0 0 1-2.505-2.505m6.56 3.463-1.418-1.418c.44-.566.704-1.275.704-2.046a3.345 3.345 0 0 0-3.34-3.34 3.345 3.345 0 0 0-3.342 3.34 3.345 3.345 0 0 0 3.341 3.342 3.32 3.32 0 0 0 2.046-.705l1.418 1.418a.416.416 0 0 0 .59 0 .417.417 0 0 0 0-.591" clip-rule="evenodd"/>
      <path fill="#000" d="M71.9 17.764c-.3 0-.56-.055-.783-.164a1.223 1.223 0 0 1-.514-.456 1.26 1.26 0 0 1-.182-.678h.515a.848.848 0 0 0 .433.766c.144.077.321.116.532.116.276 0 .49-.066.643-.198a.632.632 0 0 0 .228-.497.658.658 0 0 0-.105-.392.77.77 0 0 0-.287-.246 2.231 2.231 0 0 0-.41-.163c-.151-.047-.311-.1-.479-.158-.315-.11-.55-.244-.701-.404-.152-.163-.228-.376-.228-.637a1.029 1.029 0 0 1 .152-.579c.105-.171.253-.304.444-.397a1.52 1.52 0 0 1 .69-.147c.261 0 .487.049.678.147a1.104 1.104 0 0 1 .62.988h-.514a.698.698 0 0 0-.088-.334.675.675 0 0 0-.27-.274.853.853 0 0 0-.444-.106.821.821 0 0 0-.55.17.598.598 0 0 0-.21.485c0 .176.05.31.147.404.1.093.241.171.42.233l.62.205c.195.07.37.152.526.246.156.093.277.214.363.362.09.148.135.337.135.567 0 .195-.051.38-.153.556a1.133 1.133 0 0 1-.461.42c-.203.11-.458.165-.766.165Zm3.352 0c-.277 0-.523-.063-.737-.188a1.39 1.39 0 0 1-.509-.532 1.675 1.675 0 0 1-.181-.8c0-.305.06-.57.181-.796a1.3 1.3 0 0 1 .503-.532c.218-.129.47-.193.754-.193a1.325 1.325 0 0 1 1.363 1.357c0 .043-.002.085-.006.128v.146h-2.31c.012.223.063.408.152.556a.953.953 0 0 0 .345.327.94.94 0 0 0 .445.111.88.88 0 0 0 .508-.14.804.804 0 0 0 .299-.38h.485a1.318 1.318 0 0 1-.45.672c-.219.176-.5.264-.842.264Zm0-2.626a.984.984 0 0 0-.626.217c-.18.14-.283.346-.31.62h1.824c-.011-.262-.1-.466-.269-.615a.902.902 0 0 0-.62-.222Zm2.99 2.626c-.242 0-.443-.041-.603-.123a.834.834 0 0 1-.473-.772c0-.296.113-.524.339-.684.226-.16.534-.24.924-.24h.783v-.035c0-.253-.066-.444-.199-.573-.132-.133-.31-.199-.532-.199a.849.849 0 0 0-.497.146.62.62 0 0 0-.257.415h-.503a.94.94 0 0 1 .21-.531 1.19 1.19 0 0 1 .463-.328c.183-.078.378-.117.584-.117.406 0 .71.11.912.327.207.215.31.501.31.86v1.783h-.438l-.03-.52a1.165 1.165 0 0 1-.362.421c-.156.113-.367.17-.632.17Zm.075-.416a.786.786 0 0 0 .48-.146.923.923 0 0 0 .31-.38c.07-.156.105-.32.105-.491v-.006h-.743c-.288 0-.493.05-.613.152a.46.46 0 0 0-.176.369c0 .152.055.274.164.368.113.09.27.134.474.134Zm2.123.345v-2.9h.444l.041.556a1.05 1.05 0 0 1 .41-.456c.183-.113.409-.17.678-.17v.515h-.135c-.171 0-.329.03-.473.093a.703.703 0 0 0-.345.304c-.086.144-.129.343-.129.597v1.461h-.491Zm3.349.07c-.277 0-.526-.062-.749-.187a1.42 1.42 0 0 1-.52-.532 1.653 1.653 0 0 1-.187-.8c0-.305.062-.57.187-.796.129-.23.302-.407.52-.532.222-.129.472-.193.749-.193.343 0 .631.09.865.269.238.18.388.42.45.72h-.502a.634.634 0 0 0-.287-.416.936.936 0 0 0-.532-.152.915.915 0 0 0-.813.491c-.09.164-.134.367-.134.608 0 .242.044.445.134.608.09.164.207.289.351.375a.92.92 0 0 0 .462.122c.203 0 .38-.048.532-.146a.658.658 0 0 0 .287-.427h.502a1.16 1.16 0 0 1-.444.714c-.238.183-.528.274-.871.274Zm2.001-.07v-4.21h.491v1.807c.098-.18.236-.317.415-.415a1.17 1.17 0 0 1 .585-.152c.335 0 .604.105.807.316.203.206.304.526.304.959v1.695h-.485V16.05c0-.604-.244-.906-.731-.906a.838.838 0 0 0-.637.275c-.172.18-.258.436-.258.772v1.502h-.49Z" opacity=".4"/>
    </g>
    <rect width="390.914" height="210.91" x="56.799" y="40.093" fill="#fff" rx="4.176"/>
    <g clip-path="url(#d)">
      <path fill="#000" d="M78.053 239.765a1.19 1.19 0 0 1-.672-.188 1.235 1.235 0 0 1-.43-.53c-.1-.229-.15-.493-.15-.794 0-.301.05-.564.15-.789a1.2 1.2 0 0 1 .43-.531c.19-.128.413-.192.672-.192.26 0 .482.064.669.192.186.126.33.302.43.531.1.225.15.488.15.789 0 .301-.05.565-.15.794-.1.225-.244.402-.43.53-.187.125-.41.188-.669.188Zm0-.309c.17 0 .322-.047.456-.142a.944.944 0 0 0 .317-.414c.078-.181.117-.396.117-.647 0-.25-.04-.465-.117-.643a.912.912 0 0 0-.317-.409.75.75 0 0 0-.456-.147.757.757 0 0 0-.46.147.95.95 0 0 0-.317.409 1.599 1.599 0 0 0-.117.643c0 .251.04.466.117.647a.985.985 0 0 0 .318.414.773.773 0 0 0 .46.142Zm2.044.259v-2.531l-.472.104v-.242l.589-.255h.238v2.924h-.355Zm1.885.397 1.049-3.588h.346l-1.048 3.588h-.347Zm3.217-.397v-2.531l-.472.104v-.242l.59-.255h.237v2.924H85.2Zm.927 0v-.247c.197-.155.384-.313.56-.472a5.72 5.72 0 0 0 .471-.476c.14-.156.248-.309.326-.459a.915.915 0 0 0 .12-.434.766.766 0 0 0-.053-.289.437.437 0 0 0-.167-.213.542.542 0 0 0-.318-.083.557.557 0 0 0-.321.088.525.525 0 0 0-.197.225.747.747 0 0 0-.062.305h-.339a.95.95 0 0 1 .121-.493.802.802 0 0 1 .33-.317 1 1 0 0 1 .472-.109c.26 0 .47.074.635.222.167.144.25.362.25.651 0 .173-.042.344-.129.514-.086.167-.196.33-.33.488a4.514 4.514 0 0 1-.43.439c-.15.136-.29.259-.422.367h1.412v.293h-1.93Zm22.371.05a1.19 1.19 0 0 1-.672-.188 1.23 1.23 0 0 1-.43-.53 1.95 1.95 0 0 1-.151-.794c0-.301.05-.564.151-.789a1.2 1.2 0 0 1 .43-.531 1.17 1.17 0 0 1 .672-.192c.259 0 .482.064.668.192a1.2 1.2 0 0 1 .43.531c.101.225.151.488.151.789 0 .301-.05.565-.151.794a1.23 1.23 0 0 1-.43.53 1.17 1.17 0 0 1-.668.188Zm0-.309c.17 0 .322-.047.455-.142a.94.94 0 0 0 .318-.414c.078-.181.117-.396.117-.647 0-.25-.039-.465-.117-.643a.908.908 0 0 0-.318-.409.748.748 0 0 0-.455-.147.753.753 0 0 0-.459.147.95.95 0 0 0-.318.409 1.599 1.599 0 0 0-.117.643c0 .251.039.466.117.647a.985.985 0 0 0 .318.414.77.77 0 0 0 .459.142Zm1.669.259v-.247c.198-.155.384-.313.56-.472a5.85 5.85 0 0 0 .472-.476c.139-.156.247-.309.325-.459a.913.913 0 0 0 .121-.434.77.77 0 0 0-.054-.289.435.435 0 0 0-.167-.213.542.542 0 0 0-.317-.083.557.557 0 0 0-.322.088.523.523 0 0 0-.196.225.744.744 0 0 0-.063.305h-.338a.95.95 0 0 1 .121-.493.805.805 0 0 1 .33-.317.999.999 0 0 1 .472-.109c.259 0 .47.074.635.222.167.144.25.362.25.651 0 .173-.043.344-.129.514-.087.167-.197.33-.33.488a4.571 4.571 0 0 1-.43.439c-.151.136-.291.259-.422.367h1.411v.293h-1.929Zm3.349.397 1.048-3.588h.347l-1.048 3.588h-.347Zm3.217-.397v-2.531l-.472.104v-.242l.589-.255h.238v2.924h-.355Zm.926 0v-.247c.198-.155.384-.313.56-.472a5.85 5.85 0 0 0 .472-.476c.139-.156.248-.309.326-.459a.924.924 0 0 0 .121-.434.751.751 0 0 0-.055-.289.435.435 0 0 0-.167-.213.54.54 0 0 0-.317-.083.56.56 0 0 0-.322.088.53.53 0 0 0-.196.225.744.744 0 0 0-.063.305h-.338a.95.95 0 0 1 .121-.493.805.805 0 0 1 .33-.317c.139-.073.297-.109.472-.109.259 0 .471.074.635.222.167.144.251.362.251.651 0 .173-.044.344-.13.514-.086.167-.196.33-.33.488a4.571 4.571 0 0 1-.43.439c-.15.136-.291.259-.422.367h1.412v.293h-1.93Zm21.691.05a1.19 1.19 0 0 1-.672-.188 1.23 1.23 0 0 1-.43-.53 1.966 1.966 0 0 1-.151-.794c0-.301.051-.564.151-.789a1.2 1.2 0 0 1 .43-.531 1.17 1.17 0 0 1 .672-.192c.259 0 .482.064.669.192.186.126.329.302.43.531.1.225.15.488.15.789 0 .301-.05.565-.15.794a1.245 1.245 0 0 1-.43.53c-.187.125-.41.188-.669.188Zm0-.309c.17 0 .322-.047.456-.142a.945.945 0 0 0 .317-.414c.078-.181.117-.396.117-.647 0-.25-.039-.465-.117-.643a.913.913 0 0 0-.317-.409.753.753 0 0 0-.456-.147.758.758 0 0 0-.459.147.941.941 0 0 0-.317.409 1.599 1.599 0 0 0-.117.643c0 .251.039.466.117.647a.975.975 0 0 0 .317.414.773.773 0 0 0 .459.142Zm2.666.309c-.186 0-.355-.033-.505-.1a.879.879 0 0 1-.363-.309.963.963 0 0 1-.142-.51h.355a.627.627 0 0 0 .175.434c.114.12.274.18.48.18.206 0 .361-.057.464-.171a.586.586 0 0 0 .159-.414.531.531 0 0 0-.364-.526.984.984 0 0 0-.359-.062h-.217v-.297h.217c.189 0 .337-.043.443-.129a.442.442 0 0 0 .163-.364.424.424 0 0 0-.13-.321c-.083-.087-.209-.13-.376-.13a.526.526 0 0 0-.551.505h-.355a.877.877 0 0 1 .125-.421.774.774 0 0 1 .318-.284.982.982 0 0 1 .463-.105c.19 0 .347.034.472.1a.696.696 0 0 1 .389.635.724.724 0 0 1-.121.405.6.6 0 0 1-.364.243.77.77 0 0 1 .43.246.728.728 0 0 1 .172.505.91.91 0 0 1-.113.447.803.803 0 0 1-.326.322 1.09 1.09 0 0 1-.539.121Zm2.458.347 1.049-3.588h.346l-1.048 3.588h-.347Zm3.217-.397v-2.531l-.472.104v-.242l.589-.255h.238v2.924h-.355Zm.927 0v-.247c.197-.155.384-.313.559-.472.178-.161.336-.32.472-.476.139-.156.248-.309.326-.459a.913.913 0 0 0 .121-.434.77.77 0 0 0-.054-.289.44.44 0 0 0-.167-.213.543.543 0 0 0-.318-.083.554.554 0 0 0-.518.313.76.76 0 0 0-.062.305h-.339c0-.192.041-.356.122-.493a.797.797 0 0 1 .329-.317c.14-.073.297-.109.472-.109.259 0 .471.074.635.222.167.144.251.362.251.651 0 .173-.043.344-.13.514-.086.167-.196.33-.33.488a4.456 4.456 0 0 1-.43.439c-.15.136-.291.259-.422.367h1.412v.293h-1.929Zm21.602.05c-.259 0-.483-.063-.673-.188a1.245 1.245 0 0 1-.43-.53c-.1-.229-.15-.493-.15-.794 0-.301.05-.564.15-.789.101-.229.244-.405.43-.531.19-.128.414-.192.673-.192.259 0 .482.064.668.192a1.2 1.2 0 0 1 .43.531c.101.225.151.488.151.789 0 .301-.05.565-.151.794a1.23 1.23 0 0 1-.43.53 1.17 1.17 0 0 1-.668.188Zm0-.309c.17 0 .321-.047.455-.142a.947.947 0 0 0 .318-.414c.077-.181.116-.396.116-.647 0-.25-.039-.465-.116-.643a.914.914 0 0 0-.318-.409.75.75 0 0 0-.455-.147.758.758 0 0 0-.46.147.956.956 0 0 0-.317.409 1.599 1.599 0 0 0-.117.643c0 .251.039.466.117.647a.991.991 0 0 0 .317.414.774.774 0 0 0 .46.142Zm3.079.259v-.627h-1.482v-.271l1.42-2.026h.409v1.988h.434v.309h-.434v.627h-.347Zm-1.094-.936h1.111v-1.599l-1.111 1.599Zm3.212 1.333 1.049-3.588h.346l-1.048 3.588h-.347Zm3.217-.397v-2.531l-.472.104v-.242l.589-.255h.238v2.924h-.355Zm.926 0v-.247a10 10 0 0 0 .56-.472c.178-.161.336-.32.472-.476.139-.156.248-.309.326-.459a.913.913 0 0 0 .121-.434.77.77 0 0 0-.054-.289.44.44 0 0 0-.167-.213.543.543 0 0 0-.318-.083.554.554 0 0 0-.518.313.76.76 0 0 0-.062.305h-.339a.96.96 0 0 1 .121-.493.805.805 0 0 1 .33-.317c.14-.073.297-.109.472-.109.259 0 .471.074.635.222.167.144.251.362.251.651 0 .173-.043.344-.13.514-.086.167-.196.33-.33.488a4.456 4.456 0 0 1-.43.439c-.15.136-.291.259-.422.367h1.412v.293h-1.93Zm21.55.05c-.259 0-.483-.063-.673-.188a1.245 1.245 0 0 1-.43-.53c-.1-.229-.15-.493-.15-.794 0-.301.05-.564.15-.789.101-.229.244-.405.43-.531.19-.128.414-.192.673-.192.259 0 .482.064.668.192a1.2 1.2 0 0 1 .43.531c.101.225.151.488.151.789 0 .301-.05.565-.151.794a1.23 1.23 0 0 1-.43.53 1.17 1.17 0 0 1-.668.188Zm0-.309c.17 0 .321-.047.455-.142a.947.947 0 0 0 .318-.414c.077-.181.116-.396.116-.647 0-.25-.039-.465-.116-.643a.914.914 0 0 0-.318-.409.75.75 0 0 0-.455-.147.758.758 0 0 0-.46.147.956.956 0 0 0-.317.409 1.599 1.599 0 0 0-.117.643c0 .251.039.466.117.647a.991.991 0 0 0 .317.414.774.774 0 0 0 .46.142Zm2.749.309c-.2 0-.374-.036-.522-.109a.937.937 0 0 1-.355-.296.971.971 0 0 1-.158-.435h.342a.67.67 0 0 0 .234.393.72.72 0 0 0 .464.146.653.653 0 0 0 .359-.096.656.656 0 0 0 .23-.267.827.827 0 0 0 .083-.372.746.746 0 0 0-.184-.526.614.614 0 0 0-.476-.2.759.759 0 0 0-.413.108.648.648 0 0 0-.251.284h-.334l.251-1.604h1.532v.305h-1.261l-.171.89a.758.758 0 0 1 .275-.201c.12-.053.257-.079.41-.079a.924.924 0 0 1 .839.497c.081.153.121.327.121.522 0 .187-.04.359-.121.518a.912.912 0 0 1-.346.38 1.007 1.007 0 0 1-.548.142Zm2.477.347 1.048-3.588h.347l-1.048 3.588h-.347Zm3.217-.397v-2.531l-.472.104v-.242l.589-.255h.238v2.924h-.355Zm.926 0v-.247c.198-.155.384-.313.56-.472a5.85 5.85 0 0 0 .472-.476c.139-.156.247-.309.325-.459a.915.915 0 0 0 .122-.434.77.77 0 0 0-.055-.289.435.435 0 0 0-.167-.213.542.542 0 0 0-.317-.083.557.557 0 0 0-.322.088.523.523 0 0 0-.196.225.744.744 0 0 0-.063.305h-.338a.95.95 0 0 1 .121-.493.805.805 0 0 1 .33-.317c.139-.073.297-.109.472-.109.259 0 .47.074.635.222.167.144.25.362.25.651 0 .173-.043.344-.129.514-.086.167-.196.33-.33.488a4.571 4.571 0 0 1-.43.439c-.151.136-.291.259-.422.367h1.412v.293h-1.93Zm21.582.05a1.19 1.19 0 0 1-.672-.188 1.24 1.24 0 0 1-.431-.53c-.1-.229-.15-.493-.15-.794 0-.301.05-.564.15-.789.101-.229.244-.405.431-.531a1.17 1.17 0 0 1 .672-.192c.259 0 .482.064.668.192a1.2 1.2 0 0 1 .43.531c.101.225.151.488.151.789 0 .301-.05.565-.151.794a1.23 1.23 0 0 1-.43.53 1.17 1.17 0 0 1-.668.188Zm0-.309c.17 0 .322-.047.455-.142a.947.947 0 0 0 .318-.414c.078-.181.117-.396.117-.647 0-.25-.039-.465-.117-.643a.914.914 0 0 0-.318-.409.748.748 0 0 0-.455-.147.753.753 0 0 0-.459.147.95.95 0 0 0-.318.409 1.599 1.599 0 0 0-.117.643c0 .251.039.466.117.647a.985.985 0 0 0 .318.414.77.77 0 0 0 .459.142Zm2.808.309c-.212 0-.39-.039-.535-.117a1.003 1.003 0 0 1-.35-.322 1.452 1.452 0 0 1-.192-.446 2.236 2.236 0 0 1-.059-.51c0-.323.045-.606.134-.848a1.28 1.28 0 0 1 .384-.572.938.938 0 0 1 .614-.209c.184 0 .341.036.472.109a.82.82 0 0 1 .309.292.95.95 0 0 1 .146.401h-.326a.6.6 0 0 0-.204-.367.612.612 0 0 0-.401-.13c-.22 0-.405.105-.556.313-.147.206-.227.529-.238.969a.942.942 0 0 1 .848-.484c.167 0 .323.039.468.117a.956.956 0 0 1 .359.33.872.872 0 0 1 .138.493.989.989 0 0 1-.472.839.99.99 0 0 1-.539.142Zm-.025-.309a.723.723 0 0 0 .351-.084.614.614 0 0 0 .33-.572.603.603 0 0 0-.197-.472.683.683 0 0 0-.484-.179.667.667 0 0 0-.351.092.661.661 0 0 0-.246.238.627.627 0 0 0-.088.325c0 .126.029.238.088.339a.645.645 0 0 0 .246.229c.103.056.22.084.351.084Zm2.516.656 1.049-3.588h.346l-1.048 3.588h-.347Zm3.217-.397v-2.531l-.472.104v-.242l.589-.255h.238v2.924h-.355Zm.927 0v-.247c.197-.155.384-.313.559-.472.178-.161.336-.32.472-.476.139-.156.248-.309.326-.459a.913.913 0 0 0 .121-.434.77.77 0 0 0-.054-.289.44.44 0 0 0-.167-.213.543.543 0 0 0-.318-.083.554.554 0 0 0-.518.313.76.76 0 0 0-.062.305h-.339c0-.192.041-.356.122-.493a.797.797 0 0 1 .329-.317c.14-.073.297-.109.472-.109.259 0 .471.074.635.222.167.144.251.362.251.651 0 .173-.043.344-.13.514-.086.167-.196.33-.33.488a4.456 4.456 0 0 1-.43.439c-.15.136-.291.259-.422.367h1.412v.293h-1.929Zm21.612.05c-.259 0-.483-.063-.673-.188a1.237 1.237 0 0 1-.43-.53c-.1-.229-.15-.493-.15-.794 0-.301.05-.564.15-.789.1-.229.244-.405.43-.531.19-.128.414-.192.673-.192.259 0 .481.064.668.192.186.126.33.302.43.531.1.225.15.488.15.789 0 .301-.05.565-.15.794-.1.225-.244.402-.43.53a1.173 1.173 0 0 1-.668.188Zm0-.309a.768.768 0 0 0 .455-.142.945.945 0 0 0 .317-.414c.078-.181.117-.396.117-.647 0-.25-.039-.465-.117-.643a.913.913 0 0 0-.317-.409.752.752 0 0 0-.455-.147.758.758 0 0 0-.46.147.956.956 0 0 0-.317.409 1.599 1.599 0 0 0-.117.643c0 .251.039.466.117.647a.991.991 0 0 0 .317.414.774.774 0 0 0 .46.142Zm1.94.259 1.161-2.623h-1.603v-.301h1.963v.263l-1.149 2.661h-.372Zm2.898.397 1.048-3.588h.347l-1.048 3.588h-.347Zm3.217-.397v-2.531l-.472.104v-.242l.589-.255h.238v2.924h-.355Zm.926 0v-.247a10 10 0 0 0 .56-.472 5.85 5.85 0 0 0 .472-.476c.139-.156.248-.309.326-.459a.924.924 0 0 0 .121-.434.77.77 0 0 0-.054-.289.442.442 0 0 0-.168-.213.54.54 0 0 0-.317-.083.56.56 0 0 0-.322.088.53.53 0 0 0-.196.225.743.743 0 0 0-.062.305h-.339a.96.96 0 0 1 .121-.493.805.805 0 0 1 .33-.317c.139-.073.297-.109.472-.109.259 0 .471.074.635.222.167.144.251.362.251.651 0 .173-.044.344-.13.514-.086.167-.196.33-.33.488a4.456 4.456 0 0 1-.43.439c-.15.136-.291.259-.422.367h1.412v.293h-1.93Zm21.734.05a1.19 1.19 0 0 1-.672-.188 1.23 1.23 0 0 1-.43-.53 1.95 1.95 0 0 1-.151-.794c0-.301.05-.564.151-.789a1.2 1.2 0 0 1 .43-.531 1.17 1.17 0 0 1 .672-.192c.259 0 .482.064.668.192.187.126.33.302.431.531.1.225.15.488.15.789 0 .301-.05.565-.15.794a1.24 1.24 0 0 1-.431.53 1.17 1.17 0 0 1-.668.188Zm0-.309c.17 0 .322-.047.455-.142a.94.94 0 0 0 .318-.414c.078-.181.117-.396.117-.647 0-.25-.039-.465-.117-.643a.908.908 0 0 0-.318-.409.748.748 0 0 0-.455-.147.755.755 0 0 0-.459.147.95.95 0 0 0-.318.409 1.6 1.6 0 0 0-.116.643c0 .251.038.466.116.647a.985.985 0 0 0 .318.414.771.771 0 0 0 .459.142Zm2.721.309c-.192 0-.365-.035-.518-.104a.926.926 0 0 1-.364-.297.776.776 0 0 1-.129-.443c0-.178.051-.338.154-.48a.754.754 0 0 1 .418-.284.723.723 0 0 1-.367-.255.63.63 0 0 1-.13-.384c0-.142.038-.271.113-.388a.774.774 0 0 1 .321-.284c.14-.07.307-.105.502-.105s.362.035.501.105a.774.774 0 0 1 .321.284.696.696 0 0 1 .113.388.645.645 0 0 1-.129.384.73.73 0 0 1-.368.255.734.734 0 0 1 .414.284.788.788 0 0 1 .158.48.757.757 0 0 1-.133.443.892.892 0 0 1-.36.297 1.243 1.243 0 0 1-.517.104Zm0-1.733a.622.622 0 0 0 .421-.134.453.453 0 0 0 .159-.359c0-.164-.051-.288-.154-.372-.103-.083-.245-.125-.426-.125s-.323.042-.426.125c-.101.084-.151.208-.151.372a.46.46 0 0 0 .155.359c.103.089.243.134.422.134Zm0 1.424c.22 0 .384-.05.492-.15a.526.526 0 0 0 .167-.406c0-.189-.059-.332-.179-.43-.12-.097-.28-.146-.48-.146-.201 0-.361.049-.481.146-.119.098-.179.241-.179.43 0 .167.054.303.163.406.111.1.277.15.497.15Zm2.497.656 1.048-3.588h.347l-1.048 3.588h-.347Zm3.217-.397v-2.531l-.472.104v-.242l.589-.255h.238v2.924h-.355Zm.926 0v-.247c.198-.155.384-.313.56-.472a5.85 5.85 0 0 0 .472-.476c.139-.156.248-.309.326-.459a.924.924 0 0 0 .121-.434.751.751 0 0 0-.055-.289.435.435 0 0 0-.167-.213.54.54 0 0 0-.317-.083.56.56 0 0 0-.322.088.53.53 0 0 0-.196.225.744.744 0 0 0-.063.305h-.338a.96.96 0 0 1 .121-.493.805.805 0 0 1 .33-.317c.139-.073.297-.109.472-.109.259 0 .471.074.635.222.167.144.251.362.251.651 0 .173-.044.344-.13.514-.086.167-.196.33-.33.488a4.571 4.571 0 0 1-.43.439c-.15.136-.291.259-.422.367h1.412v.293h-1.93Zm21.586.05a1.19 1.19 0 0 1-.672-.188 1.23 1.23 0 0 1-.43-.53 1.95 1.95 0 0 1-.151-.794c0-.301.05-.564.151-.789a1.2 1.2 0 0 1 .43-.531 1.17 1.17 0 0 1 .672-.192c.259 0 .482.064.668.192.187.126.33.302.431.531.1.225.15.488.15.789 0 .301-.05.565-.15.794a1.24 1.24 0 0 1-.431.53 1.17 1.17 0 0 1-.668.188Zm0-.309c.17 0 .322-.047.455-.142a.94.94 0 0 0 .318-.414c.078-.181.117-.396.117-.647 0-.25-.039-.465-.117-.643a.908.908 0 0 0-.318-.409.748.748 0 0 0-.455-.147.758.758 0 0 0-.459.147.95.95 0 0 0-.318.409 1.6 1.6 0 0 0-.116.643c0 .251.038.466.116.647a.985.985 0 0 0 .318.414.773.773 0 0 0 .459.142Zm2.721.309a.955.955 0 0 1-.472-.109.863.863 0 0 1-.314-.288.96.96 0 0 1-.137-.405h.325a.587.587 0 0 0 .201.368.615.615 0 0 0 .401.129c.223 0 .408-.103.555-.309.148-.209.227-.533.238-.973a.912.912 0 0 1-.321.342.938.938 0 0 1-.526.142.984.984 0 0 1-.468-.117.894.894 0 0 1-.497-.822.978.978 0 0 1 .472-.84.995.995 0 0 1 .538-.142c.212 0 .39.041.535.121.145.078.26.184.347.318.089.133.153.284.192.451.042.164.062.333.062.505 0 .323-.044.607-.133.852a1.298 1.298 0 0 1-.389.572.929.929 0 0 1-.609.205Zm.021-1.407c.13 0 .247-.03.35-.088a.715.715 0 0 0 .247-.242.618.618 0 0 0 .092-.326.638.638 0 0 0-.339-.568.722.722 0 0 0-.35-.084.723.723 0 0 0-.351.084.608.608 0 0 0-.243.234.647.647 0 0 0-.087.338.62.62 0 0 0 .192.476.707.707 0 0 0 .489.176Zm2.558 1.754 1.048-3.588h.347l-1.049 3.588h-.346Zm3.217-.397v-2.531l-.472.104v-.242l.589-.255h.238v2.924h-.355Zm.926 0v-.247c.198-.155.384-.313.559-.472.179-.161.336-.32.472-.476.14-.156.248-.309.326-.459a.913.913 0 0 0 .121-.434.77.77 0 0 0-.054-.289.435.435 0 0 0-.167-.213.542.542 0 0 0-.317-.083.555.555 0 0 0-.322.088.523.523 0 0 0-.196.225.744.744 0 0 0-.063.305h-.338a.95.95 0 0 1 .121-.493.805.805 0 0 1 .33-.317.999.999 0 0 1 .472-.109c.259 0 .47.074.635.222.167.144.25.362.25.651 0 .173-.043.344-.129.514-.087.167-.197.33-.33.488a4.571 4.571 0 0 1-.43.439c-.151.136-.291.259-.422.367h1.411v.293h-1.929Zm21.132 0v-2.531l-.472.104v-.242l.589-.255h.238v2.924h-.355Zm2.112.05a1.19 1.19 0 0 1-.672-.188 1.24 1.24 0 0 1-.431-.53c-.1-.229-.15-.493-.15-.794 0-.301.05-.564.15-.789.101-.229.244-.405.431-.531a1.17 1.17 0 0 1 .672-.192c.259 0 .482.064.668.192a1.2 1.2 0 0 1 .43.531c.101.225.151.488.151.789 0 .301-.05.565-.151.794a1.23 1.23 0 0 1-.43.53 1.17 1.17 0 0 1-.668.188Zm0-.309c.17 0 .322-.047.455-.142a.947.947 0 0 0 .318-.414c.078-.181.117-.396.117-.647 0-.25-.039-.465-.117-.643a.914.914 0 0 0-.318-.409.748.748 0 0 0-.455-.147.753.753 0 0 0-.459.147.95.95 0 0 0-.318.409 1.599 1.599 0 0 0-.117.643c0 .251.039.466.117.647a.985.985 0 0 0 .318.414.77.77 0 0 0 .459.142Zm2.669.656 1.048-3.588h.347l-1.049 3.588h-.346Zm3.217-.397v-2.531l-.472.104v-.242l.589-.255h.238v2.924h-.355Zm.926 0v-.247c.198-.155.384-.313.56-.472.178-.161.335-.32.471-.476.14-.156.248-.309.326-.459a.913.913 0 0 0 .121-.434.77.77 0 0 0-.054-.289.435.435 0 0 0-.167-.213.542.542 0 0 0-.317-.083.555.555 0 0 0-.322.088.523.523 0 0 0-.196.225.744.744 0 0 0-.063.305h-.338a.95.95 0 0 1 .121-.493.805.805 0 0 1 .33-.317.999.999 0 0 1 .472-.109c.259 0 .47.074.635.222.167.144.25.362.25.651 0 .173-.043.344-.129.514-.087.167-.197.33-.33.488a4.571 4.571 0 0 1-.43.439c-.151.136-.291.259-.422.367h1.411v.293h-1.929Zm23.134 0v-2.531l-.472.104v-.242l.589-.255h.238v2.924h-.355Zm1.26 0v-2.531l-.472.104v-.242l.589-.255h.238v2.924h-.355Zm1.886.397 1.048-3.588h.347l-1.049 3.588h-.346Zm3.217-.397v-2.531l-.472.104v-.242l.589-.255h.238v2.924h-.355Zm.926 0v-.247c.198-.155.384-.313.559-.472.179-.161.336-.32.472-.476.14-.156.248-.309.326-.459a.913.913 0 0 0 .121-.434.77.77 0 0 0-.054-.289.435.435 0 0 0-.167-.213.542.542 0 0 0-.317-.083.555.555 0 0 0-.322.088.523.523 0 0 0-.196.225.744.744 0 0 0-.063.305h-.338a.95.95 0 0 1 .121-.493.805.805 0 0 1 .33-.317.999.999 0 0 1 .472-.109c.259 0 .47.074.635.222.167.144.25.362.25.651 0 .173-.043.344-.129.514-.087.167-.197.33-.33.488a4.571 4.571 0 0 1-.43.439c-.151.136-.291.259-.422.367h1.411v.293h-1.929Zm23.134 0v-2.531l-.472.104v-.242l.589-.255h.238v2.924h-.355Zm.926 0v-.247c.198-.155.384-.313.56-.472a5.85 5.85 0 0 0 .472-.476c.139-.156.248-.309.326-.459a.924.924 0 0 0 .121-.434.751.751 0 0 0-.055-.289.435.435 0 0 0-.167-.213.54.54 0 0 0-.317-.083.56.56 0 0 0-.322.088.53.53 0 0 0-.196.225.744.744 0 0 0-.063.305h-.338a.95.95 0 0 1 .121-.493.805.805 0 0 1 .33-.317c.139-.073.297-.109.472-.109.259 0 .471.074.635.222.167.144.25.362.25.651 0 .173-.043.344-.129.514-.086.167-.196.33-.33.488a4.571 4.571 0 0 1-.43.439c-.15.136-.291.259-.422.367h1.412v.293h-1.93Zm3.349.397 1.049-3.588h.346l-1.048 3.588h-.347Zm3.217-.397v-2.531l-.472.104v-.242l.589-.255h.238v2.924h-.355Zm.927 0v-.247c.197-.155.384-.313.559-.472.178-.161.336-.32.472-.476.139-.156.248-.309.326-.459a.913.913 0 0 0 .121-.434.77.77 0 0 0-.054-.289.44.44 0 0 0-.167-.213.543.543 0 0 0-.318-.083.554.554 0 0 0-.518.313.76.76 0 0 0-.062.305h-.339c0-.192.041-.356.122-.493a.797.797 0 0 1 .329-.317c.14-.073.297-.109.472-.109.259 0 .471.074.635.222.167.144.251.362.251.651 0 .173-.043.344-.13.514-.086.167-.196.33-.33.488a4.456 4.456 0 0 1-.43.439c-.15.136-.291.259-.422.367h1.412v.293h-1.929Z" opacity=".4"/>
    </g>
    <path fill="#4339F2" fill-rule="evenodd" d="M72.252 61.875c1.615 0 2.924-1.23 2.924-2.747s-1.31-2.747-2.924-2.747c-1.614 0-2.923 1.23-2.923 2.747s1.309 2.747 2.923 2.747Z" clip-rule="evenodd"/>
    <path fill="#000" d="M78.114 60.951v-4.093h1.345c.32 0 .583.053.79.158.206.105.358.248.456.427.1.18.152.382.152.608 0 .222-.05.423-.147.602-.097.18-.25.324-.456.433-.206.105-.471.158-.795.158h-.853v1.707h-.492Zm.492-2.122h.841c.328 0 .56-.069.696-.205.14-.14.21-.331.21-.573 0-.245-.07-.437-.21-.573-.136-.14-.368-.21-.696-.21h-.841v1.56Zm2.865 2.122v-2.9h.444l.041.555a1.05 1.05 0 0 1 .41-.456c.183-.113.409-.17.678-.17v.515h-.135c-.171 0-.329.032-.473.094a.703.703 0 0 0-.345.304c-.086.144-.129.343-.129.596v1.462h-.49Zm3.337.07c-.273 0-.518-.062-.737-.187a1.377 1.377 0 0 1-.52-.526 1.667 1.667 0 0 1-.187-.807c0-.308.064-.575.193-.8.129-.23.302-.408.52-.533a1.49 1.49 0 0 1 .743-.187c.273 0 .518.062.737.187.218.125.39.302.514.532.129.226.193.493.193.801 0 .308-.064.577-.193.807a1.365 1.365 0 0 1-.526.526 1.457 1.457 0 0 1-.737.187Zm0-.42a.916.916 0 0 0 .819-.491c.09-.164.134-.367.134-.609s-.045-.444-.134-.608a.877.877 0 0 0-.345-.368.92.92 0 0 0-.462-.123.915.915 0 0 0-.819.491c-.09.164-.134.366-.134.608s.045.445.134.608a.93.93 0 0 0 .345.369.922.922 0 0 0 .462.122Zm3.16-.562c-.164 0-.315-.021-.45-.064l-.293.274a.663.663 0 0 0 .158.082c.066.02.16.04.28.059.121.016.29.033.509.053.39.027.669.116.836.268a.768.768 0 0 1 .252.597.901.901 0 0 1-.14.48.996.996 0 0 1-.422.373c-.187.098-.429.147-.725.147-.261 0-.493-.035-.696-.106a.98.98 0 0 1-.473-.31.788.788 0 0 1-.17-.52c0-.109.03-.228.088-.356a.955.955 0 0 1 .327-.357 1.467 1.467 0 0 1-.222-.111 1.393 1.393 0 0 1-.163-.14v-.135l.496-.491a.962.962 0 0 1-.344-.772c0-.191.044-.364.134-.52a.943.943 0 0 1 .392-.369c.171-.093.38-.14.625-.14.168 0 .32.023.456.07h1.07v.368l-.543.024c.113.163.17.353.17.567a.993.993 0 0 1-.141.52.982.982 0 0 1-.392.375c-.168.09-.374.134-.62.134Zm0-.403c.206 0 .37-.053.49-.158.125-.11.188-.265.188-.468 0-.199-.063-.35-.188-.456-.12-.11-.284-.164-.49-.164-.211 0-.379.055-.504.164-.12.105-.18.257-.18.456 0 .203.06.359.18.468.125.105.293.158.503.158Zm-.854 1.69c0 .194.081.338.245.432.164.097.369.146.614.146.242 0 .435-.052.579-.158a.492.492 0 0 0 .222-.42.433.433 0 0 0-.152-.328c-.101-.09-.288-.142-.561-.158a7.449 7.449 0 0 1-.556-.058c-.16.085-.265.177-.315.274a.616.616 0 0 0-.076.27Zm2.933-.375v-2.9h.445l.04.555c.09-.19.227-.343.41-.456.183-.113.41-.17.678-.17v.515h-.134c-.172 0-.33.032-.474.094a.704.704 0 0 0-.345.304c-.085.144-.128.343-.128.596v1.462h-.492Zm3.32.07c-.277 0-.522-.062-.737-.187a1.392 1.392 0 0 1-.508-.532 1.676 1.676 0 0 1-.182-.8c0-.305.06-.57.181-.796a1.3 1.3 0 0 1 .503-.532c.219-.129.47-.193.755-.193a1.325 1.325 0 0 1 1.362 1.356c0 .043-.002.086-.006.129v.146h-2.31c.012.222.063.408.153.556a.953.953 0 0 0 .345.327c.14.074.288.111.444.111a.879.879 0 0 0 .509-.14.802.802 0 0 0 .298-.38h.485a1.317 1.317 0 0 1-.45.672c-.218.176-.499.263-.842.263Zm0-2.625a.984.984 0 0 0-.626.216c-.179.14-.282.347-.31.62h1.825c-.012-.261-.102-.466-.27-.614a.902.902 0 0 0-.62-.222Zm3.136 2.625c-.347 0-.635-.087-.865-.263a1.026 1.026 0 0 1-.404-.713h.503a.713.713 0 0 0 .24.398c.132.109.31.163.532.163.206 0 .358-.043.456-.128a.416.416 0 0 0 .146-.316c0-.176-.064-.292-.193-.351a2.46 2.46 0 0 0-.532-.158 3.01 3.01 0 0 1-.468-.134 1.083 1.083 0 0 1-.392-.246.589.589 0 0 1-.157-.427c0-.253.093-.46.28-.62.191-.163.448-.245.772-.245.308 0 .56.078.754.234.2.152.314.37.345.655h-.485a.491.491 0 0 0-.193-.345.656.656 0 0 0-.427-.129c-.175 0-.312.037-.41.111a.355.355 0 0 0-.14.293c0 .116.061.208.182.274.125.067.292.123.503.17.179.039.349.088.508.146a.907.907 0 0 1 .398.251c.105.11.158.27.158.48a.797.797 0 0 1-.298.649c-.2.167-.47.251-.813.251Zm3.134 0c-.273 0-.519-.062-.737-.187a1.377 1.377 0 0 1-.52-.526 1.667 1.667 0 0 1-.187-.807c0-.308.064-.575.193-.8.128-.23.302-.408.52-.533.222-.125.47-.187.743-.187.272 0 .518.062.736.187.219.125.39.302.515.532a1.6 1.6 0 0 1 .193.801c0 .308-.065.577-.193.807a1.368 1.368 0 0 1-.526.526 1.46 1.46 0 0 1-.737.187Zm0-.42a.912.912 0 0 0 .818-.491c.09-.164.135-.367.135-.609s-.045-.444-.135-.608a.869.869 0 0 0-.345-.368.932.932 0 0 0-.93 0 .916.916 0 0 0-.35.368c-.09.164-.135.366-.135.608s.045.445.135.608a.93.93 0 0 0 .345.369.922.922 0 0 0 .462.122Z"/>
    <path fill="#29CC39" fill-opacity=".1" fill-rule="evenodd" d="M123.205 61.875c1.614 0 2.923-1.23 2.923-2.747s-1.309-2.747-2.923-2.747c-1.615 0-2.924 1.23-2.924 2.747s1.309 2.747 2.924 2.747Z" clip-rule="evenodd"/>
    <path fill="#000" d="M129.067 60.951v-4.093h.491l2.181 3.28v-3.28h.491v4.093h-.491l-2.181-3.28v3.28h-.491Zm5.06.07c-.343 0-.616-.103-.818-.31-.203-.21-.304-.532-.304-.964V58.05h.491v1.643c0 .604.247.906.742.906a.81.81 0 0 0 .626-.269c.168-.183.251-.442.251-.777V58.05h.492v2.9h-.445l-.035-.52c-.09.183-.224.327-.403.433a1.141 1.141 0 0 1-.597.157Zm3.592 0a1.44 1.44 0 0 1-.737-.187 1.397 1.397 0 0 1-.509-.532 1.686 1.686 0 0 1-.181-.8c0-.305.061-.57.181-.796.121-.23.289-.407.503-.532.219-.129.47-.193.755-.193a1.327 1.327 0 0 1 1.198.69 1.408 1.408 0 0 1 .158.795v.146h-2.309c.011.222.062.408.152.556a.95.95 0 0 0 .344.327.943.943 0 0 0 .445.111.88.88 0 0 0 .509-.14.81.81 0 0 0 .298-.38h.485a1.319 1.319 0 0 1-.45.672c-.218.176-.499.263-.842.263Zm0-2.625a.984.984 0 0 0-.626.216c-.179.14-.282.347-.31.62h1.825c-.012-.261-.102-.466-.269-.614a.905.905 0 0 0-.62-.222Zm2.747 2.555-1.099-2.9h.514l.871 2.427.877-2.427h.503l-1.099 2.9h-.567Zm3.386.07c-.273 0-.519-.062-.737-.187a1.374 1.374 0 0 1-.52-.526 1.664 1.664 0 0 1-.187-.807c0-.308.064-.575.193-.8.128-.23.302-.408.52-.533a1.49 1.49 0 0 1 .742-.187c.273 0 .519.062.737.187.218.125.39.302.515.532a1.6 1.6 0 0 1 .193.801c0 .308-.065.577-.193.807a1.364 1.364 0 0 1-.527.526 1.454 1.454 0 0 1-.736.187Zm0-.42a.912.912 0 0 0 .818-.491c.09-.164.135-.367.135-.609s-.045-.444-.135-.608a.869.869 0 0 0-.345-.368.92.92 0 0 0-.462-.123.913.913 0 0 0-.818.491c-.09.164-.135.366-.135.608s.045.445.135.608c.09.164.205.287.345.369a.92.92 0 0 0 .462.122Z"/>
    <path fill="#29CC39" fill-opacity=".1" fill-rule="evenodd" d="M77.265 76.426a2.924 2.924 0 0 1 2.924 2.923v147.846a2.923 2.923 0 0 1-5.847 0V79.349a2.924 2.924 0 0 1 2.923-2.923Z" clip-rule="evenodd"/>
    <path fill="#6F4EF6" fill-rule="evenodd" d="M87.289 92.713a2.924 2.924 0 0 1 2.923 2.923v131.558a2.923 2.923 0 0 1-5.847 0V95.636a2.924 2.924 0 0 1 2.924-2.923Z" clip-rule="evenodd"/>
    <path fill="#29CC39" fill-opacity=".1" fill-rule="evenodd" d="M108.17 146.174a2.924 2.924 0 0 1 2.924 2.923v78.1a2.923 2.923 0 0 1-5.847 0v-78.1a2.923 2.923 0 0 1 2.923-2.923Z" clip-rule="evenodd"/>
    <path fill="#6F4EF6" fill-rule="evenodd" d="M118.194 108.168a2.923 2.923 0 0 1 2.923 2.923v116.105a2.924 2.924 0 1 1-5.847 0V111.091a2.924 2.924 0 0 1 2.924-2.923Z" clip-rule="evenodd"/>
    <path fill="#29CC39" fill-opacity=".1" fill-rule="evenodd" d="M139.076 124.038a2.924 2.924 0 0 1 2.924 2.924v100.234a2.923 2.923 0 1 1-5.847 0V126.962a2.923 2.923 0 0 1 2.923-2.924Z" clip-rule="evenodd"/>
    <path fill="#6F4EF6" fill-rule="evenodd" d="M149.1 135.732a2.923 2.923 0 0 1 2.923 2.924v88.54a2.924 2.924 0 1 1-5.847 0v-88.54a2.924 2.924 0 0 1 2.924-2.924Z" clip-rule="evenodd"/>
    <path fill="#29CC39" fill-opacity=".1" fill-rule="evenodd" d="M169.981 107.334a2.924 2.924 0 0 1 2.924 2.923v116.94a2.924 2.924 0 1 1-5.847 0v-116.94a2.923 2.923 0 0 1 2.923-2.923Z" clip-rule="evenodd"/>
    <path fill="#6F4EF6" fill-rule="evenodd" d="M180.005 93.969a2.923 2.923 0 0 1 2.923 2.923v130.305a2.924 2.924 0 0 1-5.847 0V96.892a2.924 2.924 0 0 1 2.924-2.923Z" clip-rule="evenodd"/>
    <path fill="#29CC39" fill-opacity=".1" fill-rule="evenodd" d="M200.887 85.197a2.924 2.924 0 0 1 2.924 2.924v139.075a2.923 2.923 0 1 1-5.847 0V88.121a2.923 2.923 0 0 1 2.923-2.924Z" clip-rule="evenodd"/>
    <path fill="#6F4EF6" fill-rule="evenodd" d="M210.911 103.156a2.924 2.924 0 0 1 2.924 2.924v121.116a2.924 2.924 0 1 1-5.847 0V106.08a2.924 2.924 0 0 1 2.923-2.924Z" clip-rule="evenodd"/>
    <path fill="#29CC39" fill-opacity=".1" fill-rule="evenodd" d="M231.793 138.654a2.924 2.924 0 0 1 2.924 2.924v85.617a2.923 2.923 0 0 1-5.847 0v-85.617a2.924 2.924 0 0 1 2.923-2.924Z" clip-rule="evenodd"/>
    <path fill="#6F4EF6" fill-rule="evenodd" d="M241.818 109.002a2.923 2.923 0 0 1 2.923 2.923v115.27a2.924 2.924 0 0 1-5.847 0v-115.27a2.924 2.924 0 0 1 2.924-2.923Z" clip-rule="evenodd"/>
    <path fill="#29CC39" fill-opacity=".1" fill-rule="evenodd" d="M262.698 76.426a2.924 2.924 0 0 1 2.924 2.923v147.846a2.923 2.923 0 1 1-5.847 0V79.349a2.923 2.923 0 0 1 2.923-2.923Z" clip-rule="evenodd"/>
    <path fill="#6F4EF6" fill-rule="evenodd" d="M272.722 96.89a2.924 2.924 0 0 1 2.924 2.924v127.381a2.924 2.924 0 1 1-5.847 0V99.815a2.923 2.923 0 0 1 2.923-2.924Z" clip-rule="evenodd"/>
    <path fill="#29CC39" fill-opacity=".1" fill-rule="evenodd" d="M293.602 130.304a2.924 2.924 0 0 1 2.924 2.923v93.97a2.923 2.923 0 0 1-5.847 0v-93.97a2.923 2.923 0 0 1 2.923-2.923Z" clip-rule="evenodd"/>
    <path fill="#6F4EF6" fill-rule="evenodd" d="M303.627 110.257a2.923 2.923 0 0 1 2.923 2.923v114.017a2.924 2.924 0 0 1-5.847 0V113.18a2.924 2.924 0 0 1 2.924-2.923Z" clip-rule="evenodd"/>
    <path fill="#29CC39" fill-opacity=".1" fill-rule="evenodd" d="M324.508 89.791a2.923 2.923 0 0 1 2.923 2.924v134.48a2.924 2.924 0 1 1-5.847 0V92.715a2.924 2.924 0 0 1 2.924-2.924Z" clip-rule="evenodd"/>
    <path fill="#6F4EF6" fill-rule="evenodd" d="M334.532 104.408a2.924 2.924 0 0 1 2.924 2.924v119.863a2.923 2.923 0 1 1-5.847 0V107.332a2.923 2.923 0 0 1 2.923-2.924Z" clip-rule="evenodd"/>
    <path fill="#29CC39" fill-opacity=".1" fill-rule="evenodd" d="M355.414 84.362a2.924 2.924 0 0 1 2.924 2.924v139.91a2.924 2.924 0 1 1-5.847 0V87.286a2.923 2.923 0 0 1 2.923-2.924Z" clip-rule="evenodd"/>
    <path fill="#6F4EF6" fill-rule="evenodd" d="M365.439 91.462a2.923 2.923 0 0 1 2.923 2.923v132.811a2.924 2.924 0 0 1-5.847 0V94.386a2.924 2.924 0 0 1 2.924-2.924Z" clip-rule="evenodd"/>
    <path fill="#29CC39" fill-opacity=".1" fill-rule="evenodd" d="M386.32 159.537a2.924 2.924 0 0 1 2.923 2.924v64.734a2.924 2.924 0 1 1-5.847 0v-64.734a2.924 2.924 0 0 1 2.924-2.924Z" clip-rule="evenodd"/>
    <path fill="#6F4EF6" fill-rule="evenodd" d="M396.344 139.908a2.924 2.924 0 0 1 2.924 2.924v84.364a2.923 2.923 0 1 1-5.847 0v-84.364a2.923 2.923 0 0 1 2.923-2.924Z" clip-rule="evenodd"/>
    <path fill="#29CC39" fill-opacity=".1" fill-rule="evenodd" d="M417.226 101.485a2.924 2.924 0 0 1 2.924 2.924v122.787a2.923 2.923 0 0 1-5.847 0V104.409a2.924 2.924 0 0 1 2.923-2.924Z" clip-rule="evenodd"/>
    <path fill="#6F4EF6" fill-rule="evenodd" d="M427.25 115.268a2.923 2.923 0 0 1 2.923 2.923v109.005a2.924 2.924 0 0 1-5.847 0V118.191a2.923 2.923 0 0 1 2.924-2.923Z" clip-rule="evenodd"/>
    <g clip-path="url(#e)">
      <rect width="238.056" height="33.411" x="56.8" y="267.709" fill="#fff" rx="4.176"/>
      <path fill="#000" d="m270.987 282.062 1.626-3.671h-2.245v-.421h2.748v.368l-1.608 3.724h-.521Zm4.295.071a1.67 1.67 0 0 1-.941-.263 1.73 1.73 0 0 1-.602-.743 2.732 2.732 0 0 1-.211-1.111c0-.421.07-.789.211-1.105.14-.32.341-.567.602-.743.265-.179.579-.269.941-.269.363 0 .674.09.936.269.261.176.462.423.602.743.14.316.21.684.21 1.105 0 .421-.07.791-.21 1.111a1.73 1.73 0 0 1-.602.743 1.644 1.644 0 0 1-.936.263Zm0-.433c.238 0 .45-.066.637-.199.191-.136.34-.329.445-.579a2.28 2.28 0 0 0 .164-.906c0-.351-.055-.651-.164-.9a1.275 1.275 0 0 0-.445-.573 1.05 1.05 0 0 0-.637-.205c-.242 0-.456.068-.643.205a1.33 1.33 0 0 0-.444.573c-.11.249-.164.549-.164.9s.054.653.164.906c.109.25.257.443.444.579.187.133.401.199.643.199Zm3.195-1.83a.991.991 0 0 1-.48-.117.903.903 0 0 1-.333-.339 1.07 1.07 0 0 1-.123-.526c0-.203.041-.377.123-.521a.89.89 0 0 1 .339-.339.953.953 0 0 1 .48-.123.92.92 0 0 1 .473.123c.14.078.252.191.333.339.082.144.123.318.123.521 0 .202-.043.378-.128.526a.899.899 0 0 1-.334.339.956.956 0 0 1-.473.117Zm-.363 2.192 2.38-4.092h.491l-2.38 4.092h-.491Zm.363-2.572a.488.488 0 0 0 .356-.152c.106-.102.158-.252.158-.45 0-.203-.05-.355-.152-.456a.476.476 0 0 0-.356-.158.515.515 0 0 0-.369.158c-.105.101-.158.253-.158.456 0 .198.053.348.158.45a.509.509 0 0 0 .363.152Zm2.186 2.643a.99.99 0 0 1-.479-.117.903.903 0 0 1-.333-.339 1.075 1.075 0 0 1-.123-.527c0-.202.041-.376.123-.52a.92.92 0 0 1 .812-.462.92.92 0 0 1 .474.123c.14.078.252.191.333.339.082.144.123.318.123.52 0 .203-.041.378-.123.527a.896.896 0 0 1-.333.339.957.957 0 0 1-.474.117Zm-.005-.38c.14 0 .261-.051.362-.152.105-.102.158-.252.158-.451 0-.202-.051-.354-.152-.456a.508.508 0 0 0-.725 0c-.105.102-.158.254-.158.456 0 .199.051.349.152.451a.509.509 0 0 0 .363.152Z"/>
      <path fill="#DAD7FE" fill-rule="evenodd" d="M142.417 289.426c0-.922.747-1.67 1.67-1.67h136.569a1.67 1.67 0 1 1 0 3.341H144.087a1.67 1.67 0 0 1-1.67-1.671Z" clip-rule="evenodd"/>
      <path fill="#8ADBFD" fill-rule="evenodd" d="M142.417 289.426c0-.922.747-1.67 1.67-1.67h106.081a1.67 1.67 0 1 1 0 3.341H144.087a1.67 1.67 0 0 1-1.67-1.671Z" clip-rule="evenodd"/>
      <path fill="#000" d="M87.303 281.874v-4.093h.573l1.474 2.853 1.462-2.853h.578v4.093h-.49v-3.216l-1.369 2.631h-.368l-1.369-2.625v3.21h-.49Zm5.886.07c-.241 0-.442-.041-.602-.123a.832.832 0 0 1-.474-.771c0-.297.114-.525.34-.685.226-.159.534-.239.923-.239h.784v-.035c0-.254-.066-.445-.199-.573-.132-.133-.31-.199-.532-.199a.852.852 0 0 0-.497.146.622.622 0 0 0-.257.415h-.503c.02-.21.09-.388.21-.532.125-.144.28-.253.462-.327.184-.078.379-.117.585-.117.406 0 .71.109.912.327.207.215.31.501.31.86v1.783h-.438l-.03-.52a1.17 1.17 0 0 1-.362.421c-.156.113-.367.169-.632.169Zm.076-.415a.79.79 0 0 0 .48-.146.928.928 0 0 0 .31-.38c.07-.156.105-.32.105-.491v-.006h-.743c-.288 0-.493.05-.614.152a.458.458 0 0 0-.175.368c0 .152.055.275.164.369.113.089.27.134.473.134Zm3.189.345c-.265 0-.474-.064-.626-.193-.152-.129-.228-.36-.228-.696v-1.596h-.502v-.415h.502l.065-.696h.426v.696h.854v.415h-.853v1.596c0 .183.037.308.11.374.075.063.205.094.392.094h.304v.421h-.444Zm2.261 0c-.265 0-.474-.064-.626-.193-.151-.129-.227-.36-.227-.696v-1.596h-.503v-.415h.503l.064-.696h.427v.696h.853v.415h-.853v1.596c0 .183.037.308.11.374.075.063.205.094.392.094h.304v.421h-.444Zm1.413-3.543a.342.342 0 0 1-.245-.094.343.343 0 0 1-.094-.245c0-.094.031-.172.094-.234a.342.342 0 0 1 .245-.094c.094 0 .174.031.24.094.066.062.1.14.1.234a.334.334 0 0 1-.1.245.334.334 0 0 1-.24.094Zm-.245 3.543v-2.9h.491v2.9h-.491Zm2.65.07c-.277 0-.522-.062-.737-.187a1.39 1.39 0 0 1-.508-.532 1.674 1.674 0 0 1-.182-.801c0-.304.061-.569.182-.795.12-.23.288-.408.503-.532.218-.129.469-.193.754-.193a1.324 1.324 0 0 1 1.198.69 1.391 1.391 0 0 1 .158.795v.146h-2.309c.011.222.062.407.152.556a.944.944 0 0 0 .345.327c.14.074.288.111.444.111a.884.884 0 0 0 .509-.14.809.809 0 0 0 .298-.38h.485a1.316 1.316 0 0 1-.45.672c-.218.175-.499.263-.842.263Zm0-2.625a.988.988 0 0 0-.626.216c-.179.141-.282.347-.309.62h1.824c-.012-.261-.102-.466-.269-.614a.903.903 0 0 0-.62-.222Zm3.602 2.555v-4.093h1.438c.289 0 .526.047.713.14.191.09.334.215.427.375a.998.998 0 0 1 .141.526c0 .265-.073.473-.217.626-.14.152-.31.257-.508.315a.981.981 0 0 1 .707.532.979.979 0 0 1 .111.462c0 .207-.051.396-.152.567a1.077 1.077 0 0 1-.45.404 1.644 1.644 0 0 1-.725.146h-1.485Zm.491-2.304h.912c.261 0 .462-.06.602-.181.141-.125.211-.296.211-.514a.629.629 0 0 0-.211-.497c-.136-.125-.343-.188-.62-.188h-.894v1.38Zm0 1.895h.941c.281 0 .497-.065.649-.193.152-.133.228-.316.228-.55 0-.23-.08-.413-.239-.549-.16-.141-.377-.211-.649-.211h-.93v1.503Zm2.997.409v-4.21h.491v4.21h-.491Zm2.617.07c-.272 0-.518-.062-.736-.187a1.378 1.378 0 0 1-.521-.526 1.676 1.676 0 0 1-.187-.807 1.6 1.6 0 0 1 .193-.801c.129-.23.302-.407.521-.532.222-.125.469-.187.742-.187s.519.062.737.187c.218.125.39.302.514.532.129.226.193.493.193.801 0 .308-.064.577-.193.807a1.364 1.364 0 0 1-.526.526 1.455 1.455 0 0 1-.737.187Zm0-.421a.912.912 0 0 0 .819-.491c.09-.164.134-.366.134-.608s-.044-.444-.134-.608a.874.874 0 0 0-.345-.368.933.933 0 0 0-.93 0 .903.903 0 0 0-.35.368c-.09.164-.135.366-.135.608s.045.444.135.608a.912.912 0 0 0 .345.368.918.918 0 0 0 .461.123Zm3.461.421c-.273 0-.519-.062-.737-.187a1.376 1.376 0 0 1-.52-.526 1.665 1.665 0 0 1-.188-.807 1.6 1.6 0 0 1 .193-.801c.129-.23.302-.407.521-.532.222-.125.469-.187.742-.187s.519.062.737.187c.218.125.39.302.515.532a1.6 1.6 0 0 1 .193.801c0 .308-.065.577-.193.807a1.366 1.366 0 0 1-.527.526 1.452 1.452 0 0 1-.736.187Zm0-.421a.929.929 0 0 0 .467-.123.899.899 0 0 0 .351-.368c.09-.164.135-.366.135-.608s-.045-.444-.135-.608a.874.874 0 0 0-.345-.368.919.919 0 0 0-.462-.123.929.929 0 0 0-.467.123.899.899 0 0 0-.351.368c-.09.164-.135.366-.135.608s.045.444.135.608a.912.912 0 0 0 .345.368.919.919 0 0 0 .462.123Zm2.138.351v-2.9h.445l.035.421a.98.98 0 0 1 .374-.363 1.08 1.08 0 0 1 .526-.128c.23 0 .427.047.591.14a.921.921 0 0 1 .386.427 1.11 1.11 0 0 1 .415-.415 1.15 1.15 0 0 1 .579-.152c.347 0 .623.105.83.315.207.207.31.527.31.959v1.696h-.485v-1.643c0-.3-.061-.526-.182-.678-.12-.152-.294-.228-.52-.228a.735.735 0 0 0-.585.275c-.152.179-.228.436-.228.771v1.503h-.491v-1.643c0-.3-.06-.526-.181-.678-.121-.152-.294-.228-.521-.228a.728.728 0 0 0-.578.275c-.152.179-.228.436-.228.771v1.503h-.492Zm6.196.07c-.242 0-.443-.041-.603-.123a.829.829 0 0 1-.356-.327.88.88 0 0 1-.117-.444c0-.297.113-.525.339-.685.226-.159.534-.239.924-.239h.783v-.035c0-.254-.066-.445-.199-.573-.132-.133-.31-.199-.532-.199a.854.854 0 0 0-.497.146.623.623 0 0 0-.257.415h-.503c.02-.21.09-.388.211-.532a1.18 1.18 0 0 1 .462-.327c.183-.078.378-.117.584-.117.406 0 .71.109.912.327.207.215.31.501.31.86v1.783h-.438l-.029-.52a1.172 1.172 0 0 1-.363.421c-.156.113-.366.169-.631.169Zm.076-.415a.79.79 0 0 0 .479-.146.93.93 0 0 0 .31-.38c.07-.156.105-.32.105-.491v-.006h-.742c-.289 0-.494.05-.614.152a.459.459 0 0 0-.176.368c0 .152.055.275.164.369.113.089.271.134.474.134Zm2.122.345v-2.9h.444l.03.52a1.05 1.05 0 0 1 .403-.432c.176-.106.374-.158.597-.158.343 0 .615.105.818.315.207.207.31.527.31.959v1.696h-.491v-1.643c0-.604-.25-.906-.749-.906a.81.81 0 0 0-.625.275c-.164.179-.246.436-.246.771v1.503h-.491Z"/>
      <path fill="#000" d="M89.098 290.297c-.401 0-.748-.088-1.04-.263a1.83 1.83 0 0 1-.673-.743c-.16-.32-.24-.69-.24-1.111 0-.417.08-.783.24-1.099.16-.32.384-.569.672-.749.293-.179.64-.269 1.041-.269.468 0 .848.114 1.14.34.297.222.486.534.568.935h-.544a1.072 1.072 0 0 0-.386-.608c-.191-.156-.45-.234-.778-.234a1.41 1.41 0 0 0-.766.205 1.316 1.316 0 0 0-.508.579c-.117.249-.176.549-.176.9s.059.653.176.906c.12.25.29.443.508.579.219.133.474.199.766.199.328 0 .587-.074.778-.222a1.07 1.07 0 0 0 .386-.602h.544a1.49 1.49 0 0 1-.567.923c-.293.223-.673.334-1.14.334Zm2.384-.07v-4.21h.491v4.21h-.49Zm1.595-3.544a.346.346 0 0 1-.246-.093.346.346 0 0 1-.094-.246.32.32 0 0 1 .094-.234.346.346 0 0 1 .246-.093c.093 0 .173.031.24.093a.31.31 0 0 1 .099.234.335.335 0 0 1-.1.246.338.338 0 0 1-.24.093Zm-.246 3.544v-2.901h.491v2.901h-.49Zm2.65.07c-.276 0-.522-.063-.736-.187a1.395 1.395 0 0 1-.51-.532 1.68 1.68 0 0 1-.18-.801c0-.305.06-.57.18-.796a1.3 1.3 0 0 1 .504-.532c.218-.128.47-.193.754-.193a1.33 1.33 0 0 1 1.199.69 1.408 1.408 0 0 1 .158.795v.147h-2.31c.012.222.062.407.152.555a.953.953 0 0 0 .345.327.93.93 0 0 0 .444.112.876.876 0 0 0 .509-.141.8.8 0 0 0 .298-.38h.486a1.322 1.322 0 0 1-.45.673c-.22.175-.5.263-.843.263Zm0-2.626a.986.986 0 0 0-.625.217c-.18.14-.283.347-.31.62h1.824c-.012-.262-.101-.466-.269-.614a.9.9 0 0 0-.62-.223Zm2.025 2.556v-2.901h.445l.029.521c.093-.183.228-.328.403-.433a1.14 1.14 0 0 1 .597-.158c.343 0 .616.106.818.316.207.207.31.526.31.959v1.696h-.49v-1.643c0-.605-.25-.907-.75-.907a.814.814 0 0 0-.625.275c-.164.179-.246.437-.246.772v1.503h-.49Zm4.492 0c-.265 0-.473-.065-.625-.193-.152-.129-.228-.361-.228-.696v-1.596h-.503v-.416h.503l.064-.695h.427v.695h.853v.416h-.853v1.596c0 .183.037.308.111.374.074.062.205.094.392.094h.304v.421h-.445Zm2.339.07c-.276 0-.522-.063-.736-.187a1.393 1.393 0 0 1-.509-.532 1.679 1.679 0 0 1-.181-.801c0-.305.06-.57.181-.796.121-.23.288-.407.503-.532.218-.128.47-.193.754-.193a1.33 1.33 0 0 1 1.199.69 1.409 1.409 0 0 1 .158.795v.147h-2.31c.012.222.062.407.152.555a.926.926 0 0 0 .789.439.875.875 0 0 0 .509-.141.793.793 0 0 0 .298-.38h.486a1.319 1.319 0 0 1-.451.673c-.218.175-.499.263-.842.263Zm0-2.626a.986.986 0 0 0-.625.217c-.18.14-.283.347-.31.62h1.824c-.012-.262-.101-.466-.269-.614a.898.898 0 0 0-.62-.223Z" opacity=".4"/>
      <path fill="url(#f)" fill-rule="evenodd" d="M74.341 293.414a9.188 9.188 0 1 0 0-18.375 9.188 9.188 0 0 0 0 18.375Z" clip-rule="evenodd"/>
    </g>
    <g clip-path="url(#g)">
      <rect width="238.056" height="33.411" x="56.8" y="317.825" fill="#fff" rx="4.176"/>
      <path fill="#000" d="M89.163 332.06c-.402 0-.755-.087-1.059-.263a1.892 1.892 0 0 1-.707-.748 2.346 2.346 0 0 1-.252-1.105c0-.417.084-.784.252-1.099.171-.32.407-.57.707-.749a2.047 2.047 0 0 1 1.059-.269c.405 0 .758.09 1.058.269.304.179.54.429.707.749.168.315.252.682.252 1.099 0 .417-.084.785-.252 1.105-.167.32-.403.569-.707.748-.3.176-.653.263-1.058.263Zm0-.432c.3 0 .563-.067.789-.199.23-.137.407-.329.532-.579.129-.253.193-.555.193-.906s-.064-.651-.193-.901a1.335 1.335 0 0 0-.532-.573 1.502 1.502 0 0 0-.79-.204c-.3 0-.565.068-.795.204a1.384 1.384 0 0 0-.532.573c-.124.25-.187.55-.187.901s.063.653.187.906c.129.25.306.442.532.579.23.132.495.199.796.199Zm2.696.362v-4.21h.491v4.21h-.49Zm1.595-3.543a.343.343 0 0 1-.246-.094.344.344 0 0 1-.094-.245c0-.094.032-.172.094-.234a.347.347 0 0 1 .246-.094c.093 0 .173.032.24.094.066.062.099.14.099.234a.332.332 0 0 1-.34.339Zm-.246 3.543v-2.9h.491v2.9h-.491Zm2.182 0-1.099-2.9h.515l.87 2.427.878-2.427h.503l-1.1 2.9h-.567Zm2.512-3.543a.342.342 0 0 1-.246-.094.343.343 0 0 1-.094-.245c0-.094.032-.172.094-.234a.347.347 0 0 1 .246-.094.34.34 0 0 1 .24.094c.066.062.099.14.099.234a.332.332 0 0 1-.34.339Zm-.246 3.543v-2.9h.491v2.9h-.491Zm2.311.07c-.242 0-.442-.041-.602-.122a.833.833 0 0 1-.474-.772c0-.296.113-.524.34-.684.225-.16.533-.24.923-.24h.784v-.035c0-.253-.067-.444-.199-.573-.133-.133-.31-.199-.532-.199a.853.853 0 0 0-.497.146.622.622 0 0 0-.257.415h-.503c.02-.21.09-.387.21-.532.125-.144.279-.253.462-.327.183-.078.378-.117.585-.117.405 0 .709.109.912.327.207.215.31.501.31.86v1.783h-.439l-.029-.52a1.17 1.17 0 0 1-.362.421c-.156.113-.367.169-.632.169Zm.076-.415a.786.786 0 0 0 .48-.146.92.92 0 0 0 .309-.38c.071-.156.106-.32.106-.491v-.006h-.743c-.288 0-.493.051-.614.152a.46.46 0 0 0-.175.368c0 .152.054.275.163.369.114.089.271.134.474.134Zm3.442.345 1.509-4.093h.52l1.503 4.093h-.521l-.374-1.052h-1.742l-.38 1.052h-.515Zm1.041-1.45h1.45l-.725-2.023-.725 2.023Zm3.07 1.45v-2.9h.444l.041.556c.09-.191.226-.343.409-.456.184-.114.41-.17.679-.17v.514h-.135c-.171 0-.329.032-.473.094a.7.7 0 0 0-.345.304c-.086.144-.129.343-.129.596v1.462h-.491Zm2.124 0v-2.9h.444l.041.556c.09-.191.226-.343.409-.456.184-.114.41-.17.679-.17v.514h-.135c-.171 0-.329.032-.473.094a.7.7 0 0 0-.345.304c-.086.144-.129.343-.129.596v1.462h-.491Zm2.422-3.543a.341.341 0 0 1-.245-.094.341.341 0 0 1-.094-.245c0-.094.031-.172.094-.234a.346.346 0 0 1 .245-.094c.094 0 .174.032.24.094s.099.14.099.234a.333.333 0 0 1-.099.245.334.334 0 0 1-.24.094Zm-.245 3.543v-2.9h.491v2.9h-.491Zm2.895.07c-.237 0-.45-.048-.637-.146a1.019 1.019 0 0 1-.421-.409l-.047.485h-.444v-4.21h.491v1.79c.094-.141.226-.267.398-.38.175-.114.397-.17.666-.17.289 0 .54.066.755.199.214.132.38.314.497.544.12.23.181.491.181.783 0 .292-.061.554-.181.784a1.334 1.334 0 0 1-.503.537 1.437 1.437 0 0 1-.755.193Zm-.052-.426a.969.969 0 0 0 .514-.135.986.986 0 0 0 .351-.386c.086-.164.129-.355.129-.573 0-.218-.043-.409-.129-.573a.95.95 0 0 0-.865-.52.949.949 0 0 0-.866.52 1.229 1.229 0 0 0-.128.573c0 .218.043.409.128.573a.986.986 0 0 0 .351.386c.148.09.32.135.515.135Zm3.139.426c-.241 0-.442-.041-.602-.122a.833.833 0 0 1-.474-.772c0-.296.113-.524.339-.684.227-.16.535-.24.924-.24h.784v-.035c0-.253-.066-.444-.199-.573-.133-.133-.31-.199-.532-.199a.852.852 0 0 0-.497.146.623.623 0 0 0-.257.415h-.503a.94.94 0 0 1 .21-.532c.125-.144.279-.253.462-.327.183-.078.378-.117.585-.117.405 0 .709.109.912.327.207.215.31.501.31.86v1.783h-.439l-.029-.52a1.17 1.17 0 0 1-.362.421c-.156.113-.367.169-.632.169Zm.076-.415a.786.786 0 0 0 .48-.146.93.93 0 0 0 .31-.38c.07-.156.105-.32.105-.491v-.006h-.743c-.288 0-.493.051-.614.152a.46.46 0 0 0-.175.368c0 .152.054.275.164.369.113.089.271.134.473.134Zm3.234.415c-.347 0-.636-.087-.866-.263a1.024 1.024 0 0 1-.403-.713h.503a.715.715 0 0 0 .239.398c.133.109.31.163.533.163.206 0 .358-.043.456-.128a.418.418 0 0 0 .146-.316c0-.176-.065-.292-.193-.351a2.502 2.502 0 0 0-.532-.158 3.048 3.048 0 0 1-.468-.134 1.092 1.092 0 0 1-.392-.246.59.59 0 0 1-.158-.427c0-.253.094-.46.281-.619.191-.164.448-.246.772-.246.308 0 .559.078.754.234.199.152.314.37.345.655h-.485a.494.494 0 0 0-.193-.345.655.655 0 0 0-.427-.129c-.175 0-.312.037-.409.111a.355.355 0 0 0-.141.293c0 .116.061.208.182.274.124.067.292.123.502.17.18.039.349.088.509.146a.906.906 0 0 1 .398.252c.105.109.158.268.158.479a.798.798 0 0 1-.299.649c-.198.168-.469.251-.812.251Z"/>
      <path fill="#000" d="M89.098 340.413c-.401 0-.748-.088-1.04-.263a1.823 1.823 0 0 1-.673-.743 2.45 2.45 0 0 1-.24-1.111c0-.417.08-.783.24-1.099.16-.32.384-.569.672-.748.293-.18.64-.269 1.041-.269.468 0 .848.113 1.14.339.297.222.486.534.568.935h-.544a1.072 1.072 0 0 0-.386-.608c-.191-.156-.45-.234-.778-.234-.292 0-.547.069-.766.205a1.327 1.327 0 0 0-.508.579c-.117.249-.176.55-.176.9 0 .351.059.653.176.907.12.249.29.442.508.578.219.133.474.199.766.199.328 0 .587-.074.778-.222a1.07 1.07 0 0 0 .386-.602h.544a1.49 1.49 0 0 1-.567.924c-.293.222-.673.333-1.14.333Zm2.384-.07v-4.21h.491v4.21h-.49Zm1.595-3.544a.346.346 0 0 1-.246-.093.344.344 0 0 1-.094-.246.32.32 0 0 1 .094-.234.346.346 0 0 1 .246-.093c.093 0 .173.031.24.093a.31.31 0 0 1 .099.234c0 .098-.033.18-.1.246a.338.338 0 0 1-.24.093Zm-.246 3.544v-2.9h.491v2.9h-.49Zm2.65.07c-.276 0-.522-.062-.736-.187a1.395 1.395 0 0 1-.51-.532 1.675 1.675 0 0 1-.18-.801c0-.304.06-.569.18-.795.122-.23.29-.408.504-.533.218-.128.47-.193.754-.193a1.33 1.33 0 0 1 1.199.69 1.408 1.408 0 0 1 .158.796v.146h-2.31c.012.222.062.407.152.555a.948.948 0 0 0 .345.328.94.94 0 0 0 .444.111.876.876 0 0 0 .509-.141.8.8 0 0 0 .298-.38h.486a1.318 1.318 0 0 1-.45.673c-.22.175-.5.263-.843.263Zm0-2.625a.985.985 0 0 0-.625.216c-.18.14-.283.347-.31.62h1.824c-.012-.261-.101-.466-.269-.614a.903.903 0 0 0-.62-.222Zm2.025 2.555v-2.9h.445l.029.52a1.06 1.06 0 0 1 .403-.433 1.14 1.14 0 0 1 .597-.158c.343 0 .616.106.818.316.207.207.31.526.31.959v1.696h-.49V338.7c0-.604-.25-.907-.75-.907a.814.814 0 0 0-.625.275c-.164.18-.246.437-.246.772v1.503h-.49Zm4.492 0c-.265 0-.473-.065-.625-.193-.152-.129-.228-.361-.228-.696v-1.596h-.503v-.415h.503l.064-.696h.427v.696h.853v.415h-.853v1.596c0 .183.037.308.111.374.074.063.205.094.392.094h.304v.421h-.445Zm2.339.07c-.276 0-.522-.062-.736-.187a1.393 1.393 0 0 1-.509-.532 1.673 1.673 0 0 1-.181-.801c0-.304.06-.569.181-.795.121-.23.288-.408.503-.533.218-.128.47-.193.754-.193a1.33 1.33 0 0 1 1.199.69 1.409 1.409 0 0 1 .158.796v.146h-2.31c.012.222.062.407.152.555a.954.954 0 0 0 .345.328c.14.074.288.111.444.111a.875.875 0 0 0 .509-.141.793.793 0 0 0 .298-.38h.486a1.315 1.315 0 0 1-.451.673c-.218.175-.499.263-.842.263Zm0-2.625a.985.985 0 0 0-.625.216c-.18.14-.283.347-.31.62h1.824c-.012-.261-.101-.466-.269-.614a.902.902 0 0 0-.62-.222Z" opacity=".4"/>
      <path fill="url(#h)" fill-rule="evenodd" d="M74.341 343.531a9.189 9.189 0 1 0 0-18.377 9.189 9.189 0 0 0 0 18.377Z" clip-rule="evenodd"/>
      <path fill="#000" d="M271.641 332.249c-.296 0-.546-.055-.748-.164a1.402 1.402 0 0 1-.492-.45 2.132 2.132 0 0 1-.269-.626 3.156 3.156 0 0 1-.081-.713c0-.452.062-.848.187-1.187.124-.343.304-.61.538-.801a1.31 1.31 0 0 1 .859-.292c.257 0 .478.05.661.152.183.101.327.237.433.409.109.168.177.355.204.561h-.456a.843.843 0 0 0-.286-.514.862.862 0 0 0-.562-.182c-.308 0-.567.147-.777.439-.207.288-.318.741-.334 1.357.094-.184.242-.342.445-.474a1.31 1.31 0 0 1 .742-.205c.234 0 .452.055.655.164.207.109.374.263.503.462.129.195.193.425.193.69a1.381 1.381 0 0 1-.661 1.175c-.21.133-.462.199-.754.199Zm-.035-.433c.183 0 .347-.039.491-.117a.873.873 0 0 0 .339-.321.934.934 0 0 0 .123-.48c0-.277-.092-.497-.275-.66a.952.952 0 0 0-.678-.252.94.94 0 0 0-.491.129.886.886 0 0 0-.468.789c0 .175.041.333.123.474a.918.918 0 0 0 .345.321c.144.078.308.117.491.117Zm3.841.433a1.67 1.67 0 0 1-.942-.263 1.73 1.73 0 0 1-.602-.743c-.14-.319-.21-.69-.21-1.111 0-.421.07-.789.21-1.105.14-.319.341-.567.602-.742.265-.18.579-.269.942-.269.362 0 .674.089.935.269.261.175.462.423.602.742.141.316.211.684.211 1.105 0 .421-.07.792-.211 1.111a1.73 1.73 0 0 1-.602.743 1.64 1.64 0 0 1-.935.263Zm0-.433c.237 0 .45-.066.637-.199.191-.136.339-.329.444-.578.11-.254.164-.556.164-.907s-.054-.651-.164-.9a1.273 1.273 0 0 0-.444-.573 1.052 1.052 0 0 0-.637-.205c-.242 0-.456.068-.643.205a1.324 1.324 0 0 0-.445.573 2.236 2.236 0 0 0-.164.9c0 .351.055.653.164.907.109.249.257.442.445.578.187.133.401.199.643.199Zm3.194-1.83a.99.99 0 0 1-.479-.117.889.889 0 0 1-.333-.339 1.07 1.07 0 0 1-.123-.526c0-.203.041-.376.123-.521a.876.876 0 0 1 .339-.339.952.952 0 0 1 .479-.123c.176 0 .333.041.474.123a.85.85 0 0 1 .333.339c.082.145.123.318.123.521 0 .202-.043.378-.129.526a.903.903 0 0 1-.333.339.957.957 0 0 1-.474.117Zm-.362 2.193 2.379-4.093h.492l-2.38 4.093h-.491Zm.362-2.573a.489.489 0 0 0 .357-.152c.105-.101.158-.251.158-.45 0-.203-.051-.355-.152-.456a.478.478 0 0 0-.357-.158.515.515 0 0 0-.368.158c-.106.101-.158.253-.158.456 0 .199.052.349.158.45a.508.508 0 0 0 .362.152Zm2.187 2.643a.99.99 0 0 1-.479-.117.899.899 0 0 1-.334-.339 1.07 1.07 0 0 1-.122-.526c0-.203.04-.377.122-.521a.925.925 0 0 1 .813-.462c.175 0 .333.041.474.123a.85.85 0 0 1 .333.339c.082.144.123.318.123.521 0 .202-.041.378-.123.526a.903.903 0 0 1-.333.339.963.963 0 0 1-.474.117Zm-.006-.38a.497.497 0 0 0 .363-.152c.105-.102.158-.252.158-.45 0-.203-.051-.355-.152-.456a.505.505 0 0 0-.725 0c-.106.101-.158.253-.158.456 0 .198.05.348.152.45a.508.508 0 0 0 .362.152Z"/>
      <path fill="#DAD7FE" fill-rule="evenodd" d="M142.417 339.543a1.67 1.67 0 0 1 1.67-1.671h136.569a1.67 1.67 0 1 1 0 3.341H144.087a1.67 1.67 0 0 1-1.67-1.67Z" clip-rule="evenodd"/>
      <path fill="#8ADBFD" fill-rule="evenodd" d="M142.417 339.543a1.67 1.67 0 0 1 1.67-1.671h92.717a1.67 1.67 0 0 1 0 3.341h-92.717a1.67 1.67 0 0 1-1.67-1.67Z" clip-rule="evenodd"/>
    </g>
    <g clip-path="url(#i)">
      <rect width="238.056" height="33.411" x="56.8" y="367.944" fill="#fff" rx="4.176"/>
      <path fill="#000" d="M89.063 382.179c-.382 0-.717-.088-1.005-.264a1.82 1.82 0 0 1-.673-.742 2.44 2.44 0 0 1-.24-1.105c0-.417.08-.786.24-1.105.164-.32.394-.569.69-.749.3-.179.653-.269 1.058-.269.46 0 .842.111 1.146.334.308.222.507.528.597.918h-.567a.937.937 0 0 0-.392-.585c-.203-.144-.464-.216-.784-.216-.3 0-.56.068-.783.204a1.358 1.358 0 0 0-.52.573c-.121.25-.182.548-.182.895s.06.645.181.894c.121.25.289.443.503.579.215.133.464.199.749.199.436 0 .766-.127.988-.38.222-.257.349-.608.38-1.052h-1.181v-.386h1.684v2.186h-.45l-.041-.672c-.148.238-.33.421-.544.55-.215.128-.5.193-.854.193Zm2.636-.071v-2.9h.445l.04.556a1.05 1.05 0 0 1 .41-.456c.183-.113.41-.17.678-.17v.515h-.134c-.172 0-.33.031-.474.093a.707.707 0 0 0-.345.304c-.086.144-.129.343-.129.597v1.461h-.49Zm3.09.071c-.243 0-.443-.041-.603-.123a.834.834 0 0 1-.474-.772c0-.296.113-.524.34-.684.225-.16.533-.24.923-.24h.784v-.035c0-.253-.067-.444-.2-.573a.721.721 0 0 0-.531-.199.852.852 0 0 0-.497.146.621.621 0 0 0-.257.416h-.503a.945.945 0 0 1 .21-.533c.125-.144.279-.253.462-.327.183-.078.378-.117.585-.117.405 0 .71.109.912.328.207.214.31.5.31.859v1.783h-.439l-.029-.52a1.162 1.162 0 0 1-.362.421c-.156.113-.367.17-.632.17Zm.075-.416a.783.783 0 0 0 .48-.146.921.921 0 0 0 .31-.38c.07-.156.105-.319.105-.491v-.006h-.743c-.288 0-.493.051-.614.152a.46.46 0 0 0-.175.369c0 .152.054.274.163.368.114.09.271.134.474.134Zm2.123.345v-4.209h.49v1.806a1.02 1.02 0 0 1 .416-.415c.18-.101.374-.152.585-.152.335 0 .604.105.807.316.202.206.304.526.304.959v1.695h-.486v-1.643c0-.604-.243-.906-.73-.906a.839.839 0 0 0-.638.275c-.171.179-.257.436-.257.772v1.502h-.491Zm4.31.071c-.241 0-.442-.041-.602-.123a.83.83 0 0 1-.356-.328.877.877 0 0 1-.117-.444c0-.296.113-.524.339-.684.226-.16.534-.24.924-.24h.783v-.035c0-.253-.066-.444-.199-.573-.132-.132-.31-.199-.532-.199a.854.854 0 0 0-.497.146.623.623 0 0 0-.257.416h-.503a.948.948 0 0 1 .211-.533 1.18 1.18 0 0 1 .462-.327c.183-.078.378-.117.584-.117.406 0 .71.109.912.328.207.214.31.5.31.859v1.783h-.438l-.03-.52a1.151 1.151 0 0 1-.362.421c-.156.113-.366.17-.632.17Zm.076-.416a.784.784 0 0 0 .48-.146.923.923 0 0 0 .31-.38c.07-.156.105-.319.105-.491v-.006h-.742c-.289 0-.494.051-.614.152a.46.46 0 0 0-.176.369c0 .152.055.274.164.368.113.09.271.134.473.134Zm2.123.345v-2.9h.444l.035.421a.987.987 0 0 1 .375-.362 1.07 1.07 0 0 1 .526-.129c.23 0 .427.047.59.14a.916.916 0 0 1 .386.427 1.12 1.12 0 0 1 .416-.415c.179-.101.372-.152.578-.152.347 0 .624.105.831.316.206.206.31.526.31.959v1.695h-.486v-1.643c0-.3-.06-.526-.181-.678-.121-.152-.294-.228-.52-.228a.738.738 0 0 0-.585.275c-.152.179-.228.436-.228.772v1.502h-.491v-1.643c0-.3-.061-.526-.182-.678-.12-.152-.294-.228-.52-.228a.732.732 0 0 0-.579.275c-.152.179-.228.436-.228.772v1.502h-.491Zm8.567.071c-.382 0-.717-.088-1.006-.264a1.823 1.823 0 0 1-.672-.742c-.16-.32-.24-.688-.24-1.105 0-.417.08-.786.24-1.105.164-.32.394-.569.69-.749.3-.179.653-.269 1.058-.269.46 0 .842.111 1.146.334.308.222.507.528.597.918h-.568a.936.936 0 0 0-.391-.585c-.203-.144-.464-.216-.784-.216-.3 0-.561.068-.783.204a1.356 1.356 0 0 0-.521.573c-.121.25-.181.548-.181.895s.06.645.181.894c.121.25.289.443.503.579.214.133.464.199.748.199.437 0 .766-.127.989-.38.222-.257.349-.608.38-1.052h-1.181v-.386h1.684v2.186h-.451l-.041-.672a1.633 1.633 0 0 1-.543.55c-.215.128-.499.193-.854.193Zm2.636-.071v-2.9h.444l.041.556a1.05 1.05 0 0 1 .41-.456c.183-.113.409-.17.678-.17v.515h-.135c-.171 0-.329.031-.473.093a.709.709 0 0 0-.345.304c-.086.144-.129.343-.129.597v1.461h-.491Zm2.422-3.543a.345.345 0 0 1-.245-.093.345.345 0 0 1-.094-.246c0-.094.031-.172.094-.234a.345.345 0 0 1 .245-.093c.094 0 .174.031.24.093s.099.14.099.234a.337.337 0 0 1-.099.246.338.338 0 0 1-.24.093Zm-.245 3.543v-2.9h.491v2.9h-.491Zm1.504 0v-2.485h-.439v-.415h.439v-.503c0-.28.07-.485.21-.613.141-.129.345-.193.614-.193h.293v.421h-.217c-.148 0-.253.031-.315.093-.063.059-.094.16-.094.304v.491h.713v.415h-.713v2.485h-.491Zm1.947 0v-2.485h-.439v-.415h.439v-.503c0-.28.07-.485.21-.613.141-.129.345-.193.614-.193h.293v.421h-.217c-.148 0-.253.031-.315.093-.063.059-.094.16-.094.304v.491h.713v.415h-.713v2.485h-.491Zm2.087-3.543a.345.345 0 0 1-.245-.093.345.345 0 0 1-.094-.246c0-.094.031-.172.094-.234a.345.345 0 0 1 .245-.093c.094 0 .174.031.24.093s.1.14.1.234a.338.338 0 0 1-.1.246.338.338 0 0 1-.24.093Zm-.245 3.543v-2.9h.491v2.9h-.491Zm2.492 0c-.265 0-.473-.064-.625-.193-.152-.128-.228-.36-.228-.695v-1.597h-.503v-.415h.503l.064-.696h.427v.696h.853v.415h-.853v1.597c0 .183.037.308.111.374.074.062.204.093.391.093h.305v.421h-.445Zm1.115 0v-4.209h.491v1.806a1.02 1.02 0 0 1 .416-.415 1.17 1.17 0 0 1 .584-.152c.336 0 .604.105.807.316.203.206.304.526.304.959v1.695h-.485v-1.643c0-.604-.244-.906-.731-.906a.838.838 0 0 0-.637.275c-.172.179-.258.436-.258.772v1.502h-.491Zm4.457.071c-.347 0-.635-.088-.865-.264a1.025 1.025 0 0 1-.404-.713h.503a.71.71 0 0 0 .24.398c.133.109.31.163.532.163.207 0 .359-.042.456-.128a.415.415 0 0 0 .146-.316c0-.175-.064-.292-.193-.351a2.484 2.484 0 0 0-.532-.158 3.004 3.004 0 0 1-.467-.134 1.078 1.078 0 0 1-.392-.246.59.59 0 0 1-.158-.427c0-.253.094-.459.281-.619.191-.164.448-.246.771-.246.308 0 .56.078.755.234.198.152.313.37.345.655h-.486a.487.487 0 0 0-.193-.345.652.652 0 0 0-.426-.129c-.176 0-.312.037-.41.111a.357.357 0 0 0-.14.293c0 .117.06.208.181.275.125.066.293.122.503.169.179.039.349.088.509.146a.911.911 0 0 1 .397.252c.106.109.158.269.158.479a.796.796 0 0 1-.298.649c-.199.168-.47.252-.813.252Z"/>
      <path fill="#000" d="M89.098 390.531c-.401 0-.748-.088-1.04-.263a1.823 1.823 0 0 1-.673-.743 2.45 2.45 0 0 1-.24-1.111c0-.417.08-.783.24-1.099a1.82 1.82 0 0 1 .672-.748c.293-.179.64-.269 1.041-.269.468 0 .848.113 1.14.339.297.222.486.534.568.936h-.544a1.072 1.072 0 0 0-.386-.609c-.191-.155-.45-.233-.778-.233-.292 0-.547.068-.766.204a1.327 1.327 0 0 0-.508.579 2.11 2.11 0 0 0-.176.9c0 .351.059.653.176.907.12.249.29.442.508.579.219.132.474.198.766.198.328 0 .587-.074.778-.222a1.07 1.07 0 0 0 .386-.602h.544a1.489 1.489 0 0 1-.567.924c-.293.222-.673.333-1.14.333Zm2.384-.07v-4.21h.491v4.21h-.49Zm1.595-3.543a.346.346 0 0 1-.246-.094.343.343 0 0 1-.094-.245c0-.094.032-.172.094-.234a.342.342 0 0 1 .246-.094c.093 0 .173.031.24.094.066.062.099.14.099.234a.333.333 0 0 1-.1.245.34.34 0 0 1-.24.094Zm-.246 3.543v-2.9h.491v2.9h-.49Zm2.65.07c-.276 0-.522-.062-.736-.187a1.395 1.395 0 0 1-.51-.532 1.675 1.675 0 0 1-.18-.801c0-.304.06-.569.18-.795.122-.23.29-.408.504-.532.218-.129.47-.193.754-.193.28 0 .522.064.725.193.207.124.364.29.474.497a1.402 1.402 0 0 1 .158.795v.146h-2.31c.012.222.062.407.152.555a.948.948 0 0 0 .345.328.94.94 0 0 0 .444.111.883.883 0 0 0 .509-.14.81.81 0 0 0 .298-.38h.486a1.316 1.316 0 0 1-.45.672c-.22.175-.5.263-.843.263Zm0-2.625a.985.985 0 0 0-.625.216c-.18.14-.283.347-.31.62h1.824c-.012-.261-.101-.466-.269-.614a.903.903 0 0 0-.62-.222Zm2.025 2.555v-2.9h.445l.029.52a1.05 1.05 0 0 1 .403-.432 1.13 1.13 0 0 1 .597-.158c.343 0 .616.105.818.315.207.207.31.527.31.959v1.696h-.49v-1.643c0-.604-.25-.906-.75-.906a.813.813 0 0 0-.625.274c-.164.18-.246.437-.246.772v1.503h-.49Zm4.492 0c-.265 0-.473-.064-.625-.193-.152-.129-.228-.361-.228-.696v-1.596h-.503v-.415h.503l.064-.696h.427v.696h.853v.415h-.853v1.596c0 .183.037.308.111.374.074.063.205.094.392.094h.304v.421h-.445Zm2.339.07c-.276 0-.522-.062-.736-.187a1.393 1.393 0 0 1-.509-.532 1.673 1.673 0 0 1-.181-.801c0-.304.06-.569.181-.795.121-.23.288-.408.503-.532.218-.129.47-.193.754-.193.281 0 .522.064.725.193.207.124.365.29.474.497a1.402 1.402 0 0 1 .158.795v.146h-2.31c.012.222.062.407.152.555a.954.954 0 0 0 .345.328c.14.074.288.111.444.111a.882.882 0 0 0 .509-.14.803.803 0 0 0 .298-.38h.486a1.312 1.312 0 0 1-.451.672c-.218.175-.499.263-.842.263Zm0-2.625a.985.985 0 0 0-.625.216c-.18.14-.283.347-.31.62h1.824c-.012-.261-.101-.466-.269-.614a.902.902 0 0 0-.62-.222Z" opacity=".4"/>
      <path fill="url(#j)" fill-rule="evenodd" d="M74.341 393.649a9.189 9.189 0 1 0 0-18.377 9.189 9.189 0 0 0 0 18.377Z" clip-rule="evenodd"/>
      <path fill="#000" d="M271.966 382.367c-.281 0-.525-.051-.731-.152a1.29 1.29 0 0 1-.497-.415 1.357 1.357 0 0 1-.222-.608h.479a.932.932 0 0 0 .327.549c.172.137.388.205.649.205a.919.919 0 0 0 .503-.134.91.91 0 0 0 .322-.375c.078-.156.117-.329.117-.52 0-.304-.086-.55-.257-.737a.864.864 0 0 0-.667-.28c-.226 0-.419.05-.579.152a.907.907 0 0 0-.351.397h-.467l.35-2.245h2.146v.427h-1.766l-.239 1.245c.093-.113.222-.206.386-.28.167-.075.358-.112.573-.112a1.289 1.289 0 0 1 1.175.696c.113.215.169.458.169.731 0 .261-.056.503-.169.725-.109.222-.271.4-.485.532a1.407 1.407 0 0 1-.766.199Zm3.662 0c-.297 0-.546-.055-.749-.164a1.399 1.399 0 0 1-.491-.45 2.106 2.106 0 0 1-.269-.626 3.095 3.095 0 0 1-.082-.713c0-.452.063-.848.187-1.187.125-.343.304-.61.538-.801.238-.195.524-.292.86-.292.257 0 .477.05.66.152.184.101.328.238.433.409.109.168.177.355.205.561h-.456a.845.845 0 0 0-.287-.514.857.857 0 0 0-.561-.181c-.308 0-.567.146-.778.438-.206.289-.317.741-.333 1.357.093-.184.242-.341.444-.474.207-.136.454-.205.743-.205.234 0 .452.055.655.164.206.109.374.263.503.462.128.195.193.425.193.69a1.381 1.381 0 0 1-.661 1.175 1.384 1.384 0 0 1-.754.199Zm-.036-.433c.184 0 .347-.039.492-.117a.873.873 0 0 0 .339-.321c.082-.14.123-.3.123-.48 0-.276-.092-.497-.275-.66a.956.956 0 0 0-.679-.252.942.942 0 0 0-.491.129.95.95 0 0 0-.345.333.898.898 0 0 0-.122.456.93.93 0 0 0 .122.474.918.918 0 0 0 .345.321c.145.078.308.117.491.117Zm2.885-1.83a.991.991 0 0 1-.48-.117.903.903 0 0 1-.333-.339 1.068 1.068 0 0 1-.123-.526c0-.203.041-.376.123-.52a.886.886 0 0 1 .339-.34.962.962 0 0 1 .48-.122c.175 0 .333.041.473.122a.84.84 0 0 1 .333.34c.082.144.123.317.123.52s-.043.378-.128.526a.899.899 0 0 1-.334.339.956.956 0 0 1-.473.117Zm-.363 2.193 2.38-4.093h.491l-2.38 4.093h-.491Zm.363-2.573c.136 0 .255-.05.356-.152.106-.101.158-.251.158-.45 0-.203-.05-.355-.152-.456a.48.48 0 0 0-.356-.158.52.52 0 0 0-.369.158c-.105.101-.158.253-.158.456 0 .199.053.349.158.45a.505.505 0 0 0 .363.152Zm2.186 2.643a.99.99 0 0 1-.479-.117.903.903 0 0 1-.333-.339 1.07 1.07 0 0 1-.123-.526c0-.203.041-.376.123-.521a.92.92 0 0 1 .812-.462.92.92 0 0 1 .474.123c.14.078.252.191.333.339.082.145.123.318.123.521 0 .202-.041.378-.123.526a.896.896 0 0 1-.333.339.957.957 0 0 1-.474.117Zm-.005-.38c.14 0 .261-.051.362-.152.105-.101.158-.251.158-.45 0-.203-.051-.355-.152-.456a.504.504 0 0 0-.725 0c-.105.101-.158.253-.158.456 0 .199.051.349.152.45a.509.509 0 0 0 .363.152Z"/>
      <path fill="#DAD7FE" fill-rule="evenodd" d="M142.417 389.662a1.67 1.67 0 0 1 1.67-1.671h136.569a1.67 1.67 0 1 1 0 3.341H144.087a1.67 1.67 0 0 1-1.67-1.67Z" clip-rule="evenodd"/>
      <path fill="#8ADBFD" fill-rule="evenodd" d="M142.417 389.662a1.67 1.67 0 0 1 1.67-1.671h68.911a1.67 1.67 0 1 1 0 3.341h-68.911a1.67 1.67 0 0 1-1.67-1.67Z" clip-rule="evenodd"/>
    </g>
  </g>
  <defs>
    <clipPath id="a">
      <rect width="464.525" height="417.729" fill="#fff" rx="11.011"/>
    </clipPath>
    <clipPath id="b">
      <path fill="#fff" d="M0 0h136.152v133.646H0z" transform="translate(311.562 267.709)"/>
    </clipPath>
    <clipPath id="c">
      <path fill="#fff" d="M0 0h32.158v10.023H0z" transform="translate(56.8 10.858)"/>
    </clipPath>
    <clipPath id="d">
      <path fill="#fff" d="M0 0h351.655v6.265H0z" transform="translate(76.429 234.715)"/>
    </clipPath>
    <clipPath id="e">
      <path fill="#fff" d="M0 0h238.056v33.411H0z" transform="translate(56.8 267.709)"/>
    </clipPath>
    <clipPath id="g">
      <path fill="#fff" d="M0 0h238.056v33.411H0z" transform="translate(56.8 317.825)"/>
    </clipPath>
    <clipPath id="i">
      <path fill="#fff" d="M0 0h238.056v33.411H0z" transform="translate(56.8 367.944)"/>
    </clipPath>
    <pattern id="f" width="1" height="1" patternContentUnits="objectBoundingBox">
      <use xlink:href="#k" transform="scale(.0039)"/>
    </pattern>
    <pattern id="h" width="1" height="1" patternContentUnits="objectBoundingBox">
      <use xlink:href="#l" transform="scale(.0039)"/>
    </pattern>
    <pattern id="j" width="1" height="1" patternContentUnits="objectBoundingBox">
      <use xlink:href="#m" transform="scale(.0039)"/>
    </pattern>
  </defs>
</svg>
