<svg width="34" height="57" viewBox="0 0 34 57" fill="none" xmlns="http://www.w3.org/2000/svg">
<path d="M21.4432 27.2334C21.5994 27.3722 21.7938 27.4403 21.9875 27.4403C22.2138 27.4403 22.4391 27.3472 22.6012 27.1646C24.0499 25.5332 24.8478 23.4348 24.8478 21.2564C24.8478 16.3453 20.8522 12.3496 15.941 12.3496C11.0297 12.3496 7.03418 16.3452 7.03418 21.2564C7.03418 23.4349 7.83196 25.5332 9.28073 27.1646C9.58151 27.5037 10.1001 27.5342 10.4388 27.2334C10.7775 26.9325 10.8083 26.4141 10.5075 26.0754C9.32569 24.7444 8.6748 23.0331 8.6748 21.2564C8.6748 17.2498 11.9344 13.9902 15.941 13.9902C19.9476 13.9902 23.2072 17.2498 23.2072 21.2564C23.2072 23.0329 22.5563 24.7444 21.3744 26.0754C21.0736 26.4141 21.1043 26.9325 21.4432 27.2334Z" fill="white"/>
<path d="M20.2918 22.6076C20.3249 22.6115 20.3577 22.6135 20.3902 22.6135C20.7997 22.6135 21.1538 22.3071 21.2037 21.8904C21.2287 21.6808 21.2414 21.4674 21.2414 21.2559C21.2414 18.3335 18.8639 15.9561 15.9415 15.9561C13.0191 15.9561 10.6416 18.3335 10.6416 21.2559C10.6416 21.4552 10.6529 21.6561 10.675 21.853C10.7255 22.3032 11.1317 22.6265 11.5818 22.5765C12.032 22.5259 12.3559 22.1199 12.3054 21.6697C12.2901 21.5335 12.2823 21.3942 12.2823 21.2559C12.2823 19.2383 13.9238 17.5967 15.9416 17.5967C17.9593 17.5967 19.6009 19.2383 19.6009 21.2559C19.6009 21.4026 19.5922 21.5505 19.5748 21.6957C19.5208 22.1456 19.842 22.5539 20.2918 22.6076Z" fill="white"/>
<path d="M13.3582 2.14062H26.4624C28.2273 2.14062 29.6632 3.57649 29.6632 5.34136V19.8943C29.6632 20.3474 30.0303 20.7146 30.4835 20.7146C30.9366 20.7146 31.3038 20.3474 31.3038 19.8943V5.34136C31.3037 2.67174 29.1319 0.5 26.4624 0.5H13.3582C12.9051 0.5 12.5378 0.86717 12.5378 1.32031C12.5378 1.77345 12.9051 2.14062 13.3582 2.14062Z" fill="white"/>
<path d="M12.4817 5.35937H17.8431C18.2963 5.35937 18.6634 4.9922 18.6634 4.53906C18.6634 4.08592 18.2963 3.71875 17.8431 3.71875H12.4817C12.0287 3.71875 11.6614 4.08592 11.6614 4.53906C11.6614 4.9922 12.0285 5.35937 12.4817 5.35937Z" fill="white"/>
<path d="M21.344 4.53711C21.344 4.08408 20.9767 3.7168 20.5237 3.7168C20.0706 3.7168 19.7034 4.08408 19.7034 4.53711C19.7034 4.99024 20.0706 5.35742 20.5237 5.35742C20.9767 5.35742 21.344 4.99014 21.344 4.53711Z" fill="white"/>
<path d="M31.5448 49.7095H31.0536C31.138 48.6449 31.507 47.6316 32.1338 46.7547C33.0698 45.4453 33.5348 43.8571 33.5348 42.2475V36.2527C33.5348 34.8367 32.5937 33.6364 31.3039 33.2425V23.8172C31.3039 23.368 30.9577 22.9764 30.5087 22.9629C30.0442 22.949 29.6632 23.3214 29.6632 23.7829V33.1898C29.3134 33.272 28.9859 33.4127 28.6916 33.6009C28.2459 32.3485 27.0368 31.4478 25.6183 31.4478C24.9271 31.4478 24.2854 31.6615 23.7577 32.0255C23.2713 30.8525 22.1027 30.0244 20.7421 30.0244C20.1948 30.0244 19.6719 30.1603 19.2111 30.4033V24.5509C19.2111 22.7772 17.7501 21.3342 15.954 21.3342C14.1581 21.3342 12.697 22.7772 12.697 24.5509V32.9095H12.3348C10.225 32.9095 8.51459 34.6199 8.51459 36.7298V39.0843C8.51459 39.5335 8.86065 39.9252 9.30963 39.9386C9.77414 39.9526 10.1552 39.5802 10.1552 39.1186V36.7298C10.1552 35.526 11.131 34.5501 12.3349 34.5501H12.6971V39.9359C12.6971 40.3851 13.0431 40.7767 13.4921 40.7902C13.9566 40.8042 14.3377 40.4318 14.3377 39.9702V24.5511C14.3377 23.6822 15.0628 22.9751 15.9541 22.9751C16.8454 22.9751 17.5706 23.6822 17.5706 24.5511V36.6537C17.5706 37.1029 17.9168 37.4945 18.3657 37.508C18.8302 37.5219 19.2112 37.1494 19.2112 36.688V33.2362C19.2031 32.4737 19.8817 31.6586 20.7422 31.6652C21.6335 31.6652 22.3587 32.3723 22.3587 33.2424C22.3588 34.0706 22.3675 35.8394 22.3698 36.6907C22.3714 37.1429 22.7383 37.5083 23.19 37.5083H23.1929C23.6455 37.5083 24.012 37.1406 24.0104 36.688L24.0034 34.6339C24.0205 33.7792 24.7377 33.0886 25.6184 33.0886C26.5097 33.0886 27.2348 33.7957 27.2348 34.6647V36.6684C27.2348 37.1176 27.581 37.5093 28.03 37.5227C28.4945 37.5366 28.8754 37.1642 28.8754 36.7028C28.7304 35.8047 29.3315 34.759 30.3848 34.7463C31.217 34.7463 31.8943 35.4221 31.8943 36.2528V42.3789C31.8943 43.6164 31.4966 44.8166 30.7811 45.8264C29.9652 46.9775 29.4967 48.311 29.4103 49.7095H15.6896C15.4859 48.1933 14.4493 46.6953 13.1012 45.8387C11.9952 45.0312 11.148 43.9318 10.649 42.6572C10.4854 42.2393 10.029 41.9933 9.6044 42.1387C9.16165 42.2903 8.9371 42.7772 9.10368 43.2099C9.71421 44.7949 10.762 46.1622 12.1337 47.1638C12.9952 47.6938 13.7916 48.634 14.0221 49.7094H13.6075C12.6115 49.7094 11.7603 50.3328 11.418 51.2091H5.41983C3.65212 51.2091 2.2191 49.7761 2.2191 48.0084V5.34136C2.2191 3.57364 3.65212 2.14062 5.41983 2.14062H9.60964C10.0588 2.14062 10.4505 1.79445 10.464 1.34547C10.4779 0.880952 10.1054 0.5 9.64399 0.5H5.41972C2.74595 0.5 0.578369 2.66759 0.578369 5.34136V48.0084C0.578369 50.6821 2.74595 52.8497 5.41972 52.8497H11.2558V54.1484C11.2558 55.4472 12.3087 56.5 13.6074 56.5H23.1092C23.5584 56.5 23.9501 56.1538 23.9635 55.7048C23.9774 55.2403 23.605 54.8594 23.1435 54.8594H13.6074C13.2147 54.8594 12.8965 54.5411 12.8965 54.1484V52.061C12.8965 51.6684 13.2147 51.3501 13.6074 51.3501H31.5447C31.9374 51.3501 32.2556 51.6684 32.2556 52.061V54.1484C32.2556 54.5411 31.9374 54.8594 31.5447 54.8594H27.006C26.5568 54.8594 26.1651 55.2056 26.1517 55.6545C26.1378 56.119 26.5102 56.5 26.9717 56.5H31.5447C32.8434 56.5 33.8963 55.4472 33.8963 54.1484V52.061C33.8964 50.7623 32.8435 49.7095 31.5448 49.7095Z" fill="white"/>
</svg>
