<svg width="55" height="56" viewBox="0 0 55 56" fill="none" xmlns="http://www.w3.org/2000/svg">
<path d="M8.19917 55.9999H2.10253C1.69843 55.9995 1.31101 55.8388 1.02527 55.553C0.739533 55.2673 0.57881 54.8799 0.578369 54.4758V45.3308C0.57881 44.9267 0.739533 44.5393 1.02527 44.2535C1.31101 43.9678 1.69843 43.8071 2.10253 43.8066H8.19917C8.60327 43.8071 8.99069 43.9678 9.27643 44.2535C9.56217 44.5393 9.72289 44.9267 9.72333 45.3308V54.4758C9.72289 54.8799 9.56217 55.2673 9.27643 55.553C8.99069 55.8388 8.60327 55.9995 8.19917 55.9999V55.9999ZM2.61058 53.9677H7.69112V45.8389H2.61058V53.9677Z" fill="#6F4EF6"/>
<path d="M19.3759 55.9989H13.2793C12.8752 55.9985 12.4878 55.8377 12.202 55.552C11.9163 55.2663 11.7556 54.8788 11.7551 54.4747V39.2331C11.7556 38.829 11.9163 38.4416 12.202 38.1559C12.4878 37.8701 12.8752 37.7094 13.2793 37.709H19.3759C19.78 37.7094 20.1674 37.8701 20.4532 38.1559C20.7389 38.4416 20.8996 38.829 20.9001 39.2331V54.4747C20.8996 54.8788 20.7389 55.2663 20.4532 55.552C20.1674 55.8377 19.78 55.9985 19.3759 55.9989ZM13.7873 53.9667H18.8679V39.7412H13.7873V53.9667Z" fill="#6F4EF6"/>
<path d="M30.5539 55.9998H24.4573C24.0532 55.9994 23.6657 55.8387 23.38 55.5529C23.0943 55.2672 22.9335 54.8798 22.9331 54.4757V33.1374C22.9335 32.7333 23.0943 32.3459 23.38 32.0602C23.6657 31.7744 24.0532 31.6137 24.4573 31.6133H30.5539C30.958 31.6137 31.3454 31.7744 31.6312 32.0602C31.9169 32.3459 32.0776 32.7333 32.0781 33.1374V54.4757C32.0776 54.8798 31.9169 55.2672 31.6312 55.5529C31.3454 55.8387 30.958 55.9994 30.5539 55.9998ZM24.9653 53.9676H30.0459V33.6455H24.9653V53.9676Z" fill="#6F4EF6"/>
<path d="M41.7304 55.9988H35.6338C35.2297 55.9984 34.8423 55.8376 34.5565 55.5519C34.2708 55.2662 34.1101 54.8787 34.1096 54.4746V22.9753C34.1101 22.5712 34.2708 22.1838 34.5565 21.8981C34.8423 21.6123 35.2297 21.4516 35.6338 21.4512H41.7304C42.1345 21.4516 42.5219 21.6123 42.8077 21.8981C43.0934 22.1838 43.2541 22.5712 43.2546 22.9753V54.4746C43.2541 54.8787 43.0934 55.2662 42.8077 55.5519C42.5219 55.8376 42.1345 55.9984 41.7304 55.9988V55.9988ZM36.1418 53.9666H41.2224V23.4834H36.1418V53.9666Z" fill="#6F4EF6"/>
<path d="M52.9079 55.9997H46.8113C46.4072 55.9993 46.0198 55.8385 45.734 55.5528C45.4483 55.2671 45.2876 54.8796 45.2871 54.4755V10.7829C45.2876 10.3789 45.4483 9.99143 45.734 9.70569C46.0198 9.41995 46.4072 9.25923 46.8113 9.25879H52.9079C53.312 9.25923 53.6994 9.41995 53.9852 9.70569C54.2709 9.99143 54.4316 10.3789 54.4321 10.7829V54.4755C54.4316 54.8796 54.2709 55.2671 53.9852 55.5528C53.6994 55.8385 53.312 55.9993 52.9079 55.9997ZM47.3193 53.9675H52.3999V11.291H47.3193V53.9675Z" fill="#6F4EF6"/>
<path d="M47.0233 0.784185C46.9629 0.532036 46.809 0.31225 46.5926 0.169329C46.3763 0.0264075 46.1137 -0.0289683 45.8581 0.0144135L41.2613 0.860393C40.9986 0.911627 40.7668 1.06444 40.6161 1.28564C40.4654 1.50684 40.4081 1.77857 40.4565 2.04179C40.505 2.30501 40.6554 2.53847 40.875 2.69146C41.0946 2.84445 41.3658 2.90461 41.6295 2.85887L43.9644 2.42926C37.7185 12.6534 29.3181 21.3925 19.3486 28.0373C13.8403 31.6857 7.90905 34.6513 1.68527 36.8687C1.55958 36.9135 1.44396 36.9826 1.345 37.0721C1.24604 37.1617 1.16567 37.2698 1.1085 37.3904C1.05132 37.5109 1.01846 37.6416 1.01177 37.7748C1.00509 37.9081 1.02472 38.0414 1.06955 38.1671C1.11437 38.2928 1.18352 38.4084 1.27303 38.5073C1.36254 38.6063 1.47067 38.6867 1.59123 38.7438C1.83473 38.8593 2.11413 38.8733 2.36796 38.7828C8.74695 36.51 14.8261 33.4705 20.4718 29.7311C30.5936 22.9868 39.1374 14.1338 45.5178 3.77873L45.8889 5.79461C45.9377 6.05962 46.0898 6.29439 46.3117 6.44726C46.4216 6.52295 46.5453 6.57627 46.6758 6.60415C46.8063 6.63203 46.941 6.63394 47.0722 6.60977C47.2034 6.5856 47.3286 6.53581 47.4406 6.46327C47.5526 6.39072 47.6491 6.29682 47.7248 6.18694C47.8005 6.07706 47.8539 5.95335 47.8817 5.82286C47.9096 5.69238 47.9115 5.55768 47.8874 5.42646C47.8339 5.13581 47.0908 1.07188 47.0233 0.784185V0.784185Z" fill="#6F4EF6"/>
</svg>
