<svg xmlns="http://www.w3.org/2000/svg" width="79" height="79" fill="none" viewBox="0 0 79 79">
  <circle cx="39.5" cy="39.5" r="39.5" fill="#8ADBFD" fill-opacity=".1"/>
  <path fill="#8ADBFD" d="M39.895 24.578A1.572 1.572 0 0 0 38.316 23l-9.523.043c-1.27.005-1.902 1.54-1.004 2.439l9.622 9.622c.898.898 2.433.267 2.439-1.004l.045-9.522ZM29.158 57h-3.58A3.578 3.578 0 0 1 22 53.421v-1.79a3.578 3.578 0 0 1 3.579-3.578h3.579a3.578 3.578 0 0 1 3.579 3.579v1.79A3.578 3.578 0 0 1 29.157 57Zm12.526 0h-3.579a3.578 3.578 0 0 1-3.579-3.579V42.684a3.578 3.578 0 0 1 3.58-3.578h3.578a3.578 3.578 0 0 1 3.58 3.578v10.737a3.578 3.578 0 0 1-3.58 3.58Zm12.526 0h-3.578a3.578 3.578 0 0 1-3.58-3.579V26.58A3.578 3.578 0 0 1 50.633 23h3.579a3.578 3.578 0 0 1 3.579 3.579V53.42A3.578 3.578 0 0 1 54.21 57Z"/>
  <path fill="#8ADBFD" d="M25.182 40.895a3.182 3.182 0 0 1-2.25-5.431l7.953-7.952a3.182 3.182 0 0 1 4.499 4.498l-7.953 7.953c-.62.62-1.435.932-2.25.932Z"/>
</svg>
