<svg xmlns="http://www.w3.org/2000/svg" width="101" height="101" fill="none" viewBox="0 0 101 101">
  <circle cx="50.5" cy="50.5" r="50.5" fill="#8ADBFD" fill-opacity=".1"/>
  <path fill="#8ADBFD" stroke="#8ADBFD" stroke-width="5" d="M35.333 45.418h.541c.705 0 1.292.587 1.292 1.292v18.958c0 .705-.587 1.292-1.292 1.292h-.541a1.303 1.303 0 0 1-1.292-1.292V46.71c0-.705.587-1.292 1.292-1.292Zm15.166-11.375c.705 0 1.292.587 1.292 1.292v30.333c0 .705-.587 1.292-1.292 1.292a1.303 1.303 0 0 1-1.291-1.292V35.335c0-.705.587-1.292 1.291-1.292ZM65.666 55.71c.705 0 1.292.587 1.292 1.291v8.667c0 .705-.587 1.292-1.292 1.292a1.303 1.303 0 0 1-1.292-1.292v-8.667c0-.704.587-1.291 1.292-1.291Z"/>
</svg>
