<svg xmlns="http://www.w3.org/2000/svg" width="58" height="58" fill="none" viewBox="0 0 58 58">
  <g clip-path="url(#a)">
    <path fill="#6F4EF6" d="M7.87 9.009H1.133A1.133 1.133 0 0 1 0 7.876V1.133C0 .507.507 0 1.133 0H7.87c.625 0 1.132.507 1.132 1.133V3.37H24.5V1.133C24.5.507 25.007 0 25.633 0h6.736c.626 0 1.133.507 1.133 1.133V3.37h15.497V1.133A1.131 1.131 0 0 1 50.13 0h6.736C57.493 0 58 .507 58 1.133v6.743c0 .625-.507 1.133-1.133 1.133h-6.736a1.133 1.133 0 0 1-1.133-1.133V5.637h-9.424a25.688 25.688 0 0 1 8.748 6.509 25.627 25.627 0 0 1 6.287 15.721h2.258c.626 0 1.133.507 1.133 1.133v6.743c0 .626-.507 1.133-1.133 1.133h-6.736a1.133 1.133 0 0 1-1.133-1.133V29c0-.626.507-1.133 1.133-1.133h2.21c-.522-10.675-8.375-19.766-18.84-21.81v1.82c0 .625-.507 1.132-1.133 1.132h-6.736a1.133 1.133 0 0 1-1.133-1.133V6.058C14.034 8.1 6.18 17.192 5.659 27.868h2.21c.626 0 1.133.506 1.133 1.132v6.743c0 .626-.507 1.133-1.132 1.133H1.133A1.133 1.133 0 0 1 0 35.743V29c0-.626.507-1.133 1.133-1.133H3.39a25.627 25.627 0 0 1 6.288-15.721 25.688 25.688 0 0 1 8.748-6.509H9.002v2.24c0 .624-.507 1.132-1.132 1.132Zm43.393-2.266h4.471V2.266h-4.47v4.477Zm0 27.867h4.471v-4.477h-4.47v4.477Zm-48.997 0h4.47v-4.477h-4.47v4.477ZM26.764 6.743h4.471V2.266h-4.47v4.477ZM6.738 2.266H2.266v4.477h4.47V2.266Z"/>
    <path fill="#6F4EF6" d="M28.009 12.48a1.133 1.133 0 0 1 1.984 0l4.705 8.543a1.132 1.132 0 1 1-1.985 1.093l-2.58-4.684v8.354a3.859 3.859 0 0 1 2.72 3.682A3.856 3.856 0 0 1 29 33.319a3.856 3.856 0 0 1-3.852-3.851 3.859 3.859 0 0 1 2.719-3.682v-8.354l-7.772 14.11a18.36 18.36 0 0 1 4.97 9.466h7.87a18.365 18.365 0 0 1 4.97-9.465l-1.299-2.358a1.133 1.133 0 0 1 1.985-1.093l1.717 3.118a1.133 1.133 0 0 1-.227 1.382 16.076 16.076 0 0 0-4.835 8.416h1.055a3.403 3.403 0 0 1 3.399 3.398 3.4 3.4 0 0 1-1.864 3.031v9.43a1.133 1.133 0 1 1-2.266 0v-9.062H22.43v9.062a1.133 1.133 0 1 1-2.266 0v-9.43a3.401 3.401 0 0 1-1.864-3.03 3.402 3.402 0 0 1 3.399-3.4h1.054a16.078 16.078 0 0 0-4.834-8.415 1.133 1.133 0 0 1-.227-1.382l10.316-18.73ZM29 31.055c.874 0 1.586-.712 1.586-1.586A1.587 1.587 0 1 0 29 31.055Zm-8.434 13.352c0 .625.508 1.133 1.133 1.133h14.602a1.134 1.134 0 0 0 0-2.266H21.7c-.625 0-1.133.508-1.133 1.133Z"/>
    <path fill="#6F4EF6" d="M35.727 26.295c-.299 0-.59-.12-.801-.331a1.144 1.144 0 0 1-.332-.802 1.138 1.138 0 0 1 1.132-1.133c.3 0 .592.122.802.332.211.212.331.503.331.801 0 .3-.12.59-.33.802a1.14 1.14 0 0 1-.802.33Z"/>
  </g>
  <defs>
    <clipPath id="a">
      <path fill="#fff" d="M0 0h58v58H0z" transform="matrix(-1 0 0 1 58 0)"/>
    </clipPath>
  </defs>
</svg>
