<svg xmlns="http://www.w3.org/2000/svg" width="72" height="72" fill="none" viewBox="0 0 72 72">
  <path fill="#6F4EF5" d="m41.035 42 10.557-10.558a8.224 8.224 0 0 0 2.41-5.817v-3.512A4.112 4.112 0 0 0 49.889 18h-3.512a8.216 8.216 0 0 0-5.815 2.41l-10.56 10.558-7.078-1.012A5.216 5.216 0 0 0 17.425 33c-.909 2.01-.302 4.393 1.259 5.951L33.05 53.318c1.558 1.559 3.942 2.166 5.95 1.257a5.213 5.213 0 0 0 3.046-5.5L41.035 42Z" opacity=".35"/>
  <path fill="#6F4EF5" d="M44.749 30.338a3.085 3.085 0 1 0 0-6.17 3.085 3.085 0 0 0 0 6.17Zm-8.227 8.226a3.085 3.085 0 1 0 0-6.17 3.085 3.085 0 0 0 0 6.17ZM21.569 41.84c-.247.183-.496.364-.718.586-1.472 1.472-2.681 5.943-3.4 9.196-.386 1.752 1.177 3.315 2.93 2.928 3.25-.717 7.723-1.927 9.195-3.399a6 6 0 0 0 .586-.718L21.57 41.84Z"/>
</svg>
