<svg xmlns="http://www.w3.org/2000/svg" width="138" height="126" fill="none" viewBox="0 0 138 126">
  <rect width="136.19" height="125.186" x=".944" y=".389" fill="#fff" fill-opacity=".15" rx="13.463"/>
  <rect width="135.203" height="124.199" x="1.438" y=".882" stroke="#fff" stroke-opacity=".05" stroke-width=".987" rx="12.969"/>
  <rect width="112.638" height="110.82" x="12.208" y="7.57" fill="#fff" rx="13.463"/>
  <path fill="#000538" d="M40.824 92.346V90.84l3.995-3.917c.382-.386.7-.729.955-1.029.255-.3.446-.59.573-.87.128-.281.191-.581.191-.9 0-.363-.082-.674-.247-.932a1.645 1.645 0 0 0-.68-.607 2.194 2.194 0 0 0-.983-.214c-.379 0-.71.079-.995.236a1.624 1.624 0 0 0-.663.658c-.153.284-.23.623-.23 1.017h-1.984c0-.73.167-1.366.5-1.905.334-.54.793-.957 1.377-1.253.588-.296 1.262-.444 2.023-.444.772 0 1.45.144 2.034.432.585.289 1.038.684 1.36 1.186.326.502.49 1.075.49 1.72 0 .43-.083.854-.248 1.27-.165.416-.455.876-.871 1.382-.412.506-.991 1.118-1.737 1.838l-1.983 2.017v.079h5.012v1.742h-7.89Zm14.043.157a4.86 4.86 0 0 1-1.613-.287 3.794 3.794 0 0 1-1.416-.927c-.42-.43-.753-1.002-1-1.714-.248-.715-.37-1.601-.366-2.658 0-.985.105-1.864.315-2.635.21-.772.511-1.424.905-1.956a3.993 3.993 0 0 1 1.421-1.225 4.102 4.102 0 0 1 1.872-.421c.723 0 1.363.142 1.922.427a3.618 3.618 0 0 1 1.36 1.169 3.7 3.7 0 0 1 .64 1.663h-2.051a1.863 1.863 0 0 0-.646-1.056c-.322-.266-.73-.4-1.225-.4-.798 0-1.413.347-1.843 1.04-.428.693-.643 1.645-.647 2.855h.079c.184-.33.421-.613.714-.849.292-.236.621-.417.989-.545.37-.131.762-.197 1.174-.197.674 0 1.28.162 1.815.484.54.322.967.766 1.281 1.332.315.562.47 1.206.467 1.933.004.756-.169 1.436-.517 2.04a3.752 3.752 0 0 1-1.456 1.416c-.621.344-1.346.515-2.174.511Zm-.012-1.686c.409 0 .774-.1 1.096-.298.322-.198.577-.466.764-.803.188-.337.28-.716.276-1.135a2.236 2.236 0 0 0-.27-1.119 2.055 2.055 0 0 0-.747-.792 2.047 2.047 0 0 0-1.09-.292 2.072 2.072 0 0 0-1.535.657 2.267 2.267 0 0 0-.629 1.563c.004.4.097.77.281 1.106.184.338.436.607.759.81.322.202.687.303 1.095.303Zm6.84 1.652c-.342 0-.634-.12-.877-.36a1.165 1.165 0 0 1-.36-.876 1.152 1.152 0 0 1 .36-.865c.243-.24.535-.36.876-.36.33 0 .617.12.86.36a1.181 1.181 0 0 1 .197 1.489 1.291 1.291 0 0 1-.45.45 1.17 1.17 0 0 1-.607.162Zm6.972.034c-.836 0-1.578-.14-2.226-.421-.644-.281-1.15-.665-1.517-1.152a2.704 2.704 0 0 1-.54-1.67 2.76 2.76 0 0 1 .315-1.331 2.97 2.97 0 0 1 .866-1.012 2.79 2.79 0 0 1 1.225-.522v-.079a2.435 2.435 0 0 1-1.439-.905 2.611 2.611 0 0 1-.54-1.646 2.62 2.62 0 0 1 .495-1.585c.334-.465.79-.83 1.371-1.096.581-.27 1.244-.404 1.99-.404.738 0 1.395.134 1.972.404.58.266 1.038.632 1.371 1.096.337.465.506.993.506 1.585 0 .622-.185 1.17-.556 1.646a2.428 2.428 0 0 1-1.422.905v.079c.45.075.854.249 1.214.522.363.27.652.607.865 1.012.218.404.326.848.326 1.332 0 .621-.183 1.178-.55 1.669-.368.487-.873.87-1.518 1.152-.64.28-1.377.421-2.208.421Zm0-1.607c.43 0 .805-.073 1.124-.22a1.75 1.75 0 0 0 .741-.629c.177-.27.266-.58.27-.932a1.744 1.744 0 0 0-.287-.973 1.882 1.882 0 0 0-.758-.668 2.382 2.382 0 0 0-1.09-.242c-.412 0-.78.08-1.102.242a1.925 1.925 0 0 0-.764.668 1.705 1.705 0 0 0-.27.973c-.003.352.083.663.259.932.176.266.423.474.742.624.322.15.7.225 1.135.225Zm0-5.243c.352 0 .663-.071.933-.214a1.62 1.62 0 0 0 .646-.595c.157-.255.238-.55.241-.883a1.642 1.642 0 0 0-.236-.865 1.523 1.523 0 0 0-.64-.579 2.06 2.06 0 0 0-.944-.208c-.364 0-.684.07-.961.208a1.523 1.523 0 0 0-.64.579 1.6 1.6 0 0 0-.22.865c-.004.334.071.628.225.883.157.25.373.45.646.595.277.143.594.214.95.214Zm10.377 6.912c-.925 0-1.719-.234-2.382-.703-.66-.472-1.167-1.152-1.523-2.04-.352-.891-.528-1.964-.528-3.22.004-1.254.181-2.322.534-3.203.356-.884.863-1.558 1.523-2.023.663-.464 1.455-.696 2.376-.696.922 0 1.715.232 2.378.696.663.465 1.17 1.14 1.523 2.023.355.885.533 1.952.533 3.204 0 1.258-.178 2.334-.533 3.225-.353.888-.86 1.566-1.523 2.034-.66.469-1.452.703-2.377.703Zm0-1.759c.72 0 1.287-.354 1.703-1.062.42-.712.63-1.759.63-3.141 0-.914-.096-1.682-.287-2.304-.191-.622-.46-1.09-.81-1.405a1.772 1.772 0 0 0-1.236-.478c-.715 0-1.28.356-1.697 1.068-.415.708-.625 1.747-.629 3.119-.004.917.088 1.69.275 2.315.192.625.461 1.097.81 1.416a1.79 1.79 0 0 0 1.242.472Zm12.455-.618v-.607c0-.446.093-.856.28-1.23.192-.375.469-.677.832-.906.364-.228.804-.342 1.321-.342.532 0 .978.114 1.337.343.36.224.632.524.815.899.188.374.281.786.281 1.236v.607c0 .446-.093.856-.28 1.23a2.232 2.232 0 0 1-.827.905c-.36.229-.801.343-1.326.343s-.968-.114-1.332-.343a2.232 2.232 0 0 1-.826-.904 2.758 2.758 0 0 1-.275-1.231Zm1.466-.607v.607c0 .296.072.567.214.815.142.247.393.37.753.37.363 0 .612-.121.747-.365a1.65 1.65 0 0 0 .208-.82v-.607c0-.3-.065-.573-.196-.82-.132-.251-.384-.377-.759-.377-.352 0-.601.126-.747.376-.147.248-.22.521-.22.82ZM85.65 83.6v-.606c0-.45.095-.862.286-1.236.191-.375.469-.675.832-.9.364-.228.804-.342 1.32-.342.529 0 .973.114 1.332.342.364.225.637.525.821.9.184.374.275.786.275 1.236v.607c0 .45-.093.861-.28 1.236-.184.37-.458.669-.821.894-.364.224-.806.337-1.326.337-.528 0-.974-.113-1.338-.337a2.205 2.205 0 0 1-.82-.9 2.713 2.713 0 0 1-.281-1.23Zm1.478-.606v.607c0 .3.07.573.208.82.142.244.393.365.753.365s.607-.121.742-.365c.138-.247.207-.52.207-.82v-.607c0-.3-.065-.573-.196-.82-.131-.252-.382-.377-.753-.377-.356 0-.605.125-.748.376a1.635 1.635 0 0 0-.213.82Zm-.837 9.35 7.912-11.508h1.405l-7.913 11.509H86.29Z"/>
  <path fill="#8ADBFD" d="M89.703 57.945a23.132 23.132 0 0 0-2.769-20.969 23.055 23.055 0 0 0-8.125-7.22 23.002 23.002 0 0 0-10.522-2.689l-.085 7.152c2.534.03 5.024.667 7.263 1.856a15.913 15.913 0 0 1 5.608 4.984 15.953 15.953 0 0 1 1.911 14.472l6.72 2.414Z"/>
  <path fill="#E0F4FD" d="M68.015 27.065a23.002 23.002 0 0 0-12.007 3.384 23.07 23.07 0 0 0-8.488 9.158 23.13 23.13 0 0 0 1.771 23.999 23.048 23.048 0 0 0 9.74 7.807 22.996 22.996 0 0 0 23.754-3.54 23.09 23.09 0 0 0 7.051-10.31l-6.76-2.296a15.936 15.936 0 0 1-4.867 7.116 15.872 15.872 0 0 1-16.394 2.443 15.908 15.908 0 0 1-6.723-5.388 15.955 15.955 0 0 1-1.222-16.564 15.921 15.921 0 0 1 5.858-6.32 15.877 15.877 0 0 1 8.287-2.336v-7.153Z"/>
</svg>
