<svg xmlns="http://www.w3.org/2000/svg" width="211" height="179" fill="none" viewBox="0 0 211 179">
  <rect width="209.988" height="178.571" x=".32" y=".033" fill="#fff" fill-opacity=".15" rx="23.7"/>
  <rect width="209.198" height="177.781" x=".715" y=".428" stroke="#fff" stroke-opacity=".05" stroke-width=".79" rx="23.305"/>
  <rect width="189.206" height="156.37" x="10.916" y="10.651" fill="#fff" rx="12.898"/>
  <path fill="#6F4EF6" d="M115.172 113.213a44.191 44.191 0 0 0 8.972-22.491 44.134 44.134 0 0 0-4.24-23.828 44.395 44.395 0 0 0-16.188-18.06 44.695 44.695 0 0 0-23.307-6.906l-.574 44.313 35.337 26.972Z"/>
  <path fill="#EDEAFD" d="M52.222 121.391a44.617 44.617 0 0 0 15.474 7.867 44.741 44.741 0 0 0 33.856-3.947 44.496 44.496 0 0 0 13.227-11.214L79.835 86.621l-27.613 34.77Z"/>
  <path fill="#8ADBFD" d="M53.514 50.872a44.38 44.38 0 0 0-13.08 15.087 44.126 44.126 0 0 0-1.23 38.81A44.351 44.351 0 0 0 51.3 120.647l28.534-34.026-26.321-35.75Z"/>
  <path fill="#E0F4FD" d="M79.312 42.308a44.691 44.691 0 0 0-24.733 7.811l25.256 36.502-.523-44.313Z"/>
  <ellipse cx="79.835" cy="86.621" fill="#fff" rx="23.085" ry="22.97"/>
  <g filter="url(#a)">
    <rect width="90.455" height="36.966" x="100.348" y="54.723" fill="#fff" rx="7.384"/>
    <rect width="89.962" height="36.474" x="100.594" y="54.969" stroke="#DCDDEB" stroke-width=".492" rx="7.138"/>
  </g>
  <path fill="#000538" d="M114.569 81.767v-3.442h-1.329v-.457h3.141v.457h-1.33v3.442h-.482Zm3.846.08c-.389 0-.718-.085-.989-.256a1.661 1.661 0 0 1-.62-.715 2.5 2.5 0 0 1-.211-1.059c0-.4.07-.753.211-1.059.143-.305.35-.543.62-.714.271-.172.6-.258.989-.258s.72.086.991.258c.27.171.476.41.617.714a2.5 2.5 0 0 1 .211 1.06c0 .4-.07.753-.211 1.058a1.642 1.642 0 0 1-.617.715c-.271.171-.602.257-.991.257Zm0-.46c.29.002.532-.063.725-.194a1.2 1.2 0 0 0 .436-.555 2.13 2.13 0 0 0 .146-.82c0-.313-.048-.587-.146-.821a1.186 1.186 0 0 0-.436-.55c-.193-.132-.435-.198-.725-.2-.291-.002-.533.063-.726.195a1.21 1.21 0 0 0-.433.552 2.17 2.17 0 0 0-.149.823c-.002.31.046.583.143.818.098.234.243.419.436.552.195.132.438.199.729.2Zm3.262.38v-3.442h-1.33v-.457h3.141v.457h-1.329v3.442h-.482Zm1.866 0 1.305-3.9h.671l1.305 3.9h-.501l-1.221-3.618h.152l-1.21 3.618h-.501Zm.628-.913v-.452h2.025v.452h-2.025Zm3.192.913v-3.9h.482v3.442h1.809v.458h-2.291Zm3.617 0v-3.9h.482v3.9h-.482Zm1.295 0v-3.9h.487l2.034 3.047v-3.046h.487v3.899h-.487l-2.034-3.05v3.05h-.487Zm5.344.08c-.267 0-.511-.046-.731-.14a1.606 1.606 0 0 1-.569-.403 1.843 1.843 0 0 1-.368-.64 2.633 2.633 0 0 1-.127-.847c0-.415.074-.774.222-1.077.148-.304.356-.538.625-.702.269-.166.585-.249.948-.249.437 0 .788.102 1.056.306.267.202.451.48.552.831l-.487.1a1.17 1.17 0 0 0-.401-.565 1.12 1.12 0 0 0-.696-.212c-.291-.001-.532.064-.726.195a1.2 1.2 0 0 0-.433.55 2.19 2.19 0 0 0-.149.823c-.002.31.046.583.144.818.097.234.243.419.436.552.195.132.437.199.728.2.251.002.462-.046.634-.143a.993.993 0 0 0 .398-.422 1.75 1.75 0 0 0 .17-.664h-.828v-.398h1.337a2.93 2.93 0 0 1 .011.23c0 .356-.067.675-.2.956-.132.28-.328.5-.588.66-.258.162-.577.242-.958.242Zm2.287-.08v-3.9h1.541a2.016 2.016 0 0 1 .287.022c.211.033.388.105.53.217.145.112.253.254.325.425.072.17.108.358.108.566 0 .301-.078.563-.235.785-.157.22-.387.358-.691.414l-.184.03h-1.199v1.44h-.482Zm2.32 0-.769-1.587.477-.146.845 1.733h-.553Zm-1.838-1.898h1.042a1.433 1.433 0 0 0 .244-.025.62.62 0 0 0 .303-.157.702.702 0 0 0 .174-.27.976.976 0 0 0 0-.637.699.699 0 0 0-.174-.273.59.59 0 0 0-.303-.157 1.433 1.433 0 0 0-.244-.024h-1.042v1.543Zm2.987 1.898v-3.9h2.464v.458h-1.982v1.221h1.657v.458h-1.657v1.305h1.982v.458h-2.464Zm4.387.08a1.9 1.9 0 0 1-.747-.14 1.433 1.433 0 0 1-.547-.4 1.358 1.358 0 0 1-.279-.62l.499-.08a.977.977 0 0 0 .392.578c.2.137.436.205.707.205.175 0 .333-.027.474-.081a.8.8 0 0 0 .338-.238.565.565 0 0 0 .125-.366.501.501 0 0 0-.046-.222.45.45 0 0 0-.122-.16.749.749 0 0 0-.173-.113 1.295 1.295 0 0 0-.204-.076l-.993-.295a2.094 2.094 0 0 1-.314-.122 1.14 1.14 0 0 1-.271-.187.844.844 0 0 1-.19-.27.926.926 0 0 1-.07-.377.97.97 0 0 1 .179-.59c.121-.165.284-.29.49-.377.206-.086.437-.129.696-.127.261.002.495.049.701.14a1.333 1.333 0 0 1 .791 1l-.512.09a.9.9 0 0 0-.528-.674 1.126 1.126 0 0 0-.458-.098 1.091 1.091 0 0 0-.43.076.748.748 0 0 0-.306.219.487.487 0 0 0-.114.32c0 .118.034.215.103.289a.75.75 0 0 0 .252.173c.101.042.199.076.295.103l.742.214c.085.024.182.056.292.098.112.041.22.1.325.176a.874.874 0 0 1 .363.763c0 .188-.038.355-.114.501a1.041 1.041 0 0 1-.311.368 1.468 1.468 0 0 1-.466.222 1.992 1.992 0 0 1-.569.079Zm3.631 0c-.388 0-.718-.085-.989-.256a1.661 1.661 0 0 1-.62-.715 2.514 2.514 0 0 1-.211-1.059c0-.4.071-.753.211-1.059.143-.305.35-.543.62-.714.271-.172.601-.258.989-.258.39 0 .72.086.991.258.271.171.476.41.617.714a2.5 2.5 0 0 1 .211 1.06c0 .4-.07.753-.211 1.058a1.636 1.636 0 0 1-.617.715c-.271.171-.601.257-.991.257Zm0-.46c.29.002.532-.063.725-.194.195-.134.341-.319.436-.555a2.13 2.13 0 0 0 .147-.82c0-.313-.049-.587-.147-.821a1.18 1.18 0 0 0-.436-.55c-.193-.132-.435-.198-.725-.2-.291-.002-.533.063-.726.195a1.21 1.21 0 0 0-.433.552 2.17 2.17 0 0 0-.149.823c-.002.31.046.583.143.818.098.234.243.419.436.552.195.132.438.199.729.2Zm3.747.46c-.276 0-.526-.046-.748-.14a1.433 1.433 0 0 1-.547-.4 1.346 1.346 0 0 1-.278-.62l.498-.08a.977.977 0 0 0 .392.578c.201.137.436.205.707.205.175 0 .333-.027.474-.081a.794.794 0 0 0 .338-.238.565.565 0 0 0 .125-.366.488.488 0 0 0-.168-.382.708.708 0 0 0-.173-.113 1.321 1.321 0 0 0-.203-.076l-.994-.295a2.137 2.137 0 0 1-.314-.122 1.16 1.16 0 0 1-.271-.187.858.858 0 0 1-.189-.27.926.926 0 0 1-.071-.377.97.97 0 0 1 .179-.59c.121-.165.284-.29.49-.377.206-.086.438-.129.696-.127.262.002.495.049.701.14a1.336 1.336 0 0 1 .791 1l-.512.09a.862.862 0 0 0-.181-.41.903.903 0 0 0-.347-.265 1.126 1.126 0 0 0-.458-.097 1.094 1.094 0 0 0-.43.076.748.748 0 0 0-.306.219.487.487 0 0 0-.114.32c0 .118.035.215.103.289a.77.77 0 0 0 .252.173c.101.042.199.076.295.103l.742.214c.085.024.182.056.292.098.112.041.221.1.325.176a.864.864 0 0 1 .26.297.942.942 0 0 1 .103.466c0 .188-.038.355-.114.501a1.031 1.031 0 0 1-.311.368 1.468 1.468 0 0 1-.466.222 1.99 1.99 0 0 1-.568.079Z"/>
  <path fill="#001A66" d="M114.641 71.612c-.407 0-.774-.07-1.102-.208a2.118 2.118 0 0 1-.808-.603 2.026 2.026 0 0 1-.409-.933l.858-.13c.087.346.268.617.544.81.275.193.597.288.965.288.228 0 .438-.035.63-.106a1.13 1.13 0 0 0 .461-.311.722.722 0 0 0 .177-.488.647.647 0 0 0-.201-.477.775.775 0 0 0-.225-.153 1.659 1.659 0 0 0-.287-.115l-1.453-.429a3.571 3.571 0 0 1-.434-.162 1.698 1.698 0 0 1-.405-.263 1.307 1.307 0 0 1-.296-.406 1.389 1.389 0 0 1-.114-.59c0-.35.09-.645.268-.887.181-.244.425-.428.733-.551a2.694 2.694 0 0 1 1.031-.19c.384.006.726.074 1.028.206.305.13.557.32.757.567.202.244.341.54.417.89l-.882.15a1.17 1.17 0 0 0-.252-.548 1.262 1.262 0 0 0-.473-.355 1.5 1.5 0 0 0-.606-.13 1.482 1.482 0 0 0-.579.095 1.029 1.029 0 0 0-.418.288.649.649 0 0 0-.153.425c0 .157.046.285.137.382.092.097.205.175.339.232.137.055.272.101.406.138l1.047.295c.132.037.28.087.445.15.168.06.33.146.485.256.157.11.287.257.39.441.102.181.153.41.153.686 0 .286-.057.538-.173.756a1.596 1.596 0 0 1-.476.543c-.2.145-.431.254-.694.327-.262.074-.539.11-.831.11Zm4.447-5.79h.831l-1.512 5.672h-.831l1.512-5.671Zm3.541 5.79a1.9 1.9 0 0 1-.816-.177 1.956 1.956 0 0 1-.642-.496 1.938 1.938 0 0 1-.382-.733l.792-.212a1.085 1.085 0 0 0 .614.724c.147.066.3.099.457.099.208 0 .395-.05.563-.15.171-.1.305-.234.402-.402.1-.168.15-.353.15-.555a1.104 1.104 0 0 0-.559-.961 1.07 1.07 0 0 0-.556-.15 1.165 1.165 0 0 0-.961.457l-.717-.252.174-2.981h3.06v.776h-2.639l.335-.311-.138 2.233-.161-.21c.149-.149.328-.263.535-.342a1.818 1.818 0 0 1 1.56.126c.278.163.497.385.658.666.16.278.24.595.24.95 0 .35-.091.671-.272.96a2.022 2.022 0 0 1-.721.685 1.934 1.934 0 0 1-.976.256Zm5.313-.118v-.988h-2.56v-.78l1.843-3.903h.941l-1.843 3.903h1.619V68.19h.834v1.536h.564v.78h-.564v.988h-.834Zm4.159.118c-.37 0-.699-.073-.985-.22a1.697 1.697 0 0 1-.669-.623 1.75 1.75 0 0 1-.241-.921c0-.326.077-.624.229-.894a1.59 1.59 0 0 1 .681-.638l-.016.283a1.629 1.629 0 0 1-.559-.559 1.507 1.507 0 0 1-.193-.756c0-.323.075-.603.225-.839a1.48 1.48 0 0 1 .618-.547c.265-.129.568-.193.91-.193.341 0 .643.064.906.193.262.128.468.31.618.547.15.236.224.516.224.839 0 .278-.061.53-.185.752a1.51 1.51 0 0 1-.567.563l-.012-.275c.3.147.527.357.682.63.155.27.232.568.232.894 0 .35-.081.656-.244.921a1.69 1.69 0 0 1-.674.623c-.286.147-.613.22-.98.22Zm0-.783c.304 0 .551-.083.74-.249.189-.168.284-.412.284-.732s-.095-.565-.284-.733c-.186-.17-.433-.256-.74-.256s-.556.086-.745.256c-.186.168-.279.413-.279.733s.094.564.283.732c.189.166.436.249.741.249Zm0-2.757c.26 0 .47-.065.63-.193.163-.132.244-.33.244-.595 0-.265-.081-.463-.244-.595-.16-.134-.37-.2-.63-.2s-.472.066-.634.2c-.163.132-.244.33-.244.595 0 .265.081.463.244.595.162.128.374.193.634.193Zm2.844 4.363.051-.366c.113.008.201-.013.264-.063a.362.362 0 0 0 .126-.209.884.884 0 0 0 .012-.303h-.453v-.949h.87v1.028c0 .31-.075.543-.224.7-.147.159-.363.212-.646.162Zm4.34-.823c-.386 0-.727-.084-1.024-.252a1.878 1.878 0 0 1-.701-.7 2.042 2.042 0 0 1-.252-1.025v-1.953c0-.386.084-.728.252-1.024a1.85 1.85 0 0 1 .701-.697c.297-.17.638-.256 1.024-.256s.727.085 1.024.256c.297.168.529.4.697.697.171.296.256.638.256 1.024v1.953c0 .386-.085.727-.256 1.024-.168.297-.4.53-.697.701a2.042 2.042 0 0 1-1.024.252Zm0-.787c.21 0 .401-.05.571-.15a1.12 1.12 0 0 0 .567-.989v-2.063a1.125 1.125 0 0 0-.567-.98 1.087 1.087 0 0 0-.571-.154 1.135 1.135 0 0 0-1.138 1.134v2.063c0 .213.051.406.154.58.102.17.239.307.409.409.173.1.365.15.575.15Zm5.054.787c-.386 0-.727-.084-1.024-.252a1.871 1.871 0 0 1-.701-.7 2.042 2.042 0 0 1-.252-1.025v-1.953c0-.386.084-.728.252-1.024.171-.297.404-.53.701-.697.297-.17.638-.256 1.024-.256s.727.085 1.024.256c.297.168.529.4.697.697.171.296.256.638.256 1.024v1.953c0 .386-.085.727-.256 1.024-.168.297-.4.53-.697.701a2.042 2.042 0 0 1-1.024.252Zm0-.787c.21 0 .4-.05.571-.15a1.12 1.12 0 0 0 .567-.989v-2.063c0-.21-.051-.4-.153-.571a1.133 1.133 0 0 0-.414-.41 1.09 1.09 0 0 0-.571-.153 1.137 1.137 0 0 0-1.138 1.134v2.063a1.125 1.125 0 0 0 1.138 1.139Zm5.054.787a2.04 2.04 0 0 1-1.024-.252 1.864 1.864 0 0 1-.701-.7 2.042 2.042 0 0 1-.252-1.025v-1.953c0-.386.084-.728.252-1.024.17-.297.404-.53.701-.697.296-.17.638-.256 1.024-.256s.727.085 1.024.256c.296.168.529.4.697.697.17.296.256.638.256 1.024v1.953c0 .386-.086.727-.256 1.024-.168.297-.401.53-.697.701a2.042 2.042 0 0 1-1.024.252Zm0-.787c.21 0 .4-.05.571-.15.173-.102.311-.239.413-.41a1.11 1.11 0 0 0 .154-.579v-2.063a1.123 1.123 0 0 0-.567-.98 1.09 1.09 0 0 0-.571-.154 1.13 1.13 0 0 0-1.139 1.134v2.063a1.126 1.126 0 0 0 1.139 1.139ZM22.954 28.66v-3.346h-1.28v-.716h3.328v.716h-1.28v3.345h-.768Zm2.558-3.47v-.677h.767v.677h-.767Zm0 3.47v-3.047h.767v3.046h-.767Zm3.107.084c-.302 0-.555-.07-.759-.212a1.307 1.307 0 0 1-.46-.575 2.107 2.107 0 0 1-.152-.82c0-.306.051-.58.153-.822a1.31 1.31 0 0 1 .448-.575c.198-.141.441-.212.73-.212.292 0 .546.07.762.21.216.138.384.33.502.572.12.24.18.516.18.826 0 .305-.058.578-.177.82a1.41 1.41 0 0 1-.49.576 1.296 1.296 0 0 1-.737.212Zm-1.5 1.27v-4.401h.677V27.7h.096v2.313h-.773Zm1.376-1.953a.634.634 0 0 0 .406-.124.73.73 0 0 0 .234-.333c.051-.14.077-.297.077-.468a1.3 1.3 0 0 0-.08-.462.723.723 0 0 0-.245-.336.665.665 0 0 0-.42-.127c-.16 0-.29.039-.39.116a.659.659 0 0 0-.214.324c-.045.14-.067.3-.067.485 0 .184.022.346.067.485a.65.65 0 0 0 .22.325.675.675 0 0 0 .412.115Zm3.52.683a1.55 1.55 0 0 1-.806-.206 1.442 1.442 0 0 1-.542-.567 1.764 1.764 0 0 1-.192-.835c0-.318.066-.597.198-.838.131-.242.313-.431.544-.567a1.55 1.55 0 0 1 .798-.203c.307 0 .576.069.807.206.233.137.415.327.544.57.13.24.195.518.195.832 0 .316-.066.595-.197.838-.13.24-.312.43-.545.567-.231.135-.5.203-.804.203Zm0-.717c.247 0 .43-.082.55-.248.123-.167.184-.382.184-.643 0-.27-.062-.487-.187-.649-.122-.161-.304-.242-.547-.242a.701.701 0 0 0-.412.113.672.672 0 0 0-.24.313c-.05.133-.075.288-.075.465 0 .273.06.49.183.652.124.16.305.24.544.24Zm4.79.717c-.302 0-.555-.07-.758-.212a1.307 1.307 0 0 1-.46-.575 2.109 2.109 0 0 1-.152-.82c0-.306.05-.58.152-.822a1.31 1.31 0 0 1 .448-.575c.198-.141.441-.212.731-.212.291 0 .545.07.762.21.216.138.383.33.502.572.12.24.18.516.18.826 0 .305-.06.578-.178.82a1.41 1.41 0 0 1-.49.576 1.293 1.293 0 0 1-.736.212Zm-1.5 1.27v-4.401h.677V27.7h.096v2.313h-.773Zm1.376-1.953a.639.639 0 0 0 .407-.124.73.73 0 0 0 .234-.333c.05-.14.076-.297.076-.468 0-.17-.027-.323-.08-.462a.721.721 0 0 0-.245-.336.665.665 0 0 0-.42-.127c-.16 0-.29.039-.39.116a.659.659 0 0 0-.213.324c-.046.14-.068.3-.068.485 0 .184.022.346.068.485.045.14.118.248.22.325a.67.67 0 0 0 .411.115Zm3.52.683a1.55 1.55 0 0 1-.806-.206 1.442 1.442 0 0 1-.542-.567 1.765 1.765 0 0 1-.192-.835c0-.318.066-.597.198-.838.132-.242.313-.431.544-.567a1.55 1.55 0 0 1 .799-.203c.306 0 .575.069.806.206.233.137.415.327.545.57.13.24.194.518.194.832 0 .316-.066.595-.197.838-.13.24-.311.43-.545.567a1.56 1.56 0 0 1-.803.203Zm0-.717c.247 0 .43-.082.55-.248.123-.167.184-.382.184-.643 0-.27-.062-.487-.186-.649-.123-.161-.305-.242-.547-.242a.7.7 0 0 0-.412.113.673.673 0 0 0-.24.313c-.05.133-.076.288-.076.465 0 .273.061.49.183.652.124.16.306.24.545.24Zm2.166.632v-3.046h.677v.745l-.073-.096c.04-.106.092-.201.158-.288a.946.946 0 0 1 .482-.319 1.359 1.359 0 0 1 .544-.042v.716a.78.78 0 0 0-.295-.025.818.818 0 0 0-.302.076.682.682 0 0 0-.37.41.951.951 0 0 0-.048.312v1.557h-.773Zm4.797.085a1.49 1.49 0 0 1-.812-.212 1.397 1.397 0 0 1-.52-.575 1.821 1.821 0 0 1-.18-.82c0-.31.062-.585.187-.827.126-.243.302-.434.53-.573.227-.14.496-.209.806-.209.36 0 .66.092.903.274.244.18.4.428.468.742l-.767.203a.696.696 0 0 0-.237-.37.59.59 0 0 0-.378-.132.637.637 0 0 0-.398.118.67.67 0 0 0-.228.319 1.314 1.314 0 0 0-.073.454c0 .265.058.48.174.646.119.164.294.245.525.245.173 0 .305-.04.395-.118a.717.717 0 0 0 .203-.339l.784.164c-.086.323-.25.573-.49.747-.241.175-.538.263-.892.263Zm2.737 0a1.15 1.15 0 0 1-.555-.124.882.882 0 0 1-.344-.336.954.954 0 0 1-.116-.465c0-.141.022-.27.065-.387a.786.786 0 0 1 .209-.307c.098-.09.228-.166.392-.226.113-.041.247-.078.403-.11.156-.032.333-.062.53-.09l.652-.099-.276.152c0-.18-.044-.313-.13-.397-.087-.085-.232-.127-.435-.127a.863.863 0 0 0-.352.082.472.472 0 0 0-.257.29l-.694-.22c.077-.252.222-.457.435-.615.212-.158.502-.237.868-.237.27 0 .508.042.717.125a.894.894 0 0 1 .474.428.91.91 0 0 1 .107.339c.011.112.017.238.017.378v1.861h-.671v-.626l.095.13a1.447 1.447 0 0 1-.482.445 1.39 1.39 0 0 1-.651.136Zm.164-.604c.141 0 .26-.024.355-.073a.792.792 0 0 0 .232-.172.727.727 0 0 0 .118-.161.752.752 0 0 0 .068-.288 4.56 4.56 0 0 0 .011-.276l.226.056c-.228.038-.412.07-.553.096a5.79 5.79 0 0 0-.341.068 2 2 0 0 0-.229.068.787.787 0 0 0-.183.098.355.355 0 0 0-.102.113.304.304 0 0 0-.03.138c0 .07.016.13.05.18a.34.34 0 0 0 .15.114.6.6 0 0 0 .228.04Zm4.355.52v-1.44a4.25 4.25 0 0 0-.011-.264 1.199 1.199 0 0 0-.07-.328.617.617 0 0 0-.195-.273c-.089-.074-.215-.11-.378-.11a.799.799 0 0 0-.212.03.515.515 0 0 0-.211.122.643.643 0 0 0-.164.26 1.38 1.38 0 0 0-.062.456l-.44-.208c0-.24.049-.466.147-.677.097-.21.244-.38.44-.51.197-.13.445-.195.744-.195.24 0 .434.04.584.121a.95.95 0 0 1 .35.307c.084.125.145.254.18.39.036.133.058.255.065.366.008.111.012.192.012.243v1.71h-.779Zm-2.081 0v-3.047h.682v1.01h.096v2.036h-.778Zm5.42 0a2.934 2.934 0 0 1-.621.05 1.484 1.484 0 0 1-.542-.104.731.731 0 0 1-.36-.325.933.933 0 0 1-.12-.423 18.915 18.915 0 0 1-.005-.49v-2.601h.767v2.555c0 .119.001.226.003.322a.438.438 0 0 0 .06.225c.067.108.175.166.324.175.148.01.313.002.493-.022v.637Zm-2.167-2.455v-.592h2.166v.592h-2.166Zm2.901-1.015v-.677h.768v.677h-.768Zm0 3.47v-3.047h.768v3.046h-.768Zm2.849.084c-.28 0-.526-.07-.737-.212a1.435 1.435 0 0 1-.493-.575 1.872 1.872 0 0 1-.175-.82c0-.311.06-.587.178-.827a1.41 1.41 0 0 1 .505-.573c.216-.14.47-.209.761-.209.29 0 .533.07.73.212.198.14.348.333.45.575.1.243.151.516.151.821 0 .305-.051.578-.155.82a1.289 1.289 0 0 1-.457.576c-.203.141-.456.212-.758.212Zm.124-.683a.66.66 0 0 0 .409-.115.635.635 0 0 0 .222-.325c.046-.139.068-.3.068-.485 0-.184-.022-.346-.068-.485a.65.65 0 0 0-.217-.324.606.606 0 0 0-.386-.116.677.677 0 0 0-.423.127.73.73 0 0 0-.243.335 1.32 1.32 0 0 0-.079.463c0 .171.026.327.076.468.051.14.13.25.234.333a.639.639 0 0 0 .407.124Zm.7.598v-2.087h-.097v-1.974h.773v4.061h-.677Zm2.312.085a1.15 1.15 0 0 1-.556-.124.882.882 0 0 1-.344-.336.954.954 0 0 1-.115-.465c0-.141.021-.27.065-.387a.787.787 0 0 1 .208-.307c.098-.09.229-.166.392-.226.113-.041.248-.078.404-.11.156-.032.333-.062.53-.09l.651-.099-.276.152c0-.18-.043-.313-.13-.397-.086-.085-.231-.127-.434-.127a.863.863 0 0 0-.353.082.472.472 0 0 0-.256.29l-.694-.22c.077-.252.222-.457.434-.615.213-.158.502-.237.869-.237.269 0 .508.042.716.125a.894.894 0 0 1 .474.428.91.91 0 0 1 .107.339c.012.112.017.238.017.378v1.861h-.671v-.626l.096.13c-.149.205-.31.353-.482.445-.171.09-.389.136-.652.136Zm.164-.604c.14 0 .26-.024.355-.073a.79.79 0 0 0 .231-.172.725.725 0 0 0 .119-.161.752.752 0 0 0 .068-.288c.007-.11.01-.203.01-.276l.226.056c-.227.038-.411.07-.552.096a5.79 5.79 0 0 0-.342.068c-.086.02-.162.043-.228.068a.788.788 0 0 0-.183.098.355.355 0 0 0-.102.113.304.304 0 0 0-.031.138c0 .07.017.13.05.18a.34.34 0 0 0 .15.114c.064.026.14.04.229.04Zm3.514.604c-.28 0-.525-.07-.736-.212a1.434 1.434 0 0 1-.494-.575 1.871 1.871 0 0 1-.175-.82c0-.311.06-.587.178-.827a1.41 1.41 0 0 1 .505-.573c.216-.14.47-.209.762-.209.29 0 .533.07.73.212.198.14.347.333.449.575.101.243.152.516.152.821 0 .305-.052.578-.155.82a1.29 1.29 0 0 1-.457.576c-.203.141-.456.212-.759.212Zm.124-.683a.66.66 0 0 0 .41-.115.635.635 0 0 0 .222-.325c.045-.139.068-.3.068-.485 0-.184-.023-.346-.068-.485a.65.65 0 0 0-.217-.324.606.606 0 0 0-.387-.116.677.677 0 0 0-.423.127.73.73 0 0 0-.242.335c-.053.14-.08.294-.08.463 0 .171.026.327.077.468.05.14.129.25.234.333.105.083.24.124.406.124Zm.7.598v-2.087h-.096v-1.974h.773v4.061h-.677Z"/>
  <g clip-path="url(#b)">
    <path fill="#001A66" d="m81.673 25.74-.681-.676-2.217 2.196-2.217-2.197-.681.677 2.898 2.877 2.898-2.877Z"/>
  </g>
  <circle cx="25.062" cy="150.36" r="2.443" fill="#DBF9EF"/>
  <path fill="#001A66" d="M32.418 151.499v-3.046h1.176a1.212 1.212 0 0 1 .214.017.83.83 0 0 1 .656.493c.058.131.087.276.087.435 0 .158-.03.303-.087.434a.84.84 0 0 1-.254.328.846.846 0 0 1-.402.165 1.48 1.48 0 0 1-.114.013c-.037.002-.07.004-.1.004h-.865v1.157h-.31Zm.311-1.453h.857a1.044 1.044 0 0 0 .188-.019.527.527 0 0 0 .256-.129.588.588 0 0 0 .15-.227.747.747 0 0 0 0-.545.588.588 0 0 0-.15-.229.527.527 0 0 0-.256-.129.653.653 0 0 0-.1-.013c-.033-.002-.063-.004-.088-.004h-.857v1.295Zm2.243 1.453v-2.285h.279v.55l-.055-.072a.81.81 0 0 1 .1-.186.624.624 0 0 1 .133-.141.595.595 0 0 1 .207-.119.873.873 0 0 1 .239-.049c.08-.005.154 0 .22.017v.292a.764.764 0 0 0-.273-.015.524.524 0 0 0-.273.119.56.56 0 0 0-.171.214.9.9 0 0 0-.076.262 1.994 1.994 0 0 0-.02.273v1.14h-.31Zm2.437.063c-.227 0-.421-.051-.582-.154a1.003 1.003 0 0 1-.37-.427 1.45 1.45 0 0 1-.129-.626c0-.24.044-.45.131-.631a.996.996 0 0 1 .372-.421 1.07 1.07 0 0 1 .578-.152c.228 0 .423.051.584.154a.977.977 0 0 1 .37.426c.086.18.129.388.129.624 0 .239-.043.45-.129.632a.982.982 0 0 1-.372.423 1.07 1.07 0 0 1-.582.152Zm0-.298c.254 0 .443-.084.567-.252.124-.169.186-.388.186-.657 0-.277-.063-.497-.188-.66-.124-.164-.313-.246-.565-.246a.72.72 0 0 0-.423.117.687.687 0 0 0-.248.319 1.27 1.27 0 0 0-.08.47c0 .275.063.495.19.662.127.165.314.247.56.247Zm2.436.298a.925.925 0 0 1-.546-.158 1.029 1.029 0 0 1-.347-.434 1.508 1.508 0 0 1-.12-.615c0-.227.04-.432.118-.614.08-.182.195-.326.345-.431a.905.905 0 0 1 .537-.159c.215 0 .395.052.542.156a.965.965 0 0 1 .332.43c.076.18.114.386.114.618 0 .227-.037.432-.112.615a.994.994 0 0 1-.33.434.879.879 0 0 1-.533.158Zm.032-.289c.162 0 .296-.04.402-.119a.702.702 0 0 0 .237-.326 1.34 1.34 0 0 0 .078-.473c0-.18-.026-.337-.078-.474a.696.696 0 0 0-.237-.324.649.649 0 0 0-.396-.116.66.66 0 0 0-.406.12.718.718 0 0 0-.24.328c-.05.138-.075.294-.075.466 0 .173.026.33.078.469a.733.733 0 0 0 .24.328.64.64 0 0 0 .397.121Zm.717.226v-1.72h-.034v-1.326h.313v3.046h-.28Zm1.746.057a.947.947 0 0 1-.36-.063.807.807 0 0 1-.43-.417 1.238 1.238 0 0 1-.096-.294 1.67 1.67 0 0 1-.03-.311v-1.257h.313v1.166c0 .125.012.242.036.349a.849.849 0 0 0 .115.281.553.553 0 0 0 .205.184.658.658 0 0 0 .306.066c.11 0 .207-.019.29-.057a.567.567 0 0 0 .212-.163.745.745 0 0 0 .131-.26c.03-.103.045-.219.045-.347l.22.049c0 .234-.041.43-.123.59a.846.846 0 0 1-.339.361.982.982 0 0 1-.495.123Zm.768-.057v-.563h-.031v-1.722h.31v2.285h-.279Zm1.818.063c-.23 0-.424-.051-.584-.154a.987.987 0 0 1-.363-.425 1.56 1.56 0 0 1-.127-.626c.003-.24.046-.45.13-.631a.967.967 0 0 1 .367-.423 1.06 1.06 0 0 1 .58-.152c.23 0 .432.056.602.169.172.113.29.267.354.463l-.305.098a.646.646 0 0 0-.256-.318.708.708 0 0 0-.398-.114.703.703 0 0 0-.416.117.674.674 0 0 0-.246.319 1.317 1.317 0 0 0-.082.472c.003.273.066.493.19.66.124.165.309.247.554.247a.707.707 0 0 0 .396-.106.658.658 0 0 0 .25-.313l.313.093a.992.992 0 0 1-.373.466 1.054 1.054 0 0 1-.586.158Zm2.64-.063a1.543 1.543 0 0 1-.382.032.85.85 0 0 1-.334-.081.48.48 0 0 1-.222-.224.656.656 0 0 1-.068-.256 9.402 9.402 0 0 1-.004-.298v-2.092h.309v2.079c0 .096 0 .176.002.241a.39.39 0 0 0 .044.17.32.32 0 0 0 .242.169c.111.018.249.014.412-.013v.273Zm-1.498-2.018v-.267h1.497v.267h-1.497Zm2.819 2.081c-.227 0-.421-.051-.582-.154a1.003 1.003 0 0 1-.37-.427 1.45 1.45 0 0 1-.13-.626c0-.24.044-.45.132-.631a.996.996 0 0 1 .372-.421 1.07 1.07 0 0 1 .578-.152c.228 0 .423.051.584.154a.977.977 0 0 1 .37.426c.086.18.129.388.129.624 0 .239-.043.45-.13.632a.982.982 0 0 1-.372.423 1.07 1.07 0 0 1-.581.152Zm0-.298c.254 0 .443-.084.567-.252.124-.169.186-.388.186-.657 0-.277-.063-.497-.188-.66-.124-.164-.313-.246-.565-.246a.72.72 0 0 0-.423.117.687.687 0 0 0-.248.319 1.27 1.27 0 0 0-.08.47c0 .275.063.495.19.662.127.165.314.247.56.247Zm2.928.235V148.8l-.574.345v-.349l.574-.343h.315v3.046h-.316Z"/>
  <circle cx="68.367" cy="150.36" r="2.443" fill="#E0F4FD"/>
  <path fill="#001A66" d="M75.147 151.499v-3.046h1.176a1.212 1.212 0 0 1 .214.017.83.83 0 0 1 .655.493c.058.131.087.276.087.435 0 .158-.029.303-.087.434a.841.841 0 0 1-.253.328.846.846 0 0 1-.402.165 1.48 1.48 0 0 1-.115.013c-.036.002-.07.004-.1.004h-.864v1.157h-.311Zm.31-1.453h.858a1.042 1.042 0 0 0 .188-.019.527.527 0 0 0 .256-.129.587.587 0 0 0 .15-.227.747.747 0 0 0 0-.545.586.586 0 0 0-.15-.229.527.527 0 0 0-.256-.129.651.651 0 0 0-.1-.013c-.034-.002-.063-.004-.089-.004h-.856v1.295Zm2.243 1.453v-2.285h.28v.55l-.056-.072a.806.806 0 0 1 .1-.186.622.622 0 0 1 .133-.141.594.594 0 0 1 .207-.119.873.873 0 0 1 .24-.049.71.71 0 0 1 .22.017v.292a.764.764 0 0 0-.273-.015.524.524 0 0 0-.273.119.561.561 0 0 0-.172.214.9.9 0 0 0-.076.262 1.994 1.994 0 0 0-.019.273v1.14h-.31Zm2.438.063c-.228 0-.422-.051-.582-.154a1.003 1.003 0 0 1-.37-.427 1.45 1.45 0 0 1-.13-.626c0-.24.044-.45.132-.631a.996.996 0 0 1 .372-.421 1.07 1.07 0 0 1 .578-.152c.228 0 .422.051.583.154a.977.977 0 0 1 .37.426c.087.18.13.388.13.624 0 .239-.044.45-.13.632a.982.982 0 0 1-.372.423 1.07 1.07 0 0 1-.581.152Zm0-.298c.253 0 .442-.084.566-.252.125-.169.187-.388.187-.657 0-.277-.063-.497-.189-.66-.124-.164-.312-.246-.564-.246a.72.72 0 0 0-.424.117.687.687 0 0 0-.247.319 1.27 1.27 0 0 0-.08.47c0 .275.063.495.19.662.127.165.314.247.56.247Zm2.436.298a.925.925 0 0 1-.546-.158 1.028 1.028 0 0 1-.347-.434 1.507 1.507 0 0 1-.12-.615c0-.227.039-.432.118-.614.08-.182.195-.326.345-.431a.904.904 0 0 1 .537-.159.91.91 0 0 1 .541.156.965.965 0 0 1 .332.43c.077.18.115.386.115.618 0 .227-.038.432-.112.615a.995.995 0 0 1-.33.434.879.879 0 0 1-.533.158Zm.031-.289c.162 0 .296-.04.402-.119a.703.703 0 0 0 .237-.326c.052-.139.078-.297.078-.473 0-.18-.026-.337-.078-.474a.697.697 0 0 0-.237-.324.649.649 0 0 0-.395-.116.66.66 0 0 0-.406.12.718.718 0 0 0-.24.328c-.05.138-.076.294-.076.466 0 .173.026.33.079.469a.732.732 0 0 0 .239.328.64.64 0 0 0 .397.121Zm.717.226v-1.72h-.033v-1.326h.313v3.046h-.28Zm1.747.057a.947.947 0 0 1-.36-.063.807.807 0 0 1-.431-.417 1.238 1.238 0 0 1-.096-.294 1.67 1.67 0 0 1-.03-.311v-1.257h.314v1.166c0 .125.012.242.036.349a.849.849 0 0 0 .114.281.553.553 0 0 0 .205.184.658.658 0 0 0 .307.066c.11 0 .207-.019.29-.057a.566.566 0 0 0 .211-.163.745.745 0 0 0 .131-.26c.03-.103.045-.219.045-.347l.22.049c0 .234-.04.43-.123.59a.846.846 0 0 1-.338.361.982.982 0 0 1-.495.123Zm.768-.057v-.563h-.032v-1.722h.31v2.285h-.278Zm1.818.063c-.23 0-.425-.051-.584-.154a.987.987 0 0 1-.364-.425 1.56 1.56 0 0 1-.127-.626c.003-.24.047-.45.131-.631a.967.967 0 0 1 .366-.423c.16-.101.353-.152.58-.152.231 0 .432.056.603.169a.85.85 0 0 1 .353.463l-.304.098a.645.645 0 0 0-.256-.318.708.708 0 0 0-.398-.114.703.703 0 0 0-.417.117.674.674 0 0 0-.245.319 1.317 1.317 0 0 0-.083.472c.003.273.067.493.19.66.125.165.31.247.555.247a.707.707 0 0 0 .395-.106.658.658 0 0 0 .25-.313l.313.093a.992.992 0 0 1-.372.466 1.053 1.053 0 0 1-.586.158Zm2.639-.063a1.543 1.543 0 0 1-.381.032.85.85 0 0 1-.334-.081.48.48 0 0 1-.222-.224.656.656 0 0 1-.068-.256 9.402 9.402 0 0 1-.004-.298v-2.092h.309v2.079c0 .096 0 .176.002.241a.39.39 0 0 0 .044.17.32.32 0 0 0 .241.169c.112.018.25.014.413-.013v.273Zm-1.498-2.018v-.267h1.498v.267h-1.498Zm2.82 2.081c-.228 0-.422-.051-.582-.154a1.005 1.005 0 0 1-.37-.427 1.45 1.45 0 0 1-.13-.626c0-.24.044-.45.131-.631a.996.996 0 0 1 .373-.421 1.07 1.07 0 0 1 .577-.152c.229 0 .423.051.584.154a.977.977 0 0 1 .37.426c.086.18.13.388.13.624 0 .239-.044.45-.13.632a.982.982 0 0 1-.372.423 1.07 1.07 0 0 1-.582.152Zm0-.298c.253 0 .442-.084.566-.252.124-.169.186-.388.186-.657 0-.277-.062-.497-.188-.66-.124-.164-.312-.246-.565-.246a.72.72 0 0 0-.423.117.687.687 0 0 0-.247.319 1.27 1.27 0 0 0-.08.47c0 .275.063.495.19.662.127.165.313.247.56.247Zm2.311.233.002-.284 1.378-1.243a.876.876 0 0 0 .234-.305.802.802 0 0 0 .06-.305.66.66 0 0 0-.328-.581.633.633 0 0 0-.337-.091.653.653 0 0 0-.347.093.696.696 0 0 0-.24.245.644.644 0 0 0-.085.332h-.318c0-.185.044-.35.132-.497a.934.934 0 0 1 .355-.345c.15-.084.319-.127.508-.127a.95.95 0 0 1 .497.132.938.938 0 0 1 .349.351c.086.146.129.31.129.49 0 .127-.016.239-.047.337a.83.83 0 0 1-.141.268 1.863 1.863 0 0 1-.244.254l-1.222 1.105-.049-.127h1.703v.298h-1.989Z"/>
  <circle cx="112.158" cy="150.36" r="2.443" fill="#EDEAFD"/>
  <path fill="#001A66" d="M118.938 151.499v-3.046h1.176a1.186 1.186 0 0 1 .214.017.832.832 0 0 1 .404.167.801.801 0 0 1 .251.326c.058.131.087.276.087.435 0 .158-.029.303-.087.434a.834.834 0 0 1-.253.328.846.846 0 0 1-.402.165c-.038.006-.077.01-.115.013-.036.002-.069.004-.099.004h-.865v1.157h-.311Zm.311-1.453h.856a1.036 1.036 0 0 0 .189-.019.532.532 0 0 0 .256-.129.601.601 0 0 0 .15-.227.743.743 0 0 0 0-.545.532.532 0 0 0-.406-.358.667.667 0 0 0-.1-.013c-.034-.002-.063-.004-.089-.004h-.856v1.295Zm2.242 1.453v-2.285h.279v.55l-.055-.072a.832.832 0 0 1 .1-.186.623.623 0 0 1 .133-.141.59.59 0 0 1 .207-.119.877.877 0 0 1 .239-.049.706.706 0 0 1 .22.017v.292a.76.76 0 0 0-.272-.015.523.523 0 0 0-.273.119.554.554 0 0 0-.172.214.912.912 0 0 0-.076.262 1.948 1.948 0 0 0-.019.273v1.14h-.311Zm2.437.063c-.227 0-.42-.051-.581-.154a1.002 1.002 0 0 1-.37-.427 1.45 1.45 0 0 1-.13-.626c0-.24.044-.45.132-.631a.99.99 0 0 1 .949-.573c.229 0 .424.051.584.154a.976.976 0 0 1 .371.426c.086.18.129.388.129.624 0 .239-.043.45-.129.632a.991.991 0 0 1-.373.423 1.07 1.07 0 0 1-.582.152Zm0-.298c.254 0 .443-.084.567-.252.125-.169.187-.388.187-.657 0-.277-.063-.497-.189-.66-.124-.164-.312-.246-.565-.246a.723.723 0 0 0-.423.117.686.686 0 0 0-.247.319 1.26 1.26 0 0 0-.081.47c0 .275.064.495.191.662.127.165.314.247.56.247Zm2.437.298a.926.926 0 0 1-.546-.158 1.025 1.025 0 0 1-.347-.434 1.497 1.497 0 0 1-.121-.615c0-.227.04-.432.119-.614.08-.182.195-.326.345-.431a.902.902 0 0 1 .537-.159.91.91 0 0 1 .541.156.966.966 0 0 1 .333.43c.076.18.114.386.114.618 0 .227-.038.432-.112.615a.998.998 0 0 1-.33.434.88.88 0 0 1-.533.158Zm.031-.289c.162 0 .296-.04.402-.119a.7.7 0 0 0 .237-.326c.052-.139.078-.297.078-.473 0-.18-.026-.337-.078-.474a.694.694 0 0 0-.237-.324.647.647 0 0 0-.395-.116.664.664 0 0 0-.407.12.725.725 0 0 0-.239.328c-.05.138-.076.294-.076.466 0 .173.026.33.079.469a.727.727 0 0 0 .239.328c.105.08.238.121.397.121Zm.717.226v-1.72h-.033v-1.326h.313v3.046h-.28Zm1.747.057a.949.949 0 0 1-.36-.063.813.813 0 0 1-.431-.417 1.235 1.235 0 0 1-.096-.294 1.731 1.731 0 0 1-.029-.311v-1.257h.313v1.166c0 .125.012.242.036.349a.855.855 0 0 0 .114.281.557.557 0 0 0 .205.184.66.66 0 0 0 .307.066c.11 0 .207-.019.29-.057a.566.566 0 0 0 .211-.163.75.75 0 0 0 .132-.26c.029-.103.044-.219.044-.347l.22.049c0 .234-.041.43-.123.59a.845.845 0 0 1-.338.361.983.983 0 0 1-.495.123Zm.768-.057v-.563h-.032v-1.722h.311v2.285h-.279Zm1.818.063c-.23 0-.425-.051-.584-.154a.988.988 0 0 1-.364-.425 1.56 1.56 0 0 1-.127-.626c.003-.24.047-.45.131-.631a.972.972 0 0 1 .366-.423c.16-.101.353-.152.58-.152.231 0 .432.056.603.169a.85.85 0 0 1 .353.463l-.304.098a.648.648 0 0 0-.256-.318.71.71 0 0 0-.398-.114.703.703 0 0 0-.417.117.67.67 0 0 0-.245.319 1.32 1.32 0 0 0-.083.472c.003.273.067.493.191.66.124.165.309.247.554.247a.71.71 0 0 0 .396-.106.655.655 0 0 0 .249-.313l.313.093a.991.991 0 0 1-.372.466 1.055 1.055 0 0 1-.586.158Zm2.639-.063a1.55 1.55 0 0 1-.381.032.847.847 0 0 1-.334-.081.473.473 0 0 1-.222-.224.651.651 0 0 1-.068-.256 8.88 8.88 0 0 1-.004-.298v-2.092h.309v2.079c0 .096 0 .176.002.241.002.064.017.12.044.17a.32.32 0 0 0 .241.169c.112.018.249.014.413-.013v.273Zm-1.498-2.018v-.267h1.498v.267h-1.498Zm2.819 2.081c-.227 0-.421-.051-.581-.154a1.004 1.004 0 0 1-.371-.427 1.45 1.45 0 0 1-.129-.626c0-.24.044-.45.131-.631a1 1 0 0 1 .373-.421c.162-.101.354-.152.577-.152.229 0 .423.051.584.154a.974.974 0 0 1 .37.426c.086.18.129.388.129.624 0 .239-.043.45-.129.632a.983.983 0 0 1-.372.423 1.07 1.07 0 0 1-.582.152Zm0-.298c.254 0 .443-.084.567-.252.124-.169.186-.388.186-.657 0-.277-.062-.497-.188-.66-.124-.164-.312-.246-.565-.246a.723.723 0 0 0-.423.117.686.686 0 0 0-.247.319 1.26 1.26 0 0 0-.081.47c0 .275.064.495.191.662.127.165.313.247.56.247Zm3.216.296c-.151 0-.29-.026-.417-.08a.958.958 0 0 1-.328-.228.922.922 0 0 1-.201-.358l.296-.089a.646.646 0 0 0 .25.343.678.678 0 0 0 .395.112.705.705 0 0 0 .35-.091.578.578 0 0 0 .226-.241.783.783 0 0 0 .078-.358.69.69 0 0 0-.182-.499.623.623 0 0 0-.476-.19.67.67 0 0 0-.173.023.753.753 0 0 0-.169.061l-.157-.247 1.185-1.094.05.127h-1.552v-.298h1.76v.302l-1.033.986-.004-.123a1.02 1.02 0 0 1 .559.072c.16.075.286.189.376.343.092.152.138.331.138.537 0 .195-.043.367-.127.517a.91.91 0 0 1-.345.349.996.996 0 0 1-.499.124Z"/>
  <circle cx="155.951" cy="150.36" r="2.443" fill="#EFF0CD"/>
  <path fill="#001A66" d="M162.731 151.499v-3.046h1.176a1.186 1.186 0 0 1 .214.017.832.832 0 0 1 .404.167.801.801 0 0 1 .251.326c.058.131.087.276.087.435 0 .158-.029.303-.087.434a.828.828 0 0 1-.655.493c-.039.006-.077.01-.115.013-.036.002-.069.004-.099.004h-.865v1.157h-.311Zm.311-1.453h.856a1.036 1.036 0 0 0 .189-.019.532.532 0 0 0 .256-.129.601.601 0 0 0 .15-.227.743.743 0 0 0 0-.545.532.532 0 0 0-.406-.358.667.667 0 0 0-.1-.013c-.034-.002-.063-.004-.089-.004h-.856v1.295Zm2.242 1.453v-2.285h.279v.55l-.055-.072a.832.832 0 0 1 .1-.186.623.623 0 0 1 .133-.141.59.59 0 0 1 .207-.119.877.877 0 0 1 .239-.049.706.706 0 0 1 .22.017v.292a.76.76 0 0 0-.272-.015.523.523 0 0 0-.273.119.554.554 0 0 0-.172.214.912.912 0 0 0-.076.262 1.948 1.948 0 0 0-.019.273v1.14h-.311Zm2.437.063c-.227 0-.421-.051-.581-.154a1.002 1.002 0 0 1-.37-.427 1.436 1.436 0 0 1-.13-.626c0-.24.044-.45.132-.631a.99.99 0 0 1 .949-.573c.229 0 .424.051.584.154a.974.974 0 0 1 .37.426c.087.18.13.388.13.624 0 .239-.043.45-.13.632a.983.983 0 0 1-.372.423 1.07 1.07 0 0 1-.582.152Zm0-.298c.254 0 .443-.084.567-.252.124-.169.187-.388.187-.657 0-.277-.063-.497-.189-.66-.124-.164-.312-.246-.565-.246a.723.723 0 0 0-.423.117.686.686 0 0 0-.247.319 1.26 1.26 0 0 0-.081.47c0 .275.064.495.191.662.127.165.314.247.56.247Zm2.437.298a.926.926 0 0 1-.546-.158 1.025 1.025 0 0 1-.347-.434 1.497 1.497 0 0 1-.121-.615c0-.227.04-.432.119-.614.08-.182.195-.326.345-.431a.902.902 0 0 1 .537-.159.91.91 0 0 1 .541.156.966.966 0 0 1 .333.43c.076.18.114.386.114.618 0 .227-.038.432-.112.615a.998.998 0 0 1-.33.434.88.88 0 0 1-.533.158Zm.031-.289c.162 0 .296-.04.402-.119a.7.7 0 0 0 .237-.326c.052-.139.078-.297.078-.473 0-.18-.026-.337-.078-.474a.694.694 0 0 0-.237-.324.647.647 0 0 0-.395-.116.664.664 0 0 0-.407.12.725.725 0 0 0-.239.328c-.05.138-.076.294-.076.466 0 .173.026.33.079.469a.727.727 0 0 0 .239.328c.105.08.238.121.397.121Zm.717.226v-1.72h-.033v-1.326h.313v3.046h-.28Zm1.747.057a.949.949 0 0 1-.36-.063.813.813 0 0 1-.431-.417 1.235 1.235 0 0 1-.096-.294 1.731 1.731 0 0 1-.029-.311v-1.257h.313v1.166c0 .125.012.242.036.349a.855.855 0 0 0 .114.281.557.557 0 0 0 .205.184.66.66 0 0 0 .307.066c.11 0 .207-.019.29-.057a.566.566 0 0 0 .211-.163.75.75 0 0 0 .132-.26c.029-.103.044-.219.044-.347l.22.049c0 .234-.041.43-.123.59a.845.845 0 0 1-.338.361.983.983 0 0 1-.495.123Zm.768-.057v-.563h-.032v-1.722h.311v2.285h-.279Zm1.818.063c-.23 0-.425-.051-.584-.154a.988.988 0 0 1-.364-.425 1.56 1.56 0 0 1-.127-.626c.003-.24.047-.45.131-.631a.972.972 0 0 1 .366-.423c.16-.101.353-.152.58-.152.231 0 .432.056.603.169a.85.85 0 0 1 .353.463l-.304.098a.648.648 0 0 0-.256-.318.71.71 0 0 0-.398-.114.703.703 0 0 0-.417.117.67.67 0 0 0-.245.319 1.32 1.32 0 0 0-.083.472c.003.273.067.493.191.66.124.165.309.247.554.247a.704.704 0 0 0 .395-.106.656.656 0 0 0 .25-.313l.313.093a.991.991 0 0 1-.372.466 1.055 1.055 0 0 1-.586.158Zm2.639-.063a1.55 1.55 0 0 1-.381.032.847.847 0 0 1-.334-.081.473.473 0 0 1-.222-.224.651.651 0 0 1-.068-.256 8.88 8.88 0 0 1-.004-.298v-2.092h.309v2.079c0 .096 0 .176.002.241.002.064.017.12.044.17a.32.32 0 0 0 .241.169c.112.018.249.014.413-.013v.273Zm-1.498-2.018v-.267h1.498v.267h-1.498Zm2.819 2.081c-.227 0-.421-.051-.581-.154a1.004 1.004 0 0 1-.371-.427 1.45 1.45 0 0 1-.129-.626c0-.24.044-.45.131-.631a1 1 0 0 1 .373-.421c.162-.101.354-.152.577-.152.229 0 .423.051.584.154a.974.974 0 0 1 .37.426c.086.18.129.388.129.624 0 .239-.043.45-.129.632a.983.983 0 0 1-.372.423 1.07 1.07 0 0 1-.582.152Zm0-.298c.254 0 .443-.084.567-.252.124-.169.186-.388.186-.657 0-.277-.062-.497-.188-.66-.124-.164-.312-.246-.565-.246a.723.723 0 0 0-.423.117.686.686 0 0 0-.247.319 1.26 1.26 0 0 0-.081.47c0 .275.064.495.191.662.127.165.313.247.56.247Zm3.738.235v-.59h-1.426v-.296l1.02-2.16h.349l-1.02 2.16h1.077v-.889h.313v.889h.332v.296h-.332v.59h-.313Z"/>
  <defs>
    <clipPath id="b">
      <rect width="11.511" height="11.592" x="84.571" y="20.943" fill="#fff" rx="5.289" transform="rotate(90 84.571 20.943)"/>
    </clipPath>
    <filter id="a" width="108.177" height="54.69" x="91.486" y="47.831" color-interpolation-filters="sRGB" filterUnits="userSpaceOnUse">
      <feFlood flood-opacity="0" result="BackgroundImageFix"/>
      <feColorMatrix in="SourceAlpha" result="hardAlpha" values="0 0 0 0 0 0 0 0 0 0 0 0 0 0 0 0 0 0 127 0"/>
      <feOffset dy="1.969"/>
      <feGaussianBlur stdDeviation="4.431"/>
      <feColorMatrix values="0 0 0 0 0 0 0 0 0 0 0 0 0 0 0 0 0 0 0.1 0"/>
      <feBlend in2="BackgroundImageFix" result="effect1_dropShadow_1355_20259"/>
      <feBlend in="SourceGraphic" in2="effect1_dropShadow_1355_20259" result="shape"/>
    </filter>
  </defs>
</svg>
