<svg xmlns="http://www.w3.org/2000/svg" width="36" height="36" fill="none" viewBox="0 0 36 36">
  <path fill="#6F4EF6" d="M30.23 32.172a1.386 1.386 0 0 0 1.387-1.387V4.715a1.387 1.387 0 0 0-1.387-1.387h-3.328a1.387 1.387 0 0 0-1.386 1.387v26.07a1.386 1.386 0 0 0 1.386 1.387h3.328Zm-3.605-1.387V4.715a.277.277 0 0 1 .277-.277h3.328a.277.277 0 0 1 .278.277v26.07a.277.277 0 0 1-.277.277h-3.329a.277.277 0 0 1-.277-.277Zm-3.605 1.387a1.387 1.387 0 0 0 1.386-1.387V10.262a1.386 1.386 0 0 0-1.386-1.387h-3.33a1.387 1.387 0 0 0-1.386 1.387v20.523a1.387 1.387 0 0 0 1.386 1.387h3.329Zm-3.606-1.387V10.262a.277.277 0 0 1 .277-.278h3.329a.277.277 0 0 1 .277.278v20.523a.277.277 0 0 1-.277.277h-3.33a.277.277 0 0 1-.277-.277Zm-3.605-16.363H12.48a1.387 1.387 0 0 0-1.386 1.387v14.976a1.387 1.387 0 0 0 1.386 1.387h3.329a1.387 1.387 0 0 0 1.386-1.387V15.81a1.387 1.387 0 0 0-1.386-1.387Zm.277 16.363a.277.277 0 0 1-.277.277H12.48a.277.277 0 0 1-.277-.277V15.81a.277.277 0 0 1 .277-.278h3.329a.278.278 0 0 1 .277.278v14.976Zm-6.102 0v-9.43a1.387 1.387 0 0 0-1.386-1.386H5.27a1.386 1.386 0 0 0-1.387 1.386v9.43a1.387 1.387 0 0 0 1.387 1.387h3.328a1.387 1.387 0 0 0 1.386-1.387Zm-4.992 0v-9.43a.277.277 0 0 1 .278-.277h3.328a.277.277 0 0 1 .277.277v9.43a.277.277 0 0 1-.277.277H5.27a.277.277 0 0 1-.278-.277Z"/>
</svg>
