<svg xmlns="http://www.w3.org/2000/svg" width="35" height="35" fill="none" viewBox="0 0 35 35">
  <g clip-path="url(#a)">
    <path fill="#6F4EF6" d="M22.117 22.587c5.35 0 9.704-4.353 9.704-9.704 0-5.35-4.353-9.704-9.704-9.704-5.35 0-9.704 4.353-9.704 9.704 0 5.35 4.354 9.704 9.704 9.704Zm0-18.041c4.597 0 8.337 3.74 8.337 8.337 0 4.597-3.74 8.337-8.337 8.337-4.597 0-8.337-3.74-8.337-8.337 0-4.597 3.74-8.337 8.337-8.337Z"/>
    <path fill="#6F4EF6" d="M22.016 25.969c7.16 0 12.984-5.825 12.984-12.985C35 5.824 29.175 0 22.016 0 14.856 0 9.03 5.825 9.03 12.984c0 2.718.84 5.242 2.273 7.33L9.18 22.436l-.29-.29a.684.684 0 0 0-.966 0L1.02 29.052A3.463 3.463 0 0 0 0 31.515c0 .93.363 1.806 1.02 2.464A3.462 3.462 0 0 0 3.486 35c.93 0 1.806-.363 2.464-1.02l6.903-6.903a.684.684 0 0 0 0-.968l-.29-.289 2.125-2.124a12.91 12.91 0 0 0 7.329 2.273Zm0-24.602c6.406 0 11.617 5.212 11.617 11.617 0 6.406-5.212 11.617-11.617 11.617-6.406 0-11.617-5.211-11.617-11.617 0-6.405 5.211-11.617 11.617-11.617ZM4.983 33.013c-.4.4-.932.62-1.498.62s-1.097-.22-1.497-.62a2.12 2.12 0 0 1 0-2.996l6.419-6.42.29.29 2.705 2.706-6.42 6.42Zm6.613-8.16-1.45-1.45 1.997-1.996c.444.52.93 1.006 1.45 1.45l-1.997 1.996Z"/>
    <path fill="#6F4EF6" d="M19.777 11.086a.684.684 0 0 0 .684-.684 1.66 1.66 0 0 1 1.848-1.646 1.656 1.656 0 0 1 .615 3.094c-.919.514-1.49 1.464-1.49 2.48v.976a.684.684 0 1 0 1.367 0v-.976c0-.521.303-1.014.79-1.287a3.028 3.028 0 0 0 1.531-2.982 3.033 3.033 0 0 0-2.663-2.664 3.039 3.039 0 0 0-2.358.752 3.028 3.028 0 0 0-1.007 2.253c0 .378.306.684.683.684Zm2.34 6.201a.689.689 0 0 0-.483.2.687.687 0 0 0 .483 1.167.686.686 0 0 0 .684-.683.688.688 0 0 0-.684-.684Z"/>
  </g>
  <defs>
    <clipPath id="a">
      <path fill="#fff" d="M0 0h35v35H0z"/>
    </clipPath>
  </defs>
</svg>
