<svg xmlns="http://www.w3.org/2000/svg" width="56" height="55" fill="none" viewBox="0 0 56 55">
  <g clip-path="url(#a)">
    <path fill="#6F4EF6" d="M31.652 55h-7.304a2.151 2.151 0 0 1-2.149-2.148v-3.208a22.696 22.696 0 0 1-5.754-2.386l-2.27 2.27a2.15 2.15 0 0 1-3.038 0l-5.165-5.165a2.15 2.15 0 0 1 0-3.038l2.27-2.27A22.694 22.694 0 0 1 5.856 33.3H2.648A2.151 2.151 0 0 1 .5 31.152v-7.304c0-1.185.964-2.149 2.148-2.149h3.2a22.693 22.693 0 0 1 2.384-5.764l-2.26-2.26a2.15 2.15 0 0 1 0-3.038l5.165-5.165a2.151 2.151 0 0 1 3.039 0l2.252 2.252a22.695 22.695 0 0 1 5.771-2.396v-3.18A2.152 2.152 0 0 1 24.348 0h7.304c1.185 0 2.149.964 2.149 2.148v3.173a22.66 22.66 0 0 1 5.78 2.393l2.244-2.242a2.15 2.15 0 0 1 3.038 0l5.165 5.165c.838.838.838 2.2 0 3.039l-2.242 2.242a22.706 22.706 0 0 1 2.393 5.781h3.173c1.184 0 2.148.964 2.148 2.149v7.304a2.151 2.151 0 0 1-2.148 2.149h-3.18a22.71 22.71 0 0 1-2.396 5.771l2.252 2.253a2.15 2.15 0 0 1 0 3.038l-5.165 5.165c-.838.838-2.2.838-3.039 0l-2.26-2.26a22.708 22.708 0 0 1-5.763 2.384v3.2A2.151 2.151 0 0 1 31.652 55ZM16.284 44.826c.2 0 .4.055.578.169a20.57 20.57 0 0 0 6.644 2.755c.492.109.842.545.842 1.049v4.053h7.304v-4.047c0-.505.351-.941.844-1.05a20.582 20.582 0 0 0 6.653-2.75c.425-.27.98-.21 1.337.146l2.858 2.858 5.165-5.165-2.852-2.852a1.074 1.074 0 0 1-.145-1.338 20.584 20.584 0 0 0 2.766-6.66 1.074 1.074 0 0 1 1.048-.842h4.026v-7.304h-4.02c-.504 0-.94-.351-1.049-.844a20.568 20.568 0 0 0-2.761-6.67 1.075 1.075 0 0 1 .146-1.337l2.84-2.84-5.164-5.166-2.841 2.841a1.075 1.075 0 0 1-1.338.146 20.58 20.58 0 0 0-6.67-2.761 1.074 1.074 0 0 1-.843-1.049v-4.02h-7.304v4.026c0 .504-.35.94-.842 1.049a20.58 20.58 0 0 0-6.66 2.765 1.074 1.074 0 0 1-1.338-.145L12.656 6.99l-5.165 5.165 2.858 2.858c.356.356.417.912.146 1.337a20.583 20.583 0 0 0-2.75 6.653 1.074 1.074 0 0 1-1.05.844H2.648v7.304h4.053c.504 0 .94.35 1.05.842.522 2.365 1.45 4.6 2.754 6.644.271.425.211.981-.146 1.338l-2.868 2.868 5.165 5.165 2.868-2.868c.208-.208.483-.315.76-.315Z"/>
    <path fill="#6F4EF6" d="M28 43.176a15.638 15.638 0 0 1-11.09-4.586c-6.115-6.115-6.115-16.065 0-22.18a15.54 15.54 0 0 1 9.044-4.46c3.34-.438 6.79.225 9.712 1.864a1.074 1.074 0 1 1-1.05 1.873c-5.26-2.95-11.917-2.028-16.187 2.242-5.277 5.277-5.277 13.864 0 19.142A13.497 13.497 0 0 0 28 41.029a13.49 13.49 0 0 0 9.571-3.958 13.52 13.52 0 0 0 2.542-15.62 1.074 1.074 0 1 1 1.922-.96A15.664 15.664 0 0 1 39.09 38.59 15.637 15.637 0 0 1 28 43.176Z"/>
    <path fill="#6F4EF6" d="M38.565 18.479a1.08 1.08 0 0 1-.76-.316 1.08 1.08 0 0 1 0-1.518c.2-.2.477-.315.76-.315.282 0 .56.115.76.315.2.2.314.477.314.76 0 .282-.115.559-.314.758a1.08 1.08 0 0 1-.76.316ZM26.484 35.413c-.285 0-.558-.113-.76-.315l-6.793-6.793c-.42-.42-.42-1.1 0-1.52l3.853-3.853a1.074 1.074 0 0 1 1.52 0l2.18 2.181 5.213-5.212c.419-.42 1.1-.42 1.519 0l3.853 3.853c.42.42.42 1.1 0 1.519l-9.825 9.825a1.076 1.076 0 0 1-.76.315Zm-5.274-7.868 5.274 5.274 8.306-8.306-2.334-2.333-5.212 5.212a1.075 1.075 0 0 1-1.52 0l-2.18-2.18-2.334 2.333Z"/>
  </g>
  <defs>
    <clipPath id="a">
      <path fill="#fff" d="M0 0h55v55H0z" transform="translate(.5)"/>
    </clipPath>
  </defs>
</svg>
