<svg xmlns="http://www.w3.org/2000/svg" width="56" height="55" fill="none" viewBox="0 0 56 55">
  <path fill="#6F4EF6" d="M9.953 2.578v18.906a.86.86 0 0 0 .86.86h21.484a.86.86 0 0 0 .86-.86V2.578a.86.86 0 0 0-.86-.86H10.813a.86.86 0 0 0-.86.86Zm1.719.86h19.765v17.187H11.672V3.437Z"/>
  <path fill="#6F4EF6" d="M18.547 14.61a2.582 2.582 0 0 0-2.43 1.718H13.39v1.719h2.726a2.577 2.577 0 0 0 4.86 0h8.742v-1.719h-8.742a2.583 2.583 0 0 0-2.43-1.719Zm0 3.437a.86.86 0 1 1 0-1.718.86.86 0 0 1 0 1.718Zm1.313-4.399a.86.86 0 0 0 .882-.042l5.157-3.438a.86.86 0 0 0 0-1.43l-5.157-3.437a.86.86 0 0 0-1.336.715v6.875a.86.86 0 0 0 .454.757Zm1.265-6.027 2.748 1.832-2.748 1.832V7.62Zm31.797 30.192h-.86a.86.86 0 0 0-.859-.86h-1.719a.86.86 0 0 0-.859.86h-.328l-1.481-2.963a.86.86 0 0 0-.77-.475h-5.155a.86.86 0 0 0-.769.475l-1.481 2.962h-.328a.86.86 0 0 0-.86-.859h-1.719a.86.86 0 0 0-.859.86h-.86a.859.859 0 0 0-.859.859v12.031a.86.86 0 0 0 .86.86h18.906a.859.859 0 0 0 .86-.86V38.672a.86.86 0 0 0-.86-.86Zm-11.5-1.72h4.094l.86 1.72h-5.814l.86-1.72Zm10.64 13.75H34.876V39.532h17.188v10.313Z"/>
  <path fill="#6F4EF6" d="m39.424 34.123 1.215-1.215-3.438-3.437a.86.86 0 0 0-.607-.252h-5.66l7.986-7.986-1.215-1.215-9.202 9.201h-.65a2.59 2.59 0 0 0-1.572-1.57v-3.586h-1.718v3.585a2.579 2.579 0 0 0-1.467 3.541l-2.4 2.4-4.12-4.118a.859.859 0 0 0-1.376.223l-5.094 10.188-5.057 5.057a.855.855 0 0 0-.207.337H4.84l-.86 2.577a.86.86 0 0 0 .208.88l2.578 2.578a.859.859 0 0 0 .88.208l2.578-.86a.855.855 0 0 0 .336-.207l.252-.252 2.83 2.83a.86.86 0 0 0 .607.252h1.719a.86.86 0 0 0 .607-.252l1.72-1.719a.859.859 0 0 0 0-1.215l-3.69-3.69 1.012-1.012L25.806 40.3a.86.86 0 0 0 .224-1.376l-4.12-4.12 2.401-2.4a2.576 2.576 0 0 0 3.541-1.466h8.386l3.186 3.186Zm-28.611 7.483 3.081 3.082-3.94 3.94-3.082-3.08 3.94-3.942ZM7.607 49.72 5.78 47.893l.252-.755 2.33 2.33-.755.252Zm8.865.983-.86.86h-1.006l-2.578-2.578 1.363-1.363 3.081 3.081Zm-1.193-7.06-3.42-3.422 4.345-8.692 7.767 7.767-8.692 4.346Zm10.143-12.705a.86.86 0 1 1 0-1.719.86.86 0 0 1 0 1.719Zm20.625-.86V28.36h.86a.86.86 0 0 0 .859-.859v-7.734h2.578a.859.859 0 0 0 .86-.86V13.75a.86.86 0 0 0-.86-.86h-1.007c.097-.275.147-.566.147-.859V7.734a4.297 4.297 0 1 0-8.593 0v4.297c0 .293.05.584.147.86h-1.007a.86.86 0 0 0-.86.859v5.156a.859.859 0 0 0 .86.86h2.578V27.5a.86.86 0 0 0 .86.86h.86v1.718h1.718Zm-3.438-18.047V7.734a2.578 2.578 0 1 1 5.157 0v4.297a.86.86 0 0 1-.86.86H43.47a.86.86 0 0 1-.86-.86Zm-1.718 2.578h8.593v3.438h-8.593v-3.438Zm5.156 5.157v6.875h-1.719v-6.875h1.719Zm-2.578 29.218a4.297 4.297 0 1 0 0-8.593 4.297 4.297 0 0 0 0 8.593Zm0-6.875a2.578 2.578 0 1 1 0 5.156 2.578 2.578 0 0 1 0-5.156Zm-5.156 6.875a.86.86 0 1 0 0-1.718.86.86 0 0 0 0 1.718Zm12.031-8.594h-1.719v1.72h1.719v-1.72Z"/>
</svg>
