<svg xmlns="http://www.w3.org/2000/svg" width="56" height="55" fill="none" viewBox="0 0 56 55">
  <g clip-path="url(#a)">
    <path fill="#6F4EF6" d="M35.587 14.295a2.689 2.689 0 0 0 2.685-2.685 2.689 2.689 0 0 0-2.685-2.686A2.689 2.689 0 0 0 32.9 11.61c0 .604.201 1.163.54 1.612l-4.413 6.166a2.677 2.677 0 0 0-2.664.587l-2.941-1.669a2.682 2.682 0 0 0-2.625-3.25 2.689 2.689 0 0 0-2.626 3.25l-2.94 1.67a2.675 2.675 0 0 0-1.829-.721 2.689 2.689 0 0 0-2.685 2.685 2.689 2.689 0 0 0 2.685 2.686 2.689 2.689 0 0 0 2.626-3.25l2.94-1.67a2.675 2.675 0 0 0 3.657 0l2.94 1.67a2.683 2.683 0 0 0 2.626 3.25 2.689 2.689 0 0 0 2.686-2.686 2.67 2.67 0 0 0-.54-1.613l4.412-6.166c.264.087.544.134.837.134Zm0-3.76a1.075 1.075 0 0 1 0 2.149 1.075 1.075 0 0 1 0-2.149Zm-22.184 12.48a1.075 1.075 0 0 1 0-2.15 1.075 1.075 0 0 1 0 2.15Zm7.394-4.2a1.075 1.075 0 0 1 0-2.148 1.075 1.075 0 0 1 0 2.149Zm7.395 4.2a1.075 1.075 0 0 1 0-2.15 1.075 1.075 0 0 1 0 2.15Z"/>
    <path fill="#6F4EF6" d="M45.488 40.495H2.779a.668.668 0 0 1-.668-.667V6.589c0-.368.3-.667.668-.667h3.798a.806.806 0 1 0 0-1.611H2.779A2.282 2.282 0 0 0 .5 6.59v33.238a2.281 2.281 0 0 0 2.279 2.279h5.555v1.773c0 1.01.822 1.832 1.832 1.832h8.064l-3.796 7.412a.806.806 0 1 0 1.434.734l4.173-8.146h8.907l4.173 8.146a.805.805 0 1 0 1.434-.734l-3.796-7.412h8.065c1.01 0 1.831-.822 1.831-1.832v-1.773h4.833a.806.806 0 1 0 0-1.611Zm-6.444 3.385a.22.22 0 0 1-.22.22H10.166a.22.22 0 0 1-.22-.22v-1.773h29.098v1.773ZM9.8 5.921h36.41c.368 0 .668.3.668.668v7.66a.806.806 0 0 0 1.611 0V6.59a2.282 2.282 0 0 0-2.279-2.28H28.966V2.727a2.024 2.024 0 0 0-2.021-2.02h-4.9a2.024 2.024 0 0 0-2.022 2.02V4.31H9.8a.806.806 0 1 0 0 1.611Zm11.834-3.195a.41.41 0 0 1 .41-.41h4.9a.41.41 0 0 1 .41.41V4.31h-5.72V2.726Z"/>
    <path fill="#6F4EF6" d="M11.769 28.744a.806.806 0 0 0-.806.806v7.119c0 .445.36.806.806.806h3.268a.806.806 0 0 0 .806-.806v-7.12a.806.806 0 0 0-.806-.805H11.77Zm2.463 7.12h-1.657v-5.508h1.657v5.507Zm4.931-11.237a.806.806 0 0 0-.805.806v11.236c0 .445.36.806.805.806h3.269c.445 0 .805-.36.805-.806V25.433a.806.806 0 0 0-.805-.806h-3.269Zm2.463 11.236H19.97v-9.625h1.657v9.625Zm4.932-7.119a.806.806 0 0 0-.806.806v7.119c0 .445.36.806.806.806h3.268a.806.806 0 0 0 .806-.806v-7.12a.806.806 0 0 0-.806-.805h-3.268Zm2.462 7.12h-1.657v-5.508h1.657v5.507Zm4.932-2.366a.806.806 0 0 0-.805.806v2.365c0 .445.36.806.805.806h3.269a.806.806 0 1 0 0-1.612h-2.463v-1.56a.806.806 0 0 0-.806-.805Zm21.138 7.754-4.623-8.006a10.478 10.478 0 0 0 2.48-4.473 10.461 10.461 0 0 0-1.053-7.99c-2.903-5.03-9.356-6.758-14.384-3.855-5.029 2.903-6.758 9.356-3.855 14.385a10.462 10.462 0 0 0 6.394 4.906 10.442 10.442 0 0 0 5.114.09l4.622 8.006a3.063 3.063 0 0 0 5.304-3.063Zm-14.624-6.59a8.86 8.86 0 0 1-5.415-4.155c-2.46-4.259-.995-9.724 3.264-12.183A8.925 8.925 0 0 1 50.5 21.589a8.86 8.86 0 0 1 .89 6.767 8.86 8.86 0 0 1-4.155 5.416 8.86 8.86 0 0 1-6.768.89Zm12.697 9.378c-.694.4-1.583.162-1.983-.531l-4.446-7.703a10.704 10.704 0 0 0 2.512-1.452l4.448 7.703c.127.222.195.472.195.725 0 .517-.279 1-.726 1.258Z"/>
    <path fill="#6F4EF6" d="M50.08 28.319a7.624 7.624 0 0 0-.382-5.523.806.806 0 1 0-1.457.686 6.017 6.017 0 0 1 .3 4.36 6.019 6.019 0 0 1-2.747 3.436 5.998 5.998 0 0 1-4.582.603 5.998 5.998 0 0 1-3.666-2.813 6.045 6.045 0 0 1 2.21-8.248 6.03 6.03 0 0 1 6.666.414.805.805 0 1 0 .972-1.285 7.638 7.638 0 0 0-8.444-.524 7.599 7.599 0 0 0-3.564 4.644 7.6 7.6 0 0 0 .764 5.805 7.6 7.6 0 0 0 4.645 3.564 7.603 7.603 0 0 0 5.804-.764 7.624 7.624 0 0 0 3.48-4.355Z"/>
  </g>
  <defs>
    <clipPath id="a">
      <path fill="#fff" d="M0 0h55v55H0z" transform="translate(.5)"/>
    </clipPath>
  </defs>
</svg>
