<svg width="71" height="71" viewBox="0 0 71 71" fill="none" xmlns="http://www.w3.org/2000/svg">
<g clip-path="url(#clip0_1153_16703)">
<path d="M49.6464 39.4395C49.0475 41.9664 47.7782 44.2389 46.0352 46.0639L60.1315 60.1112L65.2623 55.0047L49.6464 39.4482V39.4395Z" fill="#6F4EF6"/>
<path d="M44.6934 1.86888L37.6855 0L31.786 21.9528L26.4496 2.13211L19.4416 4.00099L25.1982 25.4186L10.8605 11.1256L5.7297 16.2321L21.4618 31.9114L1.87712 26.682L0 33.6662L21.4082 39.3782C21.1668 38.3253 21.0327 37.2285 21.0327 36.0966C21.0327 28.1122 27.5222 21.6457 35.5402 21.6457C43.5582 21.6457 50.0477 28.121 50.0477 36.0966C50.0477 37.2197 49.9226 38.3077 49.6812 39.3518L69.1318 44.5461L71.0089 37.5619L49.5203 31.8237L69.1139 26.5943L67.2368 19.6101L45.7482 25.3484L60.0859 11.0554L54.9551 5.94884L39.4464 21.4088L44.6934 1.86888Z" fill="#6F4EF6"/>
<path d="M45.9005 46.2129C44.1395 48.0028 41.9138 49.3452 39.4199 50.0296L44.5507 69.1045L51.5587 67.2356L45.9094 46.2129H45.9005Z" fill="#6F4EF6"/>
<path d="M39.1507 50.1005C37.9887 50.3988 36.782 50.5567 35.5306 50.5567C34.1898 50.5567 32.8936 50.3725 31.6601 50.0391L26.5293 69.1315L33.5372 71.0004L39.1597 50.1005H39.1507Z" fill="#6F4EF6"/>
<path d="M31.4202 49.969C28.9621 49.2495 26.7811 47.8895 25.0559 46.0908L10.9238 60.1733L16.0546 65.2798L31.4202 49.969Z" fill="#6F4EF6"/>
<path d="M24.9295 45.9674C23.2312 44.1599 21.9976 41.9137 21.4077 39.4219L1.89453 44.6337L3.77166 51.6179L24.9295 45.9674Z" fill="#6F4EF6"/>
</g>
<defs>
<clipPath id="clip0_1153_16703">
<rect width="71" height="71" fill="white"/>
</clipPath>
</defs>
</svg>
