<svg xmlns="http://www.w3.org/2000/svg" width="26" height="26" fill="none" viewBox="0 0 26 26">
  <g clip-path="url(#a)">
    <path fill="#6F4EF6" d="M26 13a13 13 0 1 0-13 13h.135A12.878 12.878 0 0 0 26 13.135V13Zm-2.167 0c0 .964-.13 1.924-.389 2.852a.542.542 0 0 1-.737.354 3.774 3.774 0 0 1-1.644-1.374l-2.403-3.605a2.709 2.709 0 0 0-2.253-1.206h-.469a2.98 2.98 0 1 1 0-5.958h3.003c.112 0 .222.034.313.1A10.826 10.826 0 0 1 23.834 13ZM2.361 11.001a.542.542 0 0 1 .532-.433H7.59a3.767 3.767 0 0 1 2.681 1.11l1.211 1.214a3.791 3.791 0 0 1 .152 5.2l-1.472 1.656a2.708 2.708 0 0 0-.684 1.8v.897a.542.542 0 0 1-.758.496A10.833 10.833 0 0 1 2.167 13c0-.67.066-1.34.194-1.999Z"/>
  </g>
  <defs>
    <clipPath id="a">
      <path fill="#fff" d="M0 0h26v26H0z"/>
    </clipPath>
  </defs>
</svg>
