<svg xmlns="http://www.w3.org/2000/svg" width="29" height="27" fill="none" viewBox="0 0 29 27">
  <path fill="#6F4EF6" d="M24.076 2.832H4.249A4.248 4.248 0 0 0 0 7.081v7.08a4.248 4.248 0 0 0 4.249 4.25h19.827a4.248 4.248 0 0 0 4.249-4.25v-7.08a4.248 4.248 0 0 0-4.25-4.249Z" opacity=".35"/>
  <path fill="#6F4EF6" d="M14.162 14.87a2.124 2.124 0 1 0 0-4.248 2.124 2.124 0 0 0 0 4.249Z"/>
  <path fill="#6F4EF6" d="M24.076 18.41H4.249A4.248 4.248 0 0 1 0 14.163v8.498a4.248 4.248 0 0 0 4.249 4.248h19.827a4.248 4.248 0 0 0 4.249-4.248v-8.498a4.248 4.248 0 0 1-4.25 4.249ZM15.579 0h-2.833a2.832 2.832 0 0 0-2.832 2.832h8.497A2.832 2.832 0 0 0 15.578 0Z"/>
</svg>
