<svg xmlns="http://www.w3.org/2000/svg" width="166" height="25" fill="none" viewBox="0 0 166 25">
  <g clip-path="url(#a)">
    <path fill="#001A66" d="M45.414 19.577c-1.687.017-3.307-.123-4.87-.632-3.166-1.034-4.837-3.271-4.956-6.604-.04-1.135.057-2.253.408-3.332.714-2.192 2.282-3.568 4.463-4.222 3.245-.968 6.53-.984 9.775-.017 3.052.906 4.746 3.16 4.91 6.29.068 1.287 0 2.55-.43 3.78-.833 2.344-2.622 3.608-4.956 4.25-1.433.398-2.905.515-4.344.498m1.87-11.413a12.19 12.19 0 0 0-3.58-.056c-.159.023-.317.045-.476.073-1.376.246-2.203 1.09-2.356 2.455a11.119 11.119 0 0 0 0 2.377c.148 1.37.918 2.192 2.277 2.471 1.495.308 3.002.302 4.497 0 1.127-.23 1.88-.895 2.163-2.013a6.51 6.51 0 0 0-.04-3.394 2.542 2.542 0 0 0-1.874-1.79 11.787 11.787 0 0 0-.612-.117m-12.72-3.238c-.198 1.13-.396 2.23-.594 3.338a.599.599 0 0 1-.697.48c-.436-.077-.86-.156-1.285-.161-.878-.011-1.773-.006-2.628.145-1.53.274-2.486 1.337-2.566 2.869-.09 1.605-.062 3.215-.073 4.814-.006.727 0 1.449 0 2.192 0 .24-.198.442-.448.442H22.03a.444.444 0 0 1-.447-.436c0-1.795.011-8.522.034-8.707.323-2.544 2.64-5.603 6.031-5.603h4.378c.334 0 .674.012 1.014.034.368.028.736.061 1.127.095a.432.432 0 0 1 .39.503m131.159 9.803a.338.338 0 0 0-.504-.28c-.283.157-.612.33-.753.397-1.116.532-2.299.828-3.585.744-1.218-.084-1.665-.497-1.671-1.694l-.011-2.035V.245a.256.256 0 0 0-.295-.246l-4.479.738a.253.253 0 0 0-.21.246v3.568h-2.99a.25.25 0 0 0-.249.246V8.13c0 .135.107.246.249.246.736 0 1.999.012 2.99 0v3.982c0 .715 0 1.431.006 2.147.011 2.041 1.342 3.875 3.319 4.473 2.707.822 5.351.38 7.945-.536.125-.045.25-.291.25-.448.011-.721.016-1.437.011-2.158 0-.24-.017-.721-.034-1.096"/>
    <path fill="#FF010B" d="M165.745 5.68c0 1.231-1.009 2.226-2.254 2.226a2.234 2.234 0 0 1-2.249-2.225c0-1.23 1.008-2.22 2.249-2.22 1.24 0 2.254.995 2.254 2.22Z"/>
    <path fill="#001A66" d="M149.134 17.76h.006v1.08a.238.238 0 0 1-.238.234h-4.718a.238.238 0 0 1-.238-.235v-1.023c0-2.097.012-4.194-.005-6.29v-.37a4.66 4.66 0 0 0-.221-1.387 3.127 3.127 0 0 0-.663-.956c-.023-.022-.045-.045-.068-.061a3.142 3.142 0 0 0-2.163-.85h-1.422c-.804 0-1.546.302-2.107.794a3.143 3.143 0 0 0-.9 1.364c-.091.358-.13.738-.136 1.096v.179c-.017 1.549-.017 3.092-.017 4.636v2.874a.238.238 0 0 1-.238.235h-4.717a.237.237 0 0 1-.238-.235v-4.971c0-.744 0-1.488.005-2.232v-.933c0-.274.006-.548.046-.822a6.703 6.703 0 0 1 3.126-4.815h.006a6.807 6.807 0 0 1 3.602-1.023h1.914c.119 0 .226.005.34.011.113 0 .226-.006.339-.011h1.943a6.77 6.77 0 0 1 3.709 1.09 6.73 6.73 0 0 1 2.758 3.562c.199.615.278 1.258.284 1.901 0 .437 0 .878.011 1.314v1.964c0 1.298 0 2.595-.006 3.892m-20.784-7.237c-.38-2.846-1.864-4.887-4.684-5.765-3.353-1.035-6.745-.984-10.064.173-2.407.844-3.902 2.556-4.378 5.06a9.734 9.734 0 0 0 .097 4.161c.419 1.717 1.359 3.064 2.899 3.987 1.275.766 2.679 1.14 4.152 1.292 3.035.324 6.031.067 8.987-.643.119-.028.227-.062.34-.09l.051-.017 1.269-.397.056-.016.306-.101a.56.56 0 0 0 .363-.733l-.827-2.264a.577.577 0 0 0-.674-.358l-.855.196a30.9 30.9 0 0 1-1.422.296c-2.061.352-4.145.576-6.235.324-.776-.095-1.546-.33-2.265-.626-.72-.308-1.071-.973-1.246-1.784h13.807c.266 0 .47-.218.459-.475-.029-.766-.04-1.499-.131-2.22m-4.955-.403h-9.237c.091-.738.391-1.353.997-1.71a5.52 5.52 0 0 1 1.716-.683 9.98 9.98 0 0 1 4.304.078c1.11.269 1.914.884 2.214 2.03.017.056.023.118.029.179 0 .028-.012.056-.029.112m-16.923-8.181v16.73a.37.37 0 0 1-.373.37h-4.474a.371.371 0 0 1-.374-.37V6.146l-6.303 9.853-.346.543a.37.37 0 0 1-.311.167h-4.52a.37.37 0 0 1-.311-.167l-.346-.537-6.303-9.853v12.537c0 .207-.17.369-.374.369h-4.468a.371.371 0 0 1-.374-.37V1.958c0-.207.17-.37.374-.37h7.549c.13 0 .25.068.317.174l6.196 9.685 6.196-9.685a.377.377 0 0 1 .317-.173h7.549c.21 0 .374.168.374.369M75.674 4.82l-.368.693c-.227.464-.38.76-.657 1.331-2.328 4.725-4.667 9.445-6.995 14.17-.623 1.258-1.404 2.387-2.797 2.896-.629.23-1.337.403-1.994.375-1.529-.067-3.058-.246-4.581-.397l-.334-.034s-.272-.005-.335-.089c-.045-.056-.028-.235-.028-.235l.55-2.69a.223.223 0 0 1 .215-.173h.577c1.144-.017 2.288.017 3.427-.056.696-.045 1.206-.335 1.5-.788a.076.076 0 0 0 0-.084l-.345-.649-7.17-13.594-.034-.072-.311-.57a.227.227 0 0 1 .203-.33l1.32.022h2.492c.136 0 .47-.006.759-.006a.8.8 0 0 1 .425.123.764.764 0 0 1 .288.336l.029.056 4.304 9.573a.082.082 0 0 0 .147 0c.51-1.174.986-2.276 1.461-3.372.912-2.114 1.83-4.222 2.741-6.336.091-.218.182-.374.482-.374 1.212.011 2.424.011 3.63.011h1.235c.141 0 .226.145.164.268m-56.792 5.408c-.368-2.51-1.592-4.45-4.055-5.407-1.461-.565-2.95-.822-4.44-.76h-.063c-2.497.089-4.389.408-5.827.85C.782 6.056.18 7.862.079 8.79l-.073.676H0V23c0 .167.142.307.317.307h4.56c.175 0 .316-.14.316-.307v-4.44c.085.033.136.09.159.1 2.86 1.18 5.793 1.214 8.733.414 2.418-.665 3.981-2.26 4.61-4.675.35-1.375.39-2.768.187-4.166m-5.228 3.014c-.243 1.376-.832 2.036-2.231 2.265-1.926.308-3.851.28-5.754-.263-.396-.112-.515-.302-.498-.699.034-.794.005-1.593.005-2.388 0-.794.023-1.593-.005-2.387-.012-.358.124-.598.373-.817.674-.598 1.49-.86 2.362-.99 1.184-.173 2.367-.2 3.545.029 1.173.229 1.88.928 2.135 2.074.227 1.052.25 2.12.063 3.176"/>
  </g>
  <defs>
    <clipPath id="a">
      <path fill="#fff" d="M0 0h165.75v24.291H0z"/>
    </clipPath>
  </defs>
</svg>
