<svg xmlns="http://www.w3.org/2000/svg" width="328" height="247" fill="none" viewBox="0 0 328 247">
  <rect width="7.369" height="46.111" x="98.338" y="107.471" fill="#E0F4FD" rx="3.684"/>
  <rect width="7.369" height="88.582" x="118.008" y="65" fill="#E0F4FD" rx="3.684"/>
  <rect width="7.369" height="40.044" x="137.676" y="113.539" fill="#F2F1FF" rx="3.684"/>
  <rect width="7.369" height="86.155" x="78.67" y="67.426" fill="#6F4EF6" rx="3.684"/>
  <path stroke="#A286FA" stroke-width=".5" d="m6.5 111.5 10.96-27.932c1.646-4.192 7.56-4.243 9.277-.08l11.424 27.702c1.575 3.821 6.843 4.189 8.935.624L64 83"/>
  <rect width="8" height="43" x="39" y="111" fill="#E0F4FD" rx="4"/>
  <rect width="7.369" height="46.111" y="107.471" fill="#DBF9EF" rx="3.684"/>
  <rect width="7.369" height="88.582" x="19.668" y="65" fill="#6F4EF6" rx="3.684"/>
  <rect width="7.369" height="75.234" x="59.004" y="78.35" fill="#6F4EF6" rx="3.684"/>
  <circle cx="274" cy="122" r="53.5" stroke="#A286FA"/>
  <circle cx="268" cy="123" r="43.5" stroke="#A286FA"/>
  <circle cx="246" cy="120" r="43.5" stroke="#8ADBFD"/>
  <path fill="#4A3AFF" stroke="#A286FA" stroke-width=".5" d="M208.557 87.736a21.942 21.942 0 0 0-17.124-23.9h84.772a21.437 21.437 0 0 1 20.897 15.024 21.443 21.443 0 0 1 .84 8.876h-89.385Z"/>
  <path fill="#fff" stroke="#A286FA" stroke-width=".5" d="M208.557 87.736a21.942 21.942 0 0 0-17.124-23.9h84.772a21.437 21.437 0 0 1 20.897 15.024 21.443 21.443 0 0 1 .84 8.876h-89.385Z" opacity=".6"/>
  <path fill="#4A3AFF" stroke="#A286FA" stroke-width=".5" d="M186.328 63.836h85.167a27.837 27.837 0 0 0-22.365 24.12v.005l-7.783 77.936v.002a27.319 27.319 0 0 1-26.574 24.162h-41.107a21.374 21.374 0 0 1-16.386-7.067 21.37 21.37 0 0 1-5.31-17.036h.001v-.008l7.768-77.936v-.002a27.349 27.349 0 0 1 26.589-24.176Z"/>
  <path fill="#fff" stroke="#A286FA" stroke-width=".5" d="M186.328 63.836h85.167a27.837 27.837 0 0 0-22.365 24.12v.005l-7.783 77.936v.002a27.319 27.319 0 0 1-26.574 24.162h-41.107a21.374 21.374 0 0 1-16.386-7.067 21.37 21.37 0 0 1-5.31-17.036h.001v-.008l7.768-77.936v-.002a27.349 27.349 0 0 1 26.589-24.176Z" opacity=".72"/>
  <path fill="#4A3AFF" stroke="#A286FA" stroke-width=".5" d="M192.543 166.177a21.873 21.873 0 0 0 17.045 23.885h-84.706a21.358 21.358 0 0 1-16.386-7.067 21.36 21.36 0 0 1-5.337-16.818h89.384Z"/>
  <path fill="#fff" stroke="#A286FA" stroke-width=".5" d="M192.543 166.177a21.873 21.873 0 0 0 17.045 23.885h-84.706a21.358 21.358 0 0 1-16.386-7.067 21.36 21.36 0 0 1-5.337-16.818h89.384Z" opacity=".6"/>
  <path fill="#fff" stroke="#A286FA" stroke-width=".5" d="m233.969 113.222-.002.014v.201a1.923 1.923 0 0 1-1.857 1.683h-60.815a1.479 1.479 0 0 1-1.094-.493 1.476 1.476 0 0 1-.359-1.145l.002-.014v-.202a1.912 1.912 0 0 1 1.843-1.682h60.805a1.455 1.455 0 0 1 1.11.484 1.457 1.457 0 0 1 .367 1.154Zm-1.268 12.581-.001.014v.201a1.924 1.924 0 0 1-1.858 1.683h-60.829a1.452 1.452 0 0 1-1.439-1.635l.002-.016v-.203a1.93 1.93 0 0 1 1.858-1.682h60.79c.209-.003.416.038.608.122l.099-.229-.099.229a1.464 1.464 0 0 1 .869 1.516Zm-63.929 14.479h-.002a1.455 1.455 0 0 1-1.393-1.015 1.44 1.44 0 0 1-.057-.608l.002-.015v-.216a1.923 1.923 0 0 1 1.857-1.682h60.82a1.449 1.449 0 0 1 1.409 1.02c.062.199.08.409.053.615l-.002.016v.216a1.924 1.924 0 0 1-1.857 1.669h-60.83Zm61.392 10.682-.002.016v.216a1.916 1.916 0 0 1-.615 1.175l.168.185-.168-.185a1.905 1.905 0 0 1-1.242.493h-46.763a1.448 1.448 0 0 1-1.07-.492 1.448 1.448 0 0 1-.341-1.128l.002-.016v-.217a1.91 1.91 0 0 1 1.857-1.668h46.713a1.436 1.436 0 0 1 1.461 1.621Zm6.327-62.921-.001.015v.215a1.93 1.93 0 0 1-1.858 1.683h-60.829a1.47 1.47 0 0 1-1.396-1.027 1.468 1.468 0 0 1-.057-.61l.002-.016v-.213a1.922 1.922 0 0 1 1.857-1.669h60.819a1.45 1.45 0 0 1 1.463 1.623Zm-63.94 14.494h-.008a1.47 1.47 0 0 1-1.502-1.637l.001-.015v-.201a1.929 1.929 0 0 1 1.858-1.682h60.903a1.465 1.465 0 0 1 1.465 1.637l-.001.015v.202a1.912 1.912 0 0 1-1.844 1.681h-60.872Z"/>
  <path fill="#FFE3D3" stroke="#A286FA" stroke-width=".5" d="m111.281 83.462 5.754 3.45a384.811 384.811 0 0 0-4.544 8.213c-1.517 2.83-2.992 5.675-4.301 8.528l-.001.003-.19.43c-.507.048-1.017.073-1.527.074h-.002c-.2.002-.399-.021-.593-.068l-.024-.006-.028-.007h-.082v.455l-.009.038a.03.03 0 0 1 .009.002v.005h.021c.18.048.346.139.484.264l.005.005a2.1 2.1 0 0 1 .671 1.106c.041.211.042.427.004.639l-.01.021v.12h.41l.07.03.013-.03h.007v-.017l.092-.214.002-.005.21-.525.618-1.419c.074-.009.147-.017.22-.027h.001c2.623-.329 5.443-.926 8.22-1.513l.914-.193 1.137 2.931a46.123 46.123 0 0 1-9.218 3.881 17.33 17.33 0 0 1-2.762.576h-.001a9.24 9.24 0 0 1-1.728.054 6.218 6.218 0 0 1-1.156-.209 4.154 4.154 0 0 1-1.595-.85 3.88 3.88 0 0 1-1.266-2.158 4.523 4.523 0 0 1 .035-1.875l.085-.334.048-.163.011-.035v-.073l.087-.277.001-.003.204-.618.001-.003a35.8 35.8 0 0 1 .602-1.721c.088-.238.176-.478.263-.722 1.24-3.184 2.634-6.227 4.129-9.21a130.943 130.943 0 0 1 4.709-8.55Z"/>
  <path fill="#27266A" stroke="#A286FA" stroke-width=".5" d="m135.985 65.659.001-.004a.657.657 0 0 1 .172-.32c.065-.059.116-.065.151-.057.027.007.065.029.092.11a.64.64 0 0 1-.009.362.739.739 0 0 1-.181.332c-.065.061-.112.065-.143.058-.025-.006-.063-.026-.09-.111a.686.686 0 0 1 .007-.37Z"/>
  <path fill="#E8AD8C" stroke="#A286FA" stroke-width=".5" d="m135.128 69.692.553-2.174c.165.775.394 1.534.686 2.272a1.947 1.947 0 0 1-1.239-.099Z"/>
  <mask id="a" fill="#fff">
    <path d="M134.904 63.184a.21.21 0 0 1-.112-.124.231.231 0 0 1-.017-.087.251.251 0 0 1 .018-.086.236.236 0 0 1 .123-.12 2.261 2.261 0 0 1 2.057.162c.048.036.08.089.089.148.01.06-.004.12-.039.169a.224.224 0 0 1-.311.05 1.793 1.793 0 0 0-1.628-.106.227.227 0 0 1-.18-.006Z"/>
  </mask>
  <path fill="#27266A" d="M134.904 63.184a.21.21 0 0 1-.112-.124.231.231 0 0 1-.017-.087.251.251 0 0 1 .018-.086.236.236 0 0 1 .123-.12 2.261 2.261 0 0 1 2.057.162c.048.036.08.089.089.148.01.06-.004.12-.039.169a.224.224 0 0 1-.311.05 1.793 1.793 0 0 0-1.628-.106.227.227 0 0 1-.18-.006Z"/>
  <path fill="#A286FA" d="m134.792 63.06.472-.167-.004-.011-.005-.011-.463.188Zm.124-.293.186.464.007-.002-.193-.462Zm2.057.162.3-.4-.018-.014-.02-.012-.262.426Zm.05.317.403.295.005-.006-.408-.29Zm-1.939-.056.186.464.012-.005-.198-.46Zm.034-.458a.282.282 0 0 1 .089.066l-.743.669c.063.07.14.127.225.168l.429-.903Zm.089.066c.025.028.044.06.057.095l-.944.332c.032.09.08.172.144.242l.743-.669Zm.048.073a.26.26 0 0 1 .02.106l-1-.008c0 .096.018.19.054.279l.926-.377Zm.02.106a.259.259 0 0 1-.022.106l-.92-.392a.736.736 0 0 0-.058.278l1 .008Zm-.022.106a.272.272 0 0 1-.061.09l-.699-.716a.739.739 0 0 0-.16.234l.92.392Zm-.061.09a.281.281 0 0 1-.09.058l-.371-.928a.718.718 0 0 0-.238.154l.699.715Zm-.083.056a1.76 1.76 0 0 1 .816-.13l.078-.998a2.76 2.76 0 0 0-1.279.205l.385.923Zm.816-.13c.279.021.548.109.786.255l.524-.851a2.76 2.76 0 0 0-1.232-.402l-.078.997Zm.748.23a.272.272 0 0 1-.105-.174l.988-.155a.729.729 0 0 0-.283-.471l-.6.8Zm-.105-.174a.273.273 0 0 1 .047-.198l.816.578a.727.727 0 0 0 .125-.535l-.988.155Zm.052-.205a.275.275 0 0 1 .179-.11l.158.988a.721.721 0 0 0 .469-.287l-.806-.59Zm.179-.11a.275.275 0 0 1 .204.049l-.582.813a.725.725 0 0 0 .536.126l-.158-.987Zm.169.026a2.298 2.298 0 0 0-1.025-.318l-.065.998c.205.013.403.075.579.18l.511-.86Zm-1.025-.318a2.296 2.296 0 0 0-1.057.182l.396.919c.188-.081.392-.116.596-.103l.065-.998Zm-1.045.177a.277.277 0 0 1 .112-.02l-.034 1c.1.004.2-.014.294-.051l-.372-.929Zm.112-.02a.284.284 0 0 1 .111.028l-.434.9c.09.044.189.069.289.072l.034-1Z" mask="url(#a)"/>
  <path fill="#FFE3D3" stroke="#A286FA" stroke-width=".5" d="M123.994 70.5c.123-.863.255-1.697.442-2.467l5.102 3.977c-.57 1.303-1.024 2.686-.88 3.881.077.636.323 1.222.809 1.71.468.47 1.143.833 2.062 1.073a3.22 3.22 0 0 1 .282.446c.163.313.29.697.234 1.062-.052.343-.275.723-.933 1.027-.671.309-1.775.53-3.541.53-3.189 0-4.799-.871-5.613-1.695a3.258 3.258 0 0 1-.742-1.128 2.36 2.36 0 0 1-.106-.362c1.44-1.224 2.05-3.083 2.421-5.023.151-.79.264-1.604.375-2.403l.088-.628Zm-2.904 7.933Z"/>
  <path fill="#4A3AFF" stroke="#A286FA" stroke-width=".5" d="M133.012 79.085a.09.09 0 0 1-.004.017l-12.297-.116a5.732 5.732 0 0 1-.281-.403 1.31 1.31 0 0 1-.186-.411c-.019-.1-.001-.156.039-.202.052-.058.175-.137.446-.193h.002c.301-.064.964-.132 1.846-.188.876-.056 1.949-.1 3.059-.12 2.23-.04 4.572.02 5.755.265 1.172.243 1.505.672 1.598.954a.79.79 0 0 1 .023.397Z"/>
  <mask id="b" fill="#fff">
    <path d="M99.936 239.985a1.53 1.53 0 0 0 1.187-.062.46.46 0 0 0 .111-.522.517.517 0 0 0-.292-.336c-.621-.304-2.119.298-2.18.323a.126.126 0 0 0-.075.1.111.111 0 0 0 .068.105c.379.172.774.304 1.18.392Zm.776-.758.131.043a.303.303 0 0 1 .174.193c.062.205 0 .267-.037.286-.261.217-1.212 0-1.865-.249a3.652 3.652 0 0 1 1.597-.273Z"/>
  </mask>
  <path fill="#4A3AFF" d="M99.936 239.985a1.53 1.53 0 0 0 1.187-.062.46.46 0 0 0 .111-.522.517.517 0 0 0-.292-.336c-.621-.304-2.119.298-2.18.323a.126.126 0 0 0-.075.1.111.111 0 0 0 .068.105c.379.172.774.304 1.18.392Zm.776-.758.131.043a.303.303 0 0 1 .174.193c.062.205 0 .267-.037.286-.261.217-1.212 0-1.865-.249a3.652 3.652 0 0 1 1.597-.273Z"/>
  <path fill="#A286FA" d="m101.123 239.923.216.45.067-.031.054-.05-.337-.369Zm.111-.522-.481.136.009.032.014.03.458-.198Zm-.292-.336-.22.449.01.005.009.004.201-.458Zm-2.18.323-.187-.464-.01.005.196.459Zm-.075.1-.497-.06-.003.024v.024l.5.012Zm.068.105.207-.455-.013-.005-.194.46Zm2.088-.323.188-.463-.015-.006-.015-.005-.158.474Zm.174.193-.48.14.001.005.479-.145Zm-.037.286-.224-.447-.052.026-.044.037.32.384Zm-1.865-.249-.191-.462-1.161.482 1.174.447.178-.467Zm.652.956c.255.091.525.13.795.116l-.053-.998a1.037 1.037 0 0 1-.405-.06l-.337.942Zm.795.116a2.02 2.02 0 0 0 .777-.199l-.433-.901a1.05 1.05 0 0 1-.397.102l.053.998Zm.898-.28a.964.964 0 0 0 .291-.508l-.978-.209a.04.04 0 0 1 .012-.021l.675.738Zm.291-.508a.954.954 0 0 0-.058-.582l-.917.397a.033.033 0 0 1-.003-.024l.978.209Zm-.035-.519a1.025 1.025 0 0 0-.213-.393l-.754.657c.002.002.004.005.004.008l.963-.272Zm-.213-.393a1.006 1.006 0 0 0-.359-.264l-.403.915a.016.016 0 0 1 .008.006l.754-.657Zm-.341-.256c-.271-.133-.586-.147-.845-.131a4.404 4.404 0 0 0-.797.133 7.784 7.784 0 0 0-.945.306l.372.929c.025-.011.39-.157.817-.265.214-.054.429-.094.615-.105.199-.012.304.012.343.031l.44-.898Zm-2.597.313a.62.62 0 0 0-.254.199l.8.6a.373.373 0 0 1-.154.12l-.392-.919Zm-.254.199a.627.627 0 0 0-.12.3l.992.12a.377.377 0 0 1-.073.18l-.8-.6Zm-.124.348a.613.613 0 0 0 .098.347l.84-.543a.385.385 0 0 1 .061.219l-1-.023Zm.098.347a.612.612 0 0 0 .276.231l.388-.921a.38.38 0 0 1 .175.147l-.84.543Zm.263.226c.411.186.84.329 1.281.424l.213-.977a5.404 5.404 0 0 1-1.08-.358l-.414.911Zm2.006-.348.131.044.316-.949-.13-.044-.317.949Zm.101.032a.2.2 0 0 1-.074-.051l.742-.67a.787.787 0 0 0-.292-.205l-.376.926Zm-.074-.051a.22.22 0 0 1-.044-.079l.96-.28a.791.791 0 0 0-.174-.311l-.742.67Zm-.043-.074c.017.053-.007.015.017-.07a.393.393 0 0 1 .201-.236l.447.894a.61.61 0 0 0 .313-.383.872.872 0 0 0-.021-.495l-.957.29Zm.122-.243c.065-.055.096-.033-.013-.028a1.884 1.884 0 0 1-.371-.031 5.452 5.452 0 0 1-.983-.273l-.356.934c.351.134.785.261 1.176.326.194.032.396.052.58.043.163-.007.411-.04.607-.203l-.64-.768Zm-1.353.597a3.158 3.158 0 0 1 1.378-.236l.054-.999a4.165 4.165 0 0 0-1.815.311l.383.924Z" mask="url(#b)"/>
  <mask id="c" fill="#fff">
    <path d="M98.78 239.6h.056c.534-.156 1.69-.976 1.702-1.517a.372.372 0 0 0-.285-.366.615.615 0 0 0-.504.043c-.621.323-1.038 1.641-1.056 1.697a.103.103 0 0 0-.016.056c0 .019.005.039.016.056a.069.069 0 0 0 .087.031Zm1.348-1.684h.05c.137.043.137.111.137.142 0 .324-.77.964-1.33 1.243a2.74 2.74 0 0 1 .87-1.342.389.389 0 0 1 .273-.043Z"/>
  </mask>
  <path fill="#4A3AFF" d="M98.78 239.6h.056c.534-.156 1.69-.976 1.702-1.517a.372.372 0 0 0-.285-.366.615.615 0 0 0-.504.043c-.621.323-1.038 1.641-1.056 1.697a.103.103 0 0 0-.016.056c0 .019.005.039.016.056a.069.069 0 0 0 .087.031Zm1.348-1.684h.05c.137.043.137.111.137.142 0 .324-.77.964-1.33 1.243a2.74 2.74 0 0 1 .87-1.342.389.389 0 0 1 .273-.043Z"/>
  <path fill="#A286FA" d="M98.836 239.6v.5h.07l.07-.02-.14-.48Zm1.702-1.517.5.012v-.006l-.5-.006Zm-.285-.366-.164.472.023.008.024.006.117-.486Zm-.504.043.231.444.011-.006-.242-.438Zm-1.056 1.697.424.264.031-.05.02-.056-.475-.158Zm-.016.056h-.5.5Zm.016.056.442-.234-.009-.016-.009-.015-.424.265Zm.087.031v-.5h-.101l-.093.039.194.461Zm1.398-1.684.152-.477-.074-.023h-.078v.5Zm-1.193 1.385-.48-.137-.313 1.093 1.017-.508-.224-.448Zm.87-1.342-.248-.434-.04.022-.034.029.322.383Zm.273-.043-.101.489.05.011h.051v-.5ZM98.78 240.1h.056v-1h-.056v1Zm.195-.02c.358-.104.84-.393 1.224-.707.198-.161.391-.347.541-.543.139-.183.292-.441.298-.735l-.999-.023c0-.025.003.023-.094.151a2.366 2.366 0 0 1-.379.376c-.33.27-.693.469-.87.52l.28.961Zm2.063-1.991a.862.862 0 0 0-.184-.546l-.789.614a.123.123 0 0 1-.026-.079l.999.011Zm-.184-.546a.878.878 0 0 0-.485-.313l-.233.973a.13.13 0 0 1-.071-.046l.789-.614Zm-.438-.299a1.12 1.12 0 0 0-.463-.057l.086.996a.14.14 0 0 1 .05.006l.327-.945Zm-.463-.057c-.156.013-.308.06-.446.136l.484.875a.133.133 0 0 1 .048-.015l-.086-.996Zm-.434.13c-.251.13-.448.34-.595.538a4.013 4.013 0 0 0-.378.634 6.453 6.453 0 0 0-.301.73l-.019.056a.337.337 0 0 0-.006.018l-.002.006.95.316c.009-.029.108-.343.276-.687a3.03 3.03 0 0 1 .281-.475.854.854 0 0 1 .255-.249l-.461-.887Zm-1.25 1.875a.605.605 0 0 0-.092.321h1a.393.393 0 0 1-.06.208l-.848-.529Zm-.092.321c0 .113.032.224.092.32l.848-.529c.039.062.06.135.06.209h-1Zm.074.289a.57.57 0 0 0 .311.27l.336-.942a.43.43 0 0 1 .237.205l-.884.467Zm.311.27c.134.048.28.044.412-.012l-.388-.921a.433.433 0 0 1 .312-.009l-.336.942Zm1.566-1.656h.05v-1h-.05v1Zm-.102-.024s-.082-.027-.148-.129c-.067-.104-.063-.207-.063-.205h1c0-.028.004-.181-.098-.338a.702.702 0 0 0-.387-.281l-.304.953Zm-.211-.334c0-.088.038-.099-.032-.005a1.908 1.908 0 0 1-.257.271c-.234.209-.53.413-.765.53l.448.895c.324-.163.693-.419.984-.68.146-.132.287-.276.395-.423.093-.125.227-.337.227-.588h-1Zm-.35 1.381c.123-.429.37-.811.712-1.097l-.644-.766a3.236 3.236 0 0 0-1.029 1.588l.962.275Zm.638-1.046a.106.106 0 0 1-.076.012l.202-.979a.89.89 0 0 0-.622.099l.496.868Z" mask="url(#c)"/>
  <mask id="d" fill="#fff">
    <path d="M134.227 242.322c.622 0 1.206-.087 1.405-.36a.425.425 0 0 0 0-.491.568.568 0 0 0-.361-.274c-.795-.217-2.485.734-2.529.777a.105.105 0 0 0-.046.047.105.105 0 0 0-.01.065.101.101 0 0 0 .028.061.104.104 0 0 0 .059.032c.48.091.966.139 1.454.143Zm.758-.926a.796.796 0 0 1 .218 0 .356.356 0 0 1 .224.162c.074.136.049.205 0 .248-.224.305-1.423.311-2.312.187a5.143 5.143 0 0 1 1.87-.597Z"/>
  </mask>
  <path fill="#4A3AFF" d="M134.227 242.322c.622 0 1.206-.087 1.405-.36a.425.425 0 0 0 0-.491.568.568 0 0 0-.361-.274c-.795-.217-2.485.734-2.529.777a.105.105 0 0 0-.046.047.105.105 0 0 0-.01.065.101.101 0 0 0 .028.061.104.104 0 0 0 .059.032c.48.091.966.139 1.454.143Zm.758-.926a.796.796 0 0 1 .218 0 .356.356 0 0 1 .224.162c.074.136.049.205 0 .248-.224.305-1.423.311-2.312.187a5.143 5.143 0 0 1 1.87-.597Z"/>
  <path fill="#A286FA" d="m135.632 241.962.404.294.003-.004-.407-.29Zm0-.491-.438.242.014.025.017.023.407-.29Zm-.361-.274-.132.483.009.002.008.002.115-.487Zm-2.529.777.228.445.07-.036.056-.055-.354-.354Zm-.056.112.497-.051-.001-.017-.003-.016-.493.084Zm.087.093.093-.491-.007-.001-.086.492Zm1.454.143-.004.5h.004v-.5Zm.976-.926.115-.486-.022-.006-.023-.003-.07.495Zm.224.162.439-.24-.007-.011-.007-.012-.425.263Zm0 .248-.33-.376-.041.036-.032.044.403.296Zm-2.312.187-.24-.439-1.324.725 1.495.209.069-.495Zm1.112.829c.329 0 .671-.022.971-.09.275-.062.627-.185.838-.476l-.809-.588c.013-.018-.027.039-.249.089a3.62 3.62 0 0 1-.751.065v1Zm1.812-.57a.926.926 0 0 0 .171-.536h-1c0-.016.005-.032.015-.045l.814.581Zm.171-.536a.928.928 0 0 0-.171-.536l-.814.581a.074.074 0 0 1-.015-.045h1Zm-.141-.487a1.058 1.058 0 0 0-.286-.331l-.605.796a.058.058 0 0 1 .016.019l.875-.484Zm-.286-.331a1.054 1.054 0 0 0-.396-.187l-.231.973a.055.055 0 0 1 .022.01l.605-.796Zm-.38-.183c-.316-.086-.666-.048-.963.017-.31.068-.626.179-.905.293a9.365 9.365 0 0 0-.953.46l-.077.046-.036.023-.025.019a.383.383 0 0 0-.056.048l.708.707a.507.507 0 0 1-.049.042l-.014.011c-.004.002-.005.002 0 0a5.26 5.26 0 0 1 .241-.133 7.86 7.86 0 0 1 .64-.297c.249-.102.507-.191.739-.242.245-.053.405-.052.486-.029l.264-.965Zm-2.889.814a.602.602 0 0 0-.265.268l.894.448a.393.393 0 0 1-.173.174l-.456-.89Zm-.265.268a.602.602 0 0 0-.056.373l.986-.168a.402.402 0 0 1-.036.243l-.894-.448Zm-.06.34a.598.598 0 0 0 .159.351l.731-.682a.387.387 0 0 1 .104.229l-.994.102Zm.159.351c.091.097.21.161.34.184l.171-.985a.386.386 0 0 1 .22.119l-.731.682Zm.332.182a8.594 8.594 0 0 0 1.543.152l.009-1a7.721 7.721 0 0 1-1.366-.134l-.186.982Zm2.375-.779a.34.34 0 0 1 .078 0l.14-.99a1.263 1.263 0 0 0-.358 0l.14.99Zm.033-.008a.134.134 0 0 1-.05-.023l.586-.811a.867.867 0 0 0-.306-.139l-.23.973Zm-.05-.023a.141.141 0 0 1-.037-.04l.851-.525a.876.876 0 0 0-.228-.246l-.586.811Zm-.05-.063c.014.026-.021-.023-.013-.119a.376.376 0 0 1 .122-.248l.659.753a.63.63 0 0 0 .216-.427.799.799 0 0 0-.106-.438l-.878.479Zm.036-.287c.053-.072.086-.049-.055-.012a2.562 2.562 0 0 1-.476.063 7.248 7.248 0 0 1-1.309-.063l-.138.99a8.19 8.19 0 0 0 1.502.072c.236-.013.472-.042.675-.095.175-.046.442-.138.607-.363l-.806-.592Zm-1.669.921a4.636 4.636 0 0 1 1.689-.538l-.117-.993a5.633 5.633 0 0 0-2.052.654l.48.877Z" mask="url(#d)"/>
  <path fill="#4A3AFF" stroke="#A286FA" stroke-width=".5" d="m132.785 242.115-.007.003.007-.003Z"/>
  <path fill="#FFE3D3" stroke="#A286FA" stroke-width=".5" d="m132.531 231.299-.451 10.524h-4.266l.457-10.524h4.26Zm-30.087-2.048-4.468 9.807-4.154-.899 4.461-9.807 4.161.899Z"/>
  <path fill="#27266A" stroke="#A286FA" stroke-width=".5" d="m98.516 239.123.002.001a.891.891 0 0 1 .544.349c.956 1.322 2.423 2.72 5.865 4.3l.001.001c.088.04.15.126.16.274a.894.894 0 0 1-.176.543c-.256.369-.807.698-1.692.507a236.79 236.79 0 0 1-3.687-.845c-1.14-.266-2.205-.515-2.876-.659-1.416-.307-2.303-.459-3.207-.615a78.676 78.676 0 0 1-1.837-.331.443.443 0 0 1-.313-.236.45.45 0 0 1-.011-.391l1.814-3.939.002-.004a.154.154 0 0 1 .177-.087l.007.001 5.227 1.131Zm28.567 2.653h5.2c.36.015.709.127 1.01.326l.007.004c2.477 1.53 4.868 1.957 7.484 2.425.833.149 1.69.302 2.58.496.078.017.139.073.161.208.023.144-.011.353-.13.576-.232.436-.77.878-1.655.878-1.612 0-3.014-.037-4.358-.074l-.163-.005c-1.285-.035-2.525-.07-3.85-.07-1.536 0-3.229.045-4.736.085-.81.021-1.567.041-2.216.052a.448.448 0 0 1-.194-.041.45.45 0 0 1-.242-.3.441.441 0 0 1 0-.198l.001-.002.938-4.231a.16.16 0 0 1 .059-.093.17.17 0 0 1 .104-.036Z"/>
  <path fill="#4A3AFF" stroke="#A286FA" stroke-width=".5" d="m106.15 88.618 7.338 8.196a96.017 96.017 0 0 0 4.644-8.125c1.28-2.721 1.081-5.207.046-6.874-1.032-1.662-2.91-2.542-5.085-2.044l-6.943 8.847Zm0 0 .075-.208a26.043 26.043 0 0 1 1.77-3.8c.611-1.07 1.356-2.162 2.218-3.047.863-.886 1.828-1.55 2.88-1.793l-6.943 8.848Z"/>
  <path fill="#211F54" stroke="#A286FA" stroke-width=".5" d="M116.53 91.691a137.442 137.442 0 0 1-2.497 4.2c-.5-2.198-.506-3.885-.255-5.222.271-1.444.846-2.497 1.451-3.358.282-.335.469-.384.563-.367.1.017.257.135.41.527.293.753.437 2.193.328 4.22Z" opacity=".2"/>
  <path fill="#4A3AFF" stroke="#A286FA" stroke-width=".5" d="m140.621 82.728.001.001c1.127 4.29 2.272 14.671-.853 37.955h-25.018c-.015-.9.07-2.416.184-4.433l.047-.832c.146-2.628.319-5.959.38-9.745.119-7.503-.203-16.797-2.05-25.949a66.07 66.07 0 0 1 8.246-1.023 93.685 93.685 0 0 1 10.798 0c1.619.155 3.229.403 4.82.74h.002a4.486 4.486 0 0 1 3.443 3.286Z"/>
  <path fill="#211F54" stroke="#A286FA" stroke-width=".5" d="M133.123 83.59c.206-1.032.545-1.765.979-2.237.427-.464.958-.69 1.595-.69.647 0 1.414.232 2.289.714.857.472 1.805 1.175 2.825 2.103.688 3.08 1.298 8.606.813 18.203a38.996 38.996 0 0 1-4.834-5.714c-2.417-3.518-4.532-8.05-3.667-12.379Z" opacity=".2"/>
  <path fill="#FFE3D3" stroke="#A286FA" stroke-width=".5" d="M149.699 95.444a88.079 88.079 0 0 1 2.549 3.543l-.13-.033-.629-.162-.198.452 2.039 1.324.345-.347a59.2 59.2 0 0 0-.284-.43c.362.087.727.17 1.093.247 1.049.217 2.136.442 3.222.623l.443.074c.938.156 1.891.316 2.849.461.554.084 1.114.162 1.666.239h.003c.483.067.959.134 1.425.203l.198 3.152c-.949.205-1.839.341-2.758.481l-.598.091c-1.063.166-2.116.202-3.2.24l-.361.012a41.599 41.599 0 0 1-7.245-.407h-.001l-1.029-.153-.815-1.075c-.951-1.255-1.98-2.51-3.007-3.765l-.652-.797-.003-.003-3.822-4.543-7.559-8.91 5.115-4.443a165.771 165.771 0 0 1 3.026 3.502l.77.909a152.138 152.138 0 0 1 3.822 4.69 340.325 340.325 0 0 1 3.726 4.825Z"/>
  <path fill="#27266A" stroke="#A286FA" stroke-width=".5" d="m186.544 84.498-.001.003a12.945 12.945 0 0 1-14.94 7.926c-6.029-1.524-9.15-7.507-6.972-13.377a12.946 12.946 0 0 1 14.943-7.924 9.912 9.912 0 0 1 6.572 5.077 9.908 9.908 0 0 1 .398 8.295Zm-14.428 6.676.028.006h.013a11.367 11.367 0 0 0 13.062-6.943 8.8 8.8 0 0 0-.354-7.364 8.802 8.802 0 0 0-5.832-4.512h-.001a11.359 11.359 0 0 0-13.108 6.937 8.805 8.805 0 0 0 2.779 10.262 8.795 8.795 0 0 0 3.413 1.614Z"/>
  <path fill="#fff" stroke="#A286FA" stroke-width=".5" d="m167.198 79.714.002-.003a9.927 9.927 0 0 1 11.456-6.061 7.588 7.588 0 0 1 5.343 10.227l-.001.002a9.93 9.93 0 0 1-11.469 6.062 7.584 7.584 0 0 1-5.874-7.022 7.589 7.589 0 0 1 .543-3.205Z" opacity=".3"/>
  <path fill="#fff" stroke="#A286FA" stroke-width=".5" d="m167.197 79.712.006-.014.003-.014.022-.086 11.348-6.001.07.016a7.828 7.828 0 0 1 4.252 2.713l-15.921 8.42a7.857 7.857 0 0 1 .22-5.034Zm1.212 7.681a7.009 7.009 0 0 1-.808-1.168l16.167-8.552c.209.425.374.87.495 1.328l-15.854 8.392Z" opacity=".5"/>
  <path fill="#27266A" stroke="#A286FA" stroke-width=".5" d="m172.235 93.616-1.964-.497-.004-.001a.242.242 0 0 1-.094-.045l-.146.187.146-.187a.238.238 0 0 1-.095-.182.244.244 0 0 1 .016-.104l.003-.006a.372.372 0 0 1 .442-.234h.001l1.963.497.004.001a.255.255 0 0 1 .162.126.255.255 0 0 1 .028.101.261.261 0 0 1-.017.104l-.003.006a.372.372 0 0 1-.442.234Z"/>
  <path fill="#27266A" stroke="#A286FA" stroke-width=".5" d="m171.609 92.7.012.005.012.005a.73.73 0 0 1 .293.168c.052.052.054.082.054.085a27.39 27.39 0 0 1-.504 2.527c-.204.84-.433 1.661-.68 2.471-.248.811-.52 1.648-.805 2.478-.052.15-.096.307-.138.454l-.052.185c-.06.203-.124.391-.215.566-.174.336-.462.654-1.078.909-.18.055-.37.069-.556.04l-.039.247.039-.247a1.254 1.254 0 0 1-.523-.211.671.671 0 0 1-.113-.113c-.324-.473-.331-.846-.239-1.201.049-.189.127-.375.214-.578l.012-.029c.082-.19.17-.397.231-.612.173-.61.444-1.188.726-1.788.091-.196.184-.393.275-.595.36-.802.724-1.598 1.125-2.382.397-.776.81-1.546 1.281-2.298a.637.637 0 0 1 .668-.086Z"/>
  <path fill="#FFE3D3" stroke="#A286FA" stroke-width=".5" d="M165.622 100.239c.072-.009.137-.016.192-.021l.639 4.916-3.04-.27-1.131-2.95c.624-.803 1.528-1.233 2.307-1.461a6.6 6.6 0 0 1 1.033-.214Zm.676.008 3.69.577 1.043 3.136-4.105 1.133-.628-4.846Z"/>
  <path fill="#4A3AFF" stroke="#A286FA" stroke-width=".5" d="m148.073 89.365.335.415-8.312 8.139-.232-.221c-.258-.248-.624-.61-1.058-1.065a37.669 37.669 0 0 1-3.088-3.657c-1.082-1.472-2.099-3.132-2.733-4.807-.634-1.677-.875-3.347-.438-4.855.717-2.457 2.143-3.804 4.001-3.825 1.897-.022 4.361 1.326 7.153 4.576a232.71 232.71 0 0 1 3.174 3.823c.481.59.9 1.108 1.198 1.477Z"/>
  <g opacity=".72">
    <mask id="e" fill="#fff">
      <path fill-rule="evenodd" d="M142.036 96.367c-.063 5.939-.611 13.914-2.048 24.567h-25.48c-.038-.87.053-2.492.177-4.692.276-4.882.712-12.609.24-21.268a95.697 95.697 0 0 1-1.405 2.252l-7.656-8.551s2.702-8.1 7.154-9.144l-.001-.004.155-.03.18-.033a66.34 66.34 0 0 1 8.191-1.012 93.914 93.914 0 0 1 10.832 0 43.39 43.39 0 0 1 4.854.746c.351.073.692.184 1.016.333 1.668.565 3.582 1.97 5.645 4.371 2.001 2.343 4.854 5.898 4.854 5.898l-6.708 6.567Z" clip-rule="evenodd"/>
    </mask>
    <path fill="#fff" fill-rule="evenodd" d="M142.036 96.367c-.063 5.939-.611 13.914-2.048 24.567h-25.48c-.038-.87.053-2.492.177-4.692.276-4.882.712-12.609.24-21.268a95.697 95.697 0 0 1-1.405 2.252l-7.656-8.551s2.702-8.1 7.154-9.144l-.001-.004.155-.03.18-.033a66.34 66.34 0 0 1 8.191-1.012 93.914 93.914 0 0 1 10.832 0 43.39 43.39 0 0 1 4.854.746c.351.073.692.184 1.016.333 1.668.565 3.582 1.97 5.645 4.371 2.001 2.343 4.854 5.898 4.854 5.898l-6.708 6.567Z" clip-rule="evenodd"/>
    <path fill="#A286FA" d="M139.988 120.934v.5h.437l.058-.433-.495-.067Zm2.048-24.567-.35-.357-.148.145-.002.207.5.005Zm-27.528 24.567-.499.023.021.477h.478v-.5Zm.177-4.692-.499-.028.499.028Zm.24-21.268.499-.027-.088-1.619-.839 1.388.428.258Zm-1.405 2.252-.372.334.438.489.355-.553-.421-.27Zm-7.656-8.551-.474-.158-.092.275.194.216.372-.333Zm7.154-9.144.114.487.473-.11-.097-.477-.49.1Zm-.001-.004-.094-.49-.498.094.102.497.49-.1Zm.155-.03.094.492.006-.002-.1-.49Zm.18-.033.085.492.007-.001-.092-.491Zm8.191-1.012-.029-.499h-.001l.03.5Zm10.832 0 .048-.498h-.01l-.009-.001-.029.5Zm4.854.746-.104.489h.003l.101-.49Zm1.016.333-.209.454.024.01.024.01.161-.474Zm5.645 4.371.38-.325h-.001l-.379.325Zm4.854 5.898.349.357.324-.317-.284-.353-.389.313Zm-8.261 31.2c1.44-10.669 1.99-18.664 2.053-24.629l-1-.01c-.063 5.914-.609 13.867-2.044 24.505l.991.134Zm-25.975.433h25.48v-1h-25.48v1Zm-.322-5.22c-.123 2.183-.217 3.84-.177 4.743l.999-.045c-.037-.838.052-2.426.177-4.642l-.999-.056Zm.24-21.213c.47 8.629.036 16.331-.24 21.213l.999.056c.275-4.883.713-12.634.239-21.323l-.998.054Zm-.485 2.495a96.03 96.03 0 0 0 1.412-2.263l-.856-.517c-.455.752-.921 1.5-1.397 2.24l.841.54Zm-8.449-8.488 7.656 8.552.745-.668-7.656-8.55-.745.666Zm7.412-9.963c-1.241.29-2.324 1.063-3.241 2.007-.918.947-1.697 2.095-2.325 3.194a26.82 26.82 0 0 0-1.914 4.172l-.025.072a.176.176 0 0 0-.006.019l-.002.005-.001.002.474.159.475.158.001-.004.005-.016.023-.064.09-.251a25.68 25.68 0 0 1 1.748-3.756c.604-1.056 1.335-2.128 2.175-2.994.842-.868 1.765-1.499 2.751-1.73l-.228-.974Zm-.377.583.001.004.98-.201-.001-.004-.98.2Zm.551-.621-.155.03.188.981.155-.03-.188-.981Zm.189-.036c-.065.011-.13.023-.196.037l.201.98c.055-.012.111-.022.165-.032l-.17-.985Zm8.246-1.018c-2.77.168-5.526.508-8.253 1.02l.184.982a65.895 65.895 0 0 1 8.13-1.004l-.061-.998Zm10.891 0a94.424 94.424 0 0 0-10.89 0l.058.998a93.449 93.449 0 0 1 10.774 0l.058-.998Zm4.928.756a43.888 43.888 0 0 0-4.909-.755l-.096.996c1.612.155 3.214.4 4.798.737l.207-.978Zm1.121.367a5.26 5.26 0 0 0-1.123-.368l-.202.98c.314.064.619.165.908.297l.417-.909Zm5.816 4.5c-2.092-2.435-4.077-3.913-5.864-4.519l-.321.947c1.549.525 3.393 1.856 5.427 4.224l.758-.652Zm4.475 6.224.389-.313-.002-.003a.064.064 0 0 0-.006-.008l-.024-.03-.094-.117-.351-.435c-.3-.37-.719-.889-1.201-1.48-.964-1.183-2.18-2.66-3.185-3.837l-.76.65a239.577 239.577 0 0 1 3.17 3.818c.481.59.899 1.107 1.198 1.477l.35.434.093.116a.684.684 0 0 1 .024.03l.007.008.001.002h.001l.39-.312Zm-6.358 6.924 6.707-6.567-.699-.715-6.708 6.568.7.714Z" mask="url(#e)"/>
  </g>
  <path fill="#27266A" stroke="#A286FA" stroke-width=".5" d="M128.264 231.299h4.266l-.221 5.186h-4.266l.221-5.186Zm-32.179 1.882 2.199-4.828 4.154.904-2.199 4.823-4.154-.899Z" opacity=".2"/>
  <path fill="#FFE3D3" stroke="#A286FA" stroke-width=".5" d="m123.771 61.702.001-.004a6.192 6.192 0 0 1 3.812-4.68 6.187 6.187 0 0 1 5.984.792h.001c1.906 1.41 2.625 3.788 2.601 6.336-.024 2.546-.789 5.209-1.785 7.106a6.379 6.379 0 0 1-5.175 3.388c-2.061.146-4.153-.746-5.388-2.863-1.508-2.58-1.05-4.93-.285-8.864.076-.388.154-.791.234-1.211Z"/>
  <path fill="#27266A" stroke="#A286FA" stroke-width=".5" d="m131.451 65.473-.22.086.073.225c.471 1.442-.286 3.341-1.733 4.612-1.432 1.257-3.472 1.836-5.496.721-.997-.549-1.811-1.678-2.369-3.105-.557-1.421-.847-3.106-.821-4.718.027-1.614.371-3.132 1.06-4.235.681-1.091 1.696-1.776 3.107-1.766 3.452.025 5.601.553 6.879 1.308 1.26.743 1.68 1.706 1.684 2.67.004.985-.428 1.999-.938 2.802a6.874 6.874 0 0 1-.75.986 3.326 3.326 0 0 1-.306.296.764.764 0 0 1-.17.118Z"/>
  <path fill="#27266A" stroke="#A286FA" stroke-width=".5" d="m133.854 55.49-.069.24.772.222-.509-.62h-.001v-.001l-.003-.004-.014-.018a2.709 2.709 0 0 1-.22-.343c-.123-.228-.226-.502-.216-.754.008-.228.108-.462.459-.649.371-.197 1.024-.338 2.125-.31 1.089.03 1.697.278 2.024.584.319.299.412.69.378 1.115-.033.43-.195.868-.357 1.207a5.115 5.115 0 0 1-.283.515l-.018.028-.004.007-.001.001.331.357h.001l.002-.001.008-.005.034-.02a9.238 9.238 0 0 1 .59-.3c.377-.178.852-.373 1.276-.465.212-.046.397-.063.543-.046.145.016.228.062.276.12.048.058.095.169.08.389s-.091.527-.263.942c-.839 2.026-3.083 2.984-6.189 3.016-3.07.031-6.893-.85-10.766-2.401-.369-.796-.49-1.412-.444-1.885.046-.478.264-.829.612-1.091.357-.269.858-.45 1.467-.555.607-.105 1.303-.132 2.034-.105 1.46.055 3.028.321 4.236.576a36.408 36.408 0 0 1 2.003.483l.028.008.007.002h.002v.001l.069-.24Zm-11.32 2.07a3.32 3.32 0 0 1 .779-.159 2.062 2.062 0 0 1-.411.454.9.9 0 0 0-.453-.158c-.1-.007-.199.002-.296.024a2.59 2.59 0 0 1 .381-.162Z"/>
  <path fill="#FFE3D3" stroke="#A286FA" stroke-width=".5" d="M131.236 67.91a4.328 4.328 0 0 1-.252-2.74c.134-.523.437-.88.766-1.022.314-.136.694-.097 1.06.259.359.348.503.92.487 1.564a4.65 4.65 0 0 1-.402 1.748c-.236.5-.572.763-.854.806-.249.038-.561-.084-.805-.615Z"/>
  <path fill="#6F4EF6" stroke="#A286FA" stroke-width=".5" d="m102.738 233.117-.114.331-8.052-1.761.068-.254.39-1.448a1465.196 1465.196 0 0 0 5.8-22.306c3.278-13.047 6.793-27.962 7.724-35.37h.001c1.003-8.023 2.557-20.871 3.86-31.712.651-5.421 1.24-10.34 1.665-13.904l.504-4.223.137-1.149.022-.18 15.932.042-.019.126-.177 1.179a2150.123 2150.123 0 0 1-2.835 18.31c-1.723 10.805-3.814 23.307-5.295 30.116-1.622 7.445-6.568 23.124-11.115 36.956a1961.093 1961.093 0 0 1-7.965 23.703c-.229.669-.409 1.19-.531 1.544Z"/>
  <path fill="#4A3AFF" stroke="#A286FA" stroke-width=".5" d="m94.628 229.327 9.817 1.777-1.35 2.636-9.147-2.003.68-2.41Z"/>
  <path fill="#27266A" stroke="#A286FA" stroke-width=".5" d="m127.595 134.149.004-.001a1.878 1.878 0 0 1 1.05.077c-1.654 10.763-4.035 25.52-5.8 34.296-.329-5.861-.568-13.661-.099-20.371.26-3.731.738-7.11 1.535-9.627.398-1.258.872-2.288 1.428-3.036.555-.747 1.18-1.198 1.882-1.338Z" opacity=".3"/>
  <path fill="#6F4EF6" stroke="#A286FA" stroke-width=".5" d="m134.13 235.05-.035.335h-7.606l-.002-.301-.01-1.567-.038-5.705c-.034-4.786-.082-11.321-.142-18.319-.118-13.995-.282-29.845-.459-37.251v-.001c-.196-8.082-.783-20.907-1.321-31.709a3970.675 3970.675 0 0 0-.943-18.045l-.063-1.143-.008-.135 16.251-.024.003.157.018 1.155a2643.526 2643.526 0 0 1 .225 18.06c.095 10.718.129 23.246-.113 30.501-.27 7.545-1.724 23.678-3.111 37.934a3233.849 3233.849 0 0 1-2.646 26.058Z"/>
  <path fill="#4A3AFF" stroke="#A286FA" stroke-width=".5" d="m125.836 235.521-.224-2.498 10.006-.342-.029.232c-.041.313-.098.73-.157 1.149l-.165 1.15-.045.309h-9.386Z"/>
  <path stroke="#6F4EF6" d="M200.293 14h-29.694A6.599 6.599 0 0 0 164 20.599v28.36c0 4.997 6.042 7.5 9.575 3.966a5.608 5.608 0 0 1 3.966-1.643h22.752a6.598 6.598 0 0 0 6.598-6.598V20.599A6.598 6.598 0 0 0 200.293 14Zm-27.055 10.227h24.415m-24.415 7.92h24.415m-24.415 7.918h24.415M251.293 1h-29.694A6.599 6.599 0 0 0 215 7.599v28.36c0 4.997 6.042 7.5 9.575 3.966a5.608 5.608 0 0 1 3.966-1.643h22.752a6.598 6.598 0 0 0 6.598-6.598V7.599A6.598 6.598 0 0 0 251.293 1Zm-27.055 10.227h24.415m-24.415 7.919h24.415m-24.415 7.918h24.415"/>
</svg>
