<svg xmlns="http://www.w3.org/2000/svg" width="428" height="249" fill="none" viewBox="0 0 428 249">
  <path fill="#3324D5" d="M351.829 216.459H0v.176h351.829v-.176Zm-125.589 9.809h-23.305v.175h23.305v-.175Zm66.318-1.907h-6.115v.176h6.115v-.176Zm-13.493-3.111h-48.496v.176h48.496v-.176Zm-120.644 4.152h-21.32v.176h21.32v-.176Zm-27.582 0h-13.525v.176h13.525v-.176Zm-60.965-2.968H36.915v.176h32.96v-.176Zm106.039 25.803c75.349 0 136.432-3.566 136.432-7.965s-61.083-7.965-136.432-7.965c-75.35 0-136.433 3.566-136.433 7.965s61.083 7.965 136.433 7.965Z" opacity=".04"/>
  <path fill="#4A3AFF" d="M277.295 19.867H162.707a9.152 9.152 0 0 0-9.152 9.152v115.413a7.667 7.667 0 0 0 7.666 7.667h117.56a7.667 7.667 0 0 0 7.666-7.667V29.019a9.152 9.152 0 0 0-9.152-9.152Z" opacity=".11"/>
  <path fill="#fff" d="M193.94 46.042a5.367 5.367 0 0 1 5.367-5.366h76.577a5.366 5.366 0 0 1 5.366 5.366v97.494c0 .754-.339 1.478-.944 2.012-.604.533-1.424.833-2.278.833h-80.865c-.855 0-1.674-.3-2.279-.833-.604-.534-.944-1.258-.944-2.012V46.042Z"/>
  <path fill="#A286FA" d="M277.295 19.867H162.707a9.152 9.152 0 0 0-9.152 9.152v3.385h132.892V29.02a9.152 9.152 0 0 0-9.152-9.152Z" opacity=".3"/>
  <path fill="#fff" d="M159.64 27.979a1.337 1.337 0 1 0 0-2.675 1.337 1.337 0 0 0 0 2.675Zm7.004-1.337a1.345 1.345 0 0 1-2.292.96 1.344 1.344 0 0 1 .948-2.297 1.339 1.339 0 0 1 1.344 1.337Zm4.315 1.337a1.337 1.337 0 1 0 0-2.675 1.337 1.337 0 0 0 0 2.675Z" opacity=".7"/>
  <path fill="#EDEAFD" d="M266.954 50.928h-58.72a2.315 2.315 0 0 0-2.315 2.315v46.16a2.315 2.315 0 0 0 2.315 2.315h58.72a2.315 2.315 0 0 0 2.315-2.315v-46.16a2.315 2.315 0 0 0-2.315-2.315Z"/>
  <path fill="#FFE3D3" d="m112.83 65.707-5.108 10.717c-1.689 3.575-3.343 7.17-4.813 10.73l-.528 1.33c-.078.205-.099.247-.155.423a4.955 4.955 0 0 0-.141.514 23.26 23.26 0 0 0-.415 2.547c-.197 1.836-.31 3.778-.38 5.728-.141 3.905-.176 7.909-.225 11.87l-3.856.43a101.55 101.55 0 0 1-1.914-12.124 59.31 59.31 0 0 1-.296-6.333c.004-1.144.084-2.287.24-3.42a10.4 10.4 0 0 1 .176-.957c.07-.324.19-.753.267-1.02l.486-1.5c1.315-3.96 2.85-7.74 4.461-11.462a190.53 190.53 0 0 1 5.193-11.012l7.008 3.54Z"/>
  <path fill="#FFE3D3" d="m101.01 108.355 1.801 3.371-5.749 1.604s-1.097-2.709.204-4.841l3.744-.134Zm4.012 8.234-5.292.415-2.666-3.673 5.748-1.604 2.21 4.862Z"/>
  <path fill="#27266A" d="M130.05 37.885c.085.408.366.704.634.64.267-.063.415-.429.337-.837-.077-.408-.365-.704-.633-.64-.267.063-.422.4-.338.837Z"/>
  <path fill="#E8AD8C" d="M130.382 38.588a14.884 14.884 0 0 0 2.66 3.096 2.396 2.396 0 0 1-1.872.767l-.788-3.863Z"/>
  <path fill="#27266A" d="M128.067 35.923a.268.268 0 0 0 .183-.078 1.935 1.935 0 0 1 1.639-.661.246.246 0 0 0 .244-.385.245.245 0 0 0-.159-.1 2.433 2.433 0 0 0-2.111.808.247.247 0 0 0 .042.373.244.244 0 0 0 .134.043h.028Z"/>
  <path fill="#FFE3D3" d="M118.412 43.633c.739 3.778 1.485 10.71-1.161 13.229 0 0 1.034 3.842 8.057 3.842 7.74 0 3.694-3.835 3.694-3.835-4.222-1.014-4.109-4.138-3.378-7.08l-7.212-6.156Z"/>
  <path fill="#4A3AFF" d="M115.491 58.207c-.612-1.098-1.295-2.35.112-2.738 1.541-.436 10.006-.872 12.927-.063 2.92.81 2.111 3.026 2.111 3.026l-15.15-.225Z"/>
  <path fill="#fff" d="M115.491 58.207c-.612-1.098-1.295-2.35.112-2.738 1.541-.436 10.006-.872 12.927-.063 2.92.81 2.111 3.026 2.111 3.026l-15.15-.225Z" opacity=".6"/>
  <path fill="#4A3AFF" d="M93.665 229.815c.435.102.893.029 1.274-.204a.515.515 0 0 0 .056-.584.578.578 0 0 0-.352-.324c-.703-.26-2.251.563-2.322.598a.12.12 0 0 0-.063.113.117.117 0 0 0 .084.105c.43.142.874.241 1.323.296Zm.753-.915.148.035a.33.33 0 0 1 .204.19c.092.211 0 .289 0 .317-.253.26-1.302.155-2.055-.063a4.019 4.019 0 0 1 1.703-.479Z"/>
  <path fill="#4A3AFF" d="M92.368 229.547a.078.078 0 0 0 .056 0c.563-.232 1.717-1.245 1.668-1.829a.392.392 0 0 0-.352-.359.638.638 0 0 0-.535.098c-.647.423-.936 1.893-.943 1.956a.118.118 0 0 0 .006.062c.008.02.02.038.037.051a.084.084 0 0 0 .029.018.079.079 0 0 0 .034.003Zm1.175-1.808h.05c.154.049.154.119.154.155 0 .344-.802 1.069-1.407 1.365a2.907 2.907 0 0 1 .894-1.478.403.403 0 0 1 .31-.063v.021ZM131 234.74c.662 0 1.302-.092 1.513-.395a.45.45 0 0 0 0-.534.635.635 0 0 0-.387-.289c-.858-.232-2.667.802-2.744.845a.118.118 0 0 0-.079.112c0 .025.007.049.022.069.014.02.034.035.057.044a9.445 9.445 0 0 0 1.618.148Zm.817-1.007a.87.87 0 0 1 .239 0 .364.364 0 0 1 .239.169c.085.155.056.232 0 .275-.239.33-1.548.337-2.505.204a5.495 5.495 0 0 1 2.027-.613v-.035Z"/>
  <path fill="#4A3AFF" d="M129.474 234.593c.62-.282 1.858-1.408 1.767-1.985 0-.133-.12-.309-.458-.344a.941.941 0 0 0-.703.211c-.655.542-.796 1.935-.803 1.991 0 .021.004.043.012.062.009.02.022.037.038.051a.163.163 0 0 0 .147.014Zm1.26-2.111h.07c.226 0 .24.112.24.141.056.344-.781 1.224-1.408 1.611a2.923 2.923 0 0 1 .704-1.597.691.691 0 0 1 .359-.141l.035-.014Z"/>
  <path fill="#FFE3D3" d="M123.753 234.473h5.172l.513-11.969h-5.171l-.514 11.969Zm-37.259-5.707 5.137.556 3.877-11.618-5.137-.556-3.877 11.618Z"/>
  <path fill="#27266A" d="m92.06 228.765-5.77-.626a.461.461 0 0 0-.479.303l-1.505 4.461a.753.753 0 0 0 .647.992c2.02.19 3.012.176 5.552.45 1.562.169 4.764.704 6.924.915 2.16.211 2.667-1.865 1.808-2.153-3.87-1.295-5.228-2.653-6.375-3.933a1.282 1.282 0 0 0-.802-.409Zm36.828 5.11h-5.629a.443.443 0 0 0-.436.352l-1.021 4.595a.762.762 0 0 0 .147.64.76.76 0 0 0 .592.282c2.041-.036 4.982-.155 7.543-.155 2.991 0 5.573.162 9.085.162 2.111 0 2.709-2.147 1.822-2.344-4.046-.879-7.346-.978-10.836-3.131a2.424 2.424 0 0 0-1.267-.401Z"/>
  <path fill="#FFE3D3" d="M136.593 59.508c1.464.458 3.103.957 4.673 1.408 1.569.45 3.18.837 4.777 1.182a55.792 55.792 0 0 0 9.465 1.386c.76 0 1.513.05 2.237 0h.444c.091 0 .246 0 .373-.035.281-.042.605-.113.942-.197a35.401 35.401 0 0 0 4.398-1.527c3.026-1.239 6.129-2.688 9.197-4.088l2.146 3.23a61.081 61.081 0 0 1-8.57 6.332 32.212 32.212 0 0 1-5.046 2.562c-.5.199-1.013.368-1.533.506-.296.07-.563.141-.894.197l-.472.078-.366.042a29.24 29.24 0 0 1-2.906.204 52.98 52.98 0 0 1-10.984-1.055c-1.766-.352-3.518-.704-5.242-1.21-1.724-.507-3.399-.95-5.193-1.598l2.554-7.416Z"/>
  <path fill="#4A3AFF" d="M107.991 58.037c-4.842 1.105-9.739 15.277-9.739 15.277l9.971 7.149s2.814-6.593 5.523-12.363c2.871-6.024-.802-11.202-5.755-10.063Z"/>
  <path fill="#fff" d="M107.991 58.037c-4.842 1.105-9.739 15.277-9.739 15.277l9.971 7.149s2.814-6.593 5.523-12.363c2.871-6.024-.802-11.202-5.755-10.063Z" opacity=".78"/>
  <path fill="#4A3AFF" d="M136.954 58.299s5.502 6.22.302 44.682H109.61c-.19-4.222 2.476-24.945-1.619-44.943a71.712 71.712 0 0 1 9.26-1.175c3.914-.229 7.838-.229 11.751 0 2.684.272 5.342.752 7.952 1.436Z"/>
  <path fill="#fff" d="M136.954 58.299s5.502 6.22.302 44.682H109.61c-.19-4.222 2.476-24.945-1.619-44.943a71.712 71.712 0 0 1 9.26-1.175c3.914-.229 7.838-.229 11.751 0 2.684.272 5.342.752 7.952 1.436Z" opacity=".78"/>
  <path fill="#27266A" d="M136.953 58.298s-.619-.17-1.625-.401c-3.04.316-4.518 3.813-3.702 7.444.606 2.702 4.532 6.396 7.867 9.148-.077-13.405-2.54-16.191-2.54-16.191Z" opacity=".3"/>
  <path fill="#4A3AFF" d="M130.177 66.236c2.47 4.278 15.973 8.444 15.973 8.444l4.532-12.145s-7.74-2.111-13.743-4.222c-7.423-2.667-9.457 3.222-6.762 7.923Z"/>
  <path fill="#fff" d="M130.177 66.236c2.47 4.278 15.973 8.444 15.973 8.444l4.532-12.145s-7.74-2.111-13.743-4.222c-7.423-2.667-9.457 3.222-6.762 7.923Z" opacity=".78"/>
  <path fill="#FFE3D3" d="m172.221 58.81.858-5.382 4.771 1.365s.704 4.792-2.772 6.206l-2.857-2.188Z"/>
  <path fill="#FFE3D3" d="m175.134 48.68 4.025 3.384-1.309 2.73-4.771-1.365 2.055-4.75Z"/>
  <path fill="#27266A" d="m129.431 222.504-.26 6.171h-5.172l.26-6.171h5.172Zm-39.061-5.356 5.137.563-1.998 5.988-5.144-.562 2.006-5.989Z" opacity=".2"/>
  <path fill="#FFE3D3" d="M116.246 39.785c1.329 4.961 1.857 7.93 4.925 9.985 4.602 3.103 10.33-.457 10.506-5.706.162-4.729-2.034-12.04-7.353-13.04a7.04 7.04 0 0 0-6.46 2.149 7.028 7.028 0 0 0-1.618 6.612Z"/>
  <path fill="#27266A" d="M127.904 24.881a2.245 2.245 0 0 1-.999 1.66c-.232-2.603-1.266-5.108-3.581-6.332.38 1.105-.704 2.857-2.294 4.644a4.926 4.926 0 0 0-2.463-3.075c-1.056 4.088-4.433 4.764-7.114 7.283a4.06 4.06 0 0 0-.894 4.475c-.703-.316-1.541-.239-2.146 1.337a3.88 3.88 0 0 1 1.935-.598c-.478.45-.851 1.232-.577 2.99.479 2.977 6.593 11.822 10.456 11.379 4.222-.486 4.996-5.376 5.095-9.788l.162-.084c2.927-1.556 6.544-9.873 2.42-13.89Z"/>
  <path fill="#FFE3D3" d="M123.315 39.87a5.823 5.823 0 0 0 2.547 2.716c1.492.774 2.323-.36 1.992-1.844-.303-1.344-1.407-3.356-2.977-3.518-1.569-.162-2.181 1.238-1.562 2.646Z"/>
  <path fill="#6F4EF6" d="M127.454 102.98s-5.869 39.504-9.091 54.309c-3.519 16.184-22.074 65.827-22.074 65.827l-9.31-1.71s13.863-46.603 15.875-62.625c2.188-17.416 6.755-55.772 6.755-55.772l17.845-.029Z"/>
  <path fill="#27266A" d="M123.747 117.054c-6.783 1.329-6.065 26.626-5.249 39.637 1.956-9.197 4.82-26.894 6.776-39.455a2.315 2.315 0 0 0-1.527-.182Z" opacity=".2"/>
  <path fill="#6F4EF6" d="M137.256 102.98s.704 38.652.155 54.414c-.584 16.396-6.333 70.085-6.333 70.085h-8.739s-.324-52.733-.704-68.832c-.422-17.556-2.547-55.667-2.547-55.667h18.168Z"/>
  <path fill="#27266A" d="m129.621 221.138-.38-.042c1.541-14.854 5.186-50.797 5.629-63.681.472-13.201.043-42.698-.098-51.424l.38-.042c.141 8.726.57 38.237.098 51.459-.443 12.905-4.088 48.869-5.629 63.73Z" opacity=".2"/>
  <path fill="#4A3AFF" d="M98.406 219.964c.043 0-1.618 3.399-1.618 3.399l-10.477-1.928.78-3.16 11.315 1.689Z"/>
  <path fill="#27266A" d="M98.406 219.964c.043 0-1.618 3.399-1.618 3.399l-10.477-1.928.78-3.16 11.315 1.689Z" opacity=".5"/>
  <path fill="#4A3AFF" d="M132.781 223.988c.042 0-.492 3.638-.492 3.638h-10.654l-.288-3.244 11.434-.394Z"/>
  <path fill="#27266A" d="M132.781 223.988c.042 0-.492 3.638-.492 3.638h-10.654l-.288-3.244 11.434-.394Z" opacity=".5"/>
  <path fill="#6F4EF6" d="M418.649.39H309.84a9.35 9.35 0 0 0-9.35 9.35v221.924a9.35 9.35 0 0 0 9.35 9.35h108.809a9.35 9.35 0 0 0 9.35-9.35V9.741a9.35 9.35 0 0 0-9.35-9.35Z"/>
  <path fill="#fff" d="M418.649.39H309.84a9.35 9.35 0 0 0-9.35 9.35v221.924a9.35 9.35 0 0 0 9.35 9.35h108.809a9.35 9.35 0 0 0 9.35-9.35V9.741a9.35 9.35 0 0 0-9.35-9.35Z" opacity=".82"/>
  <path fill="#fff" d="M423.759 231.664V9.734a5.747 5.747 0 0 0-5.747-5.748h-108.81a5.747 5.747 0 0 0-5.747 5.747v221.931a5.748 5.748 0 0 0 5.747 5.748h108.81a5.748 5.748 0 0 0 5.747-5.748Z"/>
  <path fill="#6F4EF6" d="M363.615 228.502a6.504 6.504 0 1 0 0-13.008 6.504 6.504 0 0 0 0 13.008ZM358.64 3.332a5.368 5.368 0 1 0 10.737 0H358.64Z"/>
  <path fill="#8ADBFD" d="M358.64 3.332a5.368 5.368 0 1 0 10.737 0H358.64Z" opacity=".82"/>
  <path fill="#E0F4FD" d="M399.114 26.627H328.95a10.833 10.833 0 0 0-10.801 10.8v7.206a10.834 10.834 0 0 0 10.801 10.8h70.164l10.8 6.402v-24.44a10.838 10.838 0 0 0-10.8-10.769Z" opacity=".5"/>
  <path fill="#fff" d="M397.159 36.947h-66.293v1.798h66.293v-1.798Zm.001 6.369h-53.538v1.798h53.538v-1.798Z"/>
  <path fill="#E0F4FD" d="M328.91 74.592h70.164a10.833 10.833 0 0 1 10.8 10.8v7.198a10.833 10.833 0 0 1-10.8 10.801H328.91l-10.801 6.401v-24.44a10.827 10.827 0 0 1 10.801-10.76Z" opacity=".5"/>
  <path fill="#4A3AFF" d="M397.159 84.902h-66.293V86.7h66.293v-1.798Zm-35.547 6.379h-30.746v1.798h30.746V91.28Zm17.304 0h-12.503v1.798h12.503V91.28Z" opacity=".2"/>
  <path fill="#E0F4FD" d="M399.114 122.547H328.95a10.834 10.834 0 0 0-10.801 10.8v7.198a10.827 10.827 0 0 0 10.801 10.801h70.164l10.8 6.401v-24.439a10.837 10.837 0 0 0-10.8-10.761Z" opacity=".5"/>
  <path fill="#fff" d="M397.159 132.859h-66.293v1.798h66.293v-1.798Zm.001 6.377h-53.538v1.798h53.538v-1.798Z"/>
  <path fill="#E0F4FD" d="M328.91 170.502h27.301a10.838 10.838 0 0 1 10.8 10.8v7.206a10.838 10.838 0 0 1-10.8 10.801H328.91l-10.801 6.393v-24.4a10.832 10.832 0 0 1 10.801-10.8Z" opacity=".5"/>
  <path fill="#8ADBFD" d="M334.381 184.905a3.155 3.155 0 0 1-3.769 3.093 3.15 3.15 0 0 1-2.477-2.477 3.156 3.156 0 0 1 1.341-3.238 3.155 3.155 0 0 1 1.752-.531 3.192 3.192 0 0 1 3.153 3.153Zm6.378.639a3.193 3.193 0 1 0 0-6.386 3.193 3.193 0 0 0 0 6.386Zm12.756 3.186a3.153 3.153 0 1 1-6.306-.001 3.153 3.153 0 0 1 6.306.001Z"/>
  <path fill="#EDEAFD" d="M88.469 14A12.468 12.468 0 0 1 76 26.469a12.468 12.468 0 0 1 12.469 12.468 12.468 12.468 0 0 1 12.469-12.468A12.469 12.469 0 0 1 88.468 14Z"/>
  <path fill="#6F4EF6" d="M70.469 5A12.468 12.468 0 0 1 58 17.469a12.468 12.468 0 0 1 12.469 12.468A12.468 12.468 0 0 1 82.938 17.47 12.468 12.468 0 0 1 70.468 5Z"/>
</svg>
