<svg xmlns="http://www.w3.org/2000/svg" width="105" height="101" fill="none" viewBox="0 0 105 101">
  <rect width="104.622" height="101" fill="#fff" fill-opacity=".15" rx="9.352"/>
  <rect width="87.912" height="88.993" x="8.719" y="5.651" fill="#fff" rx="9.352"/>
  <rect width="37.212" height="5.364" x="18.606" y="16.956" fill="#DCDDEB" rx="2.682"/>
  <path stroke="#EDEAFD" stroke-linecap="round" stroke-width="9.352" d="M45.914 77.681a22.197 22.197 0 0 1-8.319-4.7 21.818 21.818 0 0 1-5.513-7.712 21.548 21.548 0 0 1 .736-18.388"/>
  <path stroke="#6F4EF5" stroke-linecap="round" stroke-width="9.352" d="M31.8 49.14a21.901 21.901 0 0 1 9.8-11.272A22.385 22.385 0 0 1 56.483 35.4a22.185 22.185 0 0 1 13.014 7.509 21.631 21.631 0 0 1 5.11 13.945"/>
  <path stroke="#A286FA" stroke-linecap="round" stroke-width="9.352" d="M74.607 56.854c0 3.913-1.067 7.756-3.093 11.126a21.985 21.985 0 0 1-8.436 8.025 22.37 22.37 0 0 1-11.434 2.647 22.334 22.334 0 0 1-11.193-3.498"/>
</svg>
